<svg width="16" height="16" viewBox="0 0 16 16" fill="none" xmlns="http://www.w3.org/2000/svg">
<path d="M14.25 13.5C14.25 13.6989 14.171 13.8897 14.0303 14.0303C13.8897 14.171 13.6989 14.25 13.5 14.25H2.5C2.30109 14.25 2.11032 14.171 1.96967 14.0303C1.82902 13.8897 1.75 13.6989 1.75 13.5C1.75 13.3011 1.82902 13.1103 1.96967 12.9697C2.11032 12.829 2.30109 12.75 2.5 12.75H13.5C13.6989 12.75 13.8897 12.829 14.0303 12.9697C14.171 13.1103 14.25 13.3011 14.25 13.5ZM5 11.25C5.09852 11.2501 5.19609 11.2307 5.28714 11.1931C5.37818 11.1555 5.46092 11.1003 5.53062 11.0306L11.25 5.3125V9.5C11.25 9.69891 11.329 9.88968 11.4697 10.0303C11.6103 10.171 11.8011 10.25 12 10.25C12.1989 10.25 12.3897 10.171 12.5303 10.0303C12.671 9.88968 12.75 9.69891 12.75 9.5V3.5C12.75 3.30109 12.671 3.11032 12.5303 2.96967C12.3897 2.82902 12.1989 2.75 12 2.75H6C5.80109 2.75 5.61032 2.82902 5.46967 2.96967C5.32902 3.11032 5.25 3.30109 5.25 3.5C5.25 3.69891 5.32902 3.88968 5.46967 4.03033C5.61032 4.17098 5.80109 4.25 6 4.25H10.1875L4.46938 9.96937C4.36437 10.0743 4.29284 10.208 4.26385 10.3535C4.23487 10.4991 4.24972 10.65 4.30653 10.7871C4.36335 10.9242 4.45957 11.0414 4.58301 11.1238C4.70646 11.2062 4.85158 11.2501 5 11.25Z" fill="#EEEDEE"/>
</svg>
