<svg width="16" height="16" viewBox="0 0 16 16" fill="none" xmlns="http://www.w3.org/2000/svg">
<path d="M4.4694 7.4694L9.4694 2.4694C9.6103 2.32851 9.80139 2.24935 10.0007 2.24935C10.1999 2.24935 10.391 2.32851 10.5319 2.4694C10.6728 2.6103 10.752 2.80139 10.752 3.00065C10.752 3.19991 10.6728 3.39101 10.5319 3.5319L6.06253 8.00003L10.5307 12.4694C10.6004 12.5392 10.6558 12.622 10.6935 12.7131C10.7313 12.8043 10.7507 12.902 10.7507 13.0007C10.7507 13.0993 10.7313 13.197 10.6935 13.2882C10.6558 13.3793 10.6004 13.4621 10.5307 13.5319C10.4609 13.6017 10.3781 13.657 10.2869 13.6948C10.1958 13.7325 10.0981 13.752 9.9994 13.752C9.90074 13.752 9.80304 13.7325 9.71189 13.6948C9.62074 13.657 9.53792 13.6017 9.46815 13.5319L4.46815 8.5319C4.39831 8.46214 4.34293 8.37928 4.30519 8.28807C4.26744 8.19687 4.24807 8.0991 4.24819 8.00039C4.2483 7.90168 4.2679 7.80397 4.30586 7.71285C4.34382 7.62173 4.3994 7.539 4.4694 7.4694Z" fill="white" fill-opacity="0.1"/>
</svg>
