<svg width="16" height="17" viewBox="0 0 16 17" fill="none" xmlns="http://www.w3.org/2000/svg">
<path d="M4.47996 6.57641L2.17121 8.50016L4.47996 10.4239C4.55653 10.4867 4.61992 10.5639 4.66647 10.6513C4.71302 10.7387 4.74182 10.8344 4.7512 10.933C4.76057 11.0315 4.75035 11.1309 4.72111 11.2255C4.69187 11.3201 4.6442 11.4079 4.58084 11.484C4.51748 11.5601 4.43969 11.6228 4.35195 11.6687C4.26421 11.7146 4.16827 11.7426 4.06964 11.7512C3.97102 11.7598 3.87167 11.7487 3.77733 11.7187C3.68299 11.6888 3.59552 11.6404 3.51996 11.5764L0.519963 9.07641C0.43547 9.00603 0.367489 8.91792 0.320836 8.81834C0.274183 8.71876 0.25 8.61013 0.25 8.50016C0.25 8.39019 0.274183 8.28157 0.320836 8.18199C0.367489 8.0824 0.43547 7.9943 0.519963 7.92391L3.51996 5.42391C3.67301 5.29849 3.86942 5.23863 4.0664 5.25737C4.26339 5.27612 4.44498 5.37195 4.57162 5.52398C4.69827 5.67602 4.7597 5.87195 4.74253 6.06907C4.72536 6.2662 4.63098 6.44856 4.47996 6.57641ZM15.48 7.92391L12.48 5.42391C12.4044 5.35995 12.3169 5.31157 12.2226 5.28158C12.1283 5.25158 12.0289 5.24056 11.9303 5.24915C11.8317 5.25774 11.7357 5.28577 11.648 5.33162C11.5602 5.37748 11.4824 5.44025 11.4191 5.51631C11.3557 5.59237 11.3081 5.68023 11.2788 5.77481C11.2496 5.86939 11.2394 5.96882 11.2487 6.06737C11.2581 6.16592 11.2869 6.26164 11.3335 6.34901C11.38 6.43638 11.4434 6.51366 11.52 6.57641L13.8287 8.50016L11.52 10.4239C11.4434 10.4867 11.38 10.5639 11.3335 10.6513C11.2869 10.7387 11.2581 10.8344 11.2487 10.933C11.2394 11.0315 11.2496 11.1309 11.2788 11.2255C11.3081 11.3201 11.3557 11.4079 11.4191 11.484C11.4824 11.5601 11.5602 11.6228 11.648 11.6687C11.7357 11.7146 11.8317 11.7426 11.9303 11.7512C12.0289 11.7598 12.1283 11.7487 12.2226 11.7187C12.3169 11.6888 12.4044 11.6404 12.48 11.5764L15.48 9.07641C15.5645 9.00603 15.6324 8.91792 15.6791 8.81834C15.7257 8.71876 15.7499 8.61013 15.7499 8.50016C15.7499 8.39019 15.7257 8.28157 15.6791 8.18199C15.6324 8.0824 15.5645 7.9943 15.48 7.92391ZM10.2562 2.29516C10.1636 2.26149 10.0653 2.24639 9.96691 2.25073C9.86849 2.25506 9.77189 2.27874 9.68263 2.32041C9.59336 2.36208 9.51318 2.42093 9.44667 2.4936C9.38015 2.56626 9.3286 2.65132 9.29496 2.74391L5.29496 13.7439C5.22716 13.9308 5.23634 14.137 5.32049 14.3171C5.40464 14.4972 5.55686 14.6366 5.74371 14.7045C5.82575 14.7348 5.91252 14.7503 5.99996 14.7502C6.15395 14.7502 6.30421 14.7028 6.43034 14.6145C6.55647 14.5261 6.65235 14.4011 6.70496 14.2564L10.705 3.25641C10.7386 3.16383 10.7537 3.06552 10.7494 2.96711C10.7451 2.86869 10.7214 2.77209 10.6797 2.68283C10.638 2.59356 10.5792 2.51338 10.5065 2.44686C10.4339 2.38035 10.3488 2.3288 10.2562 2.29516Z" fill="#EEEDEE"/>
</svg>
