<svg width="24" height="24" viewBox="0 0 24 24" fill="none" xmlns="http://www.w3.org/2000/svg">
<path d="M12 1.125C9.51443 1.12773 7.13145 2.11633 5.37389 3.87389C3.61633 5.63145 2.62773 8.01443 2.625 10.5C2.625 12.8306 3.83063 15.825 5.85094 18.51C6.62156 19.5338 9.34125 22.875 12 22.875C14.6588 22.875 17.3784 19.5338 18.1491 18.51C20.1694 15.825 21.375 12.8306 21.375 10.5C21.3723 8.01443 20.3837 5.63145 18.6261 3.87389C16.8685 2.11633 14.4856 1.12773 12 1.125ZM16.3509 17.1562C15.0544 18.8794 13.1438 20.625 12 20.625C10.8562 20.625 8.94562 18.8803 7.64906 17.1562C5.93812 14.8828 4.875 12.3319 4.875 10.5C4.875 8.61033 5.62567 6.79806 6.96186 5.46186C8.29806 4.12567 10.1103 3.375 12 3.375C13.8897 3.375 15.7019 4.12567 17.0381 5.46186C18.3743 6.79806 19.125 8.61033 19.125 10.5C19.125 12.3319 18.0619 14.8828 16.3509 17.1562ZM9.75 13.875C8.85489 13.875 7.99645 13.5194 7.36351 12.8865C6.73058 12.2535 6.375 11.3951 6.375 10.5C6.375 10.2016 6.49353 9.91548 6.7045 9.7045C6.91548 9.49353 7.20163 9.375 7.5 9.375C8.39511 9.375 9.25355 9.73058 9.88649 10.3635C10.5194 10.9965 10.875 11.8549 10.875 12.75C10.875 13.0484 10.7565 13.3345 10.5455 13.5455C10.3345 13.7565 10.0484 13.875 9.75 13.875ZM17.625 10.5C17.625 11.3951 17.2694 12.2535 16.6365 12.8865C16.0035 13.5194 15.1451 13.875 14.25 13.875C13.9516 13.875 13.6655 13.7565 13.4545 13.5455C13.2435 13.3345 13.125 13.0484 13.125 12.75C13.125 11.8549 13.4806 10.9965 14.1135 10.3635C14.7465 9.73058 15.6049 9.375 16.5 9.375C16.7984 9.375 17.0845 9.49353 17.2955 9.7045C17.5065 9.91548 17.625 10.2016 17.625 10.5ZM14.25 17.25C14.25 17.5484 14.1315 17.8345 13.9205 18.0455C13.7095 18.2565 13.4234 18.375 13.125 18.375H10.875C10.5766 18.375 10.2905 18.2565 10.0795 18.0455C9.86853 17.8345 9.75 17.5484 9.75 17.25C9.75 16.9516 9.86853 16.6655 10.0795 16.4545C10.2905 16.2435 10.5766 16.125 10.875 16.125H13.125C13.4234 16.125 13.7095 16.2435 13.9205 16.4545C14.1315 16.6655 14.25 16.9516 14.25 17.25Z" fill="white" fill-opacity="0.3"/>
</svg>
