<svg width="12" height="13" viewBox="0 0 12 13" fill="none" xmlns="http://www.w3.org/2000/svg">
<g clip-path="url(#clip0_14489_11495)">
<path d="M9.69356 5.12696C9.67176 5.08848 9.64014 5.05648 9.60193 5.03421C9.56372 5.01194 9.52029 5.00021 9.47606 5.00021H6.20106L6.75013 0.805021C6.75602 0.748875 6.74284 0.69238 6.71272 0.644632C6.6826 0.596884 6.63729 0.560662 6.58408 0.541797C6.53087 0.522932 6.47286 0.522523 6.41939 0.540636C6.36592 0.558748 6.3201 0.594327 6.28931 0.641646L2.30656 7.61927C2.28327 7.65715 2.27051 7.70056 2.26959 7.74502C2.26866 7.78947 2.27961 7.83337 2.30131 7.87219C2.32301 7.91101 2.35466 7.94333 2.39302 7.96583C2.43137 7.98834 2.47503 8.0002 2.5195 8.00021H5.74556L5.31044 12.2017C5.30616 12.2577 5.32072 12.3134 5.3518 12.3602C5.38288 12.4069 5.42869 12.4419 5.48195 12.4596C5.5352 12.4772 5.59284 12.4766 5.6457 12.4578C5.69855 12.4389 5.74358 12.4029 5.77363 12.3555L9.69056 5.37865C9.71328 5.34071 9.72552 5.29742 9.72605 5.25321C9.72658 5.20899 9.71537 5.16543 9.69356 5.12696Z" fill="#8800F0"/>
</g>
<defs>
<clipPath id="clip0_14489_11495">
<rect width="12" height="12" fill="white" transform="translate(0 0.5)"/>
</clipPath>
</defs>
</svg>
