<svg width="21" height="14" viewBox="0 0 21 14" fill="none" xmlns="http://www.w3.org/2000/svg">
<g clip-path="url(#clip0_14489_10819)">
<path d="M20.2567 14H0.946406C0.755976 14 0.601562 13.835 0.601562 13.6316V0.368437C0.601562 0.164979 0.755976 0 0.946406 0H20.2567C20.4471 0 20.6016 0.164979 20.6016 0.368437V13.6316C20.6015 13.8351 20.4471 14 20.2567 14Z" fill="#41479B"/>
<path d="M10.2567 0H9.6577L6.46357 2.23592V0H4.73944V2.23592L1.54531 0H0.946405C0.755976 0 0.601562 0.164937 0.601562 0.368397V0.660627L3.34198 2.5789H0.601562V4.42101H3.34198L0.601562 6.33933V6.63156C0.601562 6.83502 0.755976 7 0.946405 7H1.54539L4.73951 4.76408V7H6.46365V4.76408L9.65774 7H10.2567C10.4471 7 10.6016 6.83502 10.6016 6.63156V6.33933L7.86114 4.42105H10.6015V2.57895H7.8611L10.6015 0.660669V0.368439C10.6015 0.164938 10.4471 0 10.2567 0Z" fill="#F5F5F5"/>
<path d="M10.6015 2.94737H6.11878V0H5.08433V2.94737H0.601562V4.0526H5.08433V6.99998H6.11878V4.0526H10.6015V2.94737Z" fill="#FF4B55"/>
<path d="M4.39464 2.57966L0.765898 0.0629883C0.669336 0.128262 0.601562 0.237984 0.601562 0.369115V0.38823L3.76128 2.57966H4.39464Z" fill="#FF4B55"/>
<path d="M7.0982 2.57894L10.5503 0.184761C10.4903 0.0762919 10.3844 0 10.2579 0H10.1834L6.46484 2.57894H7.0982Z" fill="#FF4B55"/>
<path d="M4.09785 4.42139L0.652344 6.81097C0.711758 6.92207 0.819258 7.00032 0.947617 7.00032H1.01266L4.73124 4.42139H4.09785Z" fill="#FF4B55"/>
<path d="M10.5969 6.66081L7.36773 4.42139H6.73438L10.4013 6.96452C10.5112 6.91005 10.5865 6.79591 10.5969 6.66081Z" fill="#FF4B55"/>
<path d="M5.70695 9.00895L5.96722 9.92699L6.80132 9.57204C6.8725 9.54174 6.93718 9.62846 6.89375 9.69582L6.38422 10.4856L7.16398 10.961C7.2305 11.0016 7.20742 11.1097 7.13101 11.1154L6.23535 11.1822L6.37367 12.13C6.38547 12.2109 6.29195 12.259 6.24015 12.1987L5.63281 11.4922L5.02547 12.1987C4.97367 12.259 4.88016 12.2109 4.89195 12.13L5.03027 11.1822L4.13461 11.1154C4.0582 11.1097 4.03512 11.0016 4.10164 10.961L4.88141 10.4856L4.37188 9.69582C4.32844 9.62846 4.39313 9.54174 4.4643 9.57204L5.2984 9.92699L5.55867 9.00895C5.58098 8.93061 5.68476 8.93061 5.70695 9.00895Z" fill="#F5F5F5"/>
<path d="M15.9636 2.48134L16.0907 2.92978L16.4981 2.75642C16.5329 2.74164 16.5645 2.78396 16.5433 2.81689L16.2944 3.20273L16.6753 3.43499C16.7078 3.45477 16.6965 3.50761 16.6592 3.51036L16.2217 3.543L16.2892 4.00597C16.295 4.04549 16.2493 4.06899 16.224 4.03952L15.9273 3.69441L15.6306 4.03952C15.6053 4.06894 15.5596 4.04545 15.5654 4.00597L15.6329 3.543L15.1954 3.51036C15.1581 3.50761 15.1468 3.45477 15.1793 3.43499L15.5602 3.20273L15.3113 2.81689C15.2901 2.78396 15.3217 2.74164 15.3564 2.75642L15.7638 2.92978L15.891 2.48134C15.902 2.44307 15.9527 2.44307 15.9636 2.48134Z" fill="#F5F5F5"/>
<path d="M13.1315 5.92372L13.2587 6.37217L13.6661 6.1988C13.7008 6.18402 13.7325 6.22634 13.7112 6.25927L13.4624 6.64511L13.8433 6.87737C13.8758 6.89715 13.8645 6.94999 13.8271 6.95274L13.3896 6.98538L13.4572 7.44835C13.4629 7.48787 13.4172 7.51137 13.3919 7.4819L13.0953 7.1368L12.7986 7.4819C12.7733 7.51133 12.7276 7.48783 12.7333 7.44835L12.8009 6.98538L12.3634 6.95274C12.326 6.94999 12.3147 6.89715 12.3472 6.87737L12.7281 6.64511L12.4793 6.25927C12.458 6.22634 12.4897 6.18402 12.5244 6.1988L12.9318 6.37217L13.059 5.92372C13.07 5.88545 13.1207 5.88545 13.1315 5.92372Z" fill="#F5F5F5"/>
<path d="M18.6471 4.4496L18.7743 4.89805L19.1817 4.72468C19.2164 4.7099 19.2481 4.75222 19.2268 4.78515L18.9779 5.17099L19.3588 5.40325C19.3913 5.42303 19.3801 5.47587 19.3427 5.47862L18.9052 5.51126L18.9727 5.97423C18.9785 6.01375 18.9328 6.03725 18.9076 6.00778L18.6109 5.66267L18.3142 6.00778C18.2889 6.0372 18.2432 6.01371 18.249 5.97423L18.3165 5.51126L17.879 5.47862C17.8417 5.47587 17.8304 5.42303 17.8629 5.40325L18.2438 5.17099L17.9949 4.78515C17.9736 4.75222 18.0053 4.7099 18.04 4.72468L18.4474 4.89805L18.5746 4.4496C18.5856 4.41133 18.6363 4.41133 18.6471 4.4496Z" fill="#F5F5F5"/>
<path d="M15.9636 10.3446L16.0907 10.7931L16.4981 10.6197C16.5329 10.6049 16.5645 10.6472 16.5433 10.6801L16.2944 11.066L16.6753 11.2982C16.7078 11.318 16.6965 11.3708 16.6592 11.3736L16.2217 11.4062L16.2892 11.8692C16.295 11.9087 16.2493 11.9322 16.224 11.9028L15.9273 11.5577L15.6306 11.9028C15.6053 11.9322 15.5596 11.9087 15.5654 11.8692L15.6329 11.4062L15.1954 11.3736C15.1581 11.3708 15.1468 11.318 15.1793 11.2982L15.5602 11.066L15.3113 10.6801C15.2901 10.6472 15.3217 10.6049 15.3564 10.6197L15.7638 10.7931L15.891 10.3446C15.902 10.3064 15.9527 10.3064 15.9636 10.3446Z" fill="#F5F5F5"/>
<path d="M16.9484 6.72904L16.8463 7.05607L16.5237 7.05874C16.4819 7.05912 16.4646 7.11605 16.4982 7.14255L16.7577 7.34734L16.6604 7.67601C16.6478 7.71858 16.6932 7.75376 16.7271 7.7278L16.9896 7.52735L17.2521 7.7278C17.2861 7.75376 17.3314 7.71853 17.3188 7.67601L17.2215 7.34734L17.481 7.14255C17.5147 7.116 17.4973 7.05912 17.4556 7.05874L17.1329 7.05607L17.0309 6.72904C17.0176 6.68668 16.9616 6.68668 16.9484 6.72904Z" fill="#F5F5F5"/>
</g>
<rect x="1.10156" y="0.5" width="19" height="13" rx="1.5" stroke="black" stroke-opacity="0.1" style="mix-blend-mode:multiply"/>
<defs>
<clipPath id="clip0_14489_10819">
<rect x="0.601562" width="20" height="14" rx="2" fill="white"/>
</clipPath>
</defs>
</svg>
