<svg width="12" height="12" viewBox="0 0 12 12" fill="none" xmlns="http://www.w3.org/2000/svg">
<path d="M6 0C2.69158 0 0 2.69158 0 6C0 9.30842 2.69158 11.9999 6 11.9999C9.30842 11.9999 12 9.30836 12 6C12 2.69164 9.30836 0 6 0ZM9.02745 5.32839L7.84196 6.48401L8.12185 8.11576C8.15092 8.28544 8.08113 8.45699 7.94185 8.55821C7.86301 8.61545 7.76969 8.64459 7.6759 8.64459C7.60393 8.64459 7.53161 8.6274 7.46544 8.59265L6.00006 7.82223L4.53462 8.59271C4.38213 8.67288 4.19749 8.65949 4.05821 8.55827C3.91887 8.45705 3.84908 8.2855 3.87821 8.11582L4.1581 6.48407L2.97249 5.32839C2.8492 5.20817 2.80486 5.02841 2.85806 4.86464C2.91127 4.70087 3.05284 4.58149 3.22331 4.55676L4.86162 4.31868L5.59428 2.83406C5.67053 2.67964 5.82778 2.58186 6 2.58186C6.17222 2.58186 6.32947 2.67964 6.40572 2.83406L7.13838 4.31868L8.77669 4.55676C8.9471 4.58149 9.08873 4.70087 9.14193 4.86464C9.19514 5.02841 9.15074 5.20823 9.02745 5.32839Z" fill="#8A06EF"/>
</svg>
