<svg width="19" height="15" viewBox="0 0 19 15" fill="none" xmlns="http://www.w3.org/2000/svg">
<path d="M4.50816 8.54675C4.51028 8.58908 4.50377 8.63141 4.48901 8.67114C4.47426 8.71088 4.45158 8.7472 4.42235 8.77789C4.39311 8.80859 4.35794 8.83301 4.31897 8.84968C4.28 8.86636 4.23805 8.87493 4.19566 8.87488H0.748788C0.607722 8.87509 0.470732 8.82757 0.360095 8.74006C0.249458 8.65254 0.171682 8.53017 0.139413 8.39284C0.11932 8.29885 0.120246 8.20158 0.142125 8.10798C0.164005 8.01439 0.206296 7.92678 0.265975 7.85144C0.817388 7.12017 1.54901 6.5444 2.38941 6.18034C2.02045 5.84394 1.73746 5.42402 1.56416 4.95576C1.39085 4.4875 1.33228 3.98453 1.39333 3.48898C1.45438 2.99342 1.63329 2.51971 1.91507 2.10752C2.19685 1.69532 2.57329 1.35665 3.01287 1.11986C3.45246 0.883071 3.94238 0.75506 4.44161 0.746548C4.94083 0.738036 5.43484 0.849272 5.88223 1.07094C6.32963 1.29261 6.7174 1.61825 7.01307 2.0206C7.30874 2.42295 7.50369 2.89028 7.5816 3.38347C7.59166 3.44979 7.57978 3.51758 7.54777 3.57653C7.51575 3.63548 7.46536 3.68236 7.40426 3.71003C6.53737 4.11079 5.80321 4.75116 5.2884 5.55556C4.77359 6.35996 4.49961 7.29484 4.49879 8.24988C4.49879 8.34987 4.49879 8.44831 4.50816 8.54675ZM18.7269 7.85066C18.1768 7.12024 17.4468 6.54478 16.6082 6.18034C16.9771 5.84394 17.2601 5.42402 17.4334 4.95576C17.6067 4.4875 17.6653 3.98453 17.6042 3.48898C17.5432 2.99342 17.3643 2.51971 17.0825 2.10752C16.8007 1.69532 16.4243 1.35665 15.9847 1.11986C15.5451 0.883071 15.0552 0.75506 14.556 0.746548C14.0567 0.738036 13.5627 0.849272 13.1153 1.07094C12.6679 1.29261 12.2802 1.61825 11.9845 2.0206C11.6888 2.42295 11.4939 2.89028 11.416 3.38347C11.4059 3.44979 11.4178 3.51758 11.4498 3.57653C11.4818 3.63548 11.5322 3.68236 11.5933 3.71003C12.4602 4.11079 13.1944 4.75116 13.7092 5.55556C14.224 6.35996 14.498 7.29484 14.4988 8.24988C14.4988 8.34987 14.4988 8.44831 14.4894 8.54675C14.4873 8.58908 14.4938 8.63141 14.5086 8.67114C14.5233 8.71088 14.546 8.7472 14.5752 8.77789C14.6045 8.80859 14.6396 8.83301 14.6786 8.84968C14.7176 8.86636 14.7595 8.87493 14.8019 8.87488H18.2488C18.3899 8.87509 18.5268 8.82757 18.6375 8.74006C18.7481 8.65254 18.8259 8.53017 18.8582 8.39284C18.8784 8.29868 18.8774 8.2012 18.8554 8.10744C18.8334 8.01368 18.7908 7.92598 18.7308 7.85066H18.7269ZM11.7738 11.2241C12.3961 10.7475 12.8534 10.0879 13.0815 9.33797C13.3095 8.58804 13.2969 7.78551 13.0453 7.04315C12.7936 6.30079 12.3157 5.65594 11.6787 5.19922C11.0417 4.74251 10.2775 4.49689 9.49371 4.49689C8.70987 4.49689 7.94574 4.74251 7.30871 5.19922C6.67167 5.65594 6.19377 6.30079 5.94216 7.04315C5.69055 7.78551 5.67788 8.58804 5.90595 9.33797C6.13401 10.0879 6.59133 10.7475 7.21363 11.2241C6.10936 11.7026 5.18728 12.522 4.58238 13.5624C4.52752 13.6574 4.49864 13.7652 4.49865 13.8749C4.49865 13.9846 4.52754 14.0924 4.58242 14.1874C4.63729 14.2825 4.71621 14.3613 4.81124 14.4162C4.90627 14.471 5.01407 14.4999 5.12379 14.4999H13.8738C13.9835 14.4999 14.0913 14.471 14.1863 14.4162C14.2814 14.3613 14.3603 14.2825 14.4152 14.1874C14.47 14.0924 14.4989 13.9846 14.4989 13.8749C14.4989 13.7652 14.4701 13.6574 14.4152 13.5624C13.809 12.5213 12.8852 11.7018 11.7793 11.2241H11.7738Z" fill="white" fill-opacity="0.3"/>
</svg>
