<svg width="14" height="14" viewBox="0 0 14 14" fill="none" xmlns="http://www.w3.org/2000/svg">
<path d="M12.5 3.75003H10.8787C11.1107 3.41259 11.2397 3.01502 11.25 2.60566C11.2593 2.2938 11.2046 1.98335 11.0895 1.69336C10.9744 1.40338 10.8013 1.13999 10.5806 0.919383C10.36 0.698771 10.0966 0.525593 9.80667 0.410487C9.51668 0.295381 9.20623 0.240777 8.89437 0.25003C8.60633 0.256178 8.32267 0.321812 8.06121 0.442811C7.79974 0.563811 7.56612 0.737562 7.375 0.953155C7.23404 1.11395 7.10849 1.28763 7 1.47191C6.89151 1.28763 6.76596 1.11395 6.625 0.953155C6.43388 0.737562 6.20026 0.563811 5.93879 0.442811C5.67733 0.321812 5.39367 0.256178 5.10563 0.25003C4.79377 0.240777 4.48332 0.295381 4.19333 0.410487C3.90335 0.525593 3.63996 0.698771 3.41935 0.919383C3.19874 1.13999 3.02556 1.40338 2.91046 1.69336C2.79535 1.98335 2.74075 2.2938 2.75 2.60566C2.76029 3.01502 2.88926 3.41259 3.12125 3.75003H1.5C1.16848 3.75003 0.850537 3.88173 0.616117 4.11615C0.381696 4.35057 0.25 4.66851 0.25 5.00003V7.00003C0.249941 7.28819 0.349446 7.56753 0.531673 7.79076C0.713901 8.01399 0.967659 8.1674 1.25 8.22503V12C1.25 12.3316 1.3817 12.6495 1.61612 12.8839C1.85054 13.1183 2.16848 13.25 2.5 13.25H11.5C11.8315 13.25 12.1495 13.1183 12.3839 12.8839C12.6183 12.6495 12.75 12.3316 12.75 12V8.22503C13.0323 8.1674 13.2861 8.01399 13.4683 7.79076C13.6506 7.56753 13.7501 7.28819 13.75 7.00003V5.00003C13.75 4.66851 13.6183 4.35057 13.3839 4.11615C13.1495 3.88173 12.8315 3.75003 12.5 3.75003ZM12.25 6.75003H7.75V5.25003H12.25V6.75003ZM8.5 1.94816C8.55532 1.88675 8.62275 1.83745 8.69804 1.80336C8.77333 1.76926 8.85486 1.75111 8.9375 1.75003H8.95938C9.06514 1.74973 9.16989 1.77071 9.26738 1.81171C9.36488 1.85271 9.45313 1.91291 9.5269 1.98871C9.60066 2.06451 9.65842 2.15437 9.69675 2.25295C9.73507 2.35153 9.75319 2.45681 9.75 2.56253C9.74893 2.64517 9.73077 2.7267 9.69667 2.80199C9.66258 2.87728 9.61328 2.94471 9.55188 3.00003C9.12063 3.38253 8.41125 3.57878 7.825 3.67253C7.91875 3.08878 8.115 2.37941 8.5 1.94816ZM4.48125 1.98128C4.62961 1.83451 4.82944 1.75153 5.03813 1.75003H5.0625C5.14514 1.75111 5.22667 1.76926 5.30196 1.80336C5.37725 1.83745 5.44468 1.88675 5.5 1.94816C5.8825 2.37941 6.07875 3.08816 6.17188 3.67378C5.59062 3.57941 4.875 3.38316 4.44812 3.00003C4.38672 2.94471 4.33742 2.87728 4.30333 2.80199C4.26923 2.7267 4.25108 2.64517 4.25 2.56253C4.24724 2.45504 4.2663 2.34811 4.30605 2.2482C4.3458 2.1483 4.4054 2.05749 4.48125 1.98128ZM1.75 5.25003H6.25V6.75003H1.75V5.25003ZM2.75 8.25003H6.25V11.75H2.75V8.25003ZM7.75 11.75V8.25003H11.25V11.75H7.75Z" fill="white" fill-opacity="0.48"/>
</svg>
