<svg width="216" height="138" viewBox="0 0 216 138" fill="none" xmlns="http://www.w3.org/2000/svg">
<g clip-path="url(#clip0_5098_19104)">
<rect width="216" height="138" rx="16" fill="url(#paint0_linear_5098_19104)" fill-opacity="0.7"/>
<path d="M21.1973 24.6289H26.5156L32.1211 38.3145H32.3535L37.9727 24.6289H43.3047V45H39.0938V31.7383H38.9297L33.6387 44.9043H30.7949L25.5449 31.7109H25.3809V45H21.1973V24.6289ZM50.2227 45.2871C49.2565 45.2871 48.3861 45.1185 47.6113 44.7812C46.8457 44.4349 46.2441 43.9245 45.8066 43.25C45.3691 42.5755 45.1504 41.737 45.1504 40.7344C45.1504 39.8776 45.3053 39.1667 45.6152 38.6016C45.9251 38.0273 46.349 37.5625 46.8867 37.207C47.4245 36.8516 48.0352 36.5827 48.7188 36.4004C49.4023 36.2181 50.127 36.0905 50.8926 36.0176C51.7767 35.9355 52.4876 35.8535 53.0254 35.7715C53.5632 35.6895 53.9551 35.5664 54.2012 35.4023C54.4564 35.2292 54.584 34.9831 54.584 34.6641V34.5957C54.584 33.9668 54.3835 33.4792 53.9824 33.1328C53.5905 32.7865 53.0345 32.6133 52.3145 32.6133C51.5579 32.6133 50.9518 32.7819 50.4961 33.1191C50.0495 33.4473 49.7533 33.8665 49.6074 34.377L45.6836 34.0625C45.8841 33.1328 46.276 32.3307 46.8594 31.6562C47.4427 30.9727 48.1947 30.4486 49.1152 30.084C50.0449 29.7103 51.1204 29.5234 52.3418 29.5234C53.1895 29.5234 54.0007 29.6237 54.7754 29.8242C55.5501 30.0247 56.2383 30.3346 56.8398 30.7539C57.4505 31.1641 57.9336 31.6973 58.2891 32.3535C58.6445 33.0098 58.8223 33.7891 58.8223 34.6914V45H54.7891V42.8672H54.6797C54.4336 43.3503 54.1055 43.7741 53.6953 44.1387C53.2852 44.4941 52.793 44.7767 52.2188 44.9863C51.6445 45.1868 50.9792 45.2871 50.2227 45.2871ZM51.4395 42.3613C52.0592 42.3613 52.6061 42.2383 53.0801 41.9922C53.5632 41.737 53.9368 41.3997 54.2012 40.9805C54.4746 40.5521 54.6113 40.0736 54.6113 39.5449V37.918C54.4837 38 54.3014 38.0775 54.0645 38.1504C53.8366 38.2233 53.5814 38.2871 53.2988 38.3418C53.0163 38.3965 52.7337 38.4466 52.4512 38.4922C52.1686 38.5286 51.9134 38.5651 51.6855 38.6016C51.1842 38.6745 50.7467 38.793 50.373 38.957C49.9993 39.112 49.7077 39.3262 49.498 39.5996C49.2975 39.8639 49.1973 40.1966 49.1973 40.5977C49.1973 41.1719 49.4069 41.6094 49.8262 41.9102C50.2454 42.2109 50.7832 42.3613 51.4395 42.3613ZM65.5215 36.168V45H61.2969V29.7148H65.4531V32.4355H65.6035C65.9499 31.5332 66.5013 30.8223 67.2578 30.3027C68.0143 29.7832 68.9622 29.5234 70.1016 29.5234C71.1589 29.5234 72.0794 29.7559 72.8633 30.2207C73.6562 30.6855 74.2715 31.3464 74.709 32.2031C75.1465 33.0599 75.3652 34.0853 75.3652 35.2793V45H71.1406V36.0312C71.1406 35.1016 70.8991 34.3724 70.416 33.8438C69.9329 33.306 69.2676 33.0371 68.4199 33.0371C67.8548 33.0371 67.3535 33.1647 66.916 33.4199C66.4785 33.666 66.1367 34.0215 65.8906 34.4863C65.6445 34.9512 65.5215 35.5117 65.5215 36.168ZM87.6562 38.5059V29.7148H91.8809V45H87.8203V42.2246H87.6562C87.3099 43.1087 86.7402 43.8288 85.9473 44.3848C85.1543 44.9316 84.1836 45.2005 83.0352 45.1914C82.0143 45.1914 81.112 44.9635 80.3281 44.5078C79.5534 44.043 78.9473 43.3822 78.5098 42.5254C78.0814 41.6686 77.8672 40.6432 77.8672 39.4492V29.7148H82.0918V38.7109C82.0918 39.6042 82.3333 40.3151 82.8164 40.8438C83.2995 41.3633 83.9421 41.6185 84.7441 41.6094C85.2546 41.6094 85.7285 41.4954 86.166 41.2676C86.6035 41.0306 86.959 40.6797 87.2324 40.2148C87.515 39.75 87.6562 39.1803 87.6562 38.5059ZM98.7305 45.2871C97.7643 45.2871 96.8939 45.1185 96.1191 44.7812C95.3535 44.4349 94.752 43.9245 94.3145 43.25C93.877 42.5755 93.6582 41.737 93.6582 40.7344C93.6582 39.8776 93.8132 39.1667 94.123 38.6016C94.4329 38.0273 94.8568 37.5625 95.3945 37.207C95.9323 36.8516 96.543 36.5827 97.2266 36.4004C97.9102 36.2181 98.6348 36.0905 99.4004 36.0176C100.285 35.9355 100.995 35.8535 101.533 35.7715C102.071 35.6895 102.463 35.5664 102.709 35.4023C102.964 35.2292 103.092 34.9831 103.092 34.6641V34.5957C103.092 33.9668 102.891 33.4792 102.49 33.1328C102.098 32.7865 101.542 32.6133 100.822 32.6133C100.066 32.6133 99.4596 32.7819 99.0039 33.1191C98.5573 33.4473 98.2611 33.8665 98.1152 34.377L94.1914 34.0625C94.3919 33.1328 94.7839 32.3307 95.3672 31.6562C95.9505 30.9727 96.7025 30.4486 97.623 30.084C98.5527 29.7103 99.6283 29.5234 100.85 29.5234C101.697 29.5234 102.508 29.6237 103.283 29.8242C104.058 30.0247 104.746 30.3346 105.348 30.7539C105.958 31.1641 106.441 31.6973 106.797 32.3535C107.152 33.0098 107.33 33.7891 107.33 34.6914V45H103.297V42.8672H103.188C102.941 43.3503 102.613 43.7741 102.203 44.1387C101.793 44.4941 101.301 44.7767 100.727 44.9863C100.152 45.1868 99.487 45.2871 98.7305 45.2871ZM99.9473 42.3613C100.567 42.3613 101.114 42.2383 101.588 41.9922C102.071 41.737 102.445 41.3997 102.709 40.9805C102.982 40.5521 103.119 40.0736 103.119 39.5449V37.918C102.992 38 102.809 38.0775 102.572 38.1504C102.344 38.2233 102.089 38.2871 101.807 38.3418C101.524 38.3965 101.242 38.4466 100.959 38.4922C100.676 38.5286 100.421 38.5651 100.193 38.6016C99.6921 38.6745 99.2546 38.793 98.8809 38.957C98.5072 39.112 98.2155 39.3262 98.0059 39.5996C97.8053 39.8639 97.7051 40.1966 97.7051 40.5977C97.7051 41.1719 97.9147 41.6094 98.334 41.9102C98.7533 42.2109 99.291 42.3613 99.9473 42.3613ZM114.029 24.6289V45H109.805V24.6289H114.029ZM116.436 50.4277L117.639 41.8965H121.85L119.293 50.4277H116.436ZM135.863 45.2734C134.633 45.2734 133.503 45.0547 132.473 44.6172C131.443 44.1797 130.618 43.5189 129.998 42.6348C129.378 41.7507 129.068 40.625 129.068 39.2578V39.0254H133.361V39.2578C133.361 39.7956 133.466 40.2559 133.676 40.6387C133.885 41.0215 134.177 41.3177 134.551 41.5273C134.924 41.7279 135.362 41.8281 135.863 41.8281C136.392 41.8281 136.839 41.7142 137.203 41.4863C137.577 41.2585 137.859 40.9258 138.051 40.4883C138.242 40.0417 138.338 39.4948 138.338 38.8477V24.6289H142.59V38.8477C142.59 40.151 142.316 41.2858 141.77 42.252C141.223 43.2181 140.443 43.9655 139.432 44.4941C138.429 45.0137 137.24 45.2734 135.863 45.2734ZM152.447 45H147.143V41.3086H152.256C153.541 41.3086 154.617 41.0853 155.482 40.6387C156.357 40.1829 157.014 39.4766 157.451 38.5195C157.898 37.5534 158.121 36.3138 158.121 34.8008C158.121 33.2969 157.898 32.0664 157.451 31.1094C157.014 30.1523 156.357 29.4505 155.482 29.0039C154.617 28.5482 153.546 28.3203 152.27 28.3203H147.061V24.6289H152.516C154.566 24.6289 156.33 25.0391 157.807 25.8594C159.283 26.6706 160.418 27.8372 161.211 29.3594C162.004 30.8724 162.4 32.6862 162.4 34.8008C162.4 36.9245 161.999 38.7474 161.197 40.2695C160.404 41.7917 159.265 42.9629 157.779 43.7832C156.294 44.5944 154.516 45 152.447 45ZM149.521 24.6289V45H145.229V24.6289H149.521ZM164.67 24.6289H169.988L175.594 38.3145H175.826L181.445 24.6289H186.777V45H182.566V31.7383H182.402L177.111 44.9043H174.268L169.018 31.7109H168.854V45H164.67V24.6289ZM189.252 50.4277L190.455 41.8965H194.666L192.109 50.4277H189.252ZM46.2578 79H41.6504L48.6777 58.6289H54.2285L61.2422 79H56.6484L51.5352 63.2773H51.3711L46.2578 79ZM45.9844 70.9883H56.8809V74.3516H45.9844V70.9883ZM66.9297 70.168V79H62.7051V63.7148H66.8613V66.4355H67.0117C67.3581 65.5332 67.9095 64.8223 68.666 64.3027C69.4225 63.7832 70.3704 63.5234 71.5098 63.5234C72.5671 63.5234 73.4876 63.7559 74.2715 64.2207C75.0645 64.6855 75.6797 65.3464 76.1172 66.2031C76.5547 67.0599 76.7734 68.0853 76.7734 69.2793V79H72.5488V70.0312C72.5488 69.1016 72.3073 68.3724 71.8242 67.8438C71.3411 67.306 70.6758 67.0371 69.8281 67.0371C69.263 67.0371 68.7617 67.1647 68.3242 67.4199C67.8867 67.666 67.5449 68.0215 67.2988 68.4863C67.0527 68.9512 66.9297 69.5117 66.9297 70.168ZM84.8535 79.2461C83.6868 79.2461 82.6341 78.9453 81.6953 78.3438C80.7565 77.7422 80.0137 76.8581 79.4668 75.6914C78.9199 74.5156 78.6465 73.0801 78.6465 71.3848C78.6465 69.6348 78.929 68.1764 79.4941 67.0098C80.0592 65.8431 80.8112 64.9727 81.75 64.3984C82.6888 63.8151 83.7142 63.5234 84.8262 63.5234C85.6829 63.5234 86.3984 63.6693 86.9727 63.9609C87.5469 64.2435 88.0117 64.599 88.3672 65.0273C88.7227 65.4557 88.9915 65.8796 89.1738 66.2988H89.2969V58.6289H93.5352V79H89.3652V76.5527H89.1738C88.9824 76.972 88.7044 77.3913 88.3398 77.8105C87.9753 78.2207 87.5059 78.5625 86.9316 78.8359C86.3665 79.1094 85.6738 79.2461 84.8535 79.2461ZM86.1797 75.8828C86.8633 75.8828 87.4421 75.696 87.916 75.3223C88.3991 74.9395 88.7637 74.4108 89.0098 73.7363C89.265 73.0618 89.3926 72.2734 89.3926 71.3711C89.3926 70.4596 89.2695 69.6712 89.0234 69.0059C88.7773 68.3314 88.4128 67.8118 87.9297 67.4473C87.4466 67.0736 86.8633 66.8867 86.1797 66.8867C85.487 66.8867 84.9036 67.0781 84.4297 67.4609C83.9557 67.8438 83.5957 68.3724 83.3496 69.0469C83.1035 69.7122 82.9805 70.487 82.9805 71.3711C82.9805 72.2552 83.1035 73.0391 83.3496 73.7227C83.5957 74.3971 83.9557 74.9258 84.4297 75.3086C84.9128 75.6914 85.4961 75.8828 86.1797 75.8828ZM105.348 58.6289L110.256 74.1055H110.447L115.383 58.6289H120.141L113.127 79H107.576L100.549 58.6289H105.348ZM120.893 62.1836V58.6289H137.627V62.1836H131.393V79H127.141V62.1836H120.893ZM139.473 79V58.6289H153.199V62.1836H143.766V66.9688H152.488V70.4551H143.766V75.4453H153.227V79H139.473ZM164.834 79.2734C163.029 79.2734 161.411 78.8633 159.98 78.043C158.549 77.2227 157.419 76.0332 156.59 74.4746C155.76 72.916 155.346 71.0339 155.346 68.8281C155.346 66.6042 155.76 64.7129 156.59 63.1543C157.428 61.5866 158.563 60.3971 159.994 59.5859C161.434 58.7656 163.048 58.3555 164.834 58.3555C166.019 58.3555 167.117 58.5241 168.129 58.8613C169.141 59.1895 170.034 59.6725 170.809 60.3105C171.592 60.9395 172.23 61.7142 172.723 62.6348C173.215 63.5462 173.529 64.5898 173.666 65.7656H169.318C169.236 65.2096 169.072 64.7083 168.826 64.2617C168.589 63.8151 168.275 63.4368 167.883 63.127C167.5 62.8171 167.058 62.5801 166.557 62.416C166.064 62.2428 165.522 62.1562 164.93 62.1562C163.891 62.1562 162.975 62.4206 162.182 62.9492C161.398 63.4688 160.787 64.2253 160.35 65.2188C159.921 66.2031 159.707 67.4062 159.707 68.8281C159.707 70.2773 159.926 71.4987 160.363 72.4922C160.801 73.4766 161.411 74.2194 162.195 74.7207C162.979 75.222 163.886 75.4727 164.916 75.4727C165.49 75.4727 166.023 75.3952 166.516 75.2402C167.008 75.0853 167.445 74.862 167.828 74.5703C168.211 74.2786 168.53 73.9232 168.785 73.5039C169.049 73.0755 169.227 72.5879 169.318 72.041H173.666C173.557 72.9798 173.279 73.8822 172.832 74.748C172.395 75.6139 171.798 76.3887 171.041 77.0723C170.285 77.7467 169.387 78.2845 168.348 78.6855C167.309 79.0775 166.137 79.2734 164.834 79.2734ZM66.6973 113.287C65.0566 113.287 63.6257 113.036 62.4043 112.535C61.1921 112.034 60.2441 111.286 59.5605 110.293C58.8861 109.299 58.5306 108.069 58.4941 106.602H62.6504C62.7051 107.276 62.9056 107.846 63.252 108.311C63.5983 108.766 64.0632 109.108 64.6465 109.336C65.2298 109.564 65.8997 109.678 66.6562 109.678C67.3854 109.678 68.0189 109.573 68.5566 109.363C69.1035 109.154 69.5228 108.862 69.8145 108.488C70.1152 108.105 70.2656 107.663 70.2656 107.162C70.2656 106.706 70.1289 106.324 69.8555 106.014C69.5911 105.704 69.1992 105.439 68.6797 105.221C68.1693 105.002 67.5449 104.806 66.8066 104.633L64.5781 104.086C62.8646 103.676 61.5111 103.024 60.5176 102.131C59.5241 101.229 59.0273 100.025 59.0273 98.5215C59.0273 97.291 59.36 96.2155 60.0254 95.2949C60.6999 94.3652 61.6159 93.6452 62.7734 93.1348C63.9401 92.6152 65.2663 92.3555 66.752 92.3555C68.265 92.3555 69.582 92.6152 70.7031 93.1348C71.8333 93.6543 72.7129 94.3743 73.3418 95.2949C73.9798 96.2155 74.3079 97.2773 74.3262 98.4805H70.1836C70.1107 97.6875 69.7689 97.0677 69.1582 96.6211C68.5566 96.1745 67.7409 95.9512 66.7109 95.9512C66.0182 95.9512 65.4258 96.0514 64.9336 96.252C64.4505 96.4434 64.0814 96.7122 63.8262 97.0586C63.571 97.4049 63.4434 97.8014 63.4434 98.248C63.4434 98.722 63.5892 99.123 63.8809 99.4512C64.1725 99.7702 64.5599 100.035 65.043 100.244C65.5352 100.445 66.0729 100.613 66.6562 100.75L68.4746 101.201C69.3587 101.402 70.1745 101.671 70.9219 102.008C71.6693 102.336 72.3164 102.742 72.8633 103.225C73.4193 103.708 73.8477 104.277 74.1484 104.934C74.4492 105.581 74.5996 106.328 74.5996 107.176C74.5996 108.424 74.2852 109.509 73.6562 110.43C73.0365 111.341 72.1387 112.048 70.9629 112.549C69.7871 113.041 68.3652 113.287 66.6973 113.287ZM83.459 113.301C81.8913 113.301 80.5378 112.982 79.3984 112.344C78.2591 111.706 77.3841 110.799 76.7734 109.623C76.1719 108.438 75.8711 107.039 75.8711 105.426C75.8711 103.858 76.1719 102.482 76.7734 101.297C77.3841 100.112 78.2409 99.1868 79.3438 98.5215C80.4557 97.8561 81.7591 97.5234 83.2539 97.5234C84.2656 97.5234 85.209 97.6875 86.084 98.0156C86.959 98.3346 87.7246 98.8177 88.3809 99.4648C89.0371 100.103 89.5475 100.91 89.9121 101.885C90.2767 102.851 90.459 103.986 90.459 105.289V106.438H77.5527V103.826H88.4082L86.4395 104.51C86.4395 103.735 86.321 103.061 86.084 102.486C85.847 101.912 85.4915 101.47 85.0176 101.16C84.5527 100.841 83.974 100.682 83.2812 100.682C82.5885 100.682 82.0007 100.841 81.5176 101.16C81.0436 101.479 80.679 101.912 80.4238 102.459C80.1686 103.006 80.041 103.635 80.041 104.346V106.191C80.041 107.021 80.1868 107.732 80.4785 108.324C80.7702 108.908 81.1758 109.359 81.6953 109.678C82.224 109.988 82.8301 110.143 83.5137 110.143C83.9876 110.143 84.416 110.074 84.7988 109.938C85.1816 109.801 85.5098 109.6 85.7832 109.336C86.0658 109.072 86.2754 108.753 86.4121 108.379L90.3223 108.639C90.1309 109.577 89.7298 110.398 89.1191 111.1C88.5176 111.792 87.7383 112.335 86.7812 112.727C85.8242 113.109 84.7168 113.301 83.459 113.301ZM92.2773 113V97.7148H96.3652V100.395H96.5293C96.8118 99.4466 97.2812 98.7311 97.9375 98.248C98.5938 97.7559 99.3457 97.5098 100.193 97.5098C100.412 97.5098 100.64 97.5234 100.877 97.5508C101.123 97.569 101.342 97.6055 101.533 97.6602V101.406C101.333 101.342 101.055 101.292 100.699 101.256C100.353 101.21 100.029 101.188 99.7285 101.188C99.1178 101.188 98.5664 101.324 98.0742 101.598C97.582 101.862 97.1947 102.236 96.9121 102.719C96.6387 103.193 96.502 103.74 96.502 104.359V113H92.2773ZM117.488 97.7148L112.156 113H107.371L102.053 97.7148H106.523L109.736 108.666H109.9L113.059 97.7148H117.488ZM125.24 113.301C123.673 113.301 122.319 112.982 121.18 112.344C120.04 111.706 119.165 110.799 118.555 109.623C117.953 108.438 117.652 107.039 117.652 105.426C117.652 103.858 117.953 102.482 118.555 101.297C119.165 100.112 120.022 99.1868 121.125 98.5215C122.237 97.8561 123.54 97.5234 125.035 97.5234C126.047 97.5234 126.99 97.6875 127.865 98.0156C128.74 98.3346 129.506 98.8177 130.162 99.4648C130.818 100.103 131.329 100.91 131.693 101.885C132.058 102.851 132.24 103.986 132.24 105.289V106.438H119.334V103.826H130.189L128.221 104.51C128.221 103.735 128.102 103.061 127.865 102.486C127.628 101.912 127.273 101.47 126.799 101.16C126.334 100.841 125.755 100.682 125.062 100.682C124.37 100.682 123.782 100.841 123.299 101.16C122.825 101.479 122.46 101.912 122.205 102.459C121.95 103.006 121.822 103.635 121.822 104.346V106.191C121.822 107.021 121.968 107.732 122.26 108.324C122.551 108.908 122.957 109.359 123.477 109.678C124.005 109.988 124.611 110.143 125.295 110.143C125.769 110.143 126.197 110.074 126.58 109.938C126.963 109.801 127.291 109.6 127.564 109.336C127.847 109.072 128.057 108.753 128.193 108.379L132.104 108.639C131.912 109.577 131.511 110.398 130.9 111.1C130.299 111.792 129.52 112.335 128.562 112.727C127.605 113.109 126.498 113.301 125.24 113.301ZM134.059 113V97.7148H138.146V100.395H138.311C138.593 99.4466 139.062 98.7311 139.719 98.248C140.375 97.7559 141.127 97.5098 141.975 97.5098C142.193 97.5098 142.421 97.5234 142.658 97.5508C142.904 97.569 143.123 97.6055 143.314 97.6602V101.406C143.114 101.342 142.836 101.292 142.48 101.256C142.134 101.21 141.811 101.188 141.51 101.188C140.899 101.188 140.348 101.324 139.855 101.598C139.363 101.862 138.976 102.236 138.693 102.719C138.42 103.193 138.283 103.74 138.283 104.359V113H134.059ZM157.273 102.076L153.404 102.309C153.304 101.826 153.035 101.411 152.598 101.064C152.16 100.709 151.572 100.531 150.834 100.531C150.178 100.531 149.626 100.668 149.18 100.941C148.742 101.215 148.523 101.579 148.523 102.035C148.523 102.4 148.665 102.714 148.947 102.979C149.239 103.234 149.736 103.434 150.438 103.58L153.213 104.127C154.699 104.428 155.806 104.915 156.535 105.59C157.264 106.264 157.629 107.153 157.629 108.256C157.629 109.268 157.337 110.152 156.754 110.908C156.171 111.656 155.368 112.243 154.348 112.672C153.327 113.091 152.156 113.301 150.834 113.301C148.811 113.301 147.197 112.877 145.994 112.029C144.8 111.182 144.103 110.033 143.902 108.584L148.045 108.365C148.182 108.985 148.492 109.454 148.975 109.773C149.458 110.092 150.077 110.252 150.834 110.252C151.572 110.252 152.169 110.106 152.625 109.814C153.09 109.523 153.322 109.154 153.322 108.707C153.322 107.951 152.666 107.44 151.354 107.176L148.715 106.629C147.229 106.328 146.122 105.813 145.393 105.084C144.663 104.355 144.299 103.421 144.299 102.281C144.299 101.297 144.568 100.449 145.105 99.7383C145.643 99.0273 146.395 98.4805 147.361 98.0977C148.337 97.7148 149.476 97.5234 150.779 97.5234C152.712 97.5234 154.229 97.9336 155.332 98.7539C156.444 99.5651 157.091 100.673 157.273 102.076Z" fill="url(#paint1_linear_5098_19104)"/>
<g filter="url(#filter1_f_5098_19104)">
<path fill-rule="evenodd" clip-rule="evenodd" d="M147.388 111.06C146.815 111.346 146.165 111.566 145.439 111.719C144.712 111.872 143.919 111.958 143.059 111.977C142.199 112.015 141.292 112.006 140.336 111.948C139.361 111.872 138.348 111.767 137.297 111.633C136.227 111.48 135.128 111.299 134.001 111.088C132.854 110.859 131.679 110.62 130.475 110.372C129.271 110.104 128.048 109.817 126.805 109.512C125.544 109.206 124.273 108.9 122.993 108.594C121.712 108.269 120.422 107.954 119.123 107.648C117.823 107.323 116.533 107.018 115.253 106.731C113.953 106.425 112.663 106.139 111.383 105.871C110.102 105.603 108.841 105.355 107.599 105.126C106.356 104.915 105.133 104.724 103.929 104.552C102.725 104.38 101.54 104.227 100.375 104.094C99.228 103.96 98.0909 103.845 96.9633 103.75C95.8549 103.654 94.7656 103.568 93.6953 103.492C92.6442 103.415 91.6122 103.339 90.5993 103.262C89.5864 103.186 88.5927 103.109 87.618 103.033C86.6624 102.976 85.726 102.899 84.8087 102.804C83.9104 102.708 83.0313 102.603 82.1713 102.488C81.3113 102.393 80.4896 102.269 79.706 102.116C78.9033 101.963 78.1389 101.791 77.4127 101.6C76.6864 101.409 75.9793 101.189 75.2913 100.94C74.6224 100.692 73.9822 100.405 73.3707 100.08C72.7782 99.7554 72.2049 99.4018 71.6507 99.0196C71.1156 98.6182 70.6091 98.1882 70.1313 97.7296C69.6536 97.2709 69.214 96.774 68.8127 96.2389C68.3922 95.7229 68.01 95.1782 67.666 94.6049C67.322 94.0315 67.0162 93.4391 66.7487 92.8275C66.462 92.1968 66.2136 91.5566 66.0033 90.9068C65.7931 90.257 65.6116 89.5977 65.4587 88.9288C65.3249 88.2599 65.2198 87.5815 65.1433 86.8935C65.0669 86.1863 65.0191 85.4888 65 84.8008C65 84.1128 65.0191 83.4152 65.0573 82.7081C65.1147 82.0201 65.2102 81.3416 65.344 80.6727C65.4587 79.9847 65.6116 79.3158 65.8027 78.666C65.9938 77.9971 66.2136 77.3474 66.462 76.7167C66.7296 76.1051 67.0162 75.4935 67.322 74.882C67.6469 74.2895 68.0004 73.7066 68.3827 73.1333C68.7458 72.56 69.1471 71.9962 69.5867 71.4419C70.0071 70.8877 70.4562 70.3335 70.934 69.7793C71.3927 69.225 71.88 68.6804 72.396 68.1452C72.8929 67.591 73.4089 67.0368 73.944 66.4826C74.4791 65.9283 75.0333 65.3645 75.6067 64.7912C76.1609 64.2179 76.7342 63.635 77.3267 63.0425C77.9 62.4501 78.4829 61.8481 79.0753 61.2365C79.6678 60.6058 80.2602 59.9656 80.8527 59.3158C81.4451 58.6469 82.0376 57.9589 82.63 57.2518C83.2224 56.5447 83.8053 55.8184 84.3787 55.0731C84.9711 54.3086 85.5444 53.5251 86.0987 52.7224C86.672 51.9006 87.2358 51.0597 87.79 50.1997C88.3442 49.3588 88.8984 48.4893 89.4527 47.591C90.0069 46.7119 90.5611 45.8232 91.1153 44.925C91.6696 44.0459 92.2238 43.1572 92.778 42.259C93.3322 41.3798 93.8864 40.5007 94.4407 39.6216C94.9949 38.7616 95.5682 37.9207 96.1607 37.0989C96.734 36.2771 97.3169 35.4744 97.9093 34.6909C98.5018 33.9264 99.1038 33.2002 99.7153 32.5122C100.346 31.8051 100.977 31.1457 101.607 30.5342C102.257 29.9417 102.926 29.3875 103.614 28.8715C104.283 28.3746 104.971 27.935 105.678 27.5528C106.404 27.1706 107.15 26.8648 107.914 26.6355C108.659 26.387 109.433 26.215 110.236 26.1194C111.039 26.0239 111.851 25.9857 112.673 26.0048C113.494 26.043 114.335 26.1386 115.195 26.2914C116.036 26.4443 116.887 26.6546 117.747 26.9221C118.588 27.1897 119.438 27.505 120.298 27.8681C121.158 28.2312 122.008 28.6421 122.849 29.1008C123.69 29.5404 124.512 30.0277 125.315 30.5628C126.136 31.0979 126.939 31.6713 127.723 32.2828C128.506 32.8753 129.271 33.506 130.016 34.1749C130.761 34.8438 131.478 35.5318 132.166 36.2389C132.854 36.946 133.504 37.6722 134.115 38.4176C134.746 39.1629 135.329 39.9274 135.864 40.7109C136.418 41.4754 136.925 42.259 137.383 43.0616C137.861 43.8643 138.291 44.667 138.673 45.4697C139.075 46.2914 139.438 47.1132 139.763 47.935C140.088 48.7759 140.384 49.6168 140.651 50.4577C140.919 51.3177 141.167 52.1777 141.397 53.0377C141.626 53.9169 141.836 54.8055 142.027 55.7038C142.218 56.602 142.39 57.5098 142.543 58.4271C142.715 59.3445 142.878 60.2809 143.031 61.2365C143.184 62.173 143.336 63.1285 143.489 64.1032C143.623 65.0779 143.766 66.0621 143.919 67.0559C144.072 68.0688 144.235 69.0913 144.407 70.1233C144.579 71.1362 144.76 72.1777 144.951 73.248C145.162 74.2991 145.381 75.3693 145.611 76.4587C145.84 77.548 146.088 78.6565 146.356 79.784C146.604 80.8925 146.872 82.0105 147.159 83.1381C147.445 84.2465 147.732 85.3645 148.019 86.4921C148.286 87.6197 148.554 88.7281 148.821 89.8175C149.089 90.9259 149.347 92.0153 149.595 93.0855C149.825 94.1366 150.035 95.1782 150.226 96.2102C150.417 97.2231 150.58 98.2074 150.713 99.1629C150.828 100.118 150.914 101.036 150.971 101.915C151.01 102.794 151.01 103.635 150.971 104.438C150.914 105.221 150.809 105.957 150.656 106.645C150.503 107.314 150.283 107.935 149.997 108.508C149.71 109.063 149.347 109.559 148.907 109.999C148.487 110.419 147.98 110.773 147.388 111.06Z" fill="#FF8126" fill-opacity="0.28"/>
</g>
</g>
<rect x="0.5" y="0.5" width="215" height="137" rx="15.5" stroke="white" stroke-opacity="0.1"/>
<defs>
<filter id="filter1_f_5098_19104" x="-10.5" y="-49.5" width="237" height="237" filterUnits="userSpaceOnUse" color-interpolation-filters="sRGB">
<feFlood flood-opacity="0" result="BackgroundImageFix"/>
<feBlend mode="normal" in="SourceGraphic" in2="BackgroundImageFix" result="shape"/>
<feGaussianBlur stdDeviation="37.75" result="effect1_foregroundBlur_5098_19104"/>
</filter>
<linearGradient id="paint0_linear_5098_19104" x1="0.358317" y1="-3.26756e-06" x2="209.404" y2="147.358" gradientUnits="userSpaceOnUse">
<stop stop-color="#1C1C1C"/>
<stop offset="1"/>
</linearGradient>
<linearGradient id="paint1_linear_5098_19104" x1="200.664" y1="16.2871" x2="125.383" y2="174.181" gradientUnits="userSpaceOnUse">
<stop stop-color="#FF8126"/>
<stop offset="1" stop-color="#FA3E18"/>
</linearGradient>
<clipPath id="clip0_5098_19104">
<rect width="216" height="138" rx="16" fill="white"/>
</clipPath>
</defs>
</svg>
