<svg width="216" height="177" viewBox="0 0 216 177" fill="none" xmlns="http://www.w3.org/2000/svg">
<g clip-path="url(#clip0_4955_19585)">
<rect y="0.5" width="216" height="176" rx="16" fill="url(#paint0_linear_4955_19585)" fill-opacity="0.7"/>
<g filter="url(#filter1_f_4955_19585)">
<path fill-rule="evenodd" clip-rule="evenodd" d="M141.335 127.932C140.803 128.198 140.201 128.401 139.529 128.543C138.856 128.685 138.121 128.764 137.324 128.782C136.527 128.818 135.686 128.809 134.801 128.756C133.898 128.685 132.959 128.587 131.985 128.463C130.994 128.322 129.976 128.154 128.931 127.959C127.868 127.746 126.78 127.525 125.664 127.295C124.548 127.047 123.415 126.781 122.264 126.498C121.096 126.215 119.918 125.931 118.732 125.648C117.545 125.347 116.35 125.055 115.146 124.772C113.942 124.471 112.747 124.187 111.56 123.922C110.356 123.638 109.161 123.373 107.975 123.125C106.788 122.877 105.62 122.647 104.469 122.434C103.318 122.239 102.185 122.062 101.069 121.903C99.9535 121.744 98.8557 121.602 97.7755 121.478C96.7131 121.354 95.6596 121.248 94.6149 121.159C93.5879 121.071 92.5786 120.991 91.587 120.92C90.6131 120.849 89.6569 120.779 88.7184 120.708C87.78 120.637 86.8592 120.566 85.9562 120.495C85.0708 120.442 84.2032 120.371 83.3532 120.283C82.521 120.194 81.7065 120.097 80.9097 119.991C80.1129 119.902 79.3515 119.787 78.6255 119.645C77.8818 119.504 77.1735 119.344 76.5007 119.167C75.8278 118.99 75.1726 118.787 74.5352 118.556C73.9154 118.326 73.3223 118.061 72.7556 117.76C72.2067 117.459 71.6755 117.131 71.162 116.777C70.6662 116.405 70.197 116.007 69.7543 115.582C69.3116 115.157 68.9044 114.696 68.5325 114.2C68.143 113.722 67.7888 113.218 67.4701 112.687C67.1514 112.155 66.8681 111.606 66.6202 111.04C66.3546 110.455 66.1244 109.862 65.9296 109.26C65.7348 108.658 65.5666 108.047 65.425 107.428C65.301 106.808 65.2036 106.179 65.1328 105.542C65.062 104.887 65.0177 104.24 65 103.603C65 102.965 65.0177 102.319 65.0531 101.664C65.1062 101.027 65.1948 100.398 65.3187 99.7782C65.425 99.1407 65.5666 98.521 65.7437 97.9189C65.9208 97.2992 66.1244 96.6972 66.3546 96.1128C66.6025 95.5462 66.8681 94.9796 67.1514 94.413C67.4524 93.8641 67.78 93.324 68.1341 92.7928C68.4706 92.2616 68.8424 91.7392 69.2497 91.2257C69.6392 90.7122 70.0553 90.1987 70.498 89.6852C70.923 89.1717 71.3745 88.6671 71.8526 88.1713C72.313 87.6578 72.7911 87.1443 73.2868 86.6308C73.7826 86.1173 74.2961 85.5949 74.8274 85.0637C75.3409 84.5325 75.8721 83.9924 76.421 83.4435C76.9522 82.8946 77.4922 82.3368 78.0412 81.7702C78.5901 81.1859 79.139 80.5927 79.6879 79.9907C80.2368 79.3709 80.7857 78.7335 81.3347 78.0783C81.8836 77.4232 82.4236 76.7503 82.9548 76.0597C83.5038 75.3515 84.035 74.6255 84.5485 73.8818C85.0797 73.1204 85.602 72.3413 86.1155 71.5445C86.629 70.7654 87.1425 69.9597 87.656 69.1275C88.1695 68.3129 88.683 67.4896 89.1965 66.6573C89.71 65.8428 90.2235 65.0195 90.737 64.1872C91.2505 63.3727 91.764 62.5582 92.2775 61.7437C92.791 60.9469 93.3223 60.1678 93.8712 59.4064C94.4024 58.645 94.9424 57.9013 95.4914 57.1753C96.0403 56.467 96.598 55.7941 97.1647 55.1567C97.749 54.5015 98.3333 53.8906 98.9176 53.324C99.5197 52.7751 100.139 52.2616 100.777 51.7835C101.397 51.3231 102.034 50.9159 102.689 50.5617C103.362 50.2076 104.053 49.9243 104.761 49.7118C105.452 49.4816 106.169 49.3222 106.912 49.2337C107.656 49.1452 108.409 49.1098 109.17 49.1275C109.931 49.1629 110.71 49.2514 111.507 49.3931C112.286 49.5347 113.074 49.7295 113.871 49.9774C114.65 50.2253 115.438 50.5175 116.235 50.8539C117.032 51.1903 117.82 51.571 118.599 51.996C119.378 52.4033 120.139 52.8548 120.883 53.3506C121.645 53.8464 122.388 54.3776 123.114 54.9442C123.84 55.4931 124.548 56.0774 125.239 56.6972C125.93 57.3169 126.594 57.9544 127.231 58.6095C127.868 59.2647 128.471 59.9376 129.037 60.6281C129.621 61.3187 130.162 62.027 130.657 62.753C131.171 63.4612 131.64 64.1872 132.065 64.9309C132.508 65.6746 132.906 66.4183 133.26 67.162C133.632 67.9234 133.969 68.6848 134.27 69.4462C134.571 70.2253 134.845 71.0044 135.093 71.7835C135.341 72.5803 135.571 73.3771 135.783 74.1739C135.996 74.9885 136.191 75.8118 136.368 76.6441C136.545 77.4763 136.704 78.3174 136.846 79.1673C137.005 80.0172 137.156 80.8849 137.297 81.7702C137.439 82.6379 137.581 83.5232 137.722 84.4263C137.846 85.3293 137.979 86.2412 138.121 87.162C138.262 88.1004 138.413 89.0478 138.572 90.0039C138.732 90.9424 138.9 91.9074 139.077 92.899C139.272 93.8729 139.475 94.8645 139.688 95.8738C139.9 96.8831 140.131 97.9101 140.378 98.9548C140.609 99.9818 140.857 101.018 141.122 102.062C141.388 103.089 141.653 104.125 141.919 105.17C142.167 106.215 142.415 107.242 142.663 108.251C142.911 109.278 143.15 110.287 143.38 111.279C143.592 112.253 143.787 113.218 143.964 114.174C144.141 115.112 144.292 116.024 144.416 116.91C144.522 117.795 144.602 118.645 144.655 119.459C144.69 120.274 144.69 121.053 144.655 121.797C144.602 122.523 144.504 123.204 144.363 123.842C144.221 124.462 144.017 125.037 143.752 125.568C143.486 126.082 143.15 126.542 142.742 126.949C142.353 127.339 141.884 127.667 141.335 127.932Z" fill="#FF8126" fill-opacity="0.28"/>
</g>
<path d="M32.3921 130.312V131.593H27.7705V130.312H32.3921ZM29.0303 138.5V129.359C29.0303 128.852 29.1426 128.429 29.3672 128.092C29.5967 127.75 29.8945 127.497 30.2607 127.331C30.6318 127.16 31.0298 127.074 31.4546 127.074C31.7817 127.074 32.0601 127.101 32.2896 127.155C32.519 127.208 32.6875 127.255 32.7949 127.294L32.4141 128.583C32.3408 128.559 32.2456 128.532 32.1284 128.502C32.0161 128.473 31.8745 128.458 31.7036 128.458C31.3179 128.458 31.0396 128.556 30.8687 128.751C30.6978 128.942 30.6123 129.22 30.6123 129.586V138.5H29.0303ZM36.5156 138.668C35.749 138.668 35.0776 138.493 34.5015 138.141C33.9302 137.79 33.4858 137.296 33.1685 136.662C32.856 136.027 32.6997 135.29 32.6997 134.45C32.6997 133.6 32.856 132.858 33.1685 132.223C33.4858 131.583 33.9302 131.088 34.5015 130.736C35.0776 130.385 35.749 130.209 36.5156 130.209C37.2871 130.209 37.9585 130.385 38.5298 130.736C39.1011 131.088 39.5454 131.583 39.8628 132.223C40.1802 132.858 40.3389 133.6 40.3389 134.45C40.3389 135.29 40.1802 136.027 39.8628 136.662C39.5454 137.296 39.1011 137.79 38.5298 138.141C37.9585 138.493 37.2871 138.668 36.5156 138.668ZM36.5156 137.328C37.0186 137.328 37.4336 137.196 37.7607 136.933C38.0879 136.669 38.3296 136.32 38.4858 135.885C38.647 135.446 38.7275 134.967 38.7275 134.45C38.7275 133.922 38.647 133.439 38.4858 133C38.3296 132.56 38.0879 132.208 37.7607 131.945C37.4336 131.681 37.0186 131.549 36.5156 131.549C36.0176 131.549 35.605 131.681 35.2778 131.945C34.9556 132.208 34.7139 132.56 34.5527 133C34.3916 133.439 34.311 133.922 34.311 134.45C34.311 134.967 34.3916 135.446 34.5527 135.885C34.7139 136.32 34.9556 136.669 35.2778 136.933C35.605 137.196 36.0176 137.328 36.5156 137.328ZM41.4888 138.5V130.312H43.0195V131.623H43.1074C43.2588 131.183 43.5225 130.836 43.8984 130.583C44.2793 130.324 44.709 130.194 45.1875 130.194C45.2852 130.194 45.3999 130.199 45.5317 130.209C45.6685 130.214 45.7783 130.221 45.8613 130.231V131.754C45.7979 131.735 45.6831 131.715 45.5171 131.696C45.356 131.676 45.1924 131.667 45.0264 131.667C44.6504 131.667 44.3135 131.747 44.0156 131.908C43.7227 132.064 43.4907 132.282 43.3198 132.56C43.1538 132.833 43.0708 133.151 43.0708 133.512V138.5H41.4888ZM49.5454 129V127.587H57.9976V129H54.5991V138.5H52.9585V129H49.5454ZM63.1685 135.116V130.312H64.7505V138.5H63.1978V137.079H63.1099C62.9146 137.514 62.6118 137.877 62.2017 138.17C61.7915 138.463 61.2788 138.607 60.6636 138.603C60.1362 138.603 59.6699 138.488 59.2646 138.258C58.8643 138.029 58.5493 137.685 58.3198 137.226C58.0952 136.767 57.9829 136.198 57.9829 135.519V130.312H59.5649V135.336C59.5649 135.888 59.7212 136.33 60.0337 136.662C60.3462 136.994 60.749 137.157 61.2422 137.152C61.54 137.152 61.8354 137.079 62.1284 136.933C62.4263 136.786 62.6729 136.562 62.8682 136.259C63.0684 135.956 63.1685 135.575 63.1685 135.116ZM67.856 133.644V138.5H66.2739V130.312H67.812V131.659H67.9219C68.1074 131.215 68.3979 130.863 68.7935 130.604C69.189 130.341 69.6968 130.209 70.3169 130.209C70.8735 130.209 71.3594 130.326 71.7744 130.561C72.1943 130.79 72.519 131.134 72.7485 131.593C72.9829 132.052 73.1001 132.621 73.1001 133.3V138.5H71.5181V133.49C71.5181 132.899 71.3618 132.436 71.0493 132.099C70.7368 131.757 70.312 131.586 69.7749 131.586C69.4087 131.586 69.0791 131.669 68.7861 131.835C68.498 131.996 68.271 132.228 68.105 132.531C67.939 132.833 67.856 133.205 67.856 133.644ZM78.1465 138.668C77.3457 138.668 76.6523 138.495 76.0664 138.148C75.4805 137.802 75.0288 137.313 74.7114 136.684C74.3989 136.049 74.2427 135.309 74.2427 134.464C74.2427 133.625 74.3965 132.885 74.7041 132.245C75.0166 131.605 75.4536 131.107 76.0151 130.751C76.5815 130.39 77.2456 130.209 78.0073 130.209C78.4712 130.209 78.9204 130.285 79.355 130.436C79.7896 130.587 80.1802 130.827 80.5269 131.154C80.8735 131.481 81.147 131.906 81.3472 132.428C81.5522 132.951 81.6548 133.581 81.6548 134.318V134.889H75.1436V133.695H80.8345L80.0947 134.091C80.0947 133.588 80.0166 133.144 79.8604 132.758C79.7041 132.372 79.4697 132.072 79.1572 131.857C78.8496 131.637 78.4663 131.527 78.0073 131.527C77.5483 131.527 77.1553 131.637 76.8281 131.857C76.5059 132.077 76.2593 132.367 76.0884 132.729C75.9175 133.09 75.832 133.485 75.832 133.915V134.728C75.832 135.29 75.9297 135.766 76.125 136.156C76.3203 136.547 76.5913 136.845 76.938 137.05C77.2896 137.255 77.6973 137.357 78.1611 137.357C78.4639 137.357 78.7373 137.313 78.9814 137.226C79.2305 137.138 79.4453 137.006 79.626 136.83C79.8066 136.654 79.9434 136.437 80.0361 136.178L81.5449 136.464C81.4229 136.903 81.208 137.289 80.9004 137.621C80.5928 137.953 80.2046 138.212 79.7358 138.397C79.272 138.578 78.7422 138.668 78.1465 138.668ZM85.8149 138.661C85.1509 138.661 84.5601 138.493 84.0425 138.156C83.5249 137.814 83.1196 137.328 82.8267 136.698C82.5337 136.063 82.3872 135.307 82.3872 134.428C82.3872 133.539 82.5361 132.78 82.834 132.15C83.1318 131.52 83.5396 131.039 84.0571 130.707C84.5747 130.375 85.1606 130.209 85.8149 130.209C86.3276 130.209 86.7378 130.294 87.0454 130.465C87.3579 130.631 87.5996 130.827 87.7705 131.051C87.9463 131.276 88.0806 131.474 88.1733 131.645H88.2686V127.587H89.8506V138.5H88.3052V137.226H88.1733C88.0806 137.396 87.9438 137.594 87.7632 137.819C87.5825 138.043 87.3359 138.241 87.0234 138.412C86.7158 138.578 86.313 138.661 85.8149 138.661ZM86.1592 137.306C86.6182 137.306 87.0063 137.184 87.3237 136.94C87.6411 136.696 87.8804 136.356 88.0415 135.922C88.2075 135.487 88.2905 134.984 88.2905 134.413C88.2905 133.842 88.21 133.344 88.0488 132.919C87.8877 132.489 87.6484 132.157 87.3311 131.923C87.0137 131.684 86.623 131.564 86.1592 131.564C85.6807 131.564 85.2827 131.688 84.9653 131.938C84.6479 132.187 84.4087 132.526 84.2476 132.956C84.0864 133.385 84.0059 133.871 84.0059 134.413C84.0059 134.96 84.0864 135.453 84.2476 135.893C84.4087 136.327 84.6479 136.671 84.9653 136.925C85.2876 137.179 85.6855 137.306 86.1592 137.306ZM99.394 138.646C98.4565 138.646 97.6167 138.422 96.8745 137.973C96.1323 137.523 95.5488 136.881 95.124 136.046C94.6992 135.207 94.4868 134.208 94.4868 133.051C94.4868 131.884 94.6992 130.883 95.124 130.048C95.5537 129.208 96.1372 128.563 96.8745 128.114C97.6167 127.665 98.4565 127.44 99.394 127.44C99.9702 127.44 100.51 127.523 101.013 127.689C101.521 127.855 101.975 128.097 102.375 128.415C102.775 128.732 103.105 129.12 103.364 129.579C103.627 130.038 103.803 130.558 103.891 131.139H102.236C102.172 130.783 102.053 130.47 101.877 130.202C101.706 129.928 101.494 129.699 101.24 129.513C100.991 129.323 100.71 129.181 100.397 129.088C100.09 128.991 99.7627 128.942 99.416 128.942C98.791 128.942 98.2271 129.101 97.7241 129.418C97.2261 129.73 96.833 130.194 96.5449 130.81C96.2617 131.42 96.1201 132.167 96.1201 133.051C96.1201 133.939 96.2642 134.689 96.5522 135.299C96.8403 135.905 97.2334 136.364 97.7314 136.676C98.2295 136.989 98.7886 137.145 99.4087 137.145C99.7554 137.145 100.083 137.099 100.39 137.006C100.698 136.913 100.979 136.774 101.232 136.588C101.486 136.403 101.699 136.178 101.87 135.915C102.045 135.646 102.167 135.336 102.236 134.984H103.891C103.808 135.526 103.64 136.022 103.386 136.471C103.132 136.916 102.807 137.301 102.412 137.628C102.016 137.951 101.564 138.202 101.057 138.383C100.549 138.559 99.9946 138.646 99.394 138.646ZM107.495 138.676C106.977 138.676 106.508 138.581 106.088 138.39C105.668 138.195 105.336 137.912 105.092 137.541C104.848 137.169 104.726 136.718 104.726 136.186C104.726 135.722 104.814 135.343 104.99 135.05C105.17 134.752 105.412 134.516 105.715 134.34C106.018 134.164 106.354 134.032 106.726 133.944C107.097 133.856 107.478 133.788 107.868 133.739C108.361 133.686 108.759 133.639 109.062 133.6C109.365 133.561 109.584 133.5 109.721 133.417C109.863 133.329 109.934 133.19 109.934 133V132.963C109.934 132.499 109.802 132.14 109.538 131.886C109.279 131.632 108.894 131.505 108.381 131.505C107.849 131.505 107.426 131.623 107.114 131.857C106.806 132.086 106.594 132.348 106.477 132.641L104.975 132.296C105.156 131.798 105.417 131.398 105.759 131.095C106.105 130.788 106.501 130.563 106.945 130.421C107.395 130.28 107.863 130.209 108.352 130.209C108.679 130.209 109.025 130.248 109.392 130.326C109.758 130.399 110.102 130.539 110.424 130.744C110.751 130.944 111.018 131.232 111.223 131.608C111.428 131.984 111.53 132.47 111.53 133.065V138.5H109.97V137.379H109.912C109.814 137.58 109.66 137.78 109.45 137.98C109.245 138.18 108.981 138.346 108.659 138.478C108.337 138.61 107.949 138.676 107.495 138.676ZM107.839 137.401C108.283 137.401 108.662 137.316 108.974 137.145C109.287 136.969 109.526 136.74 109.692 136.457C109.858 136.173 109.941 135.873 109.941 135.556V134.494C109.882 134.547 109.772 134.599 109.611 134.647C109.45 134.696 109.267 134.738 109.062 134.772C108.857 134.806 108.657 134.838 108.461 134.867C108.266 134.892 108.103 134.911 107.971 134.926C107.663 134.97 107.382 135.038 107.128 135.131C106.875 135.219 106.669 135.351 106.513 135.526C106.362 135.697 106.286 135.924 106.286 136.208C106.286 136.603 106.433 136.901 106.726 137.101C107.019 137.301 107.39 137.401 107.839 137.401ZM113.061 138.5V130.312H114.592V131.623H114.68C114.831 131.183 115.095 130.836 115.471 130.583C115.852 130.324 116.281 130.194 116.76 130.194C116.857 130.194 116.972 130.199 117.104 130.209C117.241 130.214 117.351 130.221 117.434 130.231V131.754C117.37 131.735 117.255 131.715 117.089 131.696C116.928 131.676 116.765 131.667 116.599 131.667C116.223 131.667 115.886 131.747 115.588 131.908C115.295 132.064 115.063 132.282 114.892 132.56C114.726 132.833 114.643 133.151 114.643 133.512V138.5H113.061ZM124.326 132.318L122.883 132.567C122.79 132.294 122.617 132.042 122.363 131.813C122.114 131.583 121.74 131.469 121.242 131.469C120.793 131.469 120.417 131.571 120.114 131.776C119.816 131.977 119.667 132.233 119.667 132.545C119.667 132.819 119.768 133.041 119.968 133.212C120.173 133.383 120.498 133.52 120.942 133.622L122.253 133.915C123 134.086 123.559 134.354 123.93 134.721C124.301 135.087 124.487 135.556 124.487 136.127C124.487 136.62 124.345 137.06 124.062 137.445C123.779 137.826 123.386 138.126 122.883 138.346C122.38 138.561 121.799 138.668 121.14 138.668C120.222 138.668 119.475 138.471 118.898 138.075C118.322 137.68 117.968 137.123 117.836 136.405L119.367 136.171C119.465 136.571 119.663 136.874 119.96 137.079C120.263 137.284 120.654 137.387 121.132 137.387C121.65 137.387 122.065 137.277 122.377 137.057C122.695 136.837 122.854 136.571 122.854 136.259C122.854 135.741 122.468 135.392 121.696 135.211L120.312 134.904C119.545 134.728 118.979 134.452 118.613 134.076C118.251 133.695 118.071 133.217 118.071 132.641C118.071 132.157 118.205 131.732 118.474 131.366C118.747 131 119.121 130.717 119.594 130.517C120.073 130.312 120.617 130.209 121.228 130.209C122.116 130.209 122.812 130.402 123.315 130.788C123.823 131.173 124.16 131.684 124.326 132.318ZM132.375 138.668C131.608 138.668 130.937 138.493 130.361 138.141C129.79 137.79 129.345 137.296 129.028 136.662C128.715 136.027 128.559 135.29 128.559 134.45C128.559 133.6 128.715 132.858 129.028 132.223C129.345 131.583 129.79 131.088 130.361 130.736C130.937 130.385 131.608 130.209 132.375 130.209C133.146 130.209 133.818 130.385 134.389 130.736C134.96 131.088 135.405 131.583 135.722 132.223C136.04 132.858 136.198 133.6 136.198 134.45C136.198 135.29 136.04 136.027 135.722 136.662C135.405 137.296 134.96 137.79 134.389 138.141C133.818 138.493 133.146 138.668 132.375 138.668ZM132.375 137.328C132.878 137.328 133.293 137.196 133.62 136.933C133.947 136.669 134.189 136.32 134.345 135.885C134.506 135.446 134.587 134.967 134.587 134.45C134.587 133.922 134.506 133.439 134.345 133C134.189 132.56 133.947 132.208 133.62 131.945C133.293 131.681 132.878 131.549 132.375 131.549C131.877 131.549 131.464 131.681 131.137 131.945C130.815 132.208 130.573 132.56 130.412 133C130.251 133.439 130.17 133.922 130.17 134.45C130.17 134.967 130.251 135.446 130.412 135.885C130.573 136.32 130.815 136.669 131.137 136.933C131.464 137.196 131.877 137.328 132.375 137.328ZM138.93 133.644V138.5H137.348V130.312H138.886V131.659H138.996C139.182 131.215 139.472 130.863 139.868 130.604C140.263 130.341 140.771 130.209 141.391 130.209C141.948 130.209 142.434 130.326 142.849 130.561C143.269 130.79 143.593 131.134 143.823 131.593C144.057 132.052 144.174 132.621 144.174 133.3V138.5H142.592V133.49C142.592 132.899 142.436 132.436 142.124 132.099C141.811 131.757 141.386 131.586 140.849 131.586C140.483 131.586 140.153 131.669 139.86 131.835C139.572 131.996 139.345 132.228 139.179 132.531C139.013 132.833 138.93 133.205 138.93 133.644ZM149.155 138.5V127.587H153.051C153.896 127.587 154.597 127.743 155.153 128.056C155.71 128.363 156.127 128.786 156.406 129.323C156.684 129.855 156.823 130.456 156.823 131.125C156.823 131.793 156.684 132.396 156.406 132.934C156.127 133.466 155.708 133.888 155.146 134.201C154.589 134.508 153.886 134.662 153.037 134.662H150.371V133.271H152.883C153.425 133.271 153.862 133.178 154.194 132.992C154.531 132.807 154.775 132.553 154.926 132.23C155.083 131.903 155.161 131.535 155.161 131.125C155.161 130.709 155.083 130.343 154.926 130.026C154.775 129.704 154.531 129.452 154.194 129.271C153.857 129.091 153.417 129 152.875 129H150.803V138.5H149.155ZM163.173 135.116V130.312H164.755V138.5H163.203V137.079H163.115C162.919 137.514 162.617 137.877 162.207 138.17C161.796 138.463 161.284 138.607 160.668 138.603C160.141 138.603 159.675 138.488 159.27 138.258C158.869 138.029 158.554 137.685 158.325 137.226C158.1 136.767 157.988 136.198 157.988 135.519V130.312H159.57V135.336C159.57 135.888 159.726 136.33 160.039 136.662C160.351 136.994 160.754 137.157 161.247 137.152C161.545 137.152 161.84 137.079 162.133 136.933C162.431 136.786 162.678 136.562 162.873 136.259C163.073 135.956 163.173 135.575 163.173 135.116ZM170.314 138.661C169.821 138.661 169.416 138.578 169.099 138.412C168.786 138.241 168.54 138.043 168.359 137.819C168.183 137.594 168.046 137.396 167.949 137.226H167.817V138.5H166.279V127.587H167.861V131.645H167.949C168.046 131.474 168.181 131.276 168.352 131.051C168.527 130.827 168.771 130.631 169.084 130.465C169.396 130.294 169.804 130.209 170.307 130.209C170.966 130.209 171.552 130.375 172.065 130.707C172.583 131.039 172.99 131.52 173.288 132.15C173.586 132.78 173.735 133.539 173.735 134.428C173.735 135.307 173.588 136.063 173.295 136.698C173.002 137.328 172.597 137.814 172.08 138.156C171.567 138.493 170.979 138.661 170.314 138.661ZM169.97 137.306C170.444 137.306 170.839 137.179 171.157 136.925C171.474 136.671 171.713 136.327 171.875 135.893C172.041 135.453 172.124 134.96 172.124 134.413C172.124 133.871 172.043 133.385 171.882 132.956C171.721 132.526 171.481 132.187 171.164 131.938C170.847 131.688 170.449 131.564 169.97 131.564C169.506 131.564 169.116 131.684 168.798 131.923C168.481 132.157 168.239 132.489 168.073 132.919C167.912 133.344 167.832 133.842 167.832 134.413C167.832 134.984 167.915 135.487 168.081 135.922C168.247 136.356 168.488 136.696 168.806 136.94C169.128 137.184 169.516 137.306 169.97 137.306ZM176.474 127.587V138.5H174.892V127.587H176.474ZM177.998 138.5V130.312H179.58V138.5H177.998ZM178.796 129.052C178.518 129.052 178.281 128.959 178.085 128.773C177.89 128.588 177.792 128.366 177.792 128.107C177.792 127.843 177.89 127.619 178.085 127.433C178.281 127.248 178.518 127.155 178.796 127.155C179.069 127.155 179.304 127.248 179.499 127.433C179.699 127.619 179.799 127.843 179.799 128.107C179.799 128.366 179.699 128.588 179.499 128.773C179.304 128.959 179.069 129.052 178.796 129.052ZM184.538 138.668C183.752 138.668 183.073 138.488 182.502 138.126C181.931 137.765 181.491 137.267 181.184 136.632C180.876 135.998 180.722 135.27 180.722 134.45C180.722 133.615 180.878 132.88 181.191 132.245C181.508 131.605 181.95 131.107 182.517 130.751C183.088 130.39 183.757 130.209 184.523 130.209C185.148 130.209 185.703 130.324 186.186 130.553C186.674 130.778 187.067 131.098 187.365 131.513C187.668 131.928 187.846 132.411 187.9 132.963H186.347C186.293 132.704 186.188 132.467 186.032 132.252C185.881 132.038 185.681 131.867 185.432 131.74C185.183 131.613 184.887 131.549 184.545 131.549C184.101 131.549 183.713 131.667 183.381 131.901C183.054 132.13 182.797 132.46 182.612 132.89C182.426 133.319 182.333 133.827 182.333 134.413C182.333 135.004 182.424 135.519 182.604 135.958C182.785 136.398 183.042 136.737 183.374 136.977C183.71 137.211 184.101 137.328 184.545 137.328C185.004 137.328 185.395 137.201 185.717 136.947C186.044 136.693 186.254 136.347 186.347 135.907H187.9C187.846 136.439 187.675 136.913 187.387 137.328C187.099 137.743 186.713 138.07 186.23 138.31C185.747 138.549 185.183 138.668 184.538 138.668ZM87.126 156.676C86.3105 156.676 85.6025 156.549 85.002 156.295C84.4062 156.036 83.9399 155.667 83.603 155.189C83.2661 154.71 83.0781 154.142 83.0391 153.482H84.6943C84.7285 153.878 84.8555 154.208 85.0752 154.471C85.2998 154.73 85.5903 154.923 85.9468 155.05C86.3032 155.177 86.6938 155.24 87.1187 155.24C87.5825 155.24 87.9976 155.167 88.3638 155.021C88.73 154.874 89.0156 154.669 89.2207 154.405C89.4307 154.137 89.5356 153.824 89.5356 153.468C89.5356 153.146 89.4429 152.882 89.2573 152.677C89.0767 152.472 88.8301 152.303 88.5176 152.171C88.2051 152.035 87.8535 151.915 87.4629 151.812L86.1812 151.461C85.3022 151.227 84.6089 150.877 84.1011 150.414C83.5933 149.945 83.3394 149.332 83.3394 148.575C83.3394 147.945 83.5078 147.396 83.8447 146.927C84.1865 146.458 84.6479 146.095 85.229 145.836C85.8149 145.572 86.4717 145.44 87.1992 145.44C87.9414 145.44 88.5933 145.572 89.1548 145.836C89.7212 146.095 90.168 146.451 90.4951 146.905C90.8271 147.354 91.0005 147.87 91.0151 148.451H89.4185C89.3599 147.948 89.1255 147.557 88.7153 147.279C88.3101 147 87.7925 146.861 87.1626 146.861C86.7231 146.861 86.3374 146.932 86.0054 147.074C85.6782 147.21 85.4243 147.401 85.2437 147.645C85.0679 147.889 84.98 148.17 84.98 148.487C84.98 148.829 85.085 149.107 85.2949 149.322C85.5098 149.537 85.7686 149.708 86.0713 149.835C86.3789 149.957 86.6743 150.057 86.9575 150.135L88.0195 150.421C88.3662 150.509 88.7227 150.626 89.0889 150.772C89.4551 150.919 89.7944 151.112 90.1069 151.351C90.4243 151.585 90.6782 151.878 90.8687 152.23C91.064 152.577 91.1616 152.997 91.1616 153.49C91.1616 154.1 91.0029 154.647 90.6855 155.13C90.3682 155.609 89.9092 155.987 89.3086 156.266C88.708 156.539 87.9805 156.676 87.126 156.676ZM95.9004 156.668C95.0996 156.668 94.4062 156.495 93.8203 156.148C93.2344 155.802 92.7827 155.313 92.4653 154.684C92.1528 154.049 91.9966 153.309 91.9966 152.464C91.9966 151.625 92.1504 150.885 92.458 150.245C92.7705 149.605 93.2075 149.107 93.769 148.751C94.3354 148.39 94.9995 148.209 95.7612 148.209C96.2251 148.209 96.6743 148.285 97.1089 148.436C97.5435 148.587 97.9341 148.827 98.2808 149.154C98.6274 149.481 98.9009 149.906 99.1011 150.428C99.3062 150.951 99.4087 151.581 99.4087 152.318V152.889H92.8975V151.695H98.5884L97.8486 152.091C97.8486 151.588 97.7705 151.144 97.6143 150.758C97.458 150.372 97.2236 150.072 96.9111 149.857C96.6035 149.637 96.2202 149.527 95.7612 149.527C95.3022 149.527 94.9092 149.637 94.582 149.857C94.2598 150.077 94.0132 150.367 93.8423 150.729C93.6714 151.09 93.5859 151.485 93.5859 151.915V152.728C93.5859 153.29 93.6836 153.766 93.8789 154.156C94.0742 154.547 94.3452 154.845 94.6919 155.05C95.0435 155.255 95.4512 155.357 95.915 155.357C96.2178 155.357 96.4912 155.313 96.7354 155.226C96.9844 155.138 97.1992 155.006 97.3799 154.83C97.5605 154.654 97.6973 154.437 97.79 154.178L99.2988 154.464C99.1768 154.903 98.9619 155.289 98.6543 155.621C98.3467 155.953 97.9585 156.212 97.4897 156.397C97.0259 156.578 96.4961 156.668 95.9004 156.668ZM100.522 156.5V148.312H102.053V149.623H102.141C102.292 149.183 102.556 148.836 102.932 148.583C103.312 148.324 103.742 148.194 104.221 148.194C104.318 148.194 104.433 148.199 104.565 148.209C104.702 148.214 104.812 148.221 104.895 148.231V149.754C104.831 149.735 104.716 149.715 104.55 149.696C104.389 149.676 104.226 149.667 104.06 149.667C103.684 149.667 103.347 149.747 103.049 149.908C102.756 150.064 102.524 150.282 102.353 150.56C102.187 150.833 102.104 151.151 102.104 151.512V156.5H100.522ZM112.9 148.312L109.941 156.5H108.227L105.261 148.312H106.967L109.047 154.625H109.135L111.201 148.312H112.9ZM117.009 156.668C116.208 156.668 115.515 156.495 114.929 156.148C114.343 155.802 113.891 155.313 113.574 154.684C113.261 154.049 113.105 153.309 113.105 152.464C113.105 151.625 113.259 150.885 113.566 150.245C113.879 149.605 114.316 149.107 114.877 148.751C115.444 148.39 116.108 148.209 116.87 148.209C117.333 148.209 117.783 148.285 118.217 148.436C118.652 148.587 119.042 148.827 119.389 149.154C119.736 149.481 120.009 149.906 120.209 150.428C120.415 150.951 120.517 151.581 120.517 152.318V152.889H114.006V151.695H119.697L118.957 152.091C118.957 151.588 118.879 151.144 118.723 150.758C118.566 150.372 118.332 150.072 118.02 149.857C117.712 149.637 117.329 149.527 116.87 149.527C116.411 149.527 116.018 149.637 115.69 149.857C115.368 150.077 115.122 150.367 114.951 150.729C114.78 151.09 114.694 151.485 114.694 151.915V152.728C114.694 153.29 114.792 153.766 114.987 154.156C115.183 154.547 115.454 154.845 115.8 155.05C116.152 155.255 116.56 155.357 117.023 155.357C117.326 155.357 117.6 155.313 117.844 155.226C118.093 155.138 118.308 155.006 118.488 154.83C118.669 154.654 118.806 154.437 118.898 154.178L120.407 154.464C120.285 154.903 120.07 155.289 119.763 155.621C119.455 155.953 119.067 156.212 118.598 156.397C118.134 156.578 117.604 156.668 117.009 156.668ZM121.63 156.5V148.312H123.161V149.623H123.249C123.4 149.183 123.664 148.836 124.04 148.583C124.421 148.324 124.851 148.194 125.329 148.194C125.427 148.194 125.542 148.199 125.673 148.209C125.81 148.214 125.92 148.221 126.003 148.231V149.754C125.939 149.735 125.825 149.715 125.659 149.696C125.498 149.676 125.334 149.667 125.168 149.667C124.792 149.667 124.455 149.747 124.157 149.908C123.864 150.064 123.632 150.282 123.461 150.56C123.295 150.833 123.212 151.151 123.212 151.512V156.5H121.63ZM132.895 150.318L131.452 150.567C131.359 150.294 131.186 150.042 130.932 149.813C130.683 149.583 130.31 149.469 129.812 149.469C129.362 149.469 128.986 149.571 128.684 149.776C128.386 149.977 128.237 150.233 128.237 150.545C128.237 150.819 128.337 151.041 128.537 151.212C128.742 151.383 129.067 151.52 129.511 151.622L130.822 151.915C131.569 152.086 132.128 152.354 132.5 152.721C132.871 153.087 133.056 153.556 133.056 154.127C133.056 154.62 132.915 155.06 132.631 155.445C132.348 155.826 131.955 156.126 131.452 156.346C130.949 156.561 130.368 156.668 129.709 156.668C128.791 156.668 128.044 156.471 127.468 156.075C126.892 155.68 126.538 155.123 126.406 154.405L127.937 154.171C128.034 154.571 128.232 154.874 128.53 155.079C128.833 155.284 129.223 155.387 129.702 155.387C130.219 155.387 130.634 155.277 130.947 155.057C131.264 154.837 131.423 154.571 131.423 154.259C131.423 153.741 131.037 153.392 130.266 153.211L128.881 152.904C128.115 152.728 127.548 152.452 127.182 152.076C126.821 151.695 126.64 151.217 126.64 150.641C126.64 150.157 126.774 149.732 127.043 149.366C127.316 149 127.69 148.717 128.164 148.517C128.642 148.312 129.187 148.209 129.797 148.209C130.686 148.209 131.381 148.402 131.884 148.788C132.392 149.173 132.729 149.684 132.895 150.318Z" fill="white" fill-opacity="0.95"/>
<g filter="url(#filter2_d_4955_19585)">
<rect width="170" height="52" rx="26" transform="matrix(0.984808 -0.173648 0.34202 0.939693 15 46.0195)" fill="white" fill-opacity="0.05" shape-rendering="crispEdges"/>
<rect width="170" height="52" rx="26" transform="matrix(0.984808 -0.173648 0.34202 0.939693 15 46.0195)" fill="url(#paint1_linear_4955_19585)" shape-rendering="crispEdges"/>
<rect x="0.995121" y="0.574533" width="168.5" height="50.5" rx="25.25" transform="matrix(0.984808 -0.173648 0.34202 0.939693 14.8186 46.227)" stroke="url(#paint2_linear_4955_19585)" stroke-opacity="0.17" stroke-width="1.5" shape-rendering="crispEdges"/>
<path d="M39.5904 61.7705L45.6224 69.5912L45.7378 69.5708L45.6926 60.6945L47.4381 60.3867L47.3117 71.3221L45.4363 71.6528L37.8377 62.0795L39.5904 61.7705ZM49.9771 59.939L53.7096 70.194L52.0867 70.4801L48.3542 60.2252L49.9771 59.939ZM55.4479 69.8875L51.7154 59.6325L55.5527 58.9559C56.3846 58.8092 57.1281 58.8344 57.7831 59.0314C58.4365 59.2238 58.9921 59.5482 59.4499 60.0046C59.906 60.4564 60.2485 60.9966 60.4773 61.6252C60.7061 62.2538 60.7753 62.8446 60.6849 63.3976C60.5928 63.9461 60.3237 64.4159 59.8776 64.8071C59.4347 65.1928 58.7948 65.4594 57.9581 65.607L55.3326 66.0699L54.8567 64.7622L57.3307 64.326C57.8645 64.2319 58.2631 64.0688 58.5266 63.8368C58.795 63.6039 58.9485 63.3229 58.9874 62.9938C59.0294 62.6593 58.9802 62.2993 58.8399 61.9139C58.698 61.5239 58.4958 61.1933 58.2334 60.9222C57.9741 60.6457 57.6477 60.4517 57.2541 60.3405C56.8605 60.2292 56.3968 60.2206 55.8631 60.3148L53.8218 60.6747L57.0708 69.6013L55.4479 69.8875ZM71.3516 60.9016L70.0158 61.3861C69.8309 61.1453 69.5742 60.9391 69.2457 60.7675C68.9219 60.5951 68.5148 60.5522 68.0244 60.6387C67.582 60.7167 67.2468 60.8783 67.0188 61.1236C66.7939 61.3634 66.7349 61.6302 66.8418 61.9238C66.9353 62.1808 67.1099 62.3722 67.3655 62.498C67.6259 62.623 67.9925 62.6951 68.4651 62.7143L69.8564 62.7619C70.6506 62.7928 71.293 62.948 71.7837 63.2277C72.2745 63.5074 72.6175 63.9157 72.8129 64.4525C72.9816 64.9159 72.9924 65.3535 72.8454 65.7651C72.6968 66.1722 72.4124 66.5226 71.9923 66.8164C71.5705 67.1057 71.035 67.3075 70.3858 67.422C69.4818 67.5814 68.6784 67.5253 67.9758 67.2537C67.2731 66.9821 66.7341 66.5205 66.3587 65.8689L67.7861 65.3828C68.0192 65.7421 68.3175 65.9922 68.6809 66.1332C69.0492 66.2734 69.469 66.3019 69.9402 66.2188C70.4499 66.1289 70.8211 65.9536 71.0537 65.6929C71.2911 65.4313 71.3564 65.1537 71.2495 64.86C71.0725 64.3736 70.5732 64.1126 69.7516 64.0768L68.2832 64.0281C67.4681 63.996 66.8159 63.8351 66.3267 63.5454C65.8406 63.2503 65.499 62.832 65.302 62.2906C65.1366 61.8363 65.1236 61.4138 65.2628 61.0231C65.4068 60.6314 65.6778 60.3005 66.0758 60.0301C66.4769 59.7543 66.978 59.5634 67.5791 59.4574C68.4542 59.3031 69.2054 59.3635 69.8327 59.6386C70.4647 59.9129 70.971 60.3339 71.3516 60.9016ZM72.5464 55.9595L76.2789 66.2144L74.7209 66.4891L70.9884 56.2342L72.5464 55.9595ZM81.2197 65.5117C80.4647 65.6448 79.7434 65.5962 79.0557 65.3659C78.3729 65.1347 77.7666 64.7485 77.237 64.2071C76.7121 63.6649 76.3061 62.9992 76.0188 62.21C75.7282 61.4116 75.6283 60.687 75.7189 60.0363C75.8127 59.3801 76.0808 58.8372 76.5232 58.4077C76.9703 57.9773 77.5714 57.6955 78.3264 57.5624C79.0861 57.4284 79.8074 57.477 80.4903 57.7082C81.1731 57.9393 81.7802 58.3279 82.3116 58.8738C82.8412 59.4152 83.2513 60.0851 83.5419 60.8834C83.8292 61.6726 83.9251 62.393 83.8296 63.0446C83.7342 63.6962 83.4652 64.2368 83.0229 64.6664C82.5805 65.0959 81.9794 65.3777 81.2197 65.5117ZM80.7612 64.2522C81.2565 64.1648 81.6202 63.9689 81.8522 63.6643C82.0842 63.3597 82.2028 62.9897 82.208 62.5542C82.2164 62.1133 82.1321 61.6496 81.9551 61.1632C81.7747 60.6677 81.53 60.2275 81.2211 59.8425C80.9169 59.4567 80.5586 59.1683 80.1463 58.9773C79.7339 58.7863 79.2801 58.7345 78.7848 58.8219C78.2943 58.9084 77.9331 59.1039 77.7011 59.4085C77.4739 59.7122 77.3561 60.0845 77.3477 60.5255C77.3393 60.9664 77.4253 61.4346 77.6057 61.9302C77.7827 62.4165 78.0257 62.8522 78.3347 63.2372C78.642 63.6176 78.9994 63.9036 79.407 64.0955C79.8193 64.2864 80.2708 64.3387 80.7612 64.2522ZM87.0098 56.1338L87.4481 57.3382L83.0482 58.1141L82.6099 56.9096L87.0098 56.1338ZM83.1192 54.8716L84.6844 54.5956L87.3298 61.8635C87.4583 62.2168 87.6296 62.4625 87.8436 62.6005C88.056 62.734 88.3328 62.7706 88.6742 62.7104C88.756 62.696 88.8409 62.6761 88.9289 62.6509C89.0217 62.6247 89.1129 62.594 89.2024 62.5587L89.949 63.7454C89.8087 63.8239 89.6498 63.8934 89.4723 63.954C89.2948 64.0146 89.1122 64.0614 88.9247 64.0945C88.2274 64.2174 87.602 64.1299 87.0484 63.8321C86.4931 63.5296 86.1019 63.0663 85.8748 62.4423L83.1192 54.8716ZM94.7215 56.7808L93.3858 57.2654C93.2009 57.0245 92.9442 56.8183 92.6156 56.6468C92.2919 56.4744 91.8848 56.4314 91.3943 56.5179C90.9519 56.5959 90.6167 56.7575 90.3887 57.0028C90.1639 57.2427 90.1049 57.5094 90.2118 57.8031C90.3053 58.06 90.4798 58.2514 90.7355 58.3772C90.9959 58.5022 91.3624 58.5743 91.8351 58.5935L93.2264 58.6411C94.0205 58.672 94.663 58.8273 95.1537 59.107C95.6444 59.3867 95.9875 59.7949 96.1828 60.3318C96.3515 60.7952 96.3624 61.2327 96.2154 61.6444C96.0668 62.0514 95.7824 62.4019 95.3622 62.6957C94.9404 62.9849 94.4049 63.1868 93.7558 63.3012C92.8517 63.4606 92.0484 63.4045 91.3457 63.1329C90.643 62.8613 90.104 62.3997 89.7287 61.7481L91.156 61.2621C91.3891 61.6214 91.6874 61.8715 92.0509 62.0125C92.4192 62.1526 92.8389 62.1811 93.3102 62.0981C93.8199 62.0082 94.1911 61.8329 94.4237 61.5721C94.6611 61.3105 94.7263 61.0329 94.6194 60.7393C94.4424 60.2529 93.9431 59.9918 93.1216 59.956L91.6531 59.9073C90.838 59.8753 90.1859 59.7144 89.6967 59.4247C89.2106 59.1295 88.869 58.7112 88.6719 58.1698C88.5066 57.7156 88.4935 57.2931 88.6327 56.9023C88.7768 56.5107 89.0478 56.1797 89.4457 55.9093C89.8468 55.6335 90.3479 55.4426 90.949 55.3367C91.8242 55.1823 92.5754 55.2428 93.2026 55.5179C93.8346 55.7922 94.3409 56.2132 94.7215 56.7808Z" fill="white" fill-opacity="0.95"/>
<g filter="url(#filter3_d_4955_19585)">
<rect width="77" height="36" rx="18" transform="matrix(0.984808 -0.173648 0.34202 0.939693 101.445 38.777)" fill="white" fill-opacity="0.1" shape-rendering="crispEdges"/>
<rect x="0.663414" y="0.383022" width="76" height="35" rx="17.5" transform="matrix(0.984808 -0.173648 0.34202 0.939693 101.324 38.9153)" stroke="white" stroke-opacity="0.1" shape-rendering="crispEdges"/>
<g filter="url(#filter4_d_4955_19585)">
<path d="M141.446 47.3757L142.157 55.4911C142.177 55.7261 142.112 55.9489 141.971 56.1246C141.831 56.3003 141.623 56.4191 141.38 56.4623L129.637 58.5331C129.394 58.5755 129.13 58.54 128.886 58.432C128.642 58.324 128.432 58.1497 128.29 57.9362L123.363 50.5643C123.244 50.387 123.176 50.19 123.167 49.9952C123.158 49.8004 123.208 49.6154 123.312 49.4603C123.416 49.3053 123.569 49.1865 123.755 49.1168C123.941 49.0471 124.153 49.0294 124.367 49.0655L128.327 49.7328C128.367 49.7397 128.406 49.7348 128.439 49.7189C128.472 49.7029 128.497 49.6767 128.51 49.6442L130.189 45.4107C130.245 45.2666 130.339 45.1414 130.463 45.0447C130.588 44.948 130.739 44.8824 130.906 44.853C131.073 44.8235 131.251 44.831 131.427 44.8748C131.602 44.9186 131.771 44.9976 131.919 45.1057L136.29 48.2723C136.324 48.2966 136.364 48.3114 136.404 48.3144C136.444 48.3175 136.482 48.3087 136.513 48.2894L139.539 46.3902C139.703 46.2907 139.901 46.2387 140.111 46.2397C140.321 46.2408 140.536 46.2948 140.732 46.3962C140.928 46.4975 141.098 46.6422 141.224 46.8147C141.35 46.9873 141.427 47.1812 141.446 47.3757Z" fill="white"/>
</g>
<path d="M155.181 52.4484C154.354 52.5942 153.569 52.5128 152.828 52.2041C152.091 51.8946 151.424 51.3774 150.828 50.6525C150.234 49.9222 149.735 48.9995 149.329 47.8846C148.925 46.7742 148.736 45.7991 148.763 44.9594C148.788 44.1151 149.019 43.4348 149.456 42.9184C149.895 42.3965 150.526 42.0631 151.348 41.9181C152.175 41.7723 152.958 41.8564 153.697 42.1705C154.439 42.4792 155.107 43.001 155.702 43.7359C156.3 44.4654 156.801 45.3853 157.205 46.4957C157.611 47.6107 157.803 48.5876 157.781 49.4265C157.757 50.2608 157.527 50.9361 157.091 51.4525C156.654 51.9689 156.018 52.3008 155.181 52.4484ZM154.7 51.1269C155.205 51.0379 155.574 50.8092 155.809 50.4407C156.043 50.0722 156.145 49.5782 156.114 48.9587C156.081 48.3346 155.914 47.6073 155.611 46.7768C155.307 45.9417 154.957 45.2466 154.561 44.6915C154.162 44.1319 153.734 43.7288 153.276 43.4825C152.816 43.2315 152.334 43.1505 151.829 43.2396C151.084 43.371 150.633 43.8192 150.476 44.5841C150.323 45.3435 150.474 46.3496 150.93 47.6022C151.232 48.4327 151.583 49.1278 151.981 49.6875C152.377 50.2425 152.805 50.6433 153.263 50.8896C153.726 51.1352 154.205 51.2143 154.7 51.1269ZM160.528 39.9333L161.534 52.8222L160.135 53.069L159.128 40.1801L160.528 39.9333ZM168.799 50.0471C168.049 50.1794 167.34 50.1725 166.673 50.0265C166.011 49.8796 165.437 49.6194 164.953 49.2457C164.473 48.8667 164.131 48.3995 163.929 47.8443C163.774 47.4176 163.723 47.0042 163.777 46.6041C163.836 46.2031 163.984 45.8522 164.223 45.5513C164.461 45.2505 164.772 45.0296 165.156 44.8887L165.133 44.8268C164.555 44.797 164.025 44.5999 163.544 44.2354C163.067 43.8655 162.729 43.4076 162.53 42.8615C162.338 42.3339 162.313 41.8377 162.456 41.373C162.604 40.9075 162.893 40.5124 163.322 40.1877C163.755 39.8575 164.303 39.6339 164.966 39.5169C165.62 39.4016 166.248 39.4179 166.849 39.5657C167.454 39.7082 167.978 39.96 168.421 40.3212C168.87 40.6816 169.19 41.1256 169.382 41.6533C169.581 42.1993 169.594 42.7145 169.423 43.1989C169.254 43.6778 168.93 44.0254 168.451 44.2417L168.474 44.3037C168.903 44.3013 169.325 44.3928 169.741 44.5784C170.156 44.7639 170.527 45.0232 170.853 45.3564C171.179 45.6895 171.419 46.0695 171.575 46.4962C171.777 47.0514 171.794 47.5757 171.625 48.0693C171.455 48.5583 171.127 48.9775 170.64 49.327C170.158 49.6757 169.544 49.9157 168.799 50.0471ZM168.338 48.7808C168.78 48.7028 169.14 48.5661 169.417 48.3708C169.692 48.1709 169.872 47.9268 169.956 47.6385C170.041 47.3502 170.021 47.0362 169.898 46.6967C169.767 46.3388 169.557 46.0415 169.266 45.8047C168.978 45.5624 168.642 45.3921 168.259 45.2938C167.873 45.1909 167.471 45.1763 167.053 45.25C166.63 45.3247 166.281 45.4692 166.006 45.6837C165.736 45.8974 165.557 46.1584 165.469 46.4668C165.382 46.7751 165.404 47.1083 165.534 47.4662C165.657 47.8057 165.855 48.0882 166.126 48.3138C166.398 48.5394 166.723 48.6945 167.102 48.7791C167.479 48.8591 167.891 48.8596 168.338 48.7808ZM166.605 44.0181C166.96 43.9553 167.25 43.831 167.474 43.645C167.703 43.4582 167.853 43.2292 167.923 42.958C167.998 42.686 167.976 42.3871 167.857 42.0613C167.74 41.7401 167.559 41.4742 167.314 41.2636C167.073 41.0522 166.789 40.9045 166.462 40.8206C166.139 40.7359 165.795 40.7257 165.43 40.7902C165.059 40.8555 164.759 40.9792 164.529 41.1615C164.298 41.3437 164.149 41.5677 164.082 41.8334C164.015 42.0991 164.04 42.3926 164.157 42.7138C164.276 43.0395 164.459 43.31 164.706 43.5252C164.953 43.7404 165.239 43.8927 165.563 43.982C165.892 44.0705 166.239 44.0825 166.605 44.0181Z" fill="white"/>
</g>
</g>
</g>
<rect x="0.5" y="1" width="215" height="175" rx="15.5" stroke="white" stroke-opacity="0.1"/>
<defs>
<filter id="filter1_f_4955_19585" x="-10.5" y="-26.377" width="230.681" height="230.68" filterUnits="userSpaceOnUse" color-interpolation-filters="sRGB">
<feFlood flood-opacity="0" result="BackgroundImageFix"/>
<feBlend mode="normal" in="SourceGraphic" in2="BackgroundImageFix" result="shape"/>
<feGaussianBlur stdDeviation="37.75" result="effect1_foregroundBlur_4955_19585"/>
</filter>
<filter id="filter2_d_4955_19585" x="-25" y="-23.5006" width="265.202" height="158.384" filterUnits="userSpaceOnUse" color-interpolation-filters="sRGB">
<feFlood flood-opacity="0" result="BackgroundImageFix"/>
<feColorMatrix in="SourceAlpha" type="matrix" values="0 0 0 0 0 0 0 0 0 0 0 0 0 0 0 0 0 0 127 0" result="hardAlpha"/>
<feOffset dx="2" dy="5"/>
<feGaussianBlur stdDeviation="3.75"/>
<feComposite in2="hardAlpha" operator="out"/>
<feColorMatrix type="matrix" values="0 0 0 0 0 0 0 0 0 0 0 0 0 0 0 0 0 0 0.12 0"/>
<feBlend mode="normal" in2="BackgroundImageFix" result="effect1_dropShadow_4955_19585"/>
<feBlend mode="normal" in="SourceGraphic" in2="effect1_dropShadow_4955_19585" result="shape"/>
</filter>
<filter id="filter3_d_4955_19585" x="95.9448" y="22.9061" width="103.143" height="62.1998" filterUnits="userSpaceOnUse" color-interpolation-filters="sRGB">
<feFlood flood-opacity="0" result="BackgroundImageFix"/>
<feColorMatrix in="SourceAlpha" type="matrix" values="0 0 0 0 0 0 0 0 0 0 0 0 0 0 0 0 0 0 127 0" result="hardAlpha"/>
<feOffset dx="2" dy="5"/>
<feGaussianBlur stdDeviation="3.75"/>
<feComposite in2="hardAlpha" operator="out"/>
<feColorMatrix type="matrix" values="0 0 0 0 0 0 0 0 0 0 0 0 0 0 0 0 0 0 0.26 0"/>
<feBlend mode="normal" in2="BackgroundImageFix" result="effect1_dropShadow_4955_19585"/>
<feBlend mode="normal" in="SourceGraphic" in2="effect1_dropShadow_4955_19585" result="shape"/>
</filter>
<filter id="filter4_d_4955_19585" x="120.166" y="42.8353" width="24.9944" height="19.7152" filterUnits="userSpaceOnUse" color-interpolation-filters="sRGB">
<feFlood flood-opacity="0" result="BackgroundImageFix"/>
<feColorMatrix in="SourceAlpha" type="matrix" values="0 0 0 0 0 0 0 0 0 0 0 0 0 0 0 0 0 0 127 0" result="hardAlpha"/>
<feOffset dy="1"/>
<feGaussianBlur stdDeviation="1.5"/>
<feComposite in2="hardAlpha" operator="out"/>
<feColorMatrix type="matrix" values="0 0 0 0 0 0 0 0 0 0 0 0 0 0 0 0 0 0 0.25 0"/>
<feBlend mode="normal" in2="BackgroundImageFix" result="effect1_dropShadow_4955_19585"/>
<feBlend mode="normal" in="SourceGraphic" in2="effect1_dropShadow_4955_19585" result="shape"/>
</filter>
<linearGradient id="paint0_linear_4955_19585" x1="0.358317" y1="0.499996" x2="240.054" y2="132.982" gradientUnits="userSpaceOnUse">
<stop stop-color="#1C1C1C"/>
<stop offset="1"/>
</linearGradient>
<linearGradient id="paint1_linear_4955_19585" x1="170.614" y1="0.140847" x2="147.997" y2="89.4805" gradientUnits="userSpaceOnUse">
<stop stop-color="#FF8126"/>
<stop offset="1" stop-color="#FA3E18"/>
</linearGradient>
<linearGradient id="paint2_linear_4955_19585" x1="0.0323015" y1="52.136" x2="170.956" y2="30.7991" gradientUnits="userSpaceOnUse">
<stop stop-color="white" stop-opacity="0"/>
<stop offset="0.304081" stop-color="white"/>
<stop offset="0.608698" stop-color="white" stop-opacity="0"/>
<stop offset="1" stop-color="white"/>
</linearGradient>
<clipPath id="clip0_4955_19585">
<rect y="0.5" width="216" height="176" rx="16" fill="white"/>
</clipPath>
</defs>
</svg>
