<svg width="195" height="136" viewBox="0 0 195 136" fill="none" xmlns="http://www.w3.org/2000/svg">
<g clip-path="url(#clip0_4955_19712)">
<rect y="0.5" width="194.5" height="135" rx="16" fill="url(#paint0_linear_4955_19712)" fill-opacity="0.7"/>
<path d="M33.9336 48.9043L37.5811 59.5654H37.7217L41.3691 48.9043H43.4961L38.7939 62H36.5088L31.7979 48.9043H33.9336ZM46.5898 48.9043V62H44.6123V48.9043H46.5898ZM48.708 62V48.9043H53.3838C54.3975 48.9043 55.2383 49.0918 55.9062 49.4668C56.5742 49.8359 57.0752 50.3428 57.4092 50.9873C57.7432 51.626 57.9102 52.3467 57.9102 53.1494C57.9102 53.9521 57.7432 54.6758 57.4092 55.3203C57.0752 55.959 56.5713 56.4658 55.8975 56.8408C55.2295 57.21 54.3857 57.3945 53.3662 57.3945H50.167V55.7246H53.1816C53.832 55.7246 54.3564 55.6133 54.7549 55.3906C55.1592 55.168 55.4521 54.8633 55.6338 54.4766C55.8213 54.084 55.915 53.6416 55.915 53.1494C55.915 52.6514 55.8213 52.2119 55.6338 51.8311C55.4521 51.4443 55.1592 51.1426 54.7549 50.9258C54.3506 50.709 53.8232 50.6006 53.1729 50.6006H50.6855V62H48.708ZM64.5723 62H62.4717L67.1826 48.9043H69.4678L74.1699 62H72.0781L68.3691 51.2861H68.2637L64.5723 62ZM64.9238 56.876H71.7178V58.5283H64.9238V56.876ZM77.0439 48.9043V62H75.1455V48.9043H77.0439ZM83.4424 52.1738V53.7119H78.0811V52.1738H83.4424ZM79.5137 49.8359H81.4209V59.1172C81.4209 59.5684 81.5146 59.8994 81.7021 60.1104C81.8896 60.3154 82.1914 60.418 82.6074 60.418C82.707 60.418 82.8125 60.4121 82.9238 60.4004C83.041 60.3887 83.1582 60.3711 83.2754 60.3477L83.6357 61.9297C83.4424 61.9941 83.2314 62.0439 83.0029 62.0791C82.7744 62.1143 82.5459 62.1318 82.3174 62.1318C81.4678 62.1318 80.7881 61.8945 80.2783 61.4199C79.7686 60.9395 79.5137 60.3008 79.5137 59.5039V49.8359ZM88.9355 62.2021C87.9746 62.2021 87.1426 61.9941 86.4395 61.5781C85.7363 61.1621 85.1943 60.5762 84.8135 59.8203C84.4385 59.0586 84.251 58.1709 84.251 57.1572C84.251 56.1494 84.4355 55.2617 84.8047 54.4941C85.1797 53.7266 85.7041 53.1289 86.3779 52.7012C87.0576 52.2676 87.8545 52.0508 88.7686 52.0508C89.3252 52.0508 89.8643 52.1416 90.3857 52.3232C90.9072 52.5049 91.376 52.792 91.792 53.1846C92.208 53.5771 92.5361 54.0869 92.7764 54.7139C93.0225 55.3408 93.1455 56.0967 93.1455 56.9814V57.667H85.332V56.2344H92.1611L91.2734 56.709C91.2734 56.1055 91.1797 55.5723 90.9922 55.1094C90.8047 54.6465 90.5234 54.2861 90.1484 54.0283C89.7793 53.7646 89.3193 53.6328 88.7686 53.6328C88.2178 53.6328 87.7461 53.7646 87.3535 54.0283C86.9668 54.292 86.6709 54.6406 86.4658 55.0742C86.2607 55.5078 86.1582 55.9824 86.1582 56.498V57.4736C86.1582 58.1475 86.2754 58.7188 86.5098 59.1875C86.7441 59.6562 87.0693 60.0137 87.4854 60.2598C87.9072 60.5059 88.3965 60.6289 88.9531 60.6289C89.3164 60.6289 89.6445 60.5762 89.9375 60.4707C90.2363 60.3652 90.4941 60.207 90.7109 59.9961C90.9277 59.7852 91.0918 59.5244 91.2031 59.2139L93.0137 59.5566C92.8672 60.084 92.6094 60.5469 92.2402 60.9453C91.8711 61.3438 91.4053 61.6543 90.8428 61.877C90.2861 62.0938 89.6504 62.2021 88.9355 62.2021ZM94.4814 62V52.1738H96.3184V53.7471H96.4238C96.6055 53.2197 96.9219 52.8037 97.373 52.499C97.8301 52.1885 98.3457 52.0332 98.9199 52.0332C99.0371 52.0332 99.1748 52.0391 99.333 52.0508C99.4971 52.0566 99.6289 52.0654 99.7285 52.0771V53.9053C99.6523 53.8818 99.5146 53.8584 99.3154 53.835C99.1221 53.8115 98.9258 53.7998 98.7266 53.7998C98.2754 53.7998 97.8711 53.8965 97.5137 54.0898C97.1621 54.2773 96.8838 54.5381 96.6787 54.8721C96.4795 55.2002 96.3799 55.5811 96.3799 56.0146V62H94.4814ZM102.55 56.1729V62H100.651V52.1738H102.497V53.791H102.629C102.852 53.2578 103.2 52.8359 103.675 52.5254C104.149 52.209 104.759 52.0508 105.503 52.0508C106.171 52.0508 106.754 52.1914 107.252 52.4727C107.756 52.748 108.146 53.1611 108.421 53.7119C108.702 54.2627 108.843 54.9453 108.843 55.7598V62H106.944V55.9883C106.944 55.2793 106.757 54.7227 106.382 54.3184C106.007 53.9082 105.497 53.7031 104.853 53.7031C104.413 53.7031 104.018 53.8027 103.666 54.002C103.32 54.1953 103.048 54.4736 102.849 54.8369C102.649 55.2002 102.55 55.6455 102.55 56.1729ZM113.519 62.2109C112.897 62.2109 112.335 62.0967 111.831 61.8682C111.327 61.6338 110.929 61.2939 110.636 60.8486C110.343 60.4033 110.196 59.8613 110.196 59.2227C110.196 58.666 110.302 58.2119 110.513 57.8604C110.729 57.5029 111.02 57.2188 111.383 57.0078C111.746 56.7969 112.15 56.6387 112.596 56.5332C113.041 56.4277 113.498 56.3457 113.967 56.2871C114.559 56.2227 115.036 56.167 115.399 56.1201C115.763 56.0732 116.026 56 116.19 55.9004C116.36 55.7949 116.445 55.6279 116.445 55.3994V55.3555C116.445 54.7988 116.287 54.3682 115.971 54.0635C115.66 53.7588 115.197 53.6064 114.582 53.6064C113.943 53.6064 113.437 53.7471 113.062 54.0283C112.692 54.3037 112.438 54.6172 112.297 54.9688L110.495 54.5557C110.712 53.958 111.025 53.4775 111.436 53.1143C111.852 52.7451 112.326 52.4756 112.859 52.3057C113.398 52.1357 113.961 52.0508 114.547 52.0508C114.939 52.0508 115.355 52.0977 115.795 52.1914C116.234 52.2793 116.647 52.4463 117.034 52.6924C117.427 52.9326 117.746 53.2783 117.992 53.7295C118.238 54.1807 118.361 54.7637 118.361 55.4785V62H116.489V60.6553H116.419C116.302 60.8955 116.117 61.1357 115.865 61.376C115.619 61.6162 115.303 61.8154 114.916 61.9736C114.529 62.1318 114.063 62.2109 113.519 62.2109ZM113.932 60.6816C114.465 60.6816 114.919 60.5791 115.294 60.374C115.669 60.1631 115.956 59.8877 116.155 59.5479C116.354 59.208 116.454 58.8477 116.454 58.4668V57.1924C116.384 57.2568 116.252 57.3184 116.059 57.377C115.865 57.4355 115.646 57.4854 115.399 57.5264C115.153 57.5674 114.913 57.6055 114.679 57.6406C114.444 57.6699 114.248 57.6934 114.09 57.7109C113.721 57.7637 113.384 57.8457 113.079 57.957C112.774 58.0625 112.528 58.2207 112.341 58.4316C112.159 58.6367 112.068 58.9092 112.068 59.249C112.068 59.7236 112.244 60.0811 112.596 60.3213C112.947 60.5615 113.393 60.6816 113.932 60.6816ZM124.769 52.1738V53.7119H119.407V52.1738H124.769ZM120.84 49.8359H122.747V59.1172C122.747 59.5684 122.841 59.8994 123.028 60.1104C123.216 60.3154 123.518 60.418 123.934 60.418C124.033 60.418 124.139 60.4121 124.25 60.4004C124.367 60.3887 124.484 60.3711 124.602 60.3477L124.962 61.9297C124.769 61.9941 124.558 62.0439 124.329 62.0791C124.101 62.1143 123.872 62.1318 123.644 62.1318C122.794 62.1318 122.114 61.8945 121.604 61.4199C121.095 60.9395 120.84 60.3008 120.84 59.5039V49.8359ZM126.14 62V52.1738H128.038V62H126.14ZM127.098 50.6621C126.764 50.6621 126.479 50.5508 126.245 50.3281C126.011 50.1055 125.894 49.8389 125.894 49.5283C125.894 49.2119 126.011 48.9424 126.245 48.7197C126.479 48.4971 126.764 48.3857 127.098 48.3857C127.426 48.3857 127.707 48.4971 127.941 48.7197C128.182 48.9424 128.302 49.2119 128.302 49.5283C128.302 49.8389 128.182 50.1055 127.941 50.3281C127.707 50.5508 127.426 50.6621 127.098 50.6621ZM138.251 52.1738L134.7 62H132.644L129.084 52.1738H131.132L133.628 59.75H133.733L136.212 52.1738H138.251ZM143.182 62.2021C142.221 62.2021 141.389 61.9941 140.686 61.5781C139.982 61.1621 139.44 60.5762 139.06 59.8203C138.685 59.0586 138.497 58.1709 138.497 57.1572C138.497 56.1494 138.682 55.2617 139.051 54.4941C139.426 53.7266 139.95 53.1289 140.624 52.7012C141.304 52.2676 142.101 52.0508 143.015 52.0508C143.571 52.0508 144.11 52.1416 144.632 52.3232C145.153 52.5049 145.622 52.792 146.038 53.1846C146.454 53.5771 146.782 54.0869 147.022 54.7139C147.269 55.3408 147.392 56.0967 147.392 56.9814V57.667H139.578V56.2344H146.407L145.52 56.709C145.52 56.1055 145.426 55.5723 145.238 55.1094C145.051 54.6465 144.77 54.2861 144.395 54.0283C144.025 53.7646 143.565 53.6328 143.015 53.6328C142.464 53.6328 141.992 53.7646 141.6 54.0283C141.213 54.292 140.917 54.6406 140.712 55.0742C140.507 55.5078 140.404 55.9824 140.404 56.498V57.4736C140.404 58.1475 140.521 58.7188 140.756 59.1875C140.99 59.6562 141.315 60.0137 141.731 60.2598C142.153 60.5059 142.643 60.6289 143.199 60.6289C143.562 60.6289 143.891 60.5762 144.184 60.4707C144.482 60.3652 144.74 60.207 144.957 59.9961C145.174 59.7852 145.338 59.5244 145.449 59.2139L147.26 59.5566C147.113 60.084 146.855 60.5469 146.486 60.9453C146.117 61.3438 145.651 61.6543 145.089 61.877C144.532 62.0938 143.896 62.2021 143.182 62.2021ZM156.523 62.1846C155.65 62.1846 154.895 62.0264 154.256 61.71C153.623 61.3877 153.134 60.9512 152.788 60.4004C152.448 59.8496 152.278 59.2227 152.278 58.5195C152.278 57.9863 152.393 57.5176 152.621 57.1133C152.855 56.7031 153.172 56.3223 153.57 55.9707C153.969 55.6191 154.42 55.2559 154.924 54.8809L157.042 53.3867C157.388 53.1406 157.66 52.8916 157.859 52.6396C158.064 52.3877 158.167 52.0654 158.167 51.6729C158.167 51.3682 158.035 51.0752 157.771 50.7939C157.508 50.5068 157.153 50.3633 156.708 50.3633C156.403 50.3633 156.134 50.4395 155.899 50.5918C155.671 50.7383 155.489 50.9287 155.354 51.1631C155.226 51.3916 155.161 51.6348 155.161 51.8926C155.161 52.1855 155.243 52.4873 155.407 52.7979C155.577 53.1025 155.791 53.416 156.049 53.7383C156.312 54.0547 156.588 54.3887 156.875 54.7402L162.948 62H160.786L155.759 56.0938C155.337 55.5898 154.944 55.1182 154.581 54.6787C154.218 54.2334 153.925 53.7852 153.702 53.334C153.479 52.8828 153.368 52.3936 153.368 51.8662C153.368 51.2627 153.506 50.7295 153.781 50.2666C154.057 49.7979 154.44 49.4316 154.933 49.168C155.431 48.8984 156.008 48.7637 156.664 48.7637C157.344 48.7637 157.924 48.8955 158.404 49.1592C158.891 49.4229 159.266 49.7715 159.529 50.2051C159.793 50.6387 159.925 51.1133 159.925 51.6289C159.925 52.2441 159.77 52.7891 159.459 53.2637C159.148 53.7324 158.724 54.166 158.185 54.5645L155.548 56.5068C155.038 56.8818 154.684 57.2539 154.484 57.623C154.291 57.9863 154.194 58.2676 154.194 58.4668C154.194 58.8477 154.291 59.1992 154.484 59.5215C154.678 59.8379 154.95 60.0928 155.302 60.2861C155.653 60.4795 156.066 60.5762 156.541 60.5762C157.021 60.5762 157.493 60.4707 157.956 60.2598C158.419 60.043 158.838 59.7383 159.213 59.3457C159.588 58.9473 159.887 58.4697 160.109 57.9131C160.338 57.3564 160.452 56.7354 160.452 56.0498H162.175C162.175 56.8936 162.078 57.6084 161.885 58.1943C161.697 58.7744 161.466 59.2461 161.19 59.6094C160.921 59.9727 160.669 60.2568 160.435 60.4619C160.358 60.5322 160.285 60.6025 160.215 60.6729C160.145 60.7373 160.071 60.8047 159.995 60.875C159.55 61.3203 159.011 61.6514 158.378 61.8682C157.751 62.0791 157.133 62.1846 156.523 62.1846ZM53.0762 88H49.8418V86.2686H52.9619C53.958 86.2686 54.7871 86.084 55.4492 85.7148C56.1113 85.3398 56.6064 84.792 56.9346 84.0713C57.2627 83.3447 57.4268 82.4658 57.4268 81.4346C57.4268 80.4092 57.2627 79.5391 56.9346 78.8242C56.6123 78.1094 56.1289 77.5674 55.4844 77.1982C54.8398 76.8232 54.04 76.6357 53.085 76.6357H49.7715V74.9043H53.208C54.4912 74.9043 55.5928 75.165 56.5127 75.6865C57.4326 76.208 58.1387 76.958 58.6309 77.9365C59.123 78.9092 59.3691 80.0752 59.3691 81.4346C59.3691 82.7998 59.1201 83.9717 58.6221 84.9502C58.1299 85.9287 57.415 86.6816 56.4775 87.209C55.54 87.7363 54.4062 88 53.0762 88ZM50.8086 74.9043V88H48.8311V74.9043H50.8086ZM60.9248 88V78.1738H62.7617V79.7471H62.8672C63.0488 79.2197 63.3652 78.8037 63.8164 78.499C64.2734 78.1885 64.7891 78.0332 65.3633 78.0332C65.4805 78.0332 65.6182 78.0391 65.7764 78.0508C65.9404 78.0566 66.0723 78.0654 66.1719 78.0771V79.9053C66.0957 79.8818 65.958 79.8584 65.7588 79.835C65.5654 79.8115 65.3691 79.7998 65.1699 79.7998C64.7188 79.7998 64.3145 79.8965 63.957 80.0898C63.6055 80.2773 63.3271 80.5381 63.1221 80.8721C62.9229 81.2002 62.8232 81.5811 62.8232 82.0146V88H60.9248ZM67.0947 88V78.1738H68.9932V88H67.0947ZM68.0527 76.6621C67.7188 76.6621 67.4346 76.5508 67.2002 76.3281C66.9658 76.1055 66.8486 75.8389 66.8486 75.5283C66.8486 75.2119 66.9658 74.9424 67.2002 74.7197C67.4346 74.4971 67.7188 74.3857 68.0527 74.3857C68.3809 74.3857 68.6621 74.4971 68.8965 74.7197C69.1367 74.9424 69.2568 75.2119 69.2568 75.5283C69.2568 75.8389 69.1367 76.1055 68.8965 76.3281C68.6621 76.5508 68.3809 76.6621 68.0527 76.6621ZM75.4971 78.1738V79.7119H69.9512V78.1738H75.4971ZM71.4629 88V77.0312C71.4629 76.4219 71.5977 75.915 71.8672 75.5107C72.1426 75.1006 72.5 74.7959 72.9395 74.5967C73.3848 74.3916 73.8623 74.2891 74.3721 74.2891C74.7646 74.2891 75.0986 74.3213 75.374 74.3857C75.6494 74.4502 75.8516 74.5059 75.9805 74.5527L75.5234 76.0996C75.4355 76.0703 75.3213 76.0381 75.1807 76.0029C75.0459 75.9678 74.876 75.9502 74.6709 75.9502C74.208 75.9502 73.874 76.0674 73.6689 76.3018C73.4639 76.5303 73.3613 76.8643 73.3613 77.3037V88H71.4629ZM81.2803 78.1738V79.7119H75.9189V78.1738H81.2803ZM77.3516 75.8359H79.2588V85.1172C79.2588 85.5684 79.3525 85.8994 79.54 86.1104C79.7275 86.3154 80.0293 86.418 80.4453 86.418C80.5449 86.418 80.6504 86.4121 80.7617 86.4004C80.8789 86.3887 80.9961 86.3711 81.1133 86.3477L81.4736 87.9297C81.2803 87.9941 81.0693 88.0439 80.8408 88.0791C80.6123 88.1143 80.3838 88.1318 80.1553 88.1318C79.3057 88.1318 78.626 87.8945 78.1162 87.4199C77.6064 86.9395 77.3516 86.3008 77.3516 85.5039V75.8359ZM91.1855 88.2109C90.207 88.2109 89.3574 88.0586 88.6367 87.7539C87.9219 87.4434 87.3623 87.001 86.958 86.4268C86.5537 85.8525 86.3281 85.1699 86.2812 84.3789H88.2676C88.3086 84.8535 88.4609 85.249 88.7246 85.5654C88.9941 85.876 89.3428 86.1074 89.7705 86.2598C90.1982 86.4121 90.667 86.4883 91.1768 86.4883C91.7334 86.4883 92.2314 86.4004 92.6709 86.2246C93.1104 86.0488 93.4531 85.8027 93.6992 85.4863C93.9512 85.1641 94.0771 84.7891 94.0771 84.3613C94.0771 83.9746 93.9658 83.6582 93.7432 83.4121C93.5264 83.166 93.2305 82.9639 92.8555 82.8057C92.4805 82.6416 92.0586 82.498 91.5898 82.375L90.0518 81.9531C88.9971 81.6719 88.165 81.2529 87.5557 80.6963C86.9463 80.1338 86.6416 79.3984 86.6416 78.4902C86.6416 77.7344 86.8438 77.0752 87.248 76.5127C87.6582 75.9502 88.2119 75.5137 88.9092 75.2031C89.6123 74.8867 90.4004 74.7285 91.2734 74.7285C92.1641 74.7285 92.9463 74.8867 93.6201 75.2031C94.2998 75.5137 94.8359 75.9414 95.2285 76.4863C95.627 77.0254 95.835 77.6436 95.8525 78.3408H93.9365C93.8662 77.7373 93.585 77.2686 93.0928 76.9346C92.6064 76.6006 91.9854 76.4336 91.2295 76.4336C90.7021 76.4336 90.2393 76.5186 89.8408 76.6885C89.4482 76.8525 89.1436 77.0811 88.9268 77.374C88.7158 77.667 88.6104 78.0039 88.6104 78.3848C88.6104 78.7949 88.7363 79.1289 88.9883 79.3867C89.2461 79.6445 89.5566 79.8496 89.9199 80.002C90.2891 80.1484 90.6436 80.2686 90.9834 80.3623L92.2578 80.7051C92.6738 80.8105 93.1016 80.9512 93.541 81.127C93.9805 81.3027 94.3877 81.5342 94.7627 81.8213C95.1436 82.1025 95.4482 82.4541 95.6768 82.876C95.9111 83.292 96.0283 83.7959 96.0283 84.3877C96.0283 85.1201 95.8379 85.7764 95.457 86.3564C95.0762 86.9307 94.5254 87.3848 93.8047 87.7188C93.084 88.0469 92.2109 88.2109 91.1855 88.2109ZM101.715 88.2021C100.754 88.2021 99.9219 87.9941 99.2188 87.5781C98.5156 87.1621 97.9736 86.5762 97.5928 85.8203C97.2178 85.0586 97.0303 84.1709 97.0303 83.1572C97.0303 82.1494 97.2148 81.2617 97.584 80.4941C97.959 79.7266 98.4834 79.1289 99.1572 78.7012C99.8369 78.2676 100.634 78.0508 101.548 78.0508C102.104 78.0508 102.644 78.1416 103.165 78.3232C103.687 78.5049 104.155 78.792 104.571 79.1846C104.987 79.5771 105.315 80.0869 105.556 80.7139C105.802 81.3408 105.925 82.0967 105.925 82.9814V83.667H98.1113V82.2344H104.94L104.053 82.709C104.053 82.1055 103.959 81.5723 103.771 81.1094C103.584 80.6465 103.303 80.2861 102.928 80.0283C102.559 79.7646 102.099 79.6328 101.548 79.6328C100.997 79.6328 100.525 79.7646 100.133 80.0283C99.7461 80.292 99.4502 80.6406 99.2451 81.0742C99.04 81.5078 98.9375 81.9824 98.9375 82.498V83.4736C98.9375 84.1475 99.0547 84.7188 99.2891 85.1875C99.5234 85.6562 99.8486 86.0137 100.265 86.2598C100.687 86.5059 101.176 86.6289 101.732 86.6289C102.096 86.6289 102.424 86.5762 102.717 86.4707C103.016 86.3652 103.273 86.207 103.49 85.9961C103.707 85.7852 103.871 85.5244 103.982 85.2139L105.793 85.5566C105.646 86.084 105.389 86.5469 105.02 86.9453C104.65 87.3438 104.185 87.6543 103.622 87.877C103.065 88.0938 102.43 88.2021 101.715 88.2021ZM107.261 88V78.1738H109.098V79.7471H109.203C109.385 79.2197 109.701 78.8037 110.152 78.499C110.609 78.1885 111.125 78.0332 111.699 78.0332C111.816 78.0332 111.954 78.0391 112.112 78.0508C112.276 78.0566 112.408 78.0654 112.508 78.0771V79.9053C112.432 79.8818 112.294 79.8584 112.095 79.835C111.901 79.8115 111.705 79.7998 111.506 79.7998C111.055 79.7998 110.65 79.8965 110.293 80.0898C109.941 80.2773 109.663 80.5381 109.458 80.8721C109.259 81.2002 109.159 81.5811 109.159 82.0146V88H107.261ZM122.114 78.1738L118.563 88H116.507L112.947 78.1738H114.995L117.491 85.75H117.597L120.075 78.1738H122.114ZM127.045 88.2021C126.084 88.2021 125.252 87.9941 124.549 87.5781C123.846 87.1621 123.304 86.5762 122.923 85.8203C122.548 85.0586 122.36 84.1709 122.36 83.1572C122.36 82.1494 122.545 81.2617 122.914 80.4941C123.289 79.7266 123.813 79.1289 124.487 78.7012C125.167 78.2676 125.964 78.0508 126.878 78.0508C127.435 78.0508 127.974 78.1416 128.495 78.3232C129.017 78.5049 129.485 78.792 129.901 79.1846C130.317 79.5771 130.646 80.0869 130.886 80.7139C131.132 81.3408 131.255 82.0967 131.255 82.9814V83.667H123.441V82.2344H130.271L129.383 82.709C129.383 82.1055 129.289 81.5723 129.102 81.1094C128.914 80.6465 128.633 80.2861 128.258 80.0283C127.889 79.7646 127.429 79.6328 126.878 79.6328C126.327 79.6328 125.855 79.7646 125.463 80.0283C125.076 80.292 124.78 80.6406 124.575 81.0742C124.37 81.5078 124.268 81.9824 124.268 82.498V83.4736C124.268 84.1475 124.385 84.7188 124.619 85.1875C124.854 85.6562 125.179 86.0137 125.595 86.2598C126.017 86.5059 126.506 86.6289 127.062 86.6289C127.426 86.6289 127.754 86.5762 128.047 86.4707C128.346 86.3652 128.604 86.207 128.82 85.9961C129.037 85.7852 129.201 85.5244 129.312 85.2139L131.123 85.5566C130.977 86.084 130.719 86.5469 130.35 86.9453C129.98 87.3438 129.515 87.6543 128.952 87.877C128.396 88.0938 127.76 88.2021 127.045 88.2021ZM132.591 88V78.1738H134.428V79.7471H134.533C134.715 79.2197 135.031 78.8037 135.482 78.499C135.939 78.1885 136.455 78.0332 137.029 78.0332C137.146 78.0332 137.284 78.0391 137.442 78.0508C137.606 78.0566 137.738 78.0654 137.838 78.0771V79.9053C137.762 79.8818 137.624 79.8584 137.425 79.835C137.231 79.8115 137.035 79.7998 136.836 79.7998C136.385 79.7998 135.98 79.8965 135.623 80.0898C135.271 80.2773 134.993 80.5381 134.788 80.8721C134.589 81.2002 134.489 81.5811 134.489 82.0146V88H132.591ZM146.108 80.582L144.377 80.8809C144.266 80.5527 144.058 80.251 143.753 79.9756C143.454 79.7002 143.006 79.5625 142.408 79.5625C141.869 79.5625 141.418 79.6855 141.055 79.9316C140.697 80.1719 140.519 80.4795 140.519 80.8545C140.519 81.1826 140.639 81.4492 140.879 81.6543C141.125 81.8594 141.515 82.0234 142.048 82.1465L143.621 82.498C144.518 82.7031 145.188 83.0254 145.634 83.4648C146.079 83.9043 146.302 84.4668 146.302 85.1523C146.302 85.7441 146.132 86.2715 145.792 86.7344C145.452 87.1914 144.98 87.5518 144.377 87.8154C143.773 88.0732 143.076 88.2021 142.285 88.2021C141.184 88.2021 140.287 87.9648 139.596 87.4902C138.904 87.0156 138.479 86.3477 138.321 85.4863L140.158 85.2051C140.275 85.6855 140.513 86.0488 140.87 86.2949C141.233 86.541 141.702 86.6641 142.276 86.6641C142.897 86.6641 143.396 86.5322 143.771 86.2686C144.151 86.0049 144.342 85.6855 144.342 85.3105C144.342 84.6895 143.879 84.2705 142.953 84.0537L141.292 83.6846C140.372 83.4736 139.692 83.1426 139.253 82.6914C138.819 82.2344 138.603 81.6602 138.603 80.9688C138.603 80.3887 138.764 79.8789 139.086 79.4395C139.414 79 139.862 78.6602 140.431 78.4199C141.005 78.1738 141.658 78.0508 142.391 78.0508C143.457 78.0508 144.292 78.2822 144.896 78.7451C145.505 79.208 145.909 79.8203 146.108 80.582Z" fill="white" fill-opacity="0.95"/>
<g opacity="0.1" clip-path="url(#clip1_4955_19712)">
<path d="M181.039 8.34052C180.985 7.69713 180.603 7.09692 179.984 6.80289L176.751 5.26885C173.122 3.01164 168.541 0.742238 165.168 -0.330351C161.795 -1.40291 156.749 -2.19479 152.488 -2.4466L148.966 -3.06053C148.291 -3.17819 147.635 -2.90793 147.223 -2.41266C145.712 -2.25014 144.706 -1.91554 144.536 -1.37351C144.42 -1.00532 143.787 1.0063 142.821 4.07384C142.258 4.24921 141.786 4.68817 141.595 5.29234L138.446 15.298C138.256 15.9022 138.391 16.5345 138.751 17.0033C138.019 19.3282 137.255 21.7579 136.479 24.2212C135.448 24.0572 134.173 23.8544 133.345 23.7228C131.759 23.4705 130.722 25.8477 130.722 25.8477L135.717 26.642C131.04 41.5003 126.254 56.705 126.254 56.705L121.709 65.7934C121.709 65.7934 117.716 81.4527 118.959 85.2337C120.201 89.0147 131.608 93.2062 135.351 94.3963C139.093 95.5865 150.823 98.7521 154.003 96.3775C157.183 94.003 162.878 78.8847 162.878 78.8847L164.361 68.8225C164.361 68.8225 169.147 53.6179 173.824 38.7595L178.365 40.9976C178.365 40.9976 178.877 38.4538 177.435 37.7431C176.682 37.3719 175.523 36.8007 174.586 36.3387C175.361 33.8754 176.126 31.4458 176.858 29.1209C177.421 28.9455 177.893 28.5066 178.084 27.9024L181.233 17.8968C181.423 17.2926 181.288 16.6602 180.928 16.1914C181.893 13.1239 182.526 11.1123 182.642 10.7441C182.813 10.202 182.182 9.34712 181.039 8.34052ZM136.363 46.815L132.216 45.4963C134.652 37.5232 137.513 28.1199 137.513 28.1199C137.513 28.1199 137.788 41.5725 136.363 46.815ZM129.021 55.8919C129.442 54.5567 130.532 51.0035 131.797 46.8678L135.914 48.1772C133.947 53.7287 128.104 68.6161 127.02 70.1782C125.878 71.8217 127.765 59.8816 129.021 55.8919ZM150.652 87.3176C148.636 88.3696 142.931 87.966 137.827 86.3431C132.724 84.7202 127.825 81.7518 126.778 79.7261C125.732 77.7003 130.326 68.1574 130.326 68.1574C130.326 68.1574 137.669 72.2792 141.837 73.6046C146.005 74.93 154.37 75.803 154.37 75.803C154.37 75.803 152.667 86.2656 150.652 87.3176ZM152.269 40.4616C146.372 38.5863 139.632 38.1986 139.632 38.1986C139.632 38.1986 139.275 24.6672 141.694 22.9283C144.112 21.1895 148.261 21.8817 157.221 24.7308C166.18 27.5799 169.97 29.4121 170.954 32.2329C171.938 35.0537 163.902 45.9164 163.902 45.9164C163.902 45.9164 158.167 42.337 152.269 40.4616ZM162.457 66.5242C161.201 70.5138 155.911 81.372 155.919 79.3678C155.925 77.463 159.665 61.9071 161.233 56.2282L165.35 57.5376C164.018 61.6519 162.877 65.1889 162.457 66.5242ZM165.792 56.1734L161.647 54.855C163.479 49.7432 171.403 38.8964 171.403 38.8964C171.403 38.8964 168.362 48.2427 165.792 56.1734Z" fill="url(#paint1_linear_4955_19712)"/>
<path d="M25.7272 139.079C32.1505 138.846 37.17 133.424 36.9385 126.968C36.707 120.512 31.3123 115.467 24.8889 115.699C18.4656 115.932 13.4461 121.354 13.6776 127.81C13.9091 134.267 19.3039 139.312 25.7272 139.079Z" fill="url(#paint2_linear_4955_19712)"/>
<path d="M108.29 92.0362C106.178 93.092 105.075 95.369 105.398 97.5939C103.775 97.3845 102.075 97.6385 100.5 98.4259C100.262 98.5446 100.034 98.6743 99.8124 98.8116C99.4174 99.0563 99.0471 99.328 98.7051 99.6253C95.3405 94.7602 88.849 92.9792 83.414 95.6964C80.0506 97.3779 77.8097 100.423 77.0235 103.835C77.224 99.5808 79.647 95.5585 83.7104 93.5269C83.8376 93.4634 83.966 93.4057 84.0944 93.3471C83.8837 92.6289 83.6121 91.9187 83.2688 91.2251C82.8303 90.339 82.3018 89.5284 81.7043 88.7927C77.9799 84.2073 71.4742 82.645 65.9788 85.3924C59.9047 88.4292 57.2631 95.6317 59.7668 101.848C59.1693 101.112 58.6408 100.302 58.2022 99.4157C57.719 98.4391 57.3713 97.4306 57.1489 96.4115C53.6002 94.1485 49.0405 93.62 44.8822 95.4016C38.1709 98.2771 35.0496 106.076 37.9105 112.822C39.0265 115.453 40.8898 117.532 43.1437 118.923C44.2914 115.942 46.5066 113.366 49.5784 111.83C55.0668 109.086 61.5404 110.537 65.3967 114.965C61.7398 112.162 56.731 111.359 52.1984 113.301C45.4871 116.176 42.3657 123.976 45.2266 130.721C45.7925 132.056 46.5525 133.246 47.4557 134.279C51.1187 138.47 57.1748 140.035 62.5586 137.729C65.1926 136.6 67.2703 134.711 68.6538 132.427C70.5368 132.244 72.4242 131.774 74.2571 130.989C79.9087 128.567 83.7796 123.707 85.1802 118.15C85.8141 118.35 86.4637 118.499 87.1237 118.593C87.1496 119.822 87.4377 121.065 88.0187 122.239C90.1256 126.496 95.2675 128.231 99.5033 126.113C99.5575 126.086 99.6096 126.056 99.6629 126.028C103.781 123.861 105.438 118.773 103.358 114.57C102.326 112.485 100.566 111.007 98.5411 110.288C101.306 110.426 103.918 112.018 105.238 114.686L105.242 114.696C106.221 114.589 107.197 114.31 108.13 113.843C112.366 111.726 114.091 106.558 111.984 102.3C111.939 102.208 111.89 102.119 111.842 102.029C112.244 101.937 112.642 101.801 113.027 101.609C115.657 100.294 116.729 97.0851 115.421 94.4418C114.112 91.7983 110.92 90.7214 108.29 92.0362Z" fill="url(#paint3_linear_4955_19712)"/>
<path d="M97.5819 77.2232C94.4683 78.7797 93.1998 82.5785 94.7485 85.7079C96.2973 88.8374 100.077 90.1124 103.19 88.5557C106.304 86.9991 107.572 83.2004 106.024 80.0709C104.475 76.9415 100.695 75.6665 97.5819 77.2232Z" fill="url(#paint4_linear_4955_19712)"/>
<path d="M122.251 96.584C120.214 97.8243 119.563 100.489 120.797 102.536C122.031 104.584 124.682 105.238 126.719 103.997C128.756 102.757 129.407 100.092 128.173 98.0449C126.939 95.9979 124.287 95.3438 122.251 96.584Z" fill="url(#paint5_linear_4955_19712)"/>
<path d="M127.656 38.7709L127.141 38.4251C127.103 38.4822 123.245 44.2258 115.407 50.9768C108.176 57.2046 95.9813 65.5889 78.9497 70.164L79.1093 70.7649C96.2642 66.157 108.546 57.7089 115.828 51.4331C123.724 44.629 127.617 38.8286 127.656 38.7709Z" fill="url(#paint6_linear_4955_19712)"/>
<path d="M126.004 46.5143L125.536 46.1072C122.975 49.0794 120.108 51.9052 117.013 54.5052L117.411 54.9828C120.53 52.3612 123.421 49.512 126.004 46.5143Z" fill="url(#paint7_linear_4955_19712)"/>
<path d="M113.55 57.2569C96.5052 70.041 75.327 75.3458 60.5618 77.5448C44.55 79.9294 32.417 79.278 32.2961 79.271L32.261 79.892C32.3042 79.8944 33.8776 79.9792 36.6131 79.9792C41.5564 79.9792 50.2925 79.7025 60.6383 78.1625C75.4781 75.9534 96.7681 70.62 113.92 57.7557L113.55 57.2569Z" fill="url(#paint8_linear_4955_19712)"/>
<path d="M91.3138 62.4636C91.4789 62.4111 107.945 57.0312 119.927 42.794L119.454 42.3923C107.591 56.488 91.2897 61.8183 91.1265 61.8706L91.3138 62.4636Z" fill="url(#paint9_linear_4955_19712)"/>
</g>
</g>
<rect x="0.5" y="1" width="193.5" height="134" rx="15.5" stroke="white" stroke-opacity="0.1"/>
<defs>
<linearGradient id="paint0_linear_4955_19712" x1="0.322651" y1="0.499997" x2="198.614" y2="129.161" gradientUnits="userSpaceOnUse">
<stop stop-color="#1C1C1C"/>
<stop offset="1"/>
</linearGradient>
<linearGradient id="paint1_linear_4955_19712" x1="183.34" y1="-3.44083" x2="12.2191" y2="141.34" gradientUnits="userSpaceOnUse">
<stop stop-color="white"/>
<stop offset="1" stop-color="#626262"/>
</linearGradient>
<linearGradient id="paint2_linear_4955_19712" x1="183.34" y1="-3.44083" x2="12.2191" y2="141.34" gradientUnits="userSpaceOnUse">
<stop stop-color="white"/>
<stop offset="1" stop-color="#626262"/>
</linearGradient>
<linearGradient id="paint3_linear_4955_19712" x1="183.34" y1="-3.44083" x2="12.2191" y2="141.34" gradientUnits="userSpaceOnUse">
<stop stop-color="white"/>
<stop offset="1" stop-color="#626262"/>
</linearGradient>
<linearGradient id="paint4_linear_4955_19712" x1="183.34" y1="-3.44083" x2="12.2191" y2="141.34" gradientUnits="userSpaceOnUse">
<stop stop-color="white"/>
<stop offset="1" stop-color="#626262"/>
</linearGradient>
<linearGradient id="paint5_linear_4955_19712" x1="183.34" y1="-3.44083" x2="12.2191" y2="141.34" gradientUnits="userSpaceOnUse">
<stop stop-color="white"/>
<stop offset="1" stop-color="#626262"/>
</linearGradient>
<linearGradient id="paint6_linear_4955_19712" x1="183.34" y1="-3.44083" x2="12.2191" y2="141.34" gradientUnits="userSpaceOnUse">
<stop stop-color="white"/>
<stop offset="1" stop-color="#626262"/>
</linearGradient>
<linearGradient id="paint7_linear_4955_19712" x1="183.34" y1="-3.44083" x2="12.2191" y2="141.34" gradientUnits="userSpaceOnUse">
<stop stop-color="white"/>
<stop offset="1" stop-color="#626262"/>
</linearGradient>
<linearGradient id="paint8_linear_4955_19712" x1="183.34" y1="-3.44083" x2="12.2191" y2="141.34" gradientUnits="userSpaceOnUse">
<stop stop-color="white"/>
<stop offset="1" stop-color="#626262"/>
</linearGradient>
<linearGradient id="paint9_linear_4955_19712" x1="183.34" y1="-3.44083" x2="12.2191" y2="141.34" gradientUnits="userSpaceOnUse">
<stop stop-color="white"/>
<stop offset="1" stop-color="#626262"/>
</linearGradient>
<clipPath id="clip0_4955_19712">
<rect y="0.5" width="194.5" height="135" rx="16" fill="white"/>
</clipPath>
<clipPath id="clip1_4955_19712">
<rect width="169" height="169" fill="white" transform="translate(13 -16.5)"/>
</clipPath>
</defs>
</svg>
