<svg width="162" height="146" viewBox="0 0 162 146" fill="none" xmlns="http://www.w3.org/2000/svg">
<rect y="0.5" width="162" height="145" rx="16" fill="url(#paint0_linear_4955_19631)" fill-opacity="0.7"/>
<rect x="0.5" y="1" width="161" height="144" rx="15.5" stroke="white" stroke-opacity="0.1"/>
<path d="M27.5112 30.5V19.5869H31.4077C32.2524 19.5869 32.9531 19.7334 33.5098 20.0264C34.0664 20.3145 34.4839 20.7173 34.7622 21.2349C35.0405 21.7476 35.1797 22.3408 35.1797 23.0146C35.1797 23.6787 35.0405 24.2646 34.7622 24.7725C34.4839 25.2803 34.064 25.6733 33.5024 25.9517C32.9458 26.23 32.2427 26.3691 31.3931 26.3691H28.4561V24.9629H31.2393C31.7812 24.9629 32.2183 24.8848 32.5503 24.7285C32.8872 24.5723 33.1313 24.3501 33.2827 24.062C33.439 23.7739 33.5171 23.4248 33.5171 23.0146C33.5171 22.5996 33.439 22.2432 33.2827 21.9453C33.1265 21.6426 32.8799 21.4106 32.543 21.2495C32.2109 21.0835 31.7739 21.0005 31.2319 21.0005H29.1592V30.5H27.5112ZM33.7222 30.5L31.0781 25.5708H32.9019L35.5972 30.5H33.7222ZM39.8672 30.6685C39.0664 30.6685 38.373 30.4951 37.7871 30.1484C37.2012 29.8018 36.7495 29.3135 36.4321 28.6836C36.1196 28.0488 35.9634 27.3091 35.9634 26.4644C35.9634 25.6245 36.1172 24.8848 36.4248 24.2451C36.7373 23.6055 37.1743 23.1074 37.7358 22.751C38.3022 22.3896 38.9663 22.209 39.728 22.209C40.1919 22.209 40.6411 22.2847 41.0757 22.436C41.5103 22.5874 41.9009 22.8267 42.2476 23.1538C42.5942 23.481 42.8677 23.9058 43.0679 24.4282C43.2729 24.9507 43.3755 25.5806 43.3755 26.3179V26.8892H36.8643V25.6953H42.5552L41.8154 26.0908C41.8154 25.5879 41.7373 25.1436 41.5811 24.7578C41.4248 24.3721 41.1904 24.0718 40.8779 23.8569C40.5703 23.6372 40.187 23.5273 39.728 23.5273C39.269 23.5273 38.876 23.6372 38.5488 23.8569C38.2266 24.0767 37.98 24.3672 37.8091 24.7285C37.6382 25.0898 37.5527 25.4854 37.5527 25.915V26.728C37.5527 27.2896 37.6504 27.7656 37.8457 28.1562C38.041 28.5469 38.312 28.8447 38.6587 29.0498C39.0103 29.2549 39.418 29.3574 39.8818 29.3574C40.1846 29.3574 40.458 29.3135 40.7021 29.2256C40.9512 29.1377 41.166 29.0059 41.3467 28.8301C41.5273 28.6543 41.6641 28.437 41.7568 28.1782L43.2656 28.4639C43.1436 28.9033 42.9287 29.2891 42.6211 29.6211C42.3135 29.9531 41.9253 30.2119 41.4565 30.3975C40.9927 30.5781 40.4629 30.6685 39.8672 30.6685ZM46.8618 30.6758C46.3442 30.6758 45.8755 30.5806 45.4556 30.3901C45.0356 30.1948 44.7036 29.9116 44.4595 29.5405C44.2153 29.1694 44.0933 28.7178 44.0933 28.1855C44.0933 27.7217 44.1812 27.3433 44.3569 27.0503C44.5376 26.7524 44.7793 26.5156 45.082 26.3398C45.3848 26.1641 45.7217 26.0322 46.0928 25.9443C46.4639 25.8564 46.8447 25.7881 47.2354 25.7393C47.7285 25.6855 48.1265 25.6392 48.4292 25.6001C48.7319 25.561 48.9517 25.5 49.0884 25.417C49.23 25.3291 49.3008 25.1899 49.3008 24.9995V24.9629C49.3008 24.499 49.1689 24.1401 48.9053 23.8862C48.6465 23.6323 48.2607 23.5054 47.748 23.5054C47.2158 23.5054 46.7935 23.6226 46.481 23.8569C46.1733 24.0864 45.9609 24.3477 45.8438 24.6406L44.3423 24.2964C44.5229 23.7983 44.7842 23.3979 45.126 23.0952C45.4727 22.7876 45.8682 22.563 46.3125 22.4214C46.7617 22.2798 47.2305 22.209 47.7188 22.209C48.0459 22.209 48.3926 22.248 48.7588 22.3262C49.125 22.3994 49.4692 22.5386 49.7915 22.7437C50.1187 22.9438 50.3848 23.2319 50.5898 23.6079C50.7949 23.9839 50.8975 24.4697 50.8975 25.0654V30.5H49.3374V29.3794H49.2788C49.1812 29.5796 49.0273 29.7798 48.8174 29.98C48.6123 30.1802 48.3486 30.3462 48.0264 30.478C47.7041 30.6099 47.3159 30.6758 46.8618 30.6758ZM47.2061 29.4014C47.6504 29.4014 48.0288 29.3159 48.3413 29.145C48.6538 28.9692 48.8931 28.7397 49.0591 28.4565C49.2251 28.1733 49.3081 27.873 49.3081 27.5557V26.4937C49.2495 26.5474 49.1396 26.5986 48.9785 26.6475C48.8174 26.6963 48.6343 26.7378 48.4292 26.772C48.2241 26.8062 48.0239 26.8379 47.8286 26.8672C47.6333 26.8916 47.4697 26.9111 47.3379 26.9258C47.0303 26.9697 46.7495 27.0381 46.4956 27.1309C46.2417 27.2188 46.0366 27.3506 45.8804 27.5264C45.729 27.6973 45.6533 27.9243 45.6533 28.2075C45.6533 28.603 45.7998 28.9009 46.0928 29.1011C46.3857 29.3013 46.7568 29.4014 47.2061 29.4014ZM54.0103 19.5869V30.5H52.4282V19.5869H54.0103ZM55.5337 30.5V22.3115H57.1157V30.5H55.5337ZM56.332 21.0518C56.0537 21.0518 55.8169 20.959 55.6216 20.7734C55.4263 20.5879 55.3286 20.3657 55.3286 20.1069C55.3286 19.8433 55.4263 19.6187 55.6216 19.4331C55.8169 19.2476 56.0537 19.1548 56.332 19.1548C56.6055 19.1548 56.8398 19.2476 57.0352 19.4331C57.2354 19.6187 57.3354 19.8433 57.3354 20.1069C57.3354 20.3657 57.2354 20.5879 57.0352 20.7734C56.8398 20.959 56.6055 21.0518 56.332 21.0518ZM64.7622 24.3184L63.3193 24.5674C63.2266 24.2939 63.0532 24.0425 62.7993 23.813C62.5503 23.5835 62.1768 23.4688 61.6787 23.4688C61.2295 23.4688 60.8535 23.5713 60.5508 23.7764C60.2529 23.9766 60.104 24.2329 60.104 24.5454C60.104 24.8188 60.2041 25.041 60.4043 25.2119C60.6094 25.3828 60.9341 25.5195 61.3784 25.6221L62.6895 25.915C63.4365 26.0859 63.9956 26.3545 64.3667 26.7207C64.7378 27.0869 64.9233 27.5557 64.9233 28.127C64.9233 28.6201 64.7817 29.0596 64.4985 29.4453C64.2153 29.8262 63.8223 30.1265 63.3193 30.3462C62.8164 30.561 62.2354 30.6685 61.5762 30.6685C60.6582 30.6685 59.9111 30.4707 59.335 30.0752C58.7588 29.6797 58.4048 29.123 58.2729 28.4053L59.8037 28.1709C59.9014 28.5713 60.0991 28.874 60.397 29.0791C60.6997 29.2842 61.0903 29.3867 61.5688 29.3867C62.0864 29.3867 62.5015 29.2769 62.814 29.0571C63.1313 28.8374 63.29 28.5713 63.29 28.2588C63.29 27.7412 62.9043 27.3921 62.1328 27.2114L60.7485 26.9038C59.9819 26.728 59.4155 26.4521 59.0493 26.0762C58.688 25.6953 58.5073 25.2168 58.5073 24.6406C58.5073 24.1572 58.6416 23.7324 58.9102 23.3662C59.1836 23 59.5571 22.7168 60.0308 22.5166C60.5093 22.3115 61.0537 22.209 61.6641 22.209C62.5527 22.209 63.2485 22.4019 63.7515 22.7876C64.2593 23.1733 64.5962 23.6836 64.7622 24.3184ZM69.8452 22.3115V23.5933H65.3774V22.3115H69.8452ZM66.5713 20.3633H68.1606V28.0977C68.1606 28.4736 68.2388 28.7495 68.395 28.9253C68.5513 29.0962 68.8027 29.1816 69.1494 29.1816C69.2324 29.1816 69.3203 29.1768 69.4131 29.167C69.5107 29.1572 69.6084 29.1426 69.7061 29.123L70.0063 30.4414C69.8452 30.4951 69.6694 30.5366 69.479 30.5659C69.2886 30.5952 69.0981 30.6099 68.9077 30.6099C68.1997 30.6099 67.6333 30.4121 67.2085 30.0166C66.7837 29.6162 66.5713 29.084 66.5713 28.4199V20.3633ZM70.9878 30.5V22.3115H72.5698V30.5H70.9878ZM71.7861 21.0518C71.5078 21.0518 71.271 20.959 71.0757 20.7734C70.8804 20.5879 70.7827 20.3657 70.7827 20.1069C70.7827 19.8433 70.8804 19.6187 71.0757 19.4331C71.271 19.2476 71.5078 19.1548 71.7861 19.1548C72.0596 19.1548 72.2939 19.2476 72.4893 19.4331C72.6895 19.6187 72.7896 19.8433 72.7896 20.1069C72.7896 20.3657 72.6895 20.5879 72.4893 20.7734C72.2939 20.959 72.0596 21.0518 71.7861 21.0518ZM77.5283 30.6685C76.7422 30.6685 76.0635 30.4878 75.4922 30.1265C74.9209 29.7651 74.4814 29.2671 74.1738 28.6323C73.8662 27.9976 73.7124 27.27 73.7124 26.4497C73.7124 25.6147 73.8687 24.8799 74.1812 24.2451C74.4985 23.6055 74.9404 23.1074 75.5068 22.751C76.0781 22.3896 76.7471 22.209 77.5137 22.209C78.1387 22.209 78.6929 22.3237 79.1763 22.5532C79.6646 22.7778 80.0576 23.0977 80.3555 23.5127C80.6582 23.9277 80.8364 24.4111 80.8901 24.9629H79.3374C79.2837 24.7041 79.1787 24.4673 79.0225 24.2524C78.8711 24.0376 78.6709 23.8667 78.4219 23.7397C78.1729 23.6128 77.8774 23.5493 77.5356 23.5493C77.0913 23.5493 76.7031 23.6665 76.3711 23.9009C76.0439 24.1304 75.7876 24.46 75.6021 24.8896C75.4165 25.3193 75.3237 25.8271 75.3237 26.4131C75.3237 27.0039 75.4141 27.519 75.5947 27.9585C75.7754 28.3979 76.0317 28.7373 76.3638 28.9766C76.7007 29.2109 77.0913 29.3281 77.5356 29.3281C77.9946 29.3281 78.3853 29.2012 78.7075 28.9473C79.0347 28.6934 79.2446 28.3467 79.3374 27.9072H80.8901C80.8364 28.4395 80.6655 28.9131 80.3774 29.3281C80.0894 29.7432 79.7036 30.0703 79.2202 30.3096C78.7368 30.5488 78.1729 30.6685 77.5283 30.6685ZM85.4751 30.5V19.5869H89.3716C90.2163 19.5869 90.917 19.7432 91.4736 20.0557C92.0303 20.3633 92.4478 20.7856 92.7261 21.3228C93.0044 21.855 93.1436 22.4556 93.1436 23.1245C93.1436 23.7935 93.0044 24.3965 92.7261 24.9336C92.4478 25.4658 92.0278 25.8882 91.4663 26.2007C90.9097 26.5083 90.2065 26.6621 89.3569 26.6621H86.6909V25.2705H89.2031C89.7451 25.2705 90.1821 25.1777 90.5142 24.9922C90.8511 24.8066 91.0952 24.5527 91.2466 24.2305C91.4028 23.9033 91.481 23.5347 91.481 23.1245C91.481 22.7095 91.4028 22.3433 91.2466 22.0259C91.0952 21.7036 90.8511 21.4521 90.5142 21.2715C90.1772 21.0908 89.7378 21.0005 89.1958 21.0005H87.123V30.5H85.4751ZM95.8901 25.644V30.5H94.3081V19.5869H95.8682V23.6592H95.978C96.1685 23.2148 96.459 22.8633 96.8496 22.6045C97.2451 22.3408 97.7603 22.209 98.395 22.209C98.9565 22.209 99.4473 22.3237 99.8672 22.5532C100.287 22.7827 100.614 23.127 100.849 23.5859C101.088 24.0449 101.208 24.6162 101.208 25.2998V30.5H99.6108V25.4902C99.6108 24.8848 99.4546 24.416 99.1421 24.084C98.8345 23.752 98.4048 23.5859 97.853 23.5859C97.4722 23.5859 97.1353 23.6689 96.8423 23.835C96.5493 23.9961 96.3174 24.228 96.1465 24.5308C95.9756 24.8335 95.8901 25.2046 95.8901 25.644ZM103.434 33.5615C103.195 33.5664 102.978 33.5493 102.782 33.5103C102.592 33.4761 102.445 33.4346 102.343 33.3857L102.731 32.0894L102.841 32.1187C103.246 32.2212 103.588 32.2139 103.866 32.0967C104.149 31.9844 104.386 31.6694 104.577 31.1519L104.774 30.6099L101.786 22.3115H103.493L105.558 28.6689H105.646L107.719 22.3115H109.425L106.056 31.584C105.9 32.0137 105.702 32.375 105.463 32.668C105.224 32.9658 104.936 33.188 104.599 33.3345C104.267 33.4858 103.878 33.5615 103.434 33.5615ZM116.427 24.3184L114.984 24.5674C114.892 24.2939 114.718 24.0425 114.464 23.813C114.215 23.5835 113.842 23.4688 113.344 23.4688C112.895 23.4688 112.519 23.5713 112.216 23.7764C111.918 23.9766 111.769 24.2329 111.769 24.5454C111.769 24.8188 111.869 25.041 112.069 25.2119C112.274 25.3828 112.599 25.5195 113.043 25.6221L114.354 25.915C115.102 26.0859 115.661 26.3545 116.032 26.7207C116.403 27.0869 116.588 27.5557 116.588 28.127C116.588 28.6201 116.447 29.0596 116.164 29.4453C115.88 29.8262 115.487 30.1265 114.984 30.3462C114.481 30.561 113.9 30.6685 113.241 30.6685C112.323 30.6685 111.576 30.4707 111 30.0752C110.424 29.6797 110.07 29.123 109.938 28.4053L111.469 28.1709C111.566 28.5713 111.764 28.874 112.062 29.0791C112.365 29.2842 112.755 29.3867 113.234 29.3867C113.751 29.3867 114.167 29.2769 114.479 29.0571C114.796 28.8374 114.955 28.5713 114.955 28.2588C114.955 27.7412 114.569 27.3921 113.798 27.2114L112.414 26.9038C111.647 26.728 111.081 26.4521 110.714 26.0762C110.353 25.6953 110.172 25.2168 110.172 24.6406C110.172 24.1572 110.307 23.7324 110.575 23.3662C110.849 23 111.222 22.7168 111.696 22.5166C112.174 22.3115 112.719 22.209 113.329 22.209C114.218 22.209 114.914 22.4019 115.417 22.7876C115.924 23.1733 116.261 23.6836 116.427 24.3184ZM117.702 30.5V22.3115H119.284V30.5H117.702ZM118.5 21.0518C118.222 21.0518 117.985 20.959 117.79 20.7734C117.594 20.5879 117.497 20.3657 117.497 20.1069C117.497 19.8433 117.594 19.6187 117.79 19.4331C117.985 19.2476 118.222 19.1548 118.5 19.1548C118.773 19.1548 119.008 19.2476 119.203 19.4331C119.403 19.6187 119.503 19.8433 119.503 20.1069C119.503 20.3657 119.403 20.5879 119.203 20.7734C119.008 20.959 118.773 21.0518 118.5 21.0518ZM124.242 30.6685C123.456 30.6685 122.777 30.4878 122.206 30.1265C121.635 29.7651 121.195 29.2671 120.888 28.6323C120.58 27.9976 120.426 27.27 120.426 26.4497C120.426 25.6147 120.583 24.8799 120.895 24.2451C121.212 23.6055 121.654 23.1074 122.221 22.751C122.792 22.3896 123.461 22.209 124.228 22.209C124.853 22.209 125.407 22.3237 125.89 22.5532C126.378 22.7778 126.771 23.0977 127.069 23.5127C127.372 23.9277 127.55 24.4111 127.604 24.9629H126.051C125.998 24.7041 125.893 24.4673 125.736 24.2524C125.585 24.0376 125.385 23.8667 125.136 23.7397C124.887 23.6128 124.591 23.5493 124.25 23.5493C123.805 23.5493 123.417 23.6665 123.085 23.9009C122.758 24.1304 122.501 24.46 122.316 24.8896C122.13 25.3193 122.038 25.8271 122.038 26.4131C122.038 27.0039 122.128 27.519 122.309 27.9585C122.489 28.3979 122.746 28.7373 123.078 28.9766C123.415 29.2109 123.805 29.3281 124.25 29.3281C124.708 29.3281 125.099 29.2012 125.421 28.9473C125.749 28.6934 125.958 28.3467 126.051 27.9072H127.604C127.55 28.4395 127.379 28.9131 127.091 29.3281C126.803 29.7432 126.417 30.0703 125.934 30.3096C125.451 30.5488 124.887 30.6685 124.242 30.6685ZM134.855 24.3184L133.412 24.5674C133.319 24.2939 133.146 24.0425 132.892 23.813C132.643 23.5835 132.27 23.4688 131.771 23.4688C131.322 23.4688 130.946 23.5713 130.644 23.7764C130.346 23.9766 130.197 24.2329 130.197 24.5454C130.197 24.8188 130.297 25.041 130.497 25.2119C130.702 25.3828 131.027 25.5195 131.471 25.6221L132.782 25.915C133.529 26.0859 134.088 26.3545 134.459 26.7207C134.831 27.0869 135.016 27.5557 135.016 28.127C135.016 28.6201 134.875 29.0596 134.591 29.4453C134.308 29.8262 133.915 30.1265 133.412 30.3462C132.909 30.561 132.328 30.6685 131.669 30.6685C130.751 30.6685 130.004 30.4707 129.428 30.0752C128.852 29.6797 128.498 29.123 128.366 28.4053L129.896 28.1709C129.994 28.5713 130.192 28.874 130.49 29.0791C130.792 29.2842 131.183 29.3867 131.662 29.3867C132.179 29.3867 132.594 29.2769 132.907 29.0571C133.224 28.8374 133.383 28.5713 133.383 28.2588C133.383 27.7412 132.997 27.3921 132.226 27.2114L130.841 26.9038C130.075 26.728 129.508 26.4521 129.142 26.0762C128.781 25.6953 128.6 25.2168 128.6 24.6406C128.6 24.1572 128.734 23.7324 129.003 23.3662C129.276 23 129.65 22.7168 130.124 22.5166C130.602 22.3115 131.146 22.209 131.757 22.209C132.646 22.209 133.341 22.4019 133.844 22.7876C134.352 23.1733 134.689 23.6836 134.855 24.3184Z" fill="#FF8126"/>
<path d="M57.3084 57.6973C57.9089 58.713 58.9773 59.2773 60.0735 59.2773C60.6314 59.2773 61.1963 59.1312 61.7108 58.8242C63.2362 57.914 63.7383 55.9336 62.8324 54.401C62.232 53.3853 61.1637 52.8211 60.0674 52.8211C59.5094 52.8211 58.9446 52.9671 58.4301 53.2741C56.9047 54.1843 56.4025 56.1647 57.3084 57.6973Z" fill="url(#paint1_linear_4955_19631)"/>
<path d="M100.517 86.8848C99.9594 86.8848 99.3944 87.0308 98.8799 87.3378C97.3545 88.248 96.8524 90.2284 97.7583 91.761C98.3587 92.7767 99.4271 93.341 100.523 93.341C101.081 93.341 101.646 93.1949 102.161 92.8879C103.686 91.9777 104.188 89.9973 103.282 88.4647C102.682 87.449 101.613 86.8848 100.517 86.8848Z" fill="url(#paint2_linear_4955_19631)"/>
<path d="M53.3975 57.8699C53.5568 58.457 53.7946 59.0327 54.1185 59.5807C54.636 60.4563 55.3358 61.1925 56.1518 61.7541C56.3052 63.6876 57.6932 66.2807 60.1389 69.0868C60.6661 69.6916 61.234 70.2967 61.8368 70.9005C62.9746 69.8186 64.2003 68.7476 65.5005 67.6958C64.9315 69.3591 64.6231 71.1433 64.6231 72.9995C64.6231 73.1191 64.6248 73.2384 64.6274 73.3574C64.607 73.3765 64.5863 73.3953 64.566 73.4144C64.587 73.4323 64.6089 73.4493 64.63 73.4672C64.6855 75.4465 65.0923 77.3377 65.7901 79.0812C64.4373 78.0951 63.1582 77.0858 61.9665 76.0615C61.3944 76.695 60.8567 77.3283 60.3602 77.9591C57.2451 81.9175 56.0406 85.3898 57.1382 87.2473C57.5936 88.0176 58.4759 88.5741 59.7594 88.901C62.0331 89.4803 65.3521 89.2754 69.2127 88.3313C68.8835 86.7719 68.6109 85.1408 68.3949 83.4547C69.616 84.9253 71.0898 86.178 72.7493 87.1478C72.7594 87.1976 72.7685 87.2478 72.7787 87.2974C72.8264 87.2816 72.8736 87.2641 72.9214 87.2481C74.5676 88.1835 76.3918 88.8408 78.3305 89.1587C76.7454 89.8232 75.1856 90.4062 73.6666 90.9015C73.9076 91.7298 74.1667 92.5281 74.4455 93.2892C76.179 98.0218 78.4931 100.864 80.6353 100.892C80.6458 100.893 80.6566 100.892 80.6673 100.892C82.801 100.892 85.1741 98.1174 87.0213 93.4561C87.4271 92.4321 87.7993 91.341 88.1383 90.1935C86.9424 89.8425 85.7263 89.4428 84.4979 89.0005C87.9863 88.2414 91.059 86.3715 93.3278 83.7789C93.1291 85.0642 92.899 86.3167 92.6354 87.5282C93.0985 87.6285 93.5543 87.7173 94.0047 87.7988C93.589 88.9787 93.4919 90.2647 93.748 91.5144C93.0862 91.4005 92.4115 91.2684 91.7259 91.1176C91.3458 92.42 90.9249 93.6587 90.4646 94.8203C87.9646 101.129 84.4886 104.597 80.6699 104.597C80.6421 104.597 80.6148 104.596 80.5869 104.596C76.7353 104.545 73.3188 100.982 70.9676 94.5635C70.659 93.7206 70.3723 92.8377 70.1066 91.9216C67.4182 92.5798 64.917 92.9252 62.7108 92.9253C61.2912 92.9253 59.9932 92.7831 58.8447 92.4904C56.5718 91.9115 54.9249 90.782 53.95 89.1327C51.9871 85.8121 53.2306 81.03 57.4503 75.6682C58.0056 74.9625 58.6065 74.2546 59.2467 73.5476C58.5721 72.8736 57.9365 72.1972 57.3466 71.5203C52.8644 66.3777 51.3843 61.6646 53.1788 58.2494C53.2467 58.1203 53.3207 57.994 53.3975 57.8699Z" fill="url(#paint3_linear_4955_19631)"/>
<path d="M81.4133 41.4029C85.2648 41.4537 88.6815 45.0165 91.0326 51.4354C91.3412 52.278 91.6272 53.1608 91.8928 54.0765C96.3113 52.9944 100.222 52.761 103.155 53.5085C105.428 54.0875 107.075 55.217 108.05 56.8662C110.013 60.1869 108.77 64.9689 104.55 70.3308C103.994 71.0366 103.394 71.7443 102.753 72.4514C103.428 73.1253 104.064 73.8018 104.654 74.4786C109.136 79.6213 110.616 84.3345 108.821 87.7495C108.473 88.4136 107.996 89.0156 107.41 89.5425C107.328 88.526 107.022 87.5122 106.47 86.5781C106.254 86.2126 106.005 85.8717 105.731 85.5572C106.321 83.587 104.915 80.4157 101.861 76.9122C101.334 76.3074 100.766 75.7022 100.163 75.0985C99.0256 76.1804 97.7991 77.2504 96.4988 78.3023C97.0677 76.6391 97.3772 74.8554 97.3772 72.9995C97.3772 72.8796 97.3745 72.76 97.372 72.6407C97.3922 72.6217 97.414 72.6036 97.4342 72.5845C97.4129 72.5663 97.3908 72.5491 97.3694 72.5309C97.3138 70.5518 96.907 68.6611 96.2092 66.9177C97.5623 67.9039 98.8418 68.9129 100.034 69.9374C100.606 69.3039 101.143 68.6706 101.639 68.0398C104.755 64.0812 105.959 60.6089 104.861 58.7517C104.406 57.9814 103.524 57.4248 102.241 57.0979C101.391 56.8815 100.396 56.7746 99.2816 56.7746C97.4122 56.7746 95.2052 57.077 92.7867 57.6685C93.1158 59.2274 93.3885 60.8578 93.6045 62.5434C92.3833 61.0729 90.9096 59.82 89.25 58.8502C89.24 58.801 89.2316 58.7515 89.2215 58.7024C89.1739 58.7182 89.1265 58.7348 89.0788 58.7508C87.4319 57.815 85.6068 57.1571 83.6671 56.8394C85.2529 56.1747 86.814 55.5921 88.3336 55.0966C88.0926 54.2684 87.8326 53.4706 87.5539 52.7097C85.8203 47.9772 83.5063 45.1347 81.3641 45.1064C81.3536 45.1063 81.3427 45.1064 81.3321 45.1064C79.1984 45.1065 76.8262 47.8817 74.9789 52.5429C74.5743 53.564 74.2019 54.652 73.8637 55.796C75.0631 56.1475 76.284 56.5484 77.5188 56.9942C74.0238 57.7508 70.9448 59.6227 68.6724 62.2192C68.8715 60.9314 69.1024 59.6767 69.3666 58.4629C68.4541 58.2671 67.5652 58.109 66.703 57.9866C67.0516 56.7865 67.0783 55.4952 66.748 54.2554C67.8843 54.4031 69.0634 54.6106 70.276 54.8753C70.6557 53.5751 71.076 52.3383 71.5356 51.1787C74.054 44.8239 77.5682 41.3503 81.4133 41.4029Z" fill="url(#paint4_linear_4955_19631)"/>
<path d="M81.0002 61.0488C74.3999 61.0488 69.0494 66.3993 69.0494 72.9996C69.0494 79.5998 74.3999 84.9504 81.0002 84.9504C87.6005 84.9504 92.951 79.5998 92.951 72.9996C92.951 66.3993 87.6005 61.0488 81.0002 61.0488ZM77.4074 76.4214L75.621 79.5156C74.8629 78.8912 74.2019 78.1237 73.6826 77.2244C73.1634 76.325 72.8293 75.3688 72.6675 74.4001H76.2674C76.7285 74.4217 77.1183 74.6689 77.366 75.0978C77.587 75.4806 77.602 75.9962 77.4074 76.4214ZM77.366 70.9014C77.145 71.2842 76.7059 71.5549 76.2405 71.5991H72.6676C72.8293 70.6304 73.1634 69.6742 73.6827 68.7748C74.2019 67.8754 74.8629 67.108 75.621 66.4835L77.4209 69.6011C77.6327 70.0113 77.6136 70.4724 77.366 70.9014ZM81.0002 81.4492C79.9617 81.4492 78.9666 81.2604 78.0467 80.9161L79.8467 77.7986C80.096 77.41 80.5049 77.196 81.0002 77.196C81.4423 77.196 81.8963 77.4409 82.1672 77.8219L83.9537 80.9161C83.0338 81.2604 82.0387 81.4492 81.0002 81.4492ZM78.8995 72.9996C78.8995 71.8412 79.8419 70.8988 81.0002 70.8988C82.1585 70.8988 83.1009 71.8412 83.1009 72.9996C83.1009 74.1579 82.1585 75.1003 81.0002 75.1003C79.8419 75.1003 78.8995 74.1579 78.8995 72.9996ZM82.1537 68.2006C81.9044 68.5891 81.4955 68.8032 81.0002 68.8032C80.5581 68.8032 80.1041 68.5583 79.8332 68.1772L78.0467 65.083C78.9666 64.7388 79.9617 64.55 81.0002 64.55C82.0387 64.55 83.0338 64.7388 83.9537 65.083L82.1537 68.2006ZM88.3178 77.2244C87.7985 78.1237 87.1375 78.8912 86.3794 79.5156L84.5795 76.3981C84.3676 75.9879 84.3867 75.5267 84.6344 75.0978C84.8554 74.7149 85.2945 74.4442 85.7599 74.4001H89.3328C89.1711 75.3688 88.837 76.325 88.3178 77.2244ZM85.7331 71.5991C85.2719 71.5774 84.8821 71.3303 84.6344 70.9014C84.4134 70.5185 84.3985 70.0029 84.593 69.5777L86.3794 66.4835C87.1375 67.108 87.7985 67.8754 88.3178 68.7748C88.837 69.6741 89.1711 70.6303 89.3329 71.5991H85.7331Z" fill="url(#paint5_linear_4955_19631)"/>
<path d="M41.603 125.676C40.7876 125.676 40.0796 125.549 39.479 125.295C38.8833 125.036 38.417 124.667 38.0801 124.189C37.7432 123.71 37.5552 123.142 37.5161 122.482H39.1714C39.2056 122.878 39.3325 123.208 39.5522 123.471C39.7769 123.73 40.0674 123.923 40.4238 124.05C40.7803 124.177 41.1709 124.24 41.5957 124.24C42.0596 124.24 42.4746 124.167 42.8408 124.021C43.207 123.874 43.4927 123.669 43.6978 123.405C43.9077 123.137 44.0127 122.824 44.0127 122.468C44.0127 122.146 43.9199 121.882 43.7344 121.677C43.5537 121.472 43.3071 121.303 42.9946 121.171C42.6821 121.035 42.3306 120.915 41.9399 120.812L40.6582 120.461C39.7793 120.227 39.0859 119.877 38.5781 119.414C38.0703 118.945 37.8164 118.332 37.8164 117.575C37.8164 116.945 37.9849 116.396 38.3218 115.927C38.6636 115.458 39.125 115.095 39.7061 114.836C40.292 114.572 40.9487 114.44 41.6763 114.44C42.4185 114.44 43.0703 114.572 43.6318 114.836C44.1982 115.095 44.645 115.451 44.9722 115.905C45.3042 116.354 45.4775 116.87 45.4922 117.451H43.8955C43.8369 116.948 43.6025 116.557 43.1924 116.279C42.7871 116 42.2695 115.861 41.6396 115.861C41.2002 115.861 40.8145 115.932 40.4824 116.074C40.1553 116.21 39.9014 116.401 39.7207 116.645C39.5449 116.889 39.457 117.17 39.457 117.487C39.457 117.829 39.562 118.107 39.772 118.322C39.9868 118.537 40.2456 118.708 40.5483 118.835C40.856 118.957 41.1514 119.057 41.4346 119.135L42.4966 119.421C42.8433 119.509 43.1997 119.626 43.5659 119.772C43.9321 119.919 44.2715 120.112 44.584 120.351C44.9014 120.585 45.1553 120.878 45.3457 121.23C45.541 121.577 45.6387 121.997 45.6387 122.49C45.6387 123.1 45.48 123.647 45.1626 124.13C44.8452 124.609 44.3862 124.987 43.7856 125.266C43.1851 125.539 42.4575 125.676 41.603 125.676ZM46.8545 128.562V117.312H48.3926V118.645H48.5244C48.6221 118.474 48.7563 118.276 48.9272 118.051C49.103 117.827 49.3472 117.631 49.6597 117.465C49.9722 117.294 50.3799 117.209 50.8828 117.209C51.542 117.209 52.1279 117.375 52.6406 117.707C53.1582 118.039 53.5659 118.52 53.8638 119.15C54.1616 119.78 54.3105 120.539 54.3105 121.428C54.3105 122.307 54.1641 123.063 53.8711 123.698C53.5781 124.328 53.1729 124.814 52.6553 125.156C52.1426 125.493 51.5542 125.661 50.8901 125.661C50.397 125.661 49.9917 125.578 49.6743 125.412C49.3618 125.241 49.1152 125.043 48.9346 124.819C48.7588 124.594 48.6221 124.396 48.5244 124.226H48.4365V128.562H46.8545ZM50.5459 124.306C51.0195 124.306 51.415 124.179 51.7324 123.925C52.0498 123.671 52.2891 123.327 52.4502 122.893C52.6162 122.453 52.6992 121.96 52.6992 121.413C52.6992 120.871 52.6187 120.385 52.4575 119.956C52.2964 119.526 52.0571 119.187 51.7397 118.938C51.4224 118.688 51.0244 118.564 50.5459 118.564C50.082 118.564 49.6914 118.684 49.374 118.923C49.0566 119.157 48.8149 119.489 48.6489 119.919C48.4878 120.344 48.4072 120.842 48.4072 121.413C48.4072 121.984 48.4902 122.487 48.6562 122.922C48.8223 123.356 49.064 123.696 49.3813 123.94C49.7036 124.184 50.0918 124.306 50.5459 124.306ZM58.9907 125.668C58.1899 125.668 57.4966 125.495 56.9106 125.148C56.3247 124.802 55.873 124.313 55.5557 123.684C55.2432 123.049 55.0869 122.309 55.0869 121.464C55.0869 120.625 55.2407 119.885 55.5483 119.245C55.8608 118.605 56.2979 118.107 56.8594 117.751C57.4258 117.39 58.0898 117.209 58.8516 117.209C59.3154 117.209 59.7646 117.285 60.1992 117.436C60.6338 117.587 61.0244 117.827 61.3711 118.154C61.7178 118.481 61.9912 118.906 62.1914 119.428C62.3965 119.951 62.499 120.581 62.499 121.318V121.889H55.9878V120.695H61.6787L60.939 121.091C60.939 120.588 60.8608 120.144 60.7046 119.758C60.5483 119.372 60.314 119.072 60.0015 118.857C59.6938 118.637 59.3105 118.527 58.8516 118.527C58.3926 118.527 57.9995 118.637 57.6724 118.857C57.3501 119.077 57.1035 119.367 56.9326 119.729C56.7617 120.09 56.6763 120.485 56.6763 120.915V121.728C56.6763 122.29 56.7739 122.766 56.9692 123.156C57.1646 123.547 57.4355 123.845 57.7822 124.05C58.1338 124.255 58.5415 124.357 59.0054 124.357C59.3081 124.357 59.5815 124.313 59.8257 124.226C60.0747 124.138 60.2896 124.006 60.4702 123.83C60.6509 123.654 60.7876 123.437 60.8804 123.178L62.3892 123.464C62.2671 123.903 62.0522 124.289 61.7446 124.621C61.437 124.953 61.0488 125.212 60.5801 125.397C60.1162 125.578 59.5864 125.668 58.9907 125.668ZM67.0474 125.668C66.2612 125.668 65.5825 125.488 65.0112 125.126C64.4399 124.765 64.0005 124.267 63.6929 123.632C63.3853 122.998 63.2314 122.27 63.2314 121.45C63.2314 120.615 63.3877 119.88 63.7002 119.245C64.0176 118.605 64.4595 118.107 65.0259 117.751C65.5972 117.39 66.2661 117.209 67.0327 117.209C67.6577 117.209 68.2119 117.324 68.6953 117.553C69.1836 117.778 69.5767 118.098 69.8745 118.513C70.1772 118.928 70.3555 119.411 70.4092 119.963H68.8564C68.8027 119.704 68.6978 119.467 68.5415 119.252C68.3901 119.038 68.1899 118.867 67.9409 118.74C67.6919 118.613 67.3965 118.549 67.0547 118.549C66.6104 118.549 66.2222 118.667 65.8901 118.901C65.563 119.13 65.3066 119.46 65.1211 119.89C64.9355 120.319 64.8428 120.827 64.8428 121.413C64.8428 122.004 64.9331 122.519 65.1138 122.958C65.2944 123.398 65.5508 123.737 65.8828 123.977C66.2197 124.211 66.6104 124.328 67.0547 124.328C67.5137 124.328 67.9043 124.201 68.2266 123.947C68.5537 123.693 68.7637 123.347 68.8564 122.907H70.4092C70.3555 123.439 70.1846 123.913 69.8965 124.328C69.6084 124.743 69.2227 125.07 68.7393 125.31C68.2559 125.549 67.6919 125.668 67.0474 125.668ZM78.6489 125.676C77.8335 125.676 77.1255 125.549 76.5249 125.295C75.9292 125.036 75.4629 124.667 75.126 124.189C74.7891 123.71 74.6011 123.142 74.562 122.482H76.2173C76.2515 122.878 76.3784 123.208 76.5981 123.471C76.8228 123.73 77.1133 123.923 77.4697 124.05C77.8262 124.177 78.2168 124.24 78.6416 124.24C79.1055 124.24 79.5205 124.167 79.8867 124.021C80.2529 123.874 80.5386 123.669 80.7437 123.405C80.9536 123.137 81.0586 122.824 81.0586 122.468C81.0586 122.146 80.9658 121.882 80.7803 121.677C80.5996 121.472 80.353 121.303 80.0405 121.171C79.728 121.035 79.3765 120.915 78.9858 120.812L77.7041 120.461C76.8252 120.227 76.1318 119.877 75.624 119.414C75.1162 118.945 74.8623 118.332 74.8623 117.575C74.8623 116.945 75.0308 116.396 75.3677 115.927C75.7095 115.458 76.1709 115.095 76.752 114.836C77.3379 114.572 77.9946 114.44 78.7222 114.44C79.4644 114.44 80.1162 114.572 80.6777 114.836C81.2441 115.095 81.6909 115.451 82.0181 115.905C82.3501 116.354 82.5234 116.87 82.5381 117.451H80.9414C80.8828 116.948 80.6484 116.557 80.2383 116.279C79.833 116 79.3154 115.861 78.6855 115.861C78.2461 115.861 77.8604 115.932 77.5283 116.074C77.2012 116.21 76.9473 116.401 76.7666 116.645C76.5908 116.889 76.5029 117.17 76.5029 117.487C76.5029 117.829 76.6079 118.107 76.8179 118.322C77.0327 118.537 77.2915 118.708 77.5942 118.835C77.9019 118.957 78.1973 119.057 78.4805 119.135L79.5425 119.421C79.8892 119.509 80.2456 119.626 80.6118 119.772C80.978 119.919 81.3174 120.112 81.6299 120.351C81.9473 120.585 82.2012 120.878 82.3916 121.23C82.5869 121.577 82.6846 121.997 82.6846 122.49C82.6846 123.1 82.5259 123.647 82.2085 124.13C81.8911 124.609 81.4321 124.987 80.8315 125.266C80.231 125.539 79.5034 125.676 78.6489 125.676ZM87.4233 125.668C86.6226 125.668 85.9292 125.495 85.3433 125.148C84.7573 124.802 84.3057 124.313 83.9883 123.684C83.6758 123.049 83.5195 122.309 83.5195 121.464C83.5195 120.625 83.6733 119.885 83.981 119.245C84.2935 118.605 84.7305 118.107 85.292 117.751C85.8584 117.39 86.5225 117.209 87.2842 117.209C87.748 117.209 88.1973 117.285 88.6318 117.436C89.0664 117.587 89.457 117.827 89.8037 118.154C90.1504 118.481 90.4238 118.906 90.624 119.428C90.8291 119.951 90.9316 120.581 90.9316 121.318V121.889H84.4204V120.695H90.1113L89.3716 121.091C89.3716 120.588 89.2935 120.144 89.1372 119.758C88.981 119.372 88.7466 119.072 88.4341 118.857C88.1265 118.637 87.7432 118.527 87.2842 118.527C86.8252 118.527 86.4321 118.637 86.105 118.857C85.7827 119.077 85.5361 119.367 85.3652 119.729C85.1943 120.09 85.1089 120.485 85.1089 120.915V121.728C85.1089 122.29 85.2065 122.766 85.4019 123.156C85.5972 123.547 85.8682 123.845 86.2148 124.05C86.5664 124.255 86.9741 124.357 87.438 124.357C87.7407 124.357 88.0142 124.313 88.2583 124.226C88.5073 124.138 88.7222 124.006 88.9028 123.83C89.0835 123.654 89.2202 123.437 89.313 123.178L90.8218 123.464C90.6997 123.903 90.4849 124.289 90.1772 124.621C89.8696 124.953 89.4814 125.212 89.0127 125.397C88.5488 125.578 88.019 125.668 87.4233 125.668ZM92.0449 125.5V117.312H93.5757V118.623H93.6636C93.8149 118.183 94.0786 117.836 94.4546 117.583C94.8354 117.324 95.2651 117.194 95.7437 117.194C95.8413 117.194 95.9561 117.199 96.0879 117.209C96.2246 117.214 96.3345 117.221 96.4175 117.231V118.754C96.354 118.735 96.2393 118.715 96.0732 118.696C95.9121 118.676 95.7485 118.667 95.5825 118.667C95.2065 118.667 94.8696 118.747 94.5718 118.908C94.2788 119.064 94.0469 119.282 93.876 119.56C93.71 119.833 93.627 120.151 93.627 120.512V125.5H92.0449ZM104.423 117.312L101.464 125.5H99.75L96.7837 117.312H98.4902L100.57 123.625H100.658L102.724 117.312H104.423ZM108.532 125.668C107.731 125.668 107.038 125.495 106.452 125.148C105.866 124.802 105.414 124.313 105.097 123.684C104.784 123.049 104.628 122.309 104.628 121.464C104.628 120.625 104.782 119.885 105.089 119.245C105.402 118.605 105.839 118.107 106.4 117.751C106.967 117.39 107.631 117.209 108.393 117.209C108.856 117.209 109.306 117.285 109.74 117.436C110.175 117.587 110.565 117.827 110.912 118.154C111.259 118.481 111.532 118.906 111.732 119.428C111.938 119.951 112.04 120.581 112.04 121.318V121.889H105.529V120.695H111.22L110.48 121.091C110.48 120.588 110.402 120.144 110.246 119.758C110.089 119.372 109.855 119.072 109.542 118.857C109.235 118.637 108.852 118.527 108.393 118.527C107.934 118.527 107.541 118.637 107.213 118.857C106.891 119.077 106.645 119.367 106.474 119.729C106.303 120.09 106.217 120.485 106.217 120.915V121.728C106.217 122.29 106.315 122.766 106.51 123.156C106.706 123.547 106.977 123.845 107.323 124.05C107.675 124.255 108.083 124.357 108.546 124.357C108.849 124.357 109.123 124.313 109.367 124.226C109.616 124.138 109.831 124.006 110.011 123.83C110.192 123.654 110.329 123.437 110.421 123.178L111.93 123.464C111.808 123.903 111.593 124.289 111.286 124.621C110.978 124.953 110.59 125.212 110.121 125.397C109.657 125.578 109.127 125.668 108.532 125.668ZM113.153 125.5V117.312H114.684V118.623H114.772C114.923 118.183 115.187 117.836 115.563 117.583C115.944 117.324 116.374 117.194 116.852 117.194C116.95 117.194 117.064 117.199 117.196 117.209C117.333 117.214 117.443 117.221 117.526 117.231V118.754C117.462 118.735 117.348 118.715 117.182 118.696C117.021 118.676 116.857 118.667 116.691 118.667C116.315 118.667 115.978 118.747 115.68 118.908C115.387 119.064 115.155 119.282 114.984 119.56C114.818 119.833 114.735 120.151 114.735 120.512V125.5H113.153ZM124.418 119.318L122.975 119.567C122.882 119.294 122.709 119.042 122.455 118.813C122.206 118.583 121.833 118.469 121.334 118.469C120.885 118.469 120.509 118.571 120.207 118.776C119.909 118.977 119.76 119.233 119.76 119.545C119.76 119.819 119.86 120.041 120.06 120.212C120.265 120.383 120.59 120.52 121.034 120.622L122.345 120.915C123.092 121.086 123.651 121.354 124.022 121.721C124.394 122.087 124.579 122.556 124.579 123.127C124.579 123.62 124.438 124.06 124.154 124.445C123.871 124.826 123.478 125.126 122.975 125.346C122.472 125.561 121.891 125.668 121.232 125.668C120.314 125.668 119.567 125.471 118.991 125.075C118.415 124.68 118.061 124.123 117.929 123.405L119.459 123.171C119.557 123.571 119.755 123.874 120.053 124.079C120.355 124.284 120.746 124.387 121.225 124.387C121.742 124.387 122.157 124.277 122.47 124.057C122.787 123.837 122.946 123.571 122.946 123.259C122.946 122.741 122.56 122.392 121.789 122.211L120.404 121.904C119.638 121.728 119.071 121.452 118.705 121.076C118.344 120.695 118.163 120.217 118.163 119.641C118.163 119.157 118.297 118.732 118.566 118.366C118.839 118 119.213 117.717 119.687 117.517C120.165 117.312 120.709 117.209 121.32 117.209C122.208 117.209 122.904 117.402 123.407 117.788C123.915 118.173 124.252 118.684 124.418 119.318Z" fill="#FF8126"/>
<defs>
<linearGradient id="paint0_linear_4955_19631" x1="0.268737" y1="0.499997" x2="187.546" y2="94.7297" gradientUnits="userSpaceOnUse">
<stop stop-color="#1C1C1C"/>
<stop offset="1"/>
</linearGradient>
<linearGradient id="paint1_linear_4955_19631" x1="109.771" y1="41.5735" x2="52.2298" y2="104.426" gradientUnits="userSpaceOnUse">
<stop stop-color="#FF8126"/>
<stop offset="1" stop-color="#FA3E18"/>
</linearGradient>
<linearGradient id="paint2_linear_4955_19631" x1="109.771" y1="41.5735" x2="52.2298" y2="104.426" gradientUnits="userSpaceOnUse">
<stop stop-color="#FF8126"/>
<stop offset="1" stop-color="#FA3E18"/>
</linearGradient>
<linearGradient id="paint3_linear_4955_19631" x1="109.771" y1="41.5735" x2="52.2298" y2="104.426" gradientUnits="userSpaceOnUse">
<stop stop-color="#FF8126"/>
<stop offset="1" stop-color="#FA3E18"/>
</linearGradient>
<linearGradient id="paint4_linear_4955_19631" x1="109.771" y1="41.5735" x2="52.2298" y2="104.426" gradientUnits="userSpaceOnUse">
<stop stop-color="#FF8126"/>
<stop offset="1" stop-color="#FA3E18"/>
</linearGradient>
<linearGradient id="paint5_linear_4955_19631" x1="109.771" y1="41.5735" x2="52.2298" y2="104.426" gradientUnits="userSpaceOnUse">
<stop stop-color="#FF8126"/>
<stop offset="1" stop-color="#FA3E18"/>
</linearGradient>
</defs>
</svg>
