<svg width="216" height="139" viewBox="0 0 216 139" fill="none" xmlns="http://www.w3.org/2000/svg">
<rect y="0.5" width="216" height="138" rx="16" fill="url(#paint0_linear_4955_19659)" fill-opacity="0.7"/>
<rect x="0.5" y="1" width="215" height="137" rx="15.5" stroke="white" stroke-opacity="0.1"/>
<path d="M24.8408 67.8418C23.3027 67.8418 21.89 67.5684 20.6025 67.0215C19.3151 66.4746 18.284 65.6486 17.5093 64.5435C16.7345 63.4383 16.3472 62.0312 16.3472 60.3223V60.0317H21.7134V60.3223C21.7134 60.9945 21.8444 61.5698 22.1064 62.0483C22.3685 62.5269 22.7331 62.8971 23.2002 63.1592C23.6673 63.4098 24.2142 63.5352 24.8408 63.5352C25.5016 63.5352 26.0599 63.3927 26.5156 63.1079C26.9827 62.8231 27.3359 62.4072 27.5752 61.8604C27.8145 61.3021 27.9341 60.6185 27.9341 59.8096V42.0361H33.249V59.8096C33.249 61.4388 32.9072 62.8573 32.2236 64.0649C31.54 65.2726 30.5659 66.2069 29.3013 66.8677C28.048 67.5171 26.5612 67.8418 24.8408 67.8418ZM45.5708 67.5H38.9399V62.8857H45.3315C46.938 62.8857 48.2824 62.6066 49.3647 62.0483C50.4585 61.4787 51.2788 60.5957 51.8257 59.3994C52.384 58.1917 52.6631 56.6423 52.6631 54.751C52.6631 52.8711 52.384 51.333 51.8257 50.1367C51.2788 48.9404 50.4585 48.0632 49.3647 47.5049C48.2824 46.9352 46.9437 46.6504 45.3486 46.6504H38.8374V42.0361H45.6562C48.2197 42.0361 50.4243 42.5488 52.27 43.5742C54.1157 44.5882 55.5342 46.0465 56.5254 47.9492C57.5166 49.8405 58.0122 52.1077 58.0122 54.751C58.0122 57.4056 57.5109 59.6842 56.5083 61.5869C55.5171 63.4896 54.0929 64.9536 52.2358 65.979C50.3787 66.993 48.1571 67.5 45.5708 67.5ZM41.9136 42.0361V67.5H36.5474V42.0361H41.9136ZM60.8491 42.0361H67.4971L74.5039 59.1431H74.7944L81.8184 42.0361H88.4834V67.5H83.2197V50.9229H83.0146L76.4009 67.3804H72.8462L66.2837 50.8887H66.0786V67.5H60.8491V42.0361ZM91.5767 74.2847L93.0806 63.6206H98.3442L95.1484 74.2847H91.5767ZM113.383 42.0361L119.519 61.3818H119.758L125.927 42.0361H131.875L123.107 67.5H116.169L107.385 42.0361H113.383ZM132.814 46.4795V42.0361H153.732V46.4795H145.939V67.5H140.625V46.4795H132.814ZM156.04 67.5V42.0361H173.198V46.4795H161.406V52.4609H172.309V56.8188H161.406V63.0566H173.232V67.5H156.04ZM187.741 67.8418C185.485 67.8418 183.463 67.3291 181.674 66.3037C179.886 65.2783 178.473 63.7915 177.436 61.8433C176.399 59.895 175.881 57.5423 175.881 54.7852C175.881 52.0052 176.399 49.6411 177.436 47.6929C178.484 45.7332 179.903 44.2464 181.691 43.2324C183.492 42.207 185.508 41.6943 187.741 41.6943C189.222 41.6943 190.595 41.9051 191.86 42.3267C193.125 42.7368 194.241 43.3407 195.209 44.1382C196.189 44.9243 196.987 45.8927 197.602 47.0435C198.217 48.1828 198.61 49.4873 198.781 50.957H193.347C193.244 50.262 193.039 49.6354 192.731 49.0771C192.435 48.5189 192.042 48.0461 191.552 47.6587C191.074 47.2713 190.521 46.9751 189.895 46.77C189.279 46.5535 188.601 46.4453 187.861 46.4453C186.562 46.4453 185.417 46.7757 184.426 47.4365C183.446 48.0859 182.683 49.0316 182.136 50.2734C181.6 51.5039 181.333 53.0078 181.333 54.7852C181.333 56.5967 181.606 58.1234 182.153 59.3652C182.7 60.5957 183.463 61.5243 184.443 62.1509C185.423 62.7775 186.556 63.0908 187.844 63.0908C188.562 63.0908 189.228 62.994 189.843 62.8003C190.458 62.6066 191.005 62.3275 191.484 61.9629C191.962 61.5983 192.361 61.154 192.68 60.6299C193.011 60.0944 193.233 59.4849 193.347 58.8013H198.781C198.645 59.9748 198.297 61.1027 197.739 62.1851C197.192 63.2674 196.446 64.2358 195.5 65.0903C194.554 65.9334 193.432 66.6056 192.133 67.1069C190.834 67.5968 189.37 67.8418 187.741 67.8418Z" fill="url(#paint1_linear_4955_19659)"/>
<path d="M54.3574 118.654C53.6299 118.654 53 118.522 52.4678 118.258C51.9404 117.99 51.5327 117.626 51.2446 117.167C50.9614 116.708 50.8198 116.186 50.8198 115.6C50.8198 115.155 50.915 114.765 51.1055 114.428C51.3008 114.086 51.5645 113.769 51.8965 113.476C52.2285 113.183 52.6045 112.88 53.0244 112.567L54.7896 111.322C55.0776 111.117 55.3047 110.91 55.4707 110.7C55.6416 110.49 55.7271 110.221 55.7271 109.894C55.7271 109.64 55.6172 109.396 55.3975 109.162C55.1777 108.922 54.8823 108.803 54.5112 108.803C54.2573 108.803 54.0327 108.866 53.8374 108.993C53.647 109.115 53.4956 109.274 53.3833 109.469C53.2759 109.66 53.2222 109.862 53.2222 110.077C53.2222 110.321 53.2905 110.573 53.4272 110.832C53.5688 111.085 53.7471 111.347 53.9619 111.615C54.1816 111.879 54.4111 112.157 54.6504 112.45L59.7114 118.5H57.9097L53.7202 113.578C53.3687 113.158 53.0415 112.765 52.7388 112.399C52.436 112.028 52.1919 111.654 52.0063 111.278C51.8208 110.902 51.728 110.495 51.728 110.055C51.728 109.552 51.8428 109.108 52.0723 108.722C52.3018 108.332 52.6216 108.026 53.0317 107.807C53.4468 107.582 53.9277 107.47 54.4746 107.47C55.041 107.47 55.5244 107.58 55.9248 107.799C56.3301 108.019 56.6426 108.31 56.8623 108.671C57.082 109.032 57.1919 109.428 57.1919 109.857C57.1919 110.37 57.0625 110.824 56.8037 111.22C56.5449 111.61 56.1909 111.972 55.7417 112.304L53.5444 113.922C53.1196 114.235 52.8242 114.545 52.6582 114.853C52.4971 115.155 52.4165 115.39 52.4165 115.556C52.4165 115.873 52.4971 116.166 52.6582 116.435C52.8193 116.698 53.0464 116.911 53.3394 117.072C53.6323 117.233 53.9766 117.313 54.3721 117.313C54.7725 117.313 55.1655 117.226 55.5513 117.05C55.937 116.869 56.2861 116.615 56.5986 116.288C56.9111 115.956 57.1602 115.558 57.3457 115.094C57.5361 114.63 57.6313 114.113 57.6313 113.542H59.0669C59.0669 114.245 58.9863 114.84 58.8252 115.329C58.6689 115.812 58.4761 116.205 58.2466 116.508C58.022 116.811 57.812 117.047 57.6167 117.218C57.5532 117.277 57.4922 117.335 57.4336 117.394C57.375 117.448 57.314 117.504 57.2505 117.562C56.8794 117.934 56.4302 118.209 55.9028 118.39C55.3804 118.566 54.8652 118.654 54.3574 118.654ZM63.7837 107.587H65.7905L69.2622 116.068H69.3867L72.8657 107.587H74.9019V118.5H73.2905V110.604H73.188L69.958 118.485H68.6543L65.4609 110.597H65.3584V118.5H63.7837V107.587ZM78.9155 118.676C78.3979 118.676 77.9292 118.581 77.5093 118.39C77.0894 118.195 76.7573 117.912 76.5132 117.541C76.269 117.169 76.147 116.718 76.147 116.186C76.147 115.722 76.2349 115.343 76.4106 115.05C76.5913 114.752 76.833 114.516 77.1357 114.34C77.4385 114.164 77.7754 114.032 78.1465 113.944C78.5176 113.856 78.8984 113.788 79.2891 113.739C79.7822 113.686 80.1802 113.639 80.4829 113.6C80.7856 113.561 81.0054 113.5 81.1421 113.417C81.2837 113.329 81.3545 113.19 81.3545 113V112.963C81.3545 112.499 81.2227 112.14 80.959 111.886C80.7002 111.632 80.3145 111.505 79.8018 111.505C79.2695 111.505 78.8472 111.623 78.5347 111.857C78.2271 112.086 78.0146 112.348 77.8975 112.641L76.396 112.296C76.5767 111.798 76.8379 111.398 77.1797 111.095C77.5264 110.788 77.9219 110.563 78.3662 110.421C78.8154 110.28 79.2842 110.209 79.7725 110.209C80.0996 110.209 80.4463 110.248 80.8125 110.326C81.1787 110.399 81.5229 110.539 81.8452 110.744C82.1724 110.944 82.4385 111.232 82.6436 111.608C82.8486 111.984 82.9512 112.47 82.9512 113.065V118.5H81.3911V117.379H81.3325C81.2349 117.58 81.0811 117.78 80.8711 117.98C80.666 118.18 80.4023 118.346 80.0801 118.478C79.7578 118.61 79.3696 118.676 78.9155 118.676ZM79.2598 117.401C79.7041 117.401 80.0825 117.316 80.395 117.145C80.7075 116.969 80.9468 116.74 81.1128 116.457C81.2788 116.173 81.3618 115.873 81.3618 115.556V114.494C81.3032 114.547 81.1934 114.599 81.0322 114.647C80.8711 114.696 80.688 114.738 80.4829 114.772C80.2778 114.806 80.0776 114.838 79.8823 114.867C79.687 114.892 79.5234 114.911 79.3916 114.926C79.084 114.97 78.8032 115.038 78.5493 115.131C78.2954 115.219 78.0903 115.351 77.9341 115.526C77.7827 115.697 77.707 115.924 77.707 116.208C77.707 116.603 77.8535 116.901 78.1465 117.101C78.4395 117.301 78.8105 117.401 79.2598 117.401ZM86.064 113.644V118.5H84.4819V110.312H86.02V111.659H86.1299C86.3154 111.215 86.606 110.863 87.0015 110.604C87.397 110.341 87.9048 110.209 88.5249 110.209C89.0815 110.209 89.5674 110.326 89.9824 110.561C90.4023 110.79 90.7271 111.134 90.9565 111.593C91.1909 112.052 91.3081 112.621 91.3081 113.3V118.5H89.7261V113.49C89.7261 112.899 89.5698 112.436 89.2573 112.099C88.9448 111.757 88.52 111.586 87.9829 111.586C87.6167 111.586 87.2871 111.669 86.9941 111.835C86.7061 111.996 86.479 112.228 86.313 112.531C86.147 112.833 86.064 113.205 86.064 113.644ZM98.0171 115.116V110.312H99.5991V118.5H98.0464V117.079H97.9585C97.7632 117.514 97.4604 117.877 97.0503 118.17C96.6401 118.463 96.1274 118.607 95.5122 118.603C94.9849 118.603 94.5186 118.488 94.1133 118.258C93.7129 118.029 93.3979 117.685 93.1685 117.226C92.9438 116.767 92.8315 116.198 92.8315 115.519V110.312H94.4136V115.336C94.4136 115.888 94.5698 116.33 94.8823 116.662C95.1948 116.994 95.5977 117.157 96.0908 117.152C96.3887 117.152 96.6841 117.079 96.9771 116.933C97.2749 116.786 97.5215 116.562 97.7168 116.259C97.917 115.956 98.0171 115.575 98.0171 115.116ZM103.496 118.676C102.978 118.676 102.509 118.581 102.089 118.39C101.669 118.195 101.337 117.912 101.093 117.541C100.849 117.169 100.727 116.718 100.727 116.186C100.727 115.722 100.815 115.343 100.991 115.05C101.171 114.752 101.413 114.516 101.716 114.34C102.019 114.164 102.355 114.032 102.727 113.944C103.098 113.856 103.479 113.788 103.869 113.739C104.362 113.686 104.76 113.639 105.063 113.6C105.366 113.561 105.585 113.5 105.722 113.417C105.864 113.329 105.935 113.19 105.935 113V112.963C105.935 112.499 105.803 112.14 105.539 111.886C105.28 111.632 104.895 111.505 104.382 111.505C103.85 111.505 103.427 111.623 103.115 111.857C102.807 112.086 102.595 112.348 102.478 112.641L100.976 112.296C101.157 111.798 101.418 111.398 101.76 111.095C102.106 110.788 102.502 110.563 102.946 110.421C103.396 110.28 103.864 110.209 104.353 110.209C104.68 110.209 105.026 110.248 105.393 110.326C105.759 110.399 106.103 110.539 106.425 110.744C106.752 110.944 107.019 111.232 107.224 111.608C107.429 111.984 107.531 112.47 107.531 113.065V118.5H105.971V117.379H105.913C105.815 117.58 105.661 117.78 105.451 117.98C105.246 118.18 104.982 118.346 104.66 118.478C104.338 118.61 103.95 118.676 103.496 118.676ZM103.84 117.401C104.284 117.401 104.663 117.316 104.975 117.145C105.288 116.969 105.527 116.74 105.693 116.457C105.859 116.173 105.942 115.873 105.942 115.556V114.494C105.883 114.547 105.773 114.599 105.612 114.647C105.451 114.696 105.268 114.738 105.063 114.772C104.858 114.806 104.658 114.838 104.462 114.867C104.267 114.892 104.104 114.911 103.972 114.926C103.664 114.97 103.383 115.038 103.129 115.131C102.875 115.219 102.67 115.351 102.514 115.526C102.363 115.697 102.287 115.924 102.287 116.208C102.287 116.603 102.434 116.901 102.727 117.101C103.02 117.301 103.391 117.401 103.84 117.401ZM110.644 107.587V118.5H109.062V107.587H110.644ZM119.279 118.676C118.464 118.676 117.756 118.549 117.155 118.295C116.56 118.036 116.093 117.667 115.756 117.189C115.419 116.71 115.231 116.142 115.192 115.482H116.848C116.882 115.878 117.009 116.208 117.229 116.471C117.453 116.73 117.744 116.923 118.1 117.05C118.457 117.177 118.847 117.24 119.272 117.24C119.736 117.24 120.151 117.167 120.517 117.021C120.883 116.874 121.169 116.669 121.374 116.405C121.584 116.137 121.689 115.824 121.689 115.468C121.689 115.146 121.596 114.882 121.411 114.677C121.23 114.472 120.983 114.303 120.671 114.171C120.358 114.035 120.007 113.915 119.616 113.812L118.334 113.461C117.456 113.227 116.762 112.877 116.254 112.414C115.747 111.945 115.493 111.332 115.493 110.575C115.493 109.945 115.661 109.396 115.998 108.927C116.34 108.458 116.801 108.095 117.382 107.836C117.968 107.572 118.625 107.44 119.353 107.44C120.095 107.44 120.747 107.572 121.308 107.836C121.875 108.095 122.321 108.451 122.648 108.905C122.98 109.354 123.154 109.87 123.168 110.451H121.572C121.513 109.948 121.279 109.557 120.869 109.279C120.463 109 119.946 108.861 119.316 108.861C118.876 108.861 118.491 108.932 118.159 109.074C117.832 109.21 117.578 109.401 117.397 109.645C117.221 109.889 117.133 110.17 117.133 110.487C117.133 110.829 117.238 111.107 117.448 111.322C117.663 111.537 117.922 111.708 118.225 111.835C118.532 111.957 118.828 112.057 119.111 112.135L120.173 112.421C120.52 112.509 120.876 112.626 121.242 112.772C121.608 112.919 121.948 113.112 122.26 113.351C122.578 113.585 122.832 113.878 123.022 114.23C123.217 114.577 123.315 114.997 123.315 115.49C123.315 116.1 123.156 116.647 122.839 117.13C122.521 117.609 122.062 117.987 121.462 118.266C120.861 118.539 120.134 118.676 119.279 118.676ZM128.054 118.668C127.253 118.668 126.56 118.495 125.974 118.148C125.388 117.802 124.936 117.313 124.619 116.684C124.306 116.049 124.15 115.309 124.15 114.464C124.15 113.625 124.304 112.885 124.611 112.245C124.924 111.605 125.361 111.107 125.922 110.751C126.489 110.39 127.153 110.209 127.915 110.209C128.378 110.209 128.828 110.285 129.262 110.436C129.697 110.587 130.087 110.827 130.434 111.154C130.781 111.481 131.054 111.906 131.254 112.428C131.459 112.951 131.562 113.581 131.562 114.318V114.889H125.051V113.695H130.742L130.002 114.091C130.002 113.588 129.924 113.144 129.768 112.758C129.611 112.372 129.377 112.072 129.064 111.857C128.757 111.637 128.374 111.527 127.915 111.527C127.456 111.527 127.062 111.637 126.735 111.857C126.413 112.077 126.167 112.367 125.996 112.729C125.825 113.09 125.739 113.485 125.739 113.915V114.728C125.739 115.29 125.837 115.766 126.032 116.156C126.228 116.547 126.499 116.845 126.845 117.05C127.197 117.255 127.604 117.357 128.068 117.357C128.371 117.357 128.645 117.313 128.889 117.226C129.138 117.138 129.353 117.006 129.533 116.83C129.714 116.654 129.851 116.437 129.943 116.178L131.452 116.464C131.33 116.903 131.115 117.289 130.808 117.621C130.5 117.953 130.112 118.212 129.643 118.397C129.179 118.578 128.649 118.668 128.054 118.668ZM132.675 118.5V110.312H134.206V111.623H134.294C134.445 111.183 134.709 110.836 135.085 110.583C135.466 110.324 135.896 110.194 136.374 110.194C136.472 110.194 136.586 110.199 136.718 110.209C136.855 110.214 136.965 110.221 137.048 110.231V111.754C136.984 111.735 136.87 111.715 136.704 111.696C136.542 111.676 136.379 111.667 136.213 111.667C135.837 111.667 135.5 111.747 135.202 111.908C134.909 112.064 134.677 112.282 134.506 112.56C134.34 112.833 134.257 113.151 134.257 113.512V118.5H132.675ZM145.053 110.312L142.094 118.5H140.38L137.414 110.312H139.121L141.201 116.625H141.289L143.354 110.312H145.053ZM149.162 118.668C148.361 118.668 147.668 118.495 147.082 118.148C146.496 117.802 146.044 117.313 145.727 116.684C145.415 116.049 145.258 115.309 145.258 114.464C145.258 113.625 145.412 112.885 145.72 112.245C146.032 111.605 146.469 111.107 147.031 110.751C147.597 110.39 148.261 110.209 149.023 110.209C149.487 110.209 149.936 110.285 150.371 110.436C150.805 110.587 151.196 110.827 151.542 111.154C151.889 111.481 152.163 111.906 152.363 112.428C152.568 112.951 152.67 113.581 152.67 114.318V114.889H146.159V113.695H151.85L151.11 114.091C151.11 113.588 151.032 113.144 150.876 112.758C150.72 112.372 150.485 112.072 150.173 111.857C149.865 111.637 149.482 111.527 149.023 111.527C148.564 111.527 148.171 111.637 147.844 111.857C147.521 112.077 147.275 112.367 147.104 112.729C146.933 113.09 146.848 113.485 146.848 113.915V114.728C146.848 115.29 146.945 115.766 147.141 116.156C147.336 116.547 147.607 116.845 147.954 117.05C148.305 117.255 148.713 117.357 149.177 117.357C149.479 117.357 149.753 117.313 149.997 117.226C150.246 117.138 150.461 117.006 150.642 116.83C150.822 116.654 150.959 116.437 151.052 116.178L152.561 116.464C152.438 116.903 152.224 117.289 151.916 117.621C151.608 117.953 151.22 118.212 150.751 118.397C150.288 118.578 149.758 118.668 149.162 118.668ZM153.784 118.5V110.312H155.314V111.623H155.402C155.554 111.183 155.817 110.836 156.193 110.583C156.574 110.324 157.004 110.194 157.482 110.194C157.58 110.194 157.695 110.199 157.827 110.209C157.963 110.214 158.073 110.221 158.156 110.231V111.754C158.093 111.735 157.978 111.715 157.812 111.696C157.651 111.676 157.487 111.667 157.321 111.667C156.945 111.667 156.608 111.747 156.311 111.908C156.018 112.064 155.786 112.282 155.615 112.56C155.449 112.833 155.366 113.151 155.366 113.512V118.5H153.784ZM165.048 112.318L163.605 112.567C163.513 112.294 163.339 112.042 163.085 111.813C162.836 111.583 162.463 111.469 161.965 111.469C161.516 111.469 161.14 111.571 160.837 111.776C160.539 111.977 160.39 112.233 160.39 112.545C160.39 112.819 160.49 113.041 160.69 113.212C160.896 113.383 161.22 113.52 161.665 113.622L162.976 113.915C163.723 114.086 164.282 114.354 164.653 114.721C165.024 115.087 165.209 115.556 165.209 116.127C165.209 116.62 165.068 117.06 164.785 117.445C164.501 117.826 164.108 118.126 163.605 118.346C163.103 118.561 162.521 118.668 161.862 118.668C160.944 118.668 160.197 118.471 159.621 118.075C159.045 117.68 158.691 117.123 158.559 116.405L160.09 116.171C160.188 116.571 160.385 116.874 160.683 117.079C160.986 117.284 161.376 117.387 161.855 117.387C162.373 117.387 162.788 117.277 163.1 117.057C163.417 116.837 163.576 116.571 163.576 116.259C163.576 115.741 163.19 115.392 162.419 115.211L161.035 114.904C160.268 114.728 159.702 114.452 159.335 114.076C158.974 113.695 158.793 113.217 158.793 112.641C158.793 112.157 158.928 111.732 159.196 111.366C159.47 111 159.843 110.717 160.317 110.517C160.795 110.312 161.34 110.209 161.95 110.209C162.839 110.209 163.535 110.402 164.038 110.788C164.545 111.173 164.882 111.684 165.048 112.318Z" fill="white" fill-opacity="0.95"/>
<defs>
<linearGradient id="paint0_linear_4955_19659" x1="0.358317" y1="0.499997" x2="209.404" y2="147.858" gradientUnits="userSpaceOnUse">
<stop stop-color="#1C1C1C"/>
<stop offset="1"/>
</linearGradient>
<linearGradient id="paint1_linear_4955_19659" x1="200.664" y1="16.7059" x2="158.137" y2="141.11" gradientUnits="userSpaceOnUse">
<stop stop-color="#FF8126"/>
<stop offset="1" stop-color="#FA3E18"/>
</linearGradient>
</defs>
</svg>
