<svg width="397" height="136" viewBox="0 0 397 136" fill="none" xmlns="http://www.w3.org/2000/svg">
<rect y="0.5" width="397" height="135" rx="16" fill="url(#paint0_linear_4955_19702)" fill-opacity="0.7"/>
<rect x="0.5" y="1" width="396" height="134" rx="15.5" stroke="white" stroke-opacity="0.1"/>
<path d="M62.98 101.587L66.0195 110.471H66.1367L69.1763 101.587H70.9487L67.0303 112.5H65.126L61.2002 101.587H62.98ZM73.5269 101.587V112.5H71.8789V101.587H73.5269ZM75.292 112.5V101.587H79.1885C80.0332 101.587 80.7339 101.743 81.2905 102.056C81.8472 102.363 82.2646 102.786 82.543 103.323C82.8213 103.855 82.9604 104.456 82.9604 105.125C82.9604 105.793 82.8213 106.396 82.543 106.934C82.2646 107.466 81.8447 107.888 81.2832 108.201C80.7266 108.508 80.0234 108.662 79.1738 108.662H76.5078V107.271H79.02C79.562 107.271 79.999 107.178 80.3311 106.992C80.668 106.807 80.9121 106.553 81.0635 106.23C81.2197 105.903 81.2979 105.535 81.2979 105.125C81.2979 104.709 81.2197 104.343 81.0635 104.026C80.9121 103.704 80.668 103.452 80.3311 103.271C79.9941 103.091 79.5547 103 79.0127 103H76.9399V112.5H75.292ZM93.5879 106.318L92.145 106.567C92.0522 106.294 91.8789 106.042 91.625 105.813C91.376 105.583 91.0024 105.469 90.5044 105.469C90.0552 105.469 89.6792 105.571 89.3765 105.776C89.0786 105.977 88.9297 106.233 88.9297 106.545C88.9297 106.819 89.0298 107.041 89.23 107.212C89.4351 107.383 89.7598 107.52 90.2041 107.622L91.5151 107.915C92.2622 108.086 92.8213 108.354 93.1924 108.721C93.5635 109.087 93.749 109.556 93.749 110.127C93.749 110.62 93.6074 111.06 93.3242 111.445C93.041 111.826 92.6479 112.126 92.145 112.346C91.6421 112.561 91.061 112.668 90.4019 112.668C89.4839 112.668 88.7368 112.471 88.1606 112.075C87.5845 111.68 87.2305 111.123 87.0986 110.405L88.6294 110.171C88.7271 110.571 88.9248 110.874 89.2227 111.079C89.5254 111.284 89.916 111.387 90.3945 111.387C90.9121 111.387 91.3271 111.277 91.6396 111.057C91.957 110.837 92.1157 110.571 92.1157 110.259C92.1157 109.741 91.73 109.392 90.9585 109.211L89.5742 108.904C88.8076 108.728 88.2412 108.452 87.875 108.076C87.5137 107.695 87.333 107.217 87.333 106.641C87.333 106.157 87.4673 105.732 87.7358 105.366C88.0093 105 88.3828 104.717 88.8564 104.517C89.335 104.312 89.8794 104.209 90.4897 104.209C91.3784 104.209 92.0742 104.402 92.5771 104.788C93.085 105.173 93.4219 105.684 93.5879 106.318ZM96.4443 101.587V112.5H94.8623V101.587H96.4443ZM101.403 112.668C100.636 112.668 99.9648 112.493 99.3887 112.141C98.8174 111.79 98.373 111.296 98.0557 110.662C97.7432 110.027 97.5869 109.29 97.5869 108.45C97.5869 107.6 97.7432 106.858 98.0557 106.223C98.373 105.583 98.8174 105.088 99.3887 104.736C99.9648 104.385 100.636 104.209 101.403 104.209C102.174 104.209 102.846 104.385 103.417 104.736C103.988 105.088 104.433 105.583 104.75 106.223C105.067 106.858 105.226 107.6 105.226 108.45C105.226 109.29 105.067 110.027 104.75 110.662C104.433 111.296 103.988 111.79 103.417 112.141C102.846 112.493 102.174 112.668 101.403 112.668ZM101.403 111.328C101.906 111.328 102.321 111.196 102.648 110.933C102.975 110.669 103.217 110.32 103.373 109.885C103.534 109.446 103.615 108.967 103.615 108.45C103.615 107.922 103.534 107.439 103.373 107C103.217 106.56 102.975 106.208 102.648 105.945C102.321 105.681 101.906 105.549 101.403 105.549C100.905 105.549 100.492 105.681 100.165 105.945C99.8428 106.208 99.6011 106.56 99.4399 107C99.2788 107.439 99.1982 107.922 99.1982 108.45C99.1982 108.967 99.2788 109.446 99.4399 109.885C99.6011 110.32 99.8428 110.669 100.165 110.933C100.492 111.196 100.905 111.328 101.403 111.328ZM110.185 104.312V105.593H105.717V104.312H110.185ZM106.911 102.363H108.5V110.098C108.5 110.474 108.578 110.75 108.734 110.925C108.891 111.096 109.142 111.182 109.489 111.182C109.572 111.182 109.66 111.177 109.752 111.167C109.85 111.157 109.948 111.143 110.045 111.123L110.346 112.441C110.185 112.495 110.009 112.537 109.818 112.566C109.628 112.595 109.438 112.61 109.247 112.61C108.539 112.61 107.973 112.412 107.548 112.017C107.123 111.616 106.911 111.084 106.911 110.42V102.363ZM117.318 106.318L115.875 106.567C115.783 106.294 115.609 106.042 115.355 105.813C115.106 105.583 114.733 105.469 114.235 105.469C113.786 105.469 113.41 105.571 113.107 105.776C112.809 105.977 112.66 106.233 112.66 106.545C112.66 106.819 112.76 107.041 112.96 107.212C113.166 107.383 113.49 107.52 113.935 107.622L115.246 107.915C115.993 108.086 116.552 108.354 116.923 108.721C117.294 109.087 117.479 109.556 117.479 110.127C117.479 110.62 117.338 111.06 117.055 111.445C116.771 111.826 116.378 112.126 115.875 112.346C115.373 112.561 114.792 112.668 114.132 112.668C113.214 112.668 112.467 112.471 111.891 112.075C111.315 111.68 110.961 111.123 110.829 110.405L112.36 110.171C112.458 110.571 112.655 110.874 112.953 111.079C113.256 111.284 113.646 111.387 114.125 111.387C114.643 111.387 115.058 111.277 115.37 111.057C115.688 110.837 115.846 110.571 115.846 110.259C115.846 109.741 115.46 109.392 114.689 109.211L113.305 108.904C112.538 108.728 111.972 108.452 111.605 108.076C111.244 107.695 111.063 107.217 111.063 106.641C111.063 106.157 111.198 105.732 111.466 105.366C111.74 105 112.113 104.717 112.587 104.517C113.065 104.312 113.61 104.209 114.22 104.209C115.109 104.209 115.805 104.402 116.308 104.788C116.815 105.173 117.152 105.684 117.318 106.318ZM125.829 104.312V105.593H121.208V104.312H125.829ZM122.467 112.5V103.359C122.467 102.852 122.58 102.429 122.804 102.092C123.034 101.75 123.332 101.497 123.698 101.331C124.069 101.16 124.467 101.074 124.892 101.074C125.219 101.074 125.497 101.101 125.727 101.155C125.956 101.208 126.125 101.255 126.232 101.294L125.851 102.583C125.778 102.559 125.683 102.532 125.565 102.502C125.453 102.473 125.312 102.458 125.141 102.458C124.755 102.458 124.477 102.556 124.306 102.751C124.135 102.942 124.049 103.22 124.049 103.586V112.5H122.467ZM129.953 112.668C129.186 112.668 128.515 112.493 127.938 112.141C127.367 111.79 126.923 111.296 126.605 110.662C126.293 110.027 126.137 109.29 126.137 108.45C126.137 107.6 126.293 106.858 126.605 106.223C126.923 105.583 127.367 105.088 127.938 104.736C128.515 104.385 129.186 104.209 129.953 104.209C130.724 104.209 131.396 104.385 131.967 104.736C132.538 105.088 132.982 105.583 133.3 106.223C133.617 106.858 133.776 107.6 133.776 108.45C133.776 109.29 133.617 110.027 133.3 110.662C132.982 111.296 132.538 111.79 131.967 112.141C131.396 112.493 130.724 112.668 129.953 112.668ZM129.953 111.328C130.456 111.328 130.871 111.196 131.198 110.933C131.525 110.669 131.767 110.32 131.923 109.885C132.084 109.446 132.165 108.967 132.165 108.45C132.165 107.922 132.084 107.439 131.923 107C131.767 106.56 131.525 106.208 131.198 105.945C130.871 105.681 130.456 105.549 129.953 105.549C129.455 105.549 129.042 105.681 128.715 105.945C128.393 106.208 128.151 106.56 127.99 107C127.829 107.439 127.748 107.922 127.748 108.45C127.748 108.967 127.829 109.446 127.99 109.885C128.151 110.32 128.393 110.669 128.715 110.933C129.042 111.196 129.455 111.328 129.953 111.328ZM134.926 112.5V104.312H136.457V105.623H136.544C136.696 105.183 136.959 104.836 137.335 104.583C137.716 104.324 138.146 104.194 138.625 104.194C138.722 104.194 138.837 104.199 138.969 104.209C139.105 104.214 139.215 104.221 139.298 104.231V105.754C139.235 105.735 139.12 105.715 138.954 105.696C138.793 105.676 138.629 105.667 138.463 105.667C138.087 105.667 137.75 105.747 137.453 105.908C137.16 106.064 136.928 106.282 136.757 106.56C136.591 106.833 136.508 107.151 136.508 107.512V112.5H134.926ZM142.982 103V101.587H151.435V103H148.036V112.5H146.396V103H142.982ZM156.605 109.116V104.312H158.188V112.5H156.635V111.079H156.547C156.352 111.514 156.049 111.877 155.639 112.17C155.229 112.463 154.716 112.607 154.101 112.603C153.573 112.603 153.107 112.488 152.702 112.258C152.301 112.029 151.986 111.685 151.757 111.226C151.532 110.767 151.42 110.198 151.42 109.519V104.312H153.002V109.336C153.002 109.888 153.158 110.33 153.471 110.662C153.783 110.994 154.186 111.157 154.679 111.152C154.977 111.152 155.272 111.079 155.565 110.933C155.863 110.786 156.11 110.562 156.305 110.259C156.505 109.956 156.605 109.575 156.605 109.116ZM161.293 107.644V112.5H159.711V104.312H161.249V105.659H161.359C161.544 105.215 161.835 104.863 162.23 104.604C162.626 104.341 163.134 104.209 163.754 104.209C164.311 104.209 164.796 104.326 165.211 104.561C165.631 104.79 165.956 105.134 166.186 105.593C166.42 106.052 166.537 106.621 166.537 107.3V112.5H164.955V107.49C164.955 106.899 164.799 106.436 164.486 106.099C164.174 105.757 163.749 105.586 163.212 105.586C162.846 105.586 162.516 105.669 162.223 105.835C161.935 105.996 161.708 106.228 161.542 106.531C161.376 106.833 161.293 107.205 161.293 107.644ZM171.583 112.668C170.783 112.668 170.089 112.495 169.503 112.148C168.917 111.802 168.466 111.313 168.148 110.684C167.836 110.049 167.68 109.309 167.68 108.464C167.68 107.625 167.833 106.885 168.141 106.245C168.454 105.605 168.891 105.107 169.452 104.751C170.019 104.39 170.683 104.209 171.444 104.209C171.908 104.209 172.357 104.285 172.792 104.436C173.227 104.587 173.617 104.827 173.964 105.154C174.311 105.481 174.584 105.906 174.784 106.428C174.989 106.951 175.092 107.581 175.092 108.318V108.889H168.581V107.695H174.271L173.532 108.091C173.532 107.588 173.454 107.144 173.297 106.758C173.141 106.372 172.907 106.072 172.594 105.857C172.287 105.637 171.903 105.527 171.444 105.527C170.985 105.527 170.592 105.637 170.265 105.857C169.943 106.077 169.696 106.367 169.525 106.729C169.354 107.09 169.269 107.485 169.269 107.915V108.728C169.269 109.29 169.367 109.766 169.562 110.156C169.757 110.547 170.028 110.845 170.375 111.05C170.727 111.255 171.134 111.357 171.598 111.357C171.901 111.357 172.174 111.313 172.418 111.226C172.667 111.138 172.882 111.006 173.063 110.83C173.244 110.654 173.38 110.437 173.473 110.178L174.982 110.464C174.86 110.903 174.645 111.289 174.337 111.621C174.03 111.953 173.642 112.212 173.173 112.397C172.709 112.578 172.179 112.668 171.583 112.668ZM179.252 112.661C178.588 112.661 177.997 112.493 177.479 112.156C176.962 111.814 176.557 111.328 176.264 110.698C175.971 110.063 175.824 109.307 175.824 108.428C175.824 107.539 175.973 106.78 176.271 106.15C176.569 105.52 176.977 105.039 177.494 104.707C178.012 104.375 178.598 104.209 179.252 104.209C179.765 104.209 180.175 104.294 180.482 104.465C180.795 104.631 181.037 104.827 181.208 105.051C181.383 105.276 181.518 105.474 181.61 105.645H181.706V101.587H183.288V112.5H181.742V111.226H181.61C181.518 111.396 181.381 111.594 181.2 111.819C181.02 112.043 180.773 112.241 180.46 112.412C180.153 112.578 179.75 112.661 179.252 112.661ZM179.596 111.306C180.055 111.306 180.443 111.184 180.761 110.94C181.078 110.696 181.317 110.356 181.479 109.922C181.645 109.487 181.728 108.984 181.728 108.413C181.728 107.842 181.647 107.344 181.486 106.919C181.325 106.489 181.085 106.157 180.768 105.923C180.451 105.684 180.06 105.564 179.596 105.564C179.118 105.564 178.72 105.688 178.402 105.938C178.085 106.187 177.846 106.526 177.685 106.956C177.523 107.385 177.443 107.871 177.443 108.413C177.443 108.96 177.523 109.453 177.685 109.893C177.846 110.327 178.085 110.671 178.402 110.925C178.725 111.179 179.123 111.306 179.596 111.306ZM192.831 112.646C191.894 112.646 191.054 112.422 190.312 111.973C189.569 111.523 188.986 110.881 188.561 110.046C188.136 109.207 187.924 108.208 187.924 107.051C187.924 105.884 188.136 104.883 188.561 104.048C188.991 103.208 189.574 102.563 190.312 102.114C191.054 101.665 191.894 101.44 192.831 101.44C193.407 101.44 193.947 101.523 194.45 101.689C194.958 101.855 195.412 102.097 195.812 102.415C196.212 102.732 196.542 103.12 196.801 103.579C197.064 104.038 197.24 104.558 197.328 105.139H195.673C195.609 104.783 195.49 104.47 195.314 104.202C195.143 103.928 194.931 103.699 194.677 103.513C194.428 103.323 194.147 103.181 193.834 103.088C193.527 102.991 193.2 102.942 192.853 102.942C192.228 102.942 191.664 103.101 191.161 103.418C190.663 103.73 190.27 104.194 189.982 104.81C189.699 105.42 189.557 106.167 189.557 107.051C189.557 107.939 189.701 108.689 189.989 109.299C190.277 109.905 190.67 110.364 191.168 110.676C191.667 110.989 192.226 111.145 192.846 111.145C193.192 111.145 193.52 111.099 193.827 111.006C194.135 110.913 194.416 110.774 194.669 110.588C194.923 110.403 195.136 110.178 195.307 109.915C195.482 109.646 195.604 109.336 195.673 108.984H197.328C197.245 109.526 197.077 110.022 196.823 110.471C196.569 110.916 196.244 111.301 195.849 111.628C195.453 111.951 195.001 112.202 194.494 112.383C193.986 112.559 193.432 112.646 192.831 112.646ZM200.932 112.676C200.414 112.676 199.945 112.581 199.525 112.39C199.105 112.195 198.773 111.912 198.529 111.541C198.285 111.169 198.163 110.718 198.163 110.186C198.163 109.722 198.251 109.343 198.427 109.05C198.607 108.752 198.849 108.516 199.152 108.34C199.455 108.164 199.792 108.032 200.163 107.944C200.534 107.856 200.915 107.788 201.305 107.739C201.798 107.686 202.196 107.639 202.499 107.6C202.802 107.561 203.021 107.5 203.158 107.417C203.3 107.329 203.371 107.19 203.371 107V106.963C203.371 106.499 203.239 106.14 202.975 105.886C202.716 105.632 202.331 105.505 201.818 105.505C201.286 105.505 200.863 105.623 200.551 105.857C200.243 106.086 200.031 106.348 199.914 106.641L198.412 106.296C198.593 105.798 198.854 105.398 199.196 105.095C199.542 104.788 199.938 104.563 200.382 104.421C200.832 104.28 201.3 104.209 201.789 104.209C202.116 104.209 202.462 104.248 202.829 104.326C203.195 104.399 203.539 104.539 203.861 104.744C204.188 104.944 204.455 105.232 204.66 105.608C204.865 105.984 204.967 106.47 204.967 107.065V112.5H203.407V111.379H203.349C203.251 111.58 203.097 111.78 202.887 111.98C202.682 112.18 202.418 112.346 202.096 112.478C201.774 112.61 201.386 112.676 200.932 112.676ZM201.276 111.401C201.72 111.401 202.099 111.316 202.411 111.145C202.724 110.969 202.963 110.74 203.129 110.457C203.295 110.173 203.378 109.873 203.378 109.556V108.494C203.319 108.547 203.209 108.599 203.048 108.647C202.887 108.696 202.704 108.738 202.499 108.772C202.294 108.806 202.094 108.838 201.898 108.867C201.703 108.892 201.54 108.911 201.408 108.926C201.1 108.97 200.819 109.038 200.565 109.131C200.312 109.219 200.106 109.351 199.95 109.526C199.799 109.697 199.723 109.924 199.723 110.208C199.723 110.603 199.87 110.901 200.163 111.101C200.456 111.301 200.827 111.401 201.276 111.401ZM206.498 112.5V104.312H208.029V105.623H208.117C208.268 105.183 208.532 104.836 208.908 104.583C209.289 104.324 209.718 104.194 210.197 104.194C210.294 104.194 210.409 104.199 210.541 104.209C210.678 104.214 210.788 104.221 210.871 104.231V105.754C210.807 105.735 210.692 105.715 210.526 105.696C210.365 105.676 210.202 105.667 210.036 105.667C209.66 105.667 209.323 105.747 209.025 105.908C208.732 106.064 208.5 106.282 208.329 106.56C208.163 106.833 208.08 107.151 208.08 107.512V112.5H206.498ZM217.763 106.318L216.32 106.567C216.227 106.294 216.054 106.042 215.8 105.813C215.551 105.583 215.177 105.469 214.679 105.469C214.23 105.469 213.854 105.571 213.551 105.776C213.253 105.977 213.104 106.233 213.104 106.545C213.104 106.819 213.205 107.041 213.405 107.212C213.61 107.383 213.935 107.52 214.379 107.622L215.69 107.915C216.437 108.086 216.996 108.354 217.367 108.721C217.738 109.087 217.924 109.556 217.924 110.127C217.924 110.62 217.782 111.06 217.499 111.445C217.216 111.826 216.823 112.126 216.32 112.346C215.817 112.561 215.236 112.668 214.577 112.668C213.659 112.668 212.912 112.471 212.335 112.075C211.759 111.68 211.405 111.123 211.273 110.405L212.804 110.171C212.902 110.571 213.1 110.874 213.397 111.079C213.7 111.284 214.091 111.387 214.569 111.387C215.087 111.387 215.502 111.277 215.814 111.057C216.132 110.837 216.291 110.571 216.291 110.259C216.291 109.741 215.905 109.392 215.133 109.211L213.749 108.904C212.982 108.728 212.416 108.452 212.05 108.076C211.688 107.695 211.508 107.217 211.508 106.641C211.508 106.157 211.642 105.732 211.911 105.366C212.184 105 212.558 104.717 213.031 104.517C213.51 104.312 214.054 104.209 214.665 104.209C215.553 104.209 216.249 104.402 216.752 104.788C217.26 105.173 217.597 105.684 217.763 106.318ZM225.812 112.668C225.045 112.668 224.374 112.493 223.798 112.141C223.227 111.79 222.782 111.296 222.465 110.662C222.152 110.027 221.996 109.29 221.996 108.45C221.996 107.6 222.152 106.858 222.465 106.223C222.782 105.583 223.227 105.088 223.798 104.736C224.374 104.385 225.045 104.209 225.812 104.209C226.583 104.209 227.255 104.385 227.826 104.736C228.397 105.088 228.842 105.583 229.159 106.223C229.477 106.858 229.635 107.6 229.635 108.45C229.635 109.29 229.477 110.027 229.159 110.662C228.842 111.296 228.397 111.79 227.826 112.141C227.255 112.493 226.583 112.668 225.812 112.668ZM225.812 111.328C226.315 111.328 226.73 111.196 227.057 110.933C227.384 110.669 227.626 110.32 227.782 109.885C227.943 109.446 228.024 108.967 228.024 108.45C228.024 107.922 227.943 107.439 227.782 107C227.626 106.56 227.384 106.208 227.057 105.945C226.73 105.681 226.315 105.549 225.812 105.549C225.314 105.549 224.901 105.681 224.574 105.945C224.252 106.208 224.01 106.56 223.849 107C223.688 107.439 223.607 107.922 223.607 108.45C223.607 108.967 223.688 109.446 223.849 109.885C224.01 110.32 224.252 110.669 224.574 110.933C224.901 111.196 225.314 111.328 225.812 111.328ZM232.367 107.644V112.5H230.785V104.312H232.323V105.659H232.433C232.619 105.215 232.909 104.863 233.305 104.604C233.7 104.341 234.208 104.209 234.828 104.209C235.385 104.209 235.871 104.326 236.286 104.561C236.706 104.79 237.03 105.134 237.26 105.593C237.494 106.052 237.611 106.621 237.611 107.3V112.5H236.029V107.49C236.029 106.899 235.873 106.436 235.561 106.099C235.248 105.757 234.823 105.586 234.286 105.586C233.92 105.586 233.59 105.669 233.297 105.835C233.009 105.996 232.782 106.228 232.616 106.531C232.45 106.833 232.367 107.205 232.367 107.644ZM242.592 112.5V101.587H246.488C247.333 101.587 248.034 101.743 248.59 102.056C249.147 102.363 249.564 102.786 249.843 103.323C250.121 103.855 250.26 104.456 250.26 105.125C250.26 105.793 250.121 106.396 249.843 106.934C249.564 107.466 249.145 107.888 248.583 108.201C248.026 108.508 247.323 108.662 246.474 108.662H243.808V107.271H246.32C246.862 107.271 247.299 107.178 247.631 106.992C247.968 106.807 248.212 106.553 248.363 106.23C248.52 105.903 248.598 105.535 248.598 105.125C248.598 104.709 248.52 104.343 248.363 104.026C248.212 103.704 247.968 103.452 247.631 103.271C247.294 103.091 246.854 103 246.312 103H244.24V112.5H242.592ZM256.61 109.116V104.312H258.192V112.5H256.64V111.079H256.552C256.356 111.514 256.054 111.877 255.644 112.17C255.233 112.463 254.721 112.607 254.105 112.603C253.578 112.603 253.112 112.488 252.707 112.258C252.306 112.029 251.991 111.685 251.762 111.226C251.537 110.767 251.425 110.198 251.425 109.519V104.312H253.007V109.336C253.007 109.888 253.163 110.33 253.476 110.662C253.788 110.994 254.191 111.157 254.684 111.152C254.982 111.152 255.277 111.079 255.57 110.933C255.868 110.786 256.115 110.562 256.31 110.259C256.51 109.956 256.61 109.575 256.61 109.116ZM263.751 112.661C263.258 112.661 262.853 112.578 262.536 112.412C262.223 112.241 261.977 112.043 261.796 111.819C261.62 111.594 261.483 111.396 261.386 111.226H261.254V112.5H259.716V101.587H261.298V105.645H261.386C261.483 105.474 261.618 105.276 261.789 105.051C261.964 104.827 262.208 104.631 262.521 104.465C262.833 104.294 263.241 104.209 263.744 104.209C264.403 104.209 264.989 104.375 265.502 104.707C266.02 105.039 266.427 105.52 266.725 106.15C267.023 106.78 267.172 107.539 267.172 108.428C267.172 109.307 267.025 110.063 266.732 110.698C266.439 111.328 266.034 111.814 265.517 112.156C265.004 112.493 264.416 112.661 263.751 112.661ZM263.407 111.306C263.881 111.306 264.276 111.179 264.594 110.925C264.911 110.671 265.15 110.327 265.312 109.893C265.478 109.453 265.561 108.96 265.561 108.413C265.561 107.871 265.48 107.385 265.319 106.956C265.158 106.526 264.918 106.187 264.601 105.938C264.284 105.688 263.886 105.564 263.407 105.564C262.943 105.564 262.553 105.684 262.235 105.923C261.918 106.157 261.676 106.489 261.51 106.919C261.349 107.344 261.269 107.842 261.269 108.413C261.269 108.984 261.352 109.487 261.518 109.922C261.684 110.356 261.925 110.696 262.243 110.94C262.565 111.184 262.953 111.306 263.407 111.306ZM269.911 101.587V112.5H268.329V101.587H269.911ZM271.435 112.5V104.312H273.017V112.5H271.435ZM272.233 103.052C271.955 103.052 271.718 102.959 271.522 102.773C271.327 102.588 271.229 102.366 271.229 102.107C271.229 101.843 271.327 101.619 271.522 101.433C271.718 101.248 271.955 101.155 272.233 101.155C272.506 101.155 272.741 101.248 272.936 101.433C273.136 101.619 273.236 101.843 273.236 102.107C273.236 102.366 273.136 102.588 272.936 102.773C272.741 102.959 272.506 103.052 272.233 103.052ZM277.975 112.668C277.189 112.668 276.51 112.488 275.939 112.126C275.368 111.765 274.928 111.267 274.621 110.632C274.313 109.998 274.159 109.27 274.159 108.45C274.159 107.615 274.315 106.88 274.628 106.245C274.945 105.605 275.387 105.107 275.954 104.751C276.525 104.39 277.194 104.209 277.96 104.209C278.585 104.209 279.14 104.324 279.623 104.553C280.111 104.778 280.504 105.098 280.802 105.513C281.105 105.928 281.283 106.411 281.337 106.963H279.784C279.73 106.704 279.625 106.467 279.469 106.252C279.318 106.038 279.118 105.867 278.869 105.74C278.62 105.613 278.324 105.549 277.982 105.549C277.538 105.549 277.15 105.667 276.818 105.901C276.491 106.13 276.234 106.46 276.049 106.89C275.863 107.319 275.771 107.827 275.771 108.413C275.771 109.004 275.861 109.519 276.042 109.958C276.222 110.398 276.479 110.737 276.811 110.977C277.147 111.211 277.538 111.328 277.982 111.328C278.441 111.328 278.832 111.201 279.154 110.947C279.481 110.693 279.691 110.347 279.784 109.907H281.337C281.283 110.439 281.112 110.913 280.824 111.328C280.536 111.743 280.15 112.07 279.667 112.31C279.184 112.549 278.62 112.668 277.975 112.668ZM289.577 112.676C288.761 112.676 288.053 112.549 287.453 112.295C286.857 112.036 286.391 111.667 286.054 111.189C285.717 110.71 285.529 110.142 285.49 109.482H287.145C287.179 109.878 287.306 110.208 287.526 110.471C287.75 110.73 288.041 110.923 288.397 111.05C288.754 111.177 289.145 111.24 289.569 111.24C290.033 111.24 290.448 111.167 290.814 111.021C291.181 110.874 291.466 110.669 291.671 110.405C291.881 110.137 291.986 109.824 291.986 109.468C291.986 109.146 291.894 108.882 291.708 108.677C291.527 108.472 291.281 108.303 290.968 108.171C290.656 108.035 290.304 107.915 289.914 107.812L288.632 107.461C287.753 107.227 287.06 106.877 286.552 106.414C286.044 105.945 285.79 105.332 285.79 104.575C285.79 103.945 285.958 103.396 286.295 102.927C286.637 102.458 287.099 102.095 287.68 101.836C288.266 101.572 288.922 101.44 289.65 101.44C290.392 101.44 291.044 101.572 291.605 101.836C292.172 102.095 292.619 102.451 292.946 102.905C293.278 103.354 293.451 103.87 293.466 104.451H291.869C291.811 103.948 291.576 103.557 291.166 103.279C290.761 103 290.243 102.861 289.613 102.861C289.174 102.861 288.788 102.932 288.456 103.074C288.129 103.21 287.875 103.401 287.694 103.645C287.519 103.889 287.431 104.17 287.431 104.487C287.431 104.829 287.536 105.107 287.746 105.322C287.96 105.537 288.219 105.708 288.522 105.835C288.83 105.957 289.125 106.057 289.408 106.135L290.47 106.421C290.817 106.509 291.173 106.626 291.54 106.772C291.906 106.919 292.245 107.112 292.558 107.351C292.875 107.585 293.129 107.878 293.319 108.23C293.515 108.577 293.612 108.997 293.612 109.49C293.612 110.1 293.454 110.647 293.136 111.13C292.819 111.609 292.36 111.987 291.759 112.266C291.159 112.539 290.431 112.676 289.577 112.676ZM298.351 112.668C297.55 112.668 296.857 112.495 296.271 112.148C295.685 111.802 295.233 111.313 294.916 110.684C294.604 110.049 294.447 109.309 294.447 108.464C294.447 107.625 294.601 106.885 294.909 106.245C295.221 105.605 295.658 105.107 296.22 104.751C296.786 104.39 297.45 104.209 298.212 104.209C298.676 104.209 299.125 104.285 299.56 104.436C299.994 104.587 300.385 104.827 300.731 105.154C301.078 105.481 301.352 105.906 301.552 106.428C301.757 106.951 301.859 107.581 301.859 108.318V108.889H295.348V107.695H301.039L300.299 108.091C300.299 107.588 300.221 107.144 300.065 106.758C299.909 106.372 299.674 106.072 299.362 105.857C299.054 105.637 298.671 105.527 298.212 105.527C297.753 105.527 297.36 105.637 297.033 105.857C296.71 106.077 296.464 106.367 296.293 106.729C296.122 107.09 296.037 107.485 296.037 107.915V108.728C296.037 109.29 296.134 109.766 296.33 110.156C296.525 110.547 296.796 110.845 297.143 111.05C297.494 111.255 297.902 111.357 298.366 111.357C298.668 111.357 298.942 111.313 299.186 111.226C299.435 111.138 299.65 111.006 299.831 110.83C300.011 110.654 300.148 110.437 300.241 110.178L301.75 110.464C301.627 110.903 301.413 111.289 301.105 111.621C300.797 111.953 300.409 112.212 299.94 112.397C299.477 112.578 298.947 112.668 298.351 112.668ZM302.973 112.5V104.312H304.503V105.623H304.591C304.743 105.183 305.006 104.836 305.382 104.583C305.763 104.324 306.193 104.194 306.671 104.194C306.769 104.194 306.884 104.199 307.016 104.209C307.152 104.214 307.262 104.221 307.345 104.231V105.754C307.282 105.735 307.167 105.715 307.001 105.696C306.84 105.676 306.676 105.667 306.51 105.667C306.134 105.667 305.797 105.747 305.5 105.908C305.207 106.064 304.975 106.282 304.804 106.56C304.638 106.833 304.555 107.151 304.555 107.512V112.5H302.973ZM315.351 104.312L312.392 112.5H310.678L307.711 104.312H309.418L311.498 110.625H311.586L313.651 104.312H315.351ZM319.459 112.668C318.659 112.668 317.965 112.495 317.379 112.148C316.793 111.802 316.342 111.313 316.024 110.684C315.712 110.049 315.556 109.309 315.556 108.464C315.556 107.625 315.709 106.885 316.017 106.245C316.33 105.605 316.767 105.107 317.328 104.751C317.895 104.39 318.559 104.209 319.32 104.209C319.784 104.209 320.233 104.285 320.668 104.436C321.103 104.587 321.493 104.827 321.84 105.154C322.187 105.481 322.46 105.906 322.66 106.428C322.865 106.951 322.968 107.581 322.968 108.318V108.889H316.457V107.695H322.147L321.408 108.091C321.408 107.588 321.33 107.144 321.173 106.758C321.017 106.372 320.783 106.072 320.47 105.857C320.163 105.637 319.779 105.527 319.32 105.527C318.861 105.527 318.468 105.637 318.141 105.857C317.819 106.077 317.572 106.367 317.401 106.729C317.23 107.09 317.145 107.485 317.145 107.915V108.728C317.145 109.29 317.243 109.766 317.438 110.156C317.633 110.547 317.904 110.845 318.251 111.05C318.603 111.255 319.01 111.357 319.474 111.357C319.777 111.357 320.05 111.313 320.294 111.226C320.543 111.138 320.758 111.006 320.939 110.83C321.12 110.654 321.256 110.437 321.349 110.178L322.858 110.464C322.736 110.903 322.521 111.289 322.213 111.621C321.906 111.953 321.518 112.212 321.049 112.397C320.585 112.578 320.055 112.668 319.459 112.668ZM324.081 112.5V104.312H325.612V105.623H325.7C325.851 105.183 326.115 104.836 326.491 104.583C326.872 104.324 327.301 104.194 327.78 104.194C327.877 104.194 327.992 104.199 328.124 104.209C328.261 104.214 328.371 104.221 328.454 104.231V105.754C328.39 105.735 328.275 105.715 328.109 105.696C327.948 105.676 327.785 105.667 327.619 105.667C327.243 105.667 326.906 105.747 326.608 105.908C326.315 106.064 326.083 106.282 325.912 106.56C325.746 106.833 325.663 107.151 325.663 107.512V112.5H324.081ZM335.346 106.318L333.903 106.567C333.81 106.294 333.637 106.042 333.383 105.813C333.134 105.583 332.76 105.469 332.262 105.469C331.813 105.469 331.437 105.571 331.134 105.776C330.836 105.977 330.688 106.233 330.688 106.545C330.688 106.819 330.788 107.041 330.988 107.212C331.193 107.383 331.518 107.52 331.962 107.622L333.273 107.915C334.02 108.086 334.579 108.354 334.95 108.721C335.321 109.087 335.507 109.556 335.507 110.127C335.507 110.62 335.365 111.06 335.082 111.445C334.799 111.826 334.406 112.126 333.903 112.346C333.4 112.561 332.819 112.668 332.16 112.668C331.242 112.668 330.495 112.471 329.918 112.075C329.342 111.68 328.988 111.123 328.856 110.405L330.387 110.171C330.485 110.571 330.683 110.874 330.98 111.079C331.283 111.284 331.674 111.387 332.152 111.387C332.67 111.387 333.085 111.277 333.397 111.057C333.715 110.837 333.874 110.571 333.874 110.259C333.874 109.741 333.488 109.392 332.716 109.211L331.332 108.904C330.565 108.728 329.999 108.452 329.633 108.076C329.271 107.695 329.091 107.217 329.091 106.641C329.091 106.157 329.225 105.732 329.494 105.366C329.767 105 330.141 104.717 330.614 104.517C331.093 104.312 331.637 104.209 332.248 104.209C333.136 104.209 333.832 104.402 334.335 104.788C334.843 105.173 335.18 105.684 335.346 106.318Z" fill="white" fill-opacity="0.95"/>
<g filter="url(#filter1_d_4955_19702)">
<rect width="170" height="52" rx="26" transform="matrix(0.984808 -0.173648 0.34202 0.939693 105.898 38.0195)" fill="white" fill-opacity="0.05" shape-rendering="crispEdges"/>
<rect x="0.995121" y="0.574533" width="168.5" height="50.5" rx="25.25" transform="matrix(0.984808 -0.173648 0.34202 0.939693 105.717 38.227)" stroke="url(#paint1_linear_4955_19702)" stroke-opacity="0.17" stroke-width="1.5" shape-rendering="crispEdges"/>
<path d="M130.489 53.7705L136.521 61.5912L136.636 61.5708L136.591 52.6945L138.337 52.3867L138.21 63.3221L136.335 63.6528L128.736 54.0795L130.489 53.7705ZM140.875 51.939L144.608 62.194L142.985 62.4801L139.253 52.2252L140.875 51.939ZM146.346 61.8875L142.614 51.6325L146.451 50.9559C147.283 50.8092 148.026 50.8344 148.682 51.0314C149.335 51.2238 149.891 51.5482 150.348 52.0046C150.804 52.4564 151.147 52.9966 151.376 53.6252C151.604 54.2538 151.674 54.8446 151.583 55.3976C151.491 55.9461 151.222 56.4159 150.776 56.8071C150.333 57.1928 149.693 57.4594 148.857 57.607L146.231 58.0699L145.755 56.7622L148.229 56.326C148.763 56.2319 149.162 56.0688 149.425 55.8368C149.693 55.6039 149.847 55.3229 149.886 54.9938C149.928 54.6593 149.879 54.2993 149.738 53.9139C149.596 53.5239 149.394 53.1933 149.132 52.9222C148.873 52.6457 148.546 52.4517 148.152 52.3405C147.759 52.2292 147.295 52.2206 146.761 52.3148L144.72 52.6747L147.969 61.6013L146.346 61.8875ZM162.25 52.9016L160.914 53.3861C160.729 53.1453 160.473 52.9391 160.144 52.7675C159.82 52.5951 159.413 52.5522 158.923 52.6387C158.48 52.7167 158.145 52.8783 157.917 53.1236C157.692 53.3634 157.633 53.6302 157.74 53.9238C157.834 54.1808 158.008 54.3722 158.264 54.498C158.524 54.623 158.891 54.6951 159.364 54.7143L160.755 54.7619C161.549 54.7928 162.191 54.948 162.682 55.2277C163.173 55.5074 163.516 55.9157 163.711 56.4525C163.88 56.9159 163.891 57.3535 163.744 57.7651C163.595 58.1722 163.311 58.5226 162.891 58.8164C162.469 59.1057 161.933 59.3075 161.284 59.422C160.38 59.5814 159.577 59.5253 158.874 59.2537C158.171 58.9821 157.632 58.5205 157.257 57.8689L158.684 57.3828C158.918 57.7421 159.216 57.9922 159.579 58.1332C159.948 58.2734 160.367 58.3019 160.839 58.2188C161.348 58.1289 161.72 57.9536 161.952 57.6929C162.19 57.4313 162.255 57.1537 162.148 56.86C161.971 56.3736 161.472 56.1126 160.65 56.0768L159.182 56.0281C158.367 55.996 157.714 55.8351 157.225 55.5454C156.739 55.2503 156.397 54.832 156.2 54.2906C156.035 53.8363 156.022 53.4138 156.161 53.0231C156.305 52.6314 156.576 52.3005 156.974 52.0301C157.375 51.7543 157.876 51.5634 158.477 51.4574C159.353 51.3031 160.104 51.3635 160.731 51.6386C161.363 51.9129 161.869 52.3339 162.25 52.9016ZM163.445 47.9595L167.177 58.2144L165.619 58.4891L161.887 48.2342L163.445 47.9595ZM172.118 57.5117C171.363 57.6448 170.642 57.5962 169.954 57.3659C169.271 57.1347 168.665 56.7485 168.135 56.2071C167.611 55.6649 167.204 54.9992 166.917 54.21C166.627 53.4116 166.527 52.687 166.617 52.0363C166.711 51.3801 166.979 50.8372 167.422 50.4077C167.869 49.9773 168.47 49.6955 169.225 49.5624C169.985 49.4284 170.706 49.477 171.389 49.7082C172.072 49.9393 172.679 50.3279 173.21 50.8738C173.74 51.4152 174.15 52.0851 174.44 52.8834C174.728 53.6726 174.823 54.393 174.728 55.0446C174.633 55.6962 174.364 56.2368 173.921 56.6664C173.479 57.0959 172.878 57.3777 172.118 57.5117ZM171.66 56.2522C172.155 56.1648 172.519 55.9689 172.751 55.6643C172.983 55.3597 173.101 54.9897 173.106 54.5542C173.115 54.1133 173.031 53.6496 172.853 53.1632C172.673 52.6677 172.428 52.2275 172.119 51.8425C171.815 51.4567 171.457 51.1683 171.045 50.9773C170.632 50.7863 170.178 50.7345 169.683 50.8219C169.193 50.9084 168.831 51.1039 168.599 51.4085C168.372 51.7122 168.255 52.0845 168.246 52.5255C168.238 52.9664 168.324 53.4346 168.504 53.9302C168.681 54.4165 168.924 54.8522 169.233 55.2372C169.54 55.6176 169.898 55.9036 170.305 56.0955C170.718 56.2864 171.169 56.3387 171.66 56.2522ZM177.908 48.1338L178.347 49.3382L173.947 50.1141L173.508 48.9096L177.908 48.1338ZM174.018 46.8716L175.583 46.5956L178.228 53.8635C178.357 54.2168 178.528 54.4625 178.742 54.6005C178.954 54.734 179.231 54.7706 179.573 54.7104C179.654 54.696 179.739 54.6761 179.827 54.6509C179.92 54.6247 180.011 54.594 180.101 54.5587L180.847 55.7454C180.707 55.8239 180.548 55.8934 180.371 55.954C180.193 56.0146 180.011 56.0614 179.823 56.0945C179.126 56.2174 178.5 56.1299 177.947 55.8321C177.392 55.5296 177 55.0663 176.773 54.4423L174.018 46.8716ZM185.62 48.7808L184.284 49.2654C184.099 49.0245 183.843 48.8183 183.514 48.6468C183.19 48.4744 182.783 48.4314 182.293 48.5179C181.85 48.5959 181.515 48.7575 181.287 49.0028C181.062 49.2427 181.003 49.5094 181.11 49.8031C181.204 50.06 181.378 50.2514 181.634 50.3772C181.894 50.5022 182.261 50.5743 182.733 50.5935L184.125 50.6411C184.919 50.672 185.561 50.8273 186.052 51.107C186.543 51.3867 186.886 51.7949 187.081 52.3318C187.25 52.7952 187.261 53.2327 187.114 53.6444C186.965 54.0514 186.681 54.4019 186.261 54.6957C185.839 54.9849 185.303 55.1868 184.654 55.3012C183.75 55.4606 182.947 55.4045 182.244 55.1329C181.541 54.8613 181.002 54.3997 180.627 53.7481L182.054 53.2621C182.288 53.6214 182.586 53.8715 182.949 54.0125C183.318 54.1526 183.737 54.1811 184.209 54.0981C184.718 54.0082 185.089 53.8329 185.322 53.5721C185.559 53.3105 185.625 53.0329 185.518 52.7393C185.341 52.2529 184.842 51.9918 184.02 51.956L182.552 51.9073C181.736 51.8753 181.084 51.7144 180.595 51.4247C180.109 51.1295 179.767 50.7112 179.57 50.1698C179.405 49.7156 179.392 49.2931 179.531 48.9023C179.675 48.5107 179.946 48.1797 180.344 47.9093C180.745 47.6335 181.246 47.4426 181.847 47.3367C182.723 47.1823 183.474 47.2428 184.101 47.5179C184.733 47.7922 185.239 48.2132 185.62 48.7808Z" fill="white" fill-opacity="0.95"/>
<g filter="url(#filter2_d_4955_19702)">
<rect width="77" height="36" rx="18" transform="matrix(0.984808 -0.173648 0.34202 0.939693 192.343 30.777)" fill="white" fill-opacity="0.1" shape-rendering="crispEdges"/>
<rect x="0.663414" y="0.383022" width="76" height="35" rx="17.5" transform="matrix(0.984808 -0.173648 0.34202 0.939693 192.222 30.9153)" stroke="white" stroke-opacity="0.1" shape-rendering="crispEdges"/>
<g filter="url(#filter3_d_4955_19702)">
<path d="M232.345 39.3757L233.055 47.4911C233.076 47.7261 233.01 47.9489 232.87 48.1246C232.729 48.3003 232.522 48.4191 232.279 48.4623L220.535 50.5331C220.292 50.5755 220.028 50.54 219.784 50.432C219.541 50.324 219.331 50.1497 219.188 49.9362L214.261 42.5643C214.142 42.387 214.074 42.19 214.066 41.9952C214.057 41.8004 214.107 41.6154 214.21 41.4603C214.314 41.3053 214.468 41.1865 214.654 41.1168C214.84 41.0471 215.051 41.0294 215.265 41.0655L219.225 41.7328C219.265 41.7397 219.305 41.7348 219.338 41.7189C219.371 41.7029 219.396 41.6767 219.409 41.6442L221.087 37.4107C221.144 37.2666 221.237 37.1414 221.362 37.0447C221.486 36.948 221.638 36.8824 221.805 36.853C221.972 36.8235 222.15 36.831 222.325 36.8748C222.501 36.9186 222.669 36.9976 222.817 37.1057L227.189 40.2723C227.223 40.2966 227.263 40.3114 227.303 40.3144C227.343 40.3175 227.381 40.3087 227.411 40.2894L230.437 38.3902C230.601 38.2907 230.799 38.2387 231.009 38.2397C231.22 38.2408 231.434 38.2948 231.631 38.3962C231.827 38.4975 231.997 38.6422 232.123 38.8147C232.248 38.9873 232.325 39.1812 232.345 39.3757Z" fill="white"/>
</g>
<path d="M246.079 44.4484C245.252 44.5942 244.468 44.5128 243.726 44.2041C242.989 43.8946 242.322 43.3774 241.726 42.6525C241.133 41.9222 240.633 40.9995 240.227 39.8846C239.823 38.7742 239.635 37.7991 239.662 36.9594C239.687 36.1151 239.918 35.4348 240.354 34.9184C240.793 34.3965 241.424 34.0631 242.247 33.9181C243.074 33.7723 243.857 33.8564 244.595 34.1705C245.337 34.4792 246.005 35.001 246.6 35.7359C247.198 36.4654 247.7 37.3853 248.104 38.4957C248.51 39.6107 248.701 40.5876 248.679 41.4265C248.655 42.2608 248.425 42.9361 247.989 43.4525C247.553 43.9689 246.916 44.3008 246.079 44.4484ZM245.598 43.1269C246.103 43.0379 246.473 42.8092 246.707 42.4407C246.942 42.0722 247.043 41.5782 247.012 40.9587C246.979 40.3346 246.812 39.6073 246.51 38.7768C246.206 37.9417 245.856 37.2466 245.459 36.6915C245.061 36.1319 244.633 35.7288 244.175 35.4825C243.715 35.2315 243.233 35.1505 242.728 35.2396C241.982 35.371 241.531 35.8192 241.375 36.5841C241.221 37.3435 241.373 38.3496 241.829 39.6022C242.131 40.4327 242.481 41.1278 242.879 41.6875C243.276 42.2425 243.703 42.6433 244.161 42.8896C244.624 43.1352 245.103 43.2143 245.598 43.1269ZM251.426 31.9333L252.433 44.8222L251.034 45.069L250.027 32.1801L251.426 31.9333ZM259.697 42.0471C258.947 42.1794 258.239 42.1725 257.571 42.0265C256.909 41.8796 256.336 41.6194 255.852 41.2457C255.371 40.8667 255.03 40.3995 254.827 39.8443C254.672 39.4176 254.621 39.0042 254.675 38.6041C254.734 38.2031 254.883 37.8522 255.121 37.5513C255.36 37.2505 255.671 37.0296 256.054 36.8887L256.032 36.8268C255.453 36.797 254.923 36.5999 254.443 36.2354C253.965 35.8655 253.627 35.4076 253.428 34.8615C253.236 34.3339 253.212 33.8377 253.355 33.373C253.503 32.9075 253.791 32.5124 254.221 32.1877C254.653 31.8575 255.201 31.6339 255.865 31.5169C256.519 31.4016 257.146 31.4179 257.748 31.5657C258.352 31.7082 258.876 31.96 259.32 32.3212C259.768 32.6816 260.089 33.1256 260.281 33.6533C260.479 34.1993 260.493 34.7145 260.321 35.1989C260.153 35.6778 259.829 36.0254 259.35 36.2417L259.372 36.3037C259.801 36.3013 260.224 36.3928 260.639 36.5784C261.055 36.7639 261.425 37.0232 261.751 37.3564C262.077 37.6895 262.318 38.0695 262.473 38.4962C262.675 39.0514 262.692 39.5757 262.524 40.0693C262.354 40.5583 262.025 40.9775 261.538 41.327C261.056 41.6757 260.443 41.9157 259.697 42.0471ZM259.236 40.7808C259.679 40.7028 260.039 40.5661 260.315 40.3708C260.591 40.1709 260.77 39.9268 260.855 39.6385C260.939 39.3502 260.92 39.0362 260.796 38.6967C260.666 38.3388 260.455 38.0415 260.164 37.8047C259.877 37.5624 259.541 37.3921 259.157 37.2938C258.772 37.1909 258.37 37.1763 257.951 37.25C257.528 37.3247 257.179 37.4692 256.904 37.6837C256.634 37.8974 256.455 38.1584 256.368 38.4668C256.28 38.7751 256.302 39.1083 256.432 39.4662C256.556 39.8057 256.753 40.0882 257.025 40.3138C257.296 40.5394 257.621 40.6945 258 40.7791C258.377 40.8591 258.789 40.8596 259.236 40.7808ZM257.503 36.0181C257.859 35.9553 258.149 35.831 258.373 35.645C258.602 35.4582 258.751 35.2292 258.821 34.958C258.896 34.686 258.874 34.3871 258.756 34.0613C258.639 33.7401 258.458 33.4742 258.212 33.2636C257.971 33.0522 257.687 32.9045 257.36 32.8206C257.038 32.7359 256.694 32.7257 256.328 32.7902C255.958 32.8555 255.657 32.9792 255.427 33.1615C255.197 33.3437 255.048 33.5677 254.981 33.8334C254.914 34.0991 254.939 34.3926 255.056 34.7138C255.174 35.0395 255.357 35.31 255.604 35.5252C255.851 35.7404 256.137 35.8927 256.461 35.982C256.79 36.0705 257.138 36.0825 257.503 36.0181Z" fill="white"/>
</g>
</g>
<defs>
<filter id="filter1_d_4955_19702" x="65.8984" y="-31.5006" width="265.202" height="158.384" filterUnits="userSpaceOnUse" color-interpolation-filters="sRGB">
<feFlood flood-opacity="0" result="BackgroundImageFix"/>
<feColorMatrix in="SourceAlpha" type="matrix" values="0 0 0 0 0 0 0 0 0 0 0 0 0 0 0 0 0 0 127 0" result="hardAlpha"/>
<feOffset dx="2" dy="5"/>
<feGaussianBlur stdDeviation="3.75"/>
<feComposite in2="hardAlpha" operator="out"/>
<feColorMatrix type="matrix" values="0 0 0 0 0 0 0 0 0 0 0 0 0 0 0 0 0 0 0.12 0"/>
<feBlend mode="normal" in2="BackgroundImageFix" result="effect1_dropShadow_4955_19702"/>
<feBlend mode="normal" in="SourceGraphic" in2="effect1_dropShadow_4955_19702" result="shape"/>
</filter>
<filter id="filter2_d_4955_19702" x="186.843" y="14.9061" width="103.143" height="62.1998" filterUnits="userSpaceOnUse" color-interpolation-filters="sRGB">
<feFlood flood-opacity="0" result="BackgroundImageFix"/>
<feColorMatrix in="SourceAlpha" type="matrix" values="0 0 0 0 0 0 0 0 0 0 0 0 0 0 0 0 0 0 127 0" result="hardAlpha"/>
<feOffset dx="2" dy="5"/>
<feGaussianBlur stdDeviation="3.75"/>
<feComposite in2="hardAlpha" operator="out"/>
<feColorMatrix type="matrix" values="0 0 0 0 0 0 0 0 0 0 0 0 0 0 0 0 0 0 0.26 0"/>
<feBlend mode="normal" in2="BackgroundImageFix" result="effect1_dropShadow_4955_19702"/>
<feBlend mode="normal" in="SourceGraphic" in2="effect1_dropShadow_4955_19702" result="shape"/>
</filter>
<filter id="filter3_d_4955_19702" x="211.064" y="34.8353" width="24.9944" height="19.7152" filterUnits="userSpaceOnUse" color-interpolation-filters="sRGB">
<feFlood flood-opacity="0" result="BackgroundImageFix"/>
<feColorMatrix in="SourceAlpha" type="matrix" values="0 0 0 0 0 0 0 0 0 0 0 0 0 0 0 0 0 0 127 0" result="hardAlpha"/>
<feOffset dy="1"/>
<feGaussianBlur stdDeviation="1.5"/>
<feComposite in2="hardAlpha" operator="out"/>
<feColorMatrix type="matrix" values="0 0 0 0 0 0 0 0 0 0 0 0 0 0 0 0 0 0 0.25 0"/>
<feBlend mode="normal" in2="BackgroundImageFix" result="effect1_dropShadow_4955_19702"/>
<feBlend mode="normal" in="SourceGraphic" in2="effect1_dropShadow_4955_19702" result="shape"/>
</filter>
<linearGradient id="paint0_linear_4955_19702" x1="0.658573" y1="0.499997" x2="209.496" y2="277.08" gradientUnits="userSpaceOnUse">
<stop stop-color="#1C1C1C"/>
<stop offset="1"/>
</linearGradient>
<linearGradient id="paint1_linear_4955_19702" x1="0.0323015" y1="52.136" x2="170.956" y2="30.7991" gradientUnits="userSpaceOnUse">
<stop stop-color="white" stop-opacity="0"/>
<stop offset="0.304081" stop-color="white"/>
<stop offset="0.608698" stop-color="white" stop-opacity="0"/>
<stop offset="1" stop-color="white"/>
</linearGradient>
</defs>
</svg>
