<svg width="187" height="170" viewBox="0 0 187 170" fill="none" xmlns="http://www.w3.org/2000/svg">
<g clip-path="url(#clip0_5098_18985)">
<rect width="187" height="169.5" rx="16" fill="url(#paint0_linear_5098_18985)" fill-opacity="0.7"/>
<rect width="120.361" height="40.0835" rx="20.0418" transform="matrix(0.984808 -0.173648 0.34202 0.939693 0 43.4006)" fill="url(#paint1_linear_5098_18985)" fill-opacity="0.04"/>
<rect x="0.663414" y="0.383022" width="119.361" height="39.0835" rx="19.5418" transform="matrix(0.984808 -0.173648 0.34202 0.939693 -0.120923 43.5389)" stroke="url(#paint2_linear_5098_18985)" stroke-opacity="0.1"/>
<g filter="url(#filter1_f_5098_18985)">
<path fill-rule="evenodd" clip-rule="evenodd" d="M140.716 116.874C140.036 117.217 139.265 117.48 138.404 117.664C137.543 117.847 136.602 117.95 135.582 117.973C134.562 118.018 133.485 118.007 132.352 117.938C131.196 117.847 129.995 117.721 128.748 117.561C127.479 117.377 126.175 117.16 124.838 116.908C123.478 116.634 122.084 116.347 120.656 116.05C119.228 115.729 117.777 115.386 116.304 115.02C114.808 114.654 113.301 114.287 111.782 113.921C110.263 113.532 108.733 113.154 107.192 112.788C105.651 112.399 104.121 112.033 102.602 111.689C101.061 111.323 99.5307 110.98 98.012 110.659C96.4933 110.339 94.9973 110.041 93.524 109.767C92.0507 109.515 90.6 109.286 89.172 109.08C87.744 108.874 86.3387 108.691 84.956 108.531C83.596 108.371 82.2473 108.233 80.91 108.119C79.5953 108.004 78.3033 107.901 77.034 107.81C75.7873 107.718 74.5633 107.627 73.362 107.535C72.1607 107.444 70.982 107.352 69.826 107.26C68.6927 107.192 67.582 107.1 66.494 106.986C65.4287 106.871 64.386 106.745 63.366 106.608C62.346 106.494 61.3713 106.345 60.442 106.162C59.49 105.979 58.5833 105.773 57.722 105.544C56.8607 105.315 56.022 105.052 55.206 104.754C54.4127 104.456 53.6533 104.113 52.928 103.724C52.2253 103.335 51.5453 102.911 50.888 102.454C50.2533 101.973 49.6527 101.458 49.086 100.909C48.5193 100.359 47.998 99.7642 47.522 99.1233C47.0233 98.5053 46.57 97.853 46.162 97.1663C45.754 96.4796 45.3913 95.7701 45.074 95.0376C44.734 94.2823 44.4393 93.5155 44.19 92.7373C43.9407 91.959 43.7253 91.1693 43.544 90.3682C43.3853 89.5671 43.2607 88.7545 43.17 87.9305C43.0793 87.0836 43.0227 86.2482 43 85.4242C43 84.6002 43.0227 83.7647 43.068 82.9178C43.136 82.0938 43.2493 81.2812 43.408 80.4801C43.544 79.6561 43.7253 78.855 43.952 78.0768C44.1787 77.2756 44.4393 76.4974 44.734 75.7421C45.0513 75.0096 45.3913 74.2772 45.754 73.5447C46.1393 72.8351 46.5587 72.137 47.012 71.4504C47.4427 70.7637 47.9187 70.0884 48.44 69.4247C48.9387 68.7609 49.4713 68.0971 50.038 67.4333C50.582 66.7695 51.16 66.1172 51.772 65.4763C52.3613 64.8125 52.9733 64.1487 53.608 63.4849C54.2427 62.8211 54.9 62.1459 55.58 61.4592C56.2373 60.7726 56.9173 60.0744 57.62 59.3649C58.3 58.6553 58.9913 57.9343 59.694 57.2019C60.3967 56.4465 61.0993 55.6797 61.802 54.9015C62.5047 54.1004 63.2073 53.2764 63.91 52.4295C64.6127 51.5826 65.304 50.7128 65.984 49.8201C66.6867 48.9045 67.3667 47.9661 68.024 47.0047C68.704 46.0205 69.3727 45.0134 70.03 43.9834C70.6873 42.9763 71.3447 41.9348 72.002 40.859C72.6593 39.8061 73.3167 38.7418 73.974 37.666C74.6313 36.6131 75.2887 35.5487 75.946 34.4729C76.6033 33.42 77.2607 32.3671 77.918 31.3142C78.5753 30.2842 79.2553 29.2771 79.958 28.2929C80.638 27.3086 81.3293 26.3473 82.032 25.4088C82.7347 24.4933 83.4487 23.6235 84.174 22.7995C84.922 21.9526 85.67 21.1629 86.418 20.4304C87.1887 19.7209 87.982 19.0571 88.798 18.4391C89.5913 17.844 90.4073 17.3175 91.246 16.8597C92.1073 16.402 92.9913 16.0357 93.898 15.7611C94.782 15.4635 95.7 15.2575 96.652 15.1431C97.604 15.0286 98.5673 14.9828 99.542 15.0057C100.517 15.0515 101.514 15.1659 102.534 15.3491C103.531 15.5322 104.54 15.784 105.56 16.1044C106.557 16.4248 107.566 16.8025 108.586 17.2374C109.606 17.6723 110.615 18.1644 111.612 18.7138C112.609 19.2402 113.584 19.8239 114.536 20.4648C115.511 21.1057 116.463 21.7924 117.392 22.5248C118.321 23.2344 119.228 23.9897 120.112 24.7908C120.996 25.592 121.846 26.416 122.662 27.2629C123.478 28.1098 124.249 28.9795 124.974 29.8722C125.722 30.7649 126.413 31.6805 127.048 32.6189C127.705 33.5345 128.306 34.4729 128.85 35.4343C129.417 36.3956 129.927 37.357 130.38 38.3183C130.856 39.3025 131.287 40.2868 131.672 41.271C132.057 42.2781 132.409 43.2853 132.726 44.2924C133.043 45.3224 133.338 46.3524 133.61 47.3824C133.882 48.4353 134.131 49.4997 134.358 50.5755C134.585 51.6512 134.789 52.7385 134.97 53.8372C135.174 54.9358 135.367 56.0574 135.548 57.2019C135.729 58.3234 135.911 59.4679 136.092 60.6352C136.251 61.8026 136.421 62.9814 136.602 64.1716C136.783 65.3847 136.976 66.6093 137.18 67.8453C137.384 69.0584 137.599 70.3059 137.826 71.5877C138.075 72.8466 138.336 74.1284 138.608 75.4331C138.88 76.7377 139.175 78.0653 139.492 79.4158C139.787 80.7433 140.104 82.0824 140.444 83.4328C140.784 84.7604 141.124 86.0994 141.464 87.4499C141.781 88.8003 142.099 90.1279 142.416 91.4326C142.733 92.7601 143.039 94.0648 143.334 95.3466C143.606 96.6055 143.855 97.853 144.082 99.089C144.309 100.302 144.501 101.481 144.66 102.625C144.796 103.77 144.898 104.868 144.966 105.921C145.011 106.974 145.011 107.981 144.966 108.943C144.898 109.881 144.773 110.762 144.592 111.586C144.411 112.388 144.15 113.131 143.81 113.818C143.47 114.482 143.039 115.077 142.518 115.604C142.019 116.107 141.419 116.531 140.716 116.874Z" fill="#E92362" fill-opacity="0.21"/>
</g>
<path d="M32.3369 137V135.587H40.7891V137H37.3906V146.5H35.75V137H32.3369ZM41.8877 146.5V138.312H43.4697V146.5H41.8877ZM42.686 137.052C42.4077 137.052 42.1709 136.959 41.9756 136.773C41.7803 136.588 41.6826 136.366 41.6826 136.107C41.6826 135.843 41.7803 135.619 41.9756 135.433C42.1709 135.248 42.4077 135.155 42.686 135.155C42.9595 135.155 43.1938 135.248 43.3892 135.433C43.5894 135.619 43.6895 135.843 43.6895 136.107C43.6895 136.366 43.5894 136.588 43.3892 136.773C43.1938 136.959 42.9595 137.052 42.686 137.052ZM48.5161 146.668C47.7153 146.668 47.022 146.495 46.436 146.148C45.8501 145.802 45.3984 145.313 45.0811 144.684C44.7686 144.049 44.6123 143.309 44.6123 142.464C44.6123 141.625 44.7661 140.885 45.0737 140.245C45.3862 139.605 45.8232 139.107 46.3848 138.751C46.9512 138.39 47.6152 138.209 48.377 138.209C48.8408 138.209 49.29 138.285 49.7246 138.436C50.1592 138.587 50.5498 138.827 50.8965 139.154C51.2432 139.481 51.5166 139.906 51.7168 140.428C51.9219 140.951 52.0244 141.581 52.0244 142.318V142.889H45.5132V141.695H51.2041L50.4644 142.091C50.4644 141.588 50.3862 141.144 50.23 140.758C50.0737 140.372 49.8394 140.072 49.5269 139.857C49.2192 139.637 48.8359 139.527 48.377 139.527C47.918 139.527 47.5249 139.637 47.1978 139.857C46.8755 140.077 46.6289 140.367 46.458 140.729C46.2871 141.09 46.2017 141.485 46.2017 141.915V142.728C46.2017 143.29 46.2993 143.766 46.4946 144.156C46.6899 144.547 46.9609 144.845 47.3076 145.05C47.6592 145.255 48.0669 145.357 48.5308 145.357C48.8335 145.357 49.1069 145.313 49.3511 145.226C49.6001 145.138 49.8149 145.006 49.9956 144.83C50.1763 144.654 50.313 144.437 50.4058 144.178L51.9146 144.464C51.7925 144.903 51.5776 145.289 51.27 145.621C50.9624 145.953 50.5742 146.212 50.1055 146.397C49.6416 146.578 49.1118 146.668 48.5161 146.668ZM53.1377 146.5V138.312H54.6685V139.623H54.7563C54.9077 139.183 55.1714 138.836 55.5474 138.583C55.9282 138.324 56.3579 138.194 56.8364 138.194C56.9341 138.194 57.0488 138.199 57.1807 138.209C57.3174 138.214 57.4272 138.221 57.5103 138.231V139.754C57.4468 139.735 57.332 139.715 57.166 139.696C57.0049 139.676 56.8413 139.667 56.6753 139.667C56.2993 139.667 55.9624 139.747 55.6646 139.908C55.3716 140.064 55.1396 140.282 54.9688 140.56C54.8027 140.833 54.7197 141.151 54.7197 141.512V146.5H53.1377ZM63.9922 146.676C63.4746 146.676 63.0059 146.581 62.5859 146.39C62.166 146.195 61.834 145.912 61.5898 145.541C61.3457 145.169 61.2236 144.718 61.2236 144.186C61.2236 143.722 61.3115 143.343 61.4873 143.05C61.668 142.752 61.9097 142.516 62.2124 142.34C62.5151 142.164 62.8521 142.032 63.2231 141.944C63.5942 141.856 63.9751 141.788 64.3657 141.739C64.8589 141.686 65.2568 141.639 65.5596 141.6C65.8623 141.561 66.082 141.5 66.2188 141.417C66.3604 141.329 66.4312 141.19 66.4312 141V140.963C66.4312 140.499 66.2993 140.14 66.0356 139.886C65.7769 139.632 65.3911 139.505 64.8784 139.505C64.3462 139.505 63.9238 139.623 63.6113 139.857C63.3037 140.086 63.0913 140.348 62.9741 140.641L61.4727 140.296C61.6533 139.798 61.9146 139.398 62.2563 139.095C62.603 138.788 62.9985 138.563 63.4429 138.421C63.8921 138.28 64.3608 138.209 64.8491 138.209C65.1763 138.209 65.5229 138.248 65.8892 138.326C66.2554 138.399 66.5996 138.539 66.9219 138.744C67.249 138.944 67.5151 139.232 67.7202 139.608C67.9253 139.984 68.0278 140.47 68.0278 141.065V146.5H66.4678V145.379H66.4092C66.3115 145.58 66.1577 145.78 65.9478 145.98C65.7427 146.18 65.479 146.346 65.1567 146.478C64.8345 146.61 64.4463 146.676 63.9922 146.676ZM64.3364 145.401C64.7808 145.401 65.1592 145.316 65.4717 145.145C65.7842 144.969 66.0234 144.74 66.1895 144.457C66.3555 144.173 66.4385 143.873 66.4385 143.556V142.494C66.3799 142.547 66.27 142.599 66.1089 142.647C65.9478 142.696 65.7646 142.738 65.5596 142.772C65.3545 142.806 65.1543 142.838 64.959 142.867C64.7637 142.892 64.6001 142.911 64.4683 142.926C64.1606 142.97 63.8799 143.038 63.626 143.131C63.3721 143.219 63.167 143.351 63.0107 143.526C62.8594 143.697 62.7837 143.924 62.7837 144.208C62.7837 144.603 62.9302 144.901 63.2231 145.101C63.5161 145.301 63.8872 145.401 64.3364 145.401ZM71.1406 141.644V146.5H69.5586V138.312H71.0967V139.659H71.2065C71.3921 139.215 71.6826 138.863 72.0781 138.604C72.4736 138.341 72.9814 138.209 73.6016 138.209C74.1582 138.209 74.644 138.326 75.0591 138.561C75.479 138.79 75.8037 139.134 76.0332 139.593C76.2676 140.052 76.3848 140.621 76.3848 141.3V146.5H74.8027V141.49C74.8027 140.899 74.6465 140.436 74.334 140.099C74.0215 139.757 73.5967 139.586 73.0596 139.586C72.6934 139.586 72.3638 139.669 72.0708 139.835C71.7827 139.996 71.5557 140.228 71.3896 140.531C71.2236 140.833 71.1406 141.205 71.1406 141.644ZM80.9551 146.661C80.291 146.661 79.7002 146.493 79.1826 146.156C78.665 145.814 78.2598 145.328 77.9668 144.698C77.6738 144.063 77.5273 143.307 77.5273 142.428C77.5273 141.539 77.6763 140.78 77.9741 140.15C78.272 139.52 78.6797 139.039 79.1973 138.707C79.7148 138.375 80.3008 138.209 80.9551 138.209C81.4678 138.209 81.8779 138.294 82.1855 138.465C82.498 138.631 82.7397 138.827 82.9106 139.051C83.0864 139.276 83.2207 139.474 83.3135 139.645H83.4087V135.587H84.9907V146.5H83.4453V145.226H83.3135C83.2207 145.396 83.084 145.594 82.9033 145.819C82.7227 146.043 82.4761 146.241 82.1636 146.412C81.856 146.578 81.4531 146.661 80.9551 146.661ZM81.2993 145.306C81.7583 145.306 82.1465 145.184 82.4639 144.94C82.7812 144.696 83.0205 144.356 83.1816 143.922C83.3477 143.487 83.4307 142.984 83.4307 142.413C83.4307 141.842 83.3501 141.344 83.189 140.919C83.0278 140.489 82.7886 140.157 82.4712 139.923C82.1538 139.684 81.7632 139.564 81.2993 139.564C80.8208 139.564 80.4229 139.688 80.1055 139.938C79.7881 140.187 79.5488 140.526 79.3877 140.956C79.2266 141.385 79.146 141.871 79.146 142.413C79.146 142.96 79.2266 143.453 79.3877 143.893C79.5488 144.327 79.7881 144.671 80.1055 144.925C80.4277 145.179 80.8257 145.306 81.2993 145.306ZM94.5342 146.646C93.5967 146.646 92.7568 146.422 92.0146 145.973C91.2725 145.523 90.689 144.881 90.2642 144.046C89.8394 143.207 89.627 142.208 89.627 141.051C89.627 139.884 89.8394 138.883 90.2642 138.048C90.6938 137.208 91.2773 136.563 92.0146 136.114C92.7568 135.665 93.5967 135.44 94.5342 135.44C95.1104 135.44 95.6499 135.523 96.1528 135.689C96.6606 135.855 97.1147 136.097 97.5151 136.415C97.9155 136.732 98.2451 137.12 98.5039 137.579C98.7676 138.038 98.9434 138.558 99.0312 139.139H97.376C97.3125 138.783 97.1929 138.47 97.0171 138.202C96.8462 137.928 96.6338 137.699 96.3799 137.513C96.1309 137.323 95.8501 137.181 95.5376 137.088C95.23 136.991 94.9028 136.942 94.5562 136.942C93.9312 136.942 93.3672 137.101 92.8643 137.418C92.3662 137.73 91.9731 138.194 91.6851 138.81C91.4019 139.42 91.2603 140.167 91.2603 141.051C91.2603 141.939 91.4043 142.689 91.6924 143.299C91.9805 143.905 92.3735 144.364 92.8716 144.676C93.3696 144.989 93.9287 145.145 94.5488 145.145C94.8955 145.145 95.2227 145.099 95.5303 145.006C95.8379 144.913 96.1187 144.774 96.3726 144.588C96.6265 144.403 96.8389 144.178 97.0098 143.915C97.1855 143.646 97.3076 143.336 97.376 142.984H99.0312C98.9482 143.526 98.7798 144.022 98.5259 144.471C98.272 144.916 97.9473 145.301 97.5518 145.628C97.1562 145.951 96.7046 146.202 96.1968 146.383C95.689 146.559 95.1348 146.646 94.5342 146.646ZM101.844 135.587V146.5H100.262V135.587H101.844ZM105.74 146.676C105.223 146.676 104.754 146.581 104.334 146.39C103.914 146.195 103.582 145.912 103.338 145.541C103.094 145.169 102.972 144.718 102.972 144.186C102.972 143.722 103.06 143.343 103.235 143.05C103.416 142.752 103.658 142.516 103.96 142.34C104.263 142.164 104.6 142.032 104.971 141.944C105.342 141.856 105.723 141.788 106.114 141.739C106.607 141.686 107.005 141.639 107.308 141.6C107.61 141.561 107.83 141.5 107.967 141.417C108.108 141.329 108.179 141.19 108.179 141V140.963C108.179 140.499 108.047 140.14 107.784 139.886C107.525 139.632 107.139 139.505 106.626 139.505C106.094 139.505 105.672 139.623 105.359 139.857C105.052 140.086 104.839 140.348 104.722 140.641L103.221 140.296C103.401 139.798 103.663 139.398 104.004 139.095C104.351 138.788 104.747 138.563 105.191 138.421C105.64 138.28 106.109 138.209 106.597 138.209C106.924 138.209 107.271 138.248 107.637 138.326C108.003 138.399 108.348 138.539 108.67 138.744C108.997 138.944 109.263 139.232 109.468 139.608C109.673 139.984 109.776 140.47 109.776 141.065V146.5H108.216V145.379H108.157C108.06 145.58 107.906 145.78 107.696 145.98C107.491 146.18 107.227 146.346 106.905 146.478C106.583 146.61 106.194 146.676 105.74 146.676ZM106.084 145.401C106.529 145.401 106.907 145.316 107.22 145.145C107.532 144.969 107.771 144.74 107.938 144.457C108.104 144.173 108.187 143.873 108.187 143.556V142.494C108.128 142.547 108.018 142.599 107.857 142.647C107.696 142.696 107.513 142.738 107.308 142.772C107.103 142.806 106.902 142.838 106.707 142.867C106.512 142.892 106.348 142.911 106.216 142.926C105.909 142.97 105.628 143.038 105.374 143.131C105.12 143.219 104.915 143.351 104.759 143.526C104.607 143.697 104.532 143.924 104.532 144.208C104.532 144.603 104.678 144.901 104.971 145.101C105.264 145.301 105.635 145.401 106.084 145.401ZM112.889 141.644V146.5H111.307V138.312H112.845V139.659H112.955C113.14 139.215 113.431 138.863 113.826 138.604C114.222 138.341 114.729 138.209 115.35 138.209C115.906 138.209 116.392 138.326 116.807 138.561C117.227 138.79 117.552 139.134 117.781 139.593C118.016 140.052 118.133 140.621 118.133 141.3V146.5H116.551V141.49C116.551 140.899 116.395 140.436 116.082 140.099C115.77 139.757 115.345 139.586 114.808 139.586C114.441 139.586 114.112 139.669 113.819 139.835C113.531 139.996 113.304 140.228 113.138 140.531C112.972 140.833 112.889 141.205 112.889 141.644ZM122.571 137V135.587H131.023V137H127.625V146.5H125.984V137H122.571ZM133.382 146.676C132.864 146.676 132.396 146.581 131.976 146.39C131.556 146.195 131.224 145.912 130.979 145.541C130.735 145.169 130.613 144.718 130.613 144.186C130.613 143.722 130.701 143.343 130.877 143.05C131.058 142.752 131.299 142.516 131.602 142.34C131.905 142.164 132.242 142.032 132.613 141.944C132.984 141.856 133.365 141.788 133.755 141.739C134.249 141.686 134.646 141.639 134.949 141.6C135.252 141.561 135.472 141.5 135.608 141.417C135.75 141.329 135.821 141.19 135.821 141V140.963C135.821 140.499 135.689 140.14 135.425 139.886C135.167 139.632 134.781 139.505 134.268 139.505C133.736 139.505 133.313 139.623 133.001 139.857C132.693 140.086 132.481 140.348 132.364 140.641L130.862 140.296C131.043 139.798 131.304 139.398 131.646 139.095C131.993 138.788 132.388 138.563 132.833 138.421C133.282 138.28 133.75 138.209 134.239 138.209C134.566 138.209 134.913 138.248 135.279 138.326C135.645 138.399 135.989 138.539 136.312 138.744C136.639 138.944 136.905 139.232 137.11 139.608C137.315 139.984 137.417 140.47 137.417 141.065V146.5H135.857V145.379H135.799C135.701 145.58 135.547 145.78 135.337 145.98C135.132 146.18 134.869 146.346 134.546 146.478C134.224 146.61 133.836 146.676 133.382 146.676ZM133.726 145.401C134.17 145.401 134.549 145.316 134.861 145.145C135.174 144.969 135.413 144.74 135.579 144.457C135.745 144.173 135.828 143.873 135.828 143.556V142.494C135.77 142.547 135.66 142.599 135.499 142.647C135.337 142.696 135.154 142.738 134.949 142.772C134.744 142.806 134.544 142.838 134.349 142.867C134.153 142.892 133.99 142.911 133.858 142.926C133.55 142.97 133.27 143.038 133.016 143.131C132.762 143.219 132.557 143.351 132.4 143.526C132.249 143.697 132.173 143.924 132.173 144.208C132.173 144.603 132.32 144.901 132.613 145.101C132.906 145.301 133.277 145.401 133.726 145.401ZM142.361 149.737C141.385 149.737 140.616 149.554 140.054 149.188C139.493 148.822 139.104 148.387 138.89 147.884L140.252 147.32C140.35 147.477 140.479 147.643 140.64 147.818C140.806 147.994 141.028 148.143 141.307 148.265C141.585 148.387 141.944 148.448 142.383 148.448C142.984 148.448 143.482 148.302 143.877 148.009C144.273 147.721 144.471 147.257 144.471 146.617V145.013H144.361C144.273 145.184 144.139 145.377 143.958 145.592C143.777 145.802 143.531 145.985 143.218 146.141C142.906 146.297 142.498 146.375 141.995 146.375C141.351 146.375 140.77 146.224 140.252 145.921C139.739 145.614 139.329 145.165 139.021 144.574C138.719 143.978 138.567 143.246 138.567 142.376C138.567 141.507 138.716 140.763 139.014 140.143C139.317 139.518 139.727 139.039 140.245 138.707C140.762 138.375 141.351 138.209 142.01 138.209C142.518 138.209 142.928 138.294 143.24 138.465C143.558 138.631 143.804 138.827 143.98 139.051C144.156 139.276 144.292 139.474 144.39 139.645H144.507V138.312H146.053V146.683C146.053 147.386 145.889 147.962 145.562 148.412C145.24 148.861 144.8 149.193 144.244 149.408C143.687 149.627 143.06 149.737 142.361 149.737ZM142.347 145.05C143.035 145.05 143.562 144.813 143.929 144.339C144.3 143.861 144.485 143.199 144.485 142.354C144.485 141.803 144.405 141.319 144.244 140.904C144.083 140.484 143.843 140.157 143.526 139.923C143.208 139.684 142.815 139.564 142.347 139.564C141.868 139.564 141.468 139.688 141.146 139.938C140.828 140.182 140.589 140.516 140.428 140.941C140.267 141.361 140.186 141.832 140.186 142.354C140.186 142.887 140.267 143.358 140.428 143.768C140.589 144.173 140.831 144.488 141.153 144.713C141.48 144.938 141.878 145.05 142.347 145.05ZM153.699 140.318L152.256 140.567C152.164 140.294 151.99 140.042 151.736 139.813C151.487 139.583 151.114 139.469 150.616 139.469C150.167 139.469 149.791 139.571 149.488 139.776C149.19 139.977 149.041 140.233 149.041 140.545C149.041 140.819 149.141 141.041 149.341 141.212C149.546 141.383 149.871 141.52 150.315 141.622L151.626 141.915C152.374 142.086 152.933 142.354 153.304 142.721C153.675 143.087 153.86 143.556 153.86 144.127C153.86 144.62 153.719 145.06 153.436 145.445C153.152 145.826 152.759 146.126 152.256 146.346C151.753 146.561 151.172 146.668 150.513 146.668C149.595 146.668 148.848 146.471 148.272 146.075C147.696 145.68 147.342 145.123 147.21 144.405L148.741 144.171C148.838 144.571 149.036 144.874 149.334 145.079C149.637 145.284 150.027 145.387 150.506 145.387C151.023 145.387 151.438 145.277 151.751 145.057C152.068 144.837 152.227 144.571 152.227 144.259C152.227 143.741 151.841 143.392 151.07 143.211L149.686 142.904C148.919 142.728 148.353 142.452 147.986 142.076C147.625 141.695 147.444 141.217 147.444 140.641C147.444 140.157 147.579 139.732 147.847 139.366C148.121 139 148.494 138.717 148.968 138.517C149.446 138.312 149.991 138.209 150.601 138.209C151.49 138.209 152.186 138.402 152.688 138.788C153.196 139.173 153.533 139.684 153.699 140.318Z" fill="white" fill-opacity="0.95"/>
<g filter="url(#filter2_d_5098_18985)">
<rect width="90" height="36" rx="18" transform="matrix(0.984808 -0.173648 0.34202 0.939693 76 80.1284)" fill="url(#paint3_linear_5098_18985)" shape-rendering="crispEdges"/>
<rect x="0.663414" y="0.383022" width="89" height="35" rx="17.5" transform="matrix(0.984808 -0.173648 0.34202 0.939693 75.8791 80.2667)" stroke="white" stroke-opacity="0.1" shape-rendering="crispEdges"/>
<g filter="url(#filter3_d_5098_18985)">
<path d="M106.138 88.63L101.716 92.8401L94.9474 90.6032C94.866 90.5763 94.7898 90.5304 94.7265 90.4701C94.6633 90.4099 94.6151 90.3373 94.5869 90.2598C94.5586 90.1823 94.5514 90.1025 94.5658 90.0285C94.5802 89.9546 94.6159 89.889 94.6691 89.8384L98.5454 86.1472C98.7113 85.9893 98.9261 85.8837 99.1684 85.841C99.4107 85.7983 99.6719 85.82 99.9257 85.9038L105.859 87.8652C105.941 87.8921 106.017 87.938 106.08 87.9982C106.144 88.0585 106.192 88.1311 106.22 88.2086C106.248 88.2861 106.255 88.3659 106.241 88.4398C106.227 88.5138 106.191 88.5794 106.138 88.63ZM94.1736 92.8136L96.1639 98.2818C96.2546 98.5326 96.4095 98.7675 96.6133 98.9631C96.8171 99.1588 97.0626 99.3084 97.3254 99.3971L103.156 101.325C103.238 101.352 103.321 101.359 103.399 101.345C103.477 101.331 103.545 101.298 103.599 101.247C103.652 101.196 103.687 101.131 103.702 101.057C103.716 100.983 103.709 100.904 103.681 100.826L101.388 94.5257L94.6982 92.3148C94.6169 92.2879 94.5333 92.2809 94.4556 92.2946C94.378 92.3083 94.3092 92.3421 94.256 92.3926C94.2029 92.4432 94.1673 92.5087 94.1528 92.5826C94.1383 92.6565 94.1455 92.7361 94.1736 92.8136ZM110.321 95.7856L108.33 90.3174C108.302 90.24 108.254 90.1675 108.191 90.1073C108.127 90.0471 108.051 90.0013 107.97 89.9745C107.889 89.9477 107.805 89.9408 107.727 89.9545C107.65 89.9682 107.581 90.002 107.528 90.0526L103.157 94.2137L105.451 100.514C105.479 100.591 105.527 100.664 105.59 100.724C105.653 100.784 105.73 100.83 105.811 100.857C105.892 100.884 105.976 100.891 106.054 100.877C106.131 100.863 106.2 100.829 106.253 100.779L110.061 97.1515C110.232 96.9865 110.345 96.7736 110.391 96.534C110.436 96.2943 110.412 96.0363 110.321 95.7856Z" fill="#EEEDEE"/>
</g>
<path d="M116.454 86.4957L115.97 85.1674L124.294 83.6997L124.777 85.028L121.431 85.6181L124.68 94.5448L123.064 94.8297L119.815 85.903L116.454 86.4957ZM129.108 93.7639L126.308 86.0692L127.866 85.7945L130.666 93.4891L129.108 93.7639ZM126.663 84.7468C126.389 84.7951 126.124 84.7491 125.868 84.6086C125.613 84.4682 125.44 84.2764 125.352 84.0332C125.262 83.7854 125.281 83.5574 125.41 83.3491C125.539 83.1408 125.74 83.0125 126.014 82.9642C126.284 82.9167 126.546 82.9632 126.802 83.1037C127.063 83.2432 127.238 83.4369 127.328 83.6847C127.417 83.9279 127.394 84.154 127.26 84.3632C127.132 84.5714 126.932 84.6993 126.663 84.7468ZM135.694 92.7711C134.905 92.9102 134.163 92.8677 133.467 92.6437C132.772 92.4197 132.16 92.0393 131.632 91.5025C131.107 90.9603 130.7 90.2923 130.411 89.4985C130.124 88.7093 130.023 87.9874 130.107 87.3329C130.196 86.6776 130.456 86.1337 130.887 85.7013C131.321 85.2634 131.913 84.9783 132.663 84.846C133.12 84.7655 133.589 84.7586 134.068 84.8253C134.548 84.8921 135.015 85.0491 135.468 85.2963C135.921 85.5436 136.336 85.8953 136.712 86.3514C137.092 86.8068 137.409 87.3809 137.661 88.0737L137.856 88.6106L131.444 89.7412L131.036 88.6194L136.64 87.6312L136.047 88.1313C135.875 87.6587 135.646 87.2547 135.36 86.9193C135.074 86.584 134.741 86.3425 134.36 86.1949C133.981 86.0418 133.566 86.0052 133.114 86.0849C132.662 86.1646 132.313 86.3361 132.066 86.5993C131.824 86.8618 131.68 87.1776 131.635 87.5468C131.591 87.916 131.642 88.3025 131.789 88.7063L132.067 89.4703C132.259 89.9979 132.518 90.4283 132.844 90.7615C133.17 91.0946 133.538 91.3275 133.95 91.46C134.366 91.5916 134.803 91.6172 135.26 91.5366C135.558 91.4841 135.812 91.3953 136.023 91.2703C136.238 91.1445 136.404 90.9833 136.522 90.7867C136.64 90.5902 136.7 90.3622 136.703 90.103L138.287 90.1094C138.317 90.5435 138.237 90.9433 138.048 91.3087C137.858 91.6742 137.564 91.9847 137.166 92.2405C136.771 92.4908 136.28 92.6677 135.694 92.7711ZM140.188 91.8103L137.387 84.1157L138.894 83.8499L139.343 85.0818L139.429 85.0666C139.428 84.6273 139.569 84.2558 139.853 83.9519C140.139 83.6426 140.518 83.4464 140.989 83.3633C141.086 83.3463 141.2 83.331 141.333 83.3173C141.47 83.2981 141.58 83.2859 141.665 83.2807L142.187 84.7122C142.117 84.7049 141.998 84.7065 141.827 84.717C141.662 84.7266 141.498 84.7458 141.334 84.7746C140.964 84.8399 140.66 84.9741 140.421 85.1773C140.186 85.375 140.032 85.6194 139.959 85.9106C139.889 86.1964 139.916 86.5091 140.04 86.8486L141.746 91.5356L140.188 91.8103ZM152.305 89.8202C151.579 89.9482 150.892 89.9448 150.244 89.81C149.595 89.6706 149.03 89.4187 148.549 89.0542C148.068 88.6898 147.717 88.2316 147.496 87.6798L149.126 87.3924C149.26 87.691 149.464 87.9334 149.736 88.1198C150.009 88.3061 150.324 88.4336 150.682 88.5024C151.042 88.5658 151.418 88.5631 151.807 88.4944C152.23 88.4198 152.579 88.2825 152.855 88.0826C153.13 87.8827 153.314 87.6428 153.406 87.3628C153.502 87.0774 153.49 86.7695 153.369 86.4391C153.244 86.095 153.043 85.8083 152.765 85.579C152.485 85.3451 152.143 85.1856 151.739 85.1007C151.334 85.0158 150.884 85.017 150.389 85.1043L149.473 85.2658L149.012 83.9995L149.928 83.8379C150.322 83.7684 150.646 83.6381 150.899 83.447C151.152 83.256 151.318 83.024 151.398 82.7512C151.482 82.4774 151.464 82.1754 151.344 81.8451C151.229 81.5285 151.054 81.2663 150.82 81.0586C150.584 80.8463 150.308 80.6996 149.992 80.6186C149.674 80.533 149.333 80.5225 148.967 80.5869C148.616 80.6488 148.311 80.7661 148.051 80.9388C147.792 81.1115 147.607 81.3273 147.496 81.586C147.389 81.8393 147.388 82.1251 147.494 82.4434L145.929 82.7194C145.741 82.1617 145.732 81.6456 145.902 81.1713C146.076 80.6915 146.389 80.2871 146.843 79.9582C147.299 79.6238 147.857 79.3985 148.515 79.2823C149.203 79.1611 149.844 79.1848 150.437 79.3536C151.034 79.5169 151.547 79.7878 151.977 80.1662C152.404 80.54 152.709 80.9769 152.891 81.477C153.103 82.0598 153.114 82.5804 152.922 83.0389C152.729 83.4929 152.378 83.8406 151.867 84.082L151.894 84.1577C152.644 84.1378 153.293 84.3114 153.842 84.6786C154.395 85.045 154.789 85.5516 155.024 86.1986C155.23 86.763 155.247 87.2969 155.078 87.8005C154.913 88.3032 154.591 88.7335 154.112 89.0914C153.638 89.4484 153.036 89.6913 152.305 89.8202Z" fill="white" fill-opacity="0.95"/>
</g>
<g filter="url(#filter4_d_5098_18985)">
<rect width="127" height="46" rx="23" transform="matrix(0.984808 -0.173648 0.34202 0.939693 0 28.0527)" fill="white" fill-opacity="0.05" shape-rendering="crispEdges"/>
<rect x="0.663414" y="0.383022" width="126" height="45" rx="22.5" transform="matrix(0.984808 -0.173648 0.34202 0.939693 -0.120923 28.191)" stroke="#E4135E" shape-rendering="crispEdges"/>
<g filter="url(#filter5_d_5098_18985)">
<rect width="40" height="32" rx="16" transform="matrix(0.984808 -0.173648 0.34202 0.939693 12.2422 32.894)" fill="url(#paint4_linear_5098_18985)" shape-rendering="crispEdges"/>
<rect x="0.663414" y="0.383022" width="39" height="31" rx="15.5" transform="matrix(0.984808 -0.173648 0.34202 0.939693 12.1213 33.0323)" stroke="white" stroke-opacity="0.1" shape-rendering="crispEdges"/>
<g filter="url(#filter6_d_5098_18985)">
<path d="M39.6874 42.1987L40.6434 44.825L40.2492 45.0986L30.3648 39.0805L33.1644 46.7724L38.1354 49.7743L34.8928 50.346L31.2388 48.1346L26.3185 34.616L26.7117 34.3422L39.6874 42.1987ZM47.4391 53.6874L47.8324 53.4136L42.912 39.8949L39.258 37.6835L36.0347 38.2518L40.9864 41.2572L43.786 48.9491L33.9016 42.9309L33.5075 43.2045L34.4634 45.8308L47.4391 53.6874Z" fill="white"/>
</g>
</g>
<path d="M71.0674 32.6085L74.7999 42.8635L72.8379 43.2094L65.824 37.5834L65.7302 37.5999L68.0774 44.0488L65.8125 44.4482L62.08 34.1932L64.0708 33.8422L71.0559 39.4733L71.1497 39.4568L68.8025 33.0079L71.0674 32.6085ZM81.0747 41.9035C80.1226 42.0714 79.1915 42.0159 78.2815 41.7369C77.3714 41.4579 76.5524 40.9651 75.8244 40.2585C75.0965 39.5519 74.5304 38.6434 74.1263 37.533C73.7188 36.4135 73.5934 35.4224 73.7503 34.5598C73.9054 33.6926 74.2886 32.9878 74.8997 32.4455C75.5091 31.8986 76.2899 31.5412 77.242 31.3733C78.1941 31.2054 79.1252 31.261 80.0353 31.5399C80.9437 31.8143 81.7603 32.3076 82.4851 33.0196C83.2131 33.7262 83.7808 34.6393 84.1883 35.7588C84.5941 36.8738 84.7186 37.8626 84.5618 38.7252C84.4098 39.587 84.0291 40.2913 83.4196 40.8382C82.8085 41.3805 82.0268 41.7357 81.0747 41.9035ZM80.3783 39.9902C80.9313 39.8927 81.3654 39.6794 81.6806 39.3504C81.9959 39.0214 82.1739 38.5896 82.2147 38.0551C82.2587 37.5151 82.1496 36.8849 81.8874 36.1645C81.6235 35.4396 81.2876 34.847 80.8795 34.3867C80.4763 33.9256 80.0236 33.6026 79.5213 33.4177C79.0191 33.2328 78.4914 33.1891 77.9384 33.2866C77.3903 33.3833 76.9586 33.5961 76.6433 33.9251C76.3281 34.2542 76.1461 34.6891 76.0974 35.2299C76.0534 35.7699 76.1633 36.4024 76.4272 37.1273C76.6894 37.8477 77.0245 38.438 77.4325 38.8983C77.8437 39.3531 78.3004 39.673 78.8027 39.8579C79.3049 40.0427 79.8302 40.0869 80.3783 39.9902ZM87.2494 40.6683L83.5169 30.4133L85.7818 30.014L87.3224 34.2467L91.9387 33.4328L90.3981 29.2L92.6629 28.8007L96.3954 39.0556L94.1306 39.455L92.5875 35.2153L87.9712 36.0293L89.5143 40.2689L87.2494 40.6683ZM97.7803 38.8114L94.0478 28.5565L101.29 27.2795L101.941 29.069L96.964 29.9466L97.8408 32.3554L102.443 31.544L103.081 33.299L98.4795 34.1105L99.3939 36.6226L104.385 35.7425L105.037 37.5319L97.7803 38.8114ZM110.383 36.7429C109.518 36.8956 108.717 36.9025 107.981 36.7638C107.249 36.6242 106.612 36.3361 106.07 35.8996C105.532 35.4622 105.119 34.8758 104.831 34.1405L107.023 33.7539C107.176 34.0883 107.386 34.3564 107.654 34.5582C107.92 34.7554 108.228 34.8842 108.578 34.9447C108.927 35.0051 109.301 35.0002 109.7 34.9298C110.085 34.8619 110.4 34.7503 110.645 34.5947C110.896 34.4383 111.063 34.2525 111.149 34.0372C111.237 33.8165 111.236 33.58 111.144 33.3276C111.06 33.0982 110.918 32.9182 110.717 32.7877C110.521 32.6562 110.266 32.5596 109.951 32.4978C109.642 32.4352 109.277 32.3946 108.855 32.3761L107.58 32.3081C106.6 32.2611 105.767 32.0589 105.079 31.7017C104.39 31.3399 103.907 30.7804 103.632 30.0233C103.406 29.4039 103.385 28.8315 103.567 28.3062C103.752 27.7755 104.104 27.3278 104.621 26.9631C105.141 26.5931 105.793 26.3389 106.577 26.2007C107.375 26.06 108.118 26.0682 108.804 26.2255C109.496 26.3819 110.092 26.6625 110.592 27.0674C111.098 27.4715 111.465 27.9755 111.695 28.5795L109.51 28.9649C109.326 28.5725 109.032 28.2922 108.628 28.1242C108.229 27.9554 107.758 27.9188 107.214 28.0146C106.849 28.0791 106.555 28.1847 106.332 28.3314C106.112 28.4727 105.966 28.6424 105.895 28.8405C105.824 29.0386 105.829 29.25 105.911 29.4749C105.998 29.7135 106.148 29.9018 106.362 30.0398C106.575 30.1733 106.828 30.2703 107.121 30.3309C107.417 30.3861 107.732 30.4209 108.065 30.4355L109.107 30.4935C109.61 30.5122 110.089 30.5716 110.546 30.6719C111 30.7675 111.416 30.9115 111.793 31.1038C112.175 31.2953 112.505 31.5422 112.784 31.8446C113.061 32.1424 113.277 32.5046 113.433 32.9313C113.662 33.5599 113.694 34.1352 113.531 34.6571C113.371 35.1736 113.027 35.6127 112.499 35.9745C111.968 36.3316 111.263 36.5878 110.383 36.7429ZM114.071 25.0258L117.803 35.2808L115.539 35.6801L111.806 25.4252L114.071 25.0258Z" fill="url(#paint5_linear_5098_18985)"/>
</g>
</g>
<rect x="0.5" y="0.5" width="186" height="168.5" rx="15.5" stroke="white" stroke-opacity="0.1"/>
<defs>
<filter id="filter1_f_5098_18985" x="-32.5" y="-60.5" width="253" height="254" filterUnits="userSpaceOnUse" color-interpolation-filters="sRGB">
<feFlood flood-opacity="0" result="BackgroundImageFix"/>
<feBlend mode="normal" in="SourceGraphic" in2="BackgroundImageFix" result="shape"/>
<feGaussianBlur stdDeviation="37.75" result="effect1_foregroundBlur_5098_18985"/>
</filter>
<filter id="filter2_d_5098_18985" x="70.5" y="62" width="115.945" height="64.4573" filterUnits="userSpaceOnUse" color-interpolation-filters="sRGB">
<feFlood flood-opacity="0" result="BackgroundImageFix"/>
<feColorMatrix in="SourceAlpha" type="matrix" values="0 0 0 0 0 0 0 0 0 0 0 0 0 0 0 0 0 0 127 0" result="hardAlpha"/>
<feOffset dx="2" dy="5"/>
<feGaussianBlur stdDeviation="3.75"/>
<feComposite in2="hardAlpha" operator="out"/>
<feColorMatrix type="matrix" values="0 0 0 0 0 0 0 0 0 0 0 0 0 0 0 0 0 0 0.26 0"/>
<feBlend mode="normal" in2="BackgroundImageFix" result="effect1_dropShadow_5098_18985"/>
<feBlend mode="normal" in="SourceGraphic" in2="effect1_dropShadow_5098_18985" result="shape"/>
</filter>
<filter id="filter3_d_5098_18985" x="91.1455" y="83.8196" width="22.2678" height="21.5322" filterUnits="userSpaceOnUse" color-interpolation-filters="sRGB">
<feFlood flood-opacity="0" result="BackgroundImageFix"/>
<feColorMatrix in="SourceAlpha" type="matrix" values="0 0 0 0 0 0 0 0 0 0 0 0 0 0 0 0 0 0 127 0" result="hardAlpha"/>
<feOffset dy="1"/>
<feGaussianBlur stdDeviation="1.5"/>
<feComposite in2="hardAlpha" operator="out"/>
<feColorMatrix type="matrix" values="0 0 0 0 0 0 0 0 0 0 0 0 0 0 0 0 0 0 0.25 0"/>
<feBlend mode="normal" in2="BackgroundImageFix" result="effect1_dropShadow_5098_18985"/>
<feBlend mode="normal" in="SourceGraphic" in2="effect1_dropShadow_5098_18985" result="shape"/>
</filter>
<filter id="filter4_d_5098_18985" x="-40" y="-34.0005" width="220.804" height="145.279" filterUnits="userSpaceOnUse" color-interpolation-filters="sRGB">
<feFlood flood-opacity="0" result="BackgroundImageFix"/>
<feColorMatrix in="SourceAlpha" type="matrix" values="0 0 0 0 0 0 0 0 0 0 0 0 0 0 0 0 0 0 127 0" result="hardAlpha"/>
<feOffset dx="2" dy="5"/>
<feGaussianBlur stdDeviation="3.75"/>
<feComposite in2="hardAlpha" operator="out"/>
<feColorMatrix type="matrix" values="0 0 0 0 0 0 0 0 0 0 0 0 0 0 0 0 0 0 0.26 0"/>
<feBlend mode="normal" in2="BackgroundImageFix" result="effect1_dropShadow_5098_18985"/>
<feBlend mode="normal" in="SourceGraphic" in2="effect1_dropShadow_5098_18985" result="shape"/>
</filter>
<filter id="filter5_d_5098_18985" x="6.74225" y="23.448" width="65.337" height="52.0161" filterUnits="userSpaceOnUse" color-interpolation-filters="sRGB">
<feFlood flood-opacity="0" result="BackgroundImageFix"/>
<feColorMatrix in="SourceAlpha" type="matrix" values="0 0 0 0 0 0 0 0 0 0 0 0 0 0 0 0 0 0 127 0" result="hardAlpha"/>
<feOffset dx="2" dy="5"/>
<feGaussianBlur stdDeviation="3.75"/>
<feComposite in2="hardAlpha" operator="out"/>
<feColorMatrix type="matrix" values="0 0 0 0 0 0 0 0 0 0 0 0 0 0 0 0 0 0 0.26 0"/>
<feBlend mode="normal" in2="BackgroundImageFix" result="effect1_dropShadow_5098_18985"/>
<feBlend mode="normal" in="SourceGraphic" in2="effect1_dropShadow_5098_18985" result="shape"/>
</filter>
<filter id="filter6_d_5098_18985" x="20.8185" y="31.842" width="36.5139" height="34.3452" filterUnits="userSpaceOnUse" color-interpolation-filters="sRGB">
<feFlood flood-opacity="0" result="BackgroundImageFix"/>
<feColorMatrix in="SourceAlpha" type="matrix" values="0 0 0 0 0 0 0 0 0 0 0 0 0 0 0 0 0 0 127 0" result="hardAlpha"/>
<feOffset dx="2" dy="5"/>
<feGaussianBlur stdDeviation="3.75"/>
<feComposite in2="hardAlpha" operator="out"/>
<feColorMatrix type="matrix" values="0 0 0 0 0 0 0 0 0 0 0 0 0 0 0 0 0 0 0.26 0"/>
<feBlend mode="normal" in2="BackgroundImageFix" result="effect1_dropShadow_5098_18985"/>
<feBlend mode="normal" in="SourceGraphic" in2="effect1_dropShadow_5098_18985" result="shape"/>
</filter>
<linearGradient id="paint0_linear_5098_18985" x1="0.310209" y1="-4.01341e-06" x2="217.581" y2="107.952" gradientUnits="userSpaceOnUse">
<stop stop-color="#1C1C1C"/>
<stop offset="1"/>
</linearGradient>
<linearGradient id="paint1_linear_5098_18985" x1="0" y1="20.0418" x2="120.361" y2="20.0418" gradientUnits="userSpaceOnUse">
<stop stop-color="white" stop-opacity="0"/>
<stop offset="1" stop-color="white"/>
</linearGradient>
<linearGradient id="paint2_linear_5098_18985" x1="12.2429" y1="17.9035" x2="120.793" y2="24.381" gradientUnits="userSpaceOnUse">
<stop stop-color="white" stop-opacity="0"/>
<stop offset="1" stop-color="white"/>
</linearGradient>
<linearGradient id="paint3_linear_5098_18985" x1="90" y1="0.310342" x2="43.166" y2="66.7421" gradientUnits="userSpaceOnUse">
<stop stop-color="#DD0355"/>
<stop offset="1" stop-color="#FF5485"/>
</linearGradient>
<linearGradient id="paint4_linear_5098_18985" x1="40" y1="0.27586" x2="-1.71336" y2="29.86" gradientUnits="userSpaceOnUse">
<stop stop-color="#DD0355"/>
<stop offset="1" stop-color="#FF5485"/>
</linearGradient>
<linearGradient id="paint5_linear_5098_18985" x1="113.147" y1="19.3088" x2="93.8583" y2="63.1458" gradientUnits="userSpaceOnUse">
<stop stop-color="#DD0355"/>
<stop offset="1" stop-color="#FF5485"/>
</linearGradient>
<clipPath id="clip0_5098_18985">
<rect width="187" height="169.5" rx="16" fill="white"/>
</clipPath>
</defs>
</svg>
