<svg width="195" height="136" viewBox="0 0 195 136" fill="none" xmlns="http://www.w3.org/2000/svg">
<rect x="0.5" y="0.5" width="194.5" height="135" rx="16" fill="url(#paint0_linear_4955_19716)" fill-opacity="0.7"/>
<rect x="1" y="1" width="193.5" height="134" rx="15.5" stroke="white" stroke-opacity="0.1"/>
<path d="M45.5938 22.5869V33.5H44.0117V22.5869H45.5938ZM48.6992 28.644V33.5H47.1172V25.3115H48.6553V26.6592H48.7651C48.9507 26.2148 49.2412 25.8633 49.6367 25.6045C50.0322 25.3408 50.54 25.209 51.1602 25.209C51.7168 25.209 52.2026 25.3262 52.6177 25.5605C53.0376 25.79 53.3623 26.1343 53.5918 26.5933C53.8262 27.0522 53.9434 27.6211 53.9434 28.2998V33.5H52.3613V28.4902C52.3613 27.8994 52.2051 27.4355 51.8926 27.0986C51.5801 26.7568 51.1553 26.5859 50.6182 26.5859C50.252 26.5859 49.9224 26.6689 49.6294 26.835C49.3413 26.9961 49.1143 27.228 48.9482 27.5308C48.7822 27.8335 48.6992 28.2046 48.6992 28.644ZM60.2788 28.2046V29.5815H55.4302V28.2046H60.2788ZM65.1787 36.7373C64.2021 36.7373 63.4331 36.5542 62.8716 36.188C62.3101 35.8218 61.9219 35.3872 61.707 34.8843L63.0693 34.3203C63.167 34.4766 63.2964 34.6426 63.4575 34.8184C63.6235 34.9941 63.8457 35.1431 64.124 35.2651C64.4023 35.3872 64.7612 35.4482 65.2007 35.4482C65.8013 35.4482 66.2993 35.3018 66.6948 35.0088C67.0903 34.7207 67.2881 34.2568 67.2881 33.6172V32.0132H67.1782C67.0903 32.1841 66.9561 32.377 66.7754 32.5918C66.5947 32.8018 66.3481 32.9849 66.0356 33.1411C65.7231 33.2974 65.3154 33.3755 64.8125 33.3755C64.168 33.3755 63.5869 33.2241 63.0693 32.9214C62.5566 32.6138 62.1465 32.1646 61.8389 31.5737C61.5361 30.978 61.3848 30.2456 61.3848 29.3765C61.3848 28.5073 61.5337 27.7627 61.8315 27.1426C62.1343 26.5176 62.5444 26.0391 63.062 25.707C63.5796 25.375 64.168 25.209 64.8271 25.209C65.335 25.209 65.7451 25.2944 66.0576 25.4653C66.375 25.6313 66.6216 25.8267 66.7974 26.0513C66.9731 26.2759 67.1099 26.4736 67.2075 26.6445H67.3247V25.3115H68.8701V33.6831C68.8701 34.3862 68.7065 34.9624 68.3794 35.4116C68.0571 35.8608 67.6177 36.1929 67.061 36.4077C66.5044 36.6274 65.877 36.7373 65.1787 36.7373ZM65.1641 32.0498C65.8525 32.0498 66.3799 31.813 66.7461 31.3394C67.1172 30.8608 67.3027 30.1992 67.3027 29.3545C67.3027 28.8027 67.2222 28.3193 67.061 27.9043C66.8999 27.4844 66.6606 27.1572 66.3433 26.9229C66.0259 26.6836 65.6328 26.564 65.1641 26.564C64.6855 26.564 64.2852 26.6885 63.9629 26.9375C63.6455 27.1816 63.4062 27.5161 63.2451 27.9409C63.084 28.3608 63.0034 28.832 63.0034 29.3545C63.0034 29.8867 63.084 30.3579 63.2451 30.7681C63.4062 31.1733 63.6479 31.4883 63.9702 31.7129C64.2974 31.9375 64.6953 32.0498 65.1641 32.0498ZM72.7666 33.6758C72.249 33.6758 71.7803 33.5806 71.3604 33.3901C70.9404 33.1948 70.6084 32.9116 70.3643 32.5405C70.1201 32.1694 69.998 31.7178 69.998 31.1855C69.998 30.7217 70.0859 30.3433 70.2617 30.0503C70.4424 29.7524 70.6841 29.5156 70.9868 29.3398C71.2896 29.1641 71.6265 29.0322 71.9976 28.9443C72.3687 28.8564 72.7495 28.7881 73.1401 28.7393C73.6333 28.6855 74.0312 28.6392 74.334 28.6001C74.6367 28.561 74.8564 28.5 74.9932 28.417C75.1348 28.3291 75.2056 28.1899 75.2056 27.9995V27.9629C75.2056 27.499 75.0737 27.1401 74.8101 26.8862C74.5513 26.6323 74.1655 26.5054 73.6528 26.5054C73.1206 26.5054 72.6982 26.6226 72.3857 26.8569C72.0781 27.0864 71.8657 27.3477 71.7485 27.6406L70.2471 27.2964C70.4277 26.7983 70.689 26.3979 71.0308 26.0952C71.3774 25.7876 71.7729 25.563 72.2173 25.4214C72.6665 25.2798 73.1353 25.209 73.6235 25.209C73.9507 25.209 74.2974 25.248 74.6636 25.3262C75.0298 25.3994 75.374 25.5386 75.6963 25.7437C76.0234 25.9438 76.2896 26.2319 76.4946 26.6079C76.6997 26.9839 76.8022 27.4697 76.8022 28.0654V33.5H75.2422V32.3794H75.1836C75.0859 32.5796 74.9321 32.7798 74.7222 32.98C74.5171 33.1802 74.2534 33.3462 73.9312 33.478C73.6089 33.6099 73.2207 33.6758 72.7666 33.6758ZM73.1108 32.4014C73.5552 32.4014 73.9336 32.3159 74.2461 32.145C74.5586 31.9692 74.7979 31.7397 74.9639 31.4565C75.1299 31.1733 75.2129 30.873 75.2129 30.5557V29.4937C75.1543 29.5474 75.0444 29.5986 74.8833 29.6475C74.7222 29.6963 74.5391 29.7378 74.334 29.772C74.1289 29.8062 73.9287 29.8379 73.7334 29.8672C73.5381 29.8916 73.3745 29.9111 73.2427 29.9258C72.9351 29.9697 72.6543 30.0381 72.4004 30.1309C72.1465 30.2188 71.9414 30.3506 71.7852 30.5264C71.6338 30.6973 71.5581 30.9243 71.5581 31.2075C71.5581 31.603 71.7046 31.9009 71.9976 32.1011C72.2905 32.3013 72.6616 32.4014 73.1108 32.4014ZM78.333 33.5V25.3115H79.8491V26.6592H79.959C80.1299 26.2051 80.4082 25.8511 80.7939 25.5972C81.1846 25.3384 81.6484 25.209 82.1855 25.209C82.7324 25.209 83.189 25.3384 83.5552 25.5972C83.9263 25.8511 84.2021 26.2051 84.3828 26.6592H84.4707C84.666 26.2148 84.9761 25.8633 85.4009 25.6045C85.8257 25.3408 86.3311 25.209 86.917 25.209C87.6592 25.209 88.2671 25.4434 88.7407 25.9121C89.2144 26.376 89.4512 27.0767 89.4512 28.0142V33.5H87.8545V28.1606C87.8545 27.604 87.7031 27.2036 87.4004 26.9595C87.0977 26.7104 86.7363 26.5859 86.3164 26.5859C85.7988 26.5859 85.396 26.7471 85.1079 27.0693C84.8247 27.3867 84.6831 27.7896 84.6831 28.2778V33.5H83.0864V28.0581C83.0864 27.6138 82.9497 27.2573 82.6763 26.9888C82.4028 26.7202 82.0439 26.5859 81.5996 26.5859C81.2969 26.5859 81.0161 26.6665 80.7573 26.8276C80.5034 26.9839 80.2983 27.2036 80.1421 27.4868C79.9907 27.7651 79.915 28.0874 79.915 28.4536V33.5H78.333ZM94.4976 33.6685C93.6968 33.6685 93.0034 33.4951 92.4175 33.1484C91.8315 32.8018 91.3799 32.3135 91.0625 31.6836C90.75 31.0488 90.5938 30.3091 90.5938 29.4644C90.5938 28.6245 90.7476 27.8848 91.0552 27.2451C91.3677 26.6055 91.8047 26.1074 92.3662 25.751C92.9326 25.3896 93.5967 25.209 94.3584 25.209C94.8223 25.209 95.2715 25.2847 95.7061 25.436C96.1406 25.5874 96.5312 25.8267 96.8779 26.1538C97.2246 26.481 97.498 26.9058 97.6982 27.4282C97.9033 27.9507 98.0059 28.5806 98.0059 29.3179V29.8892H91.4946V28.6953H97.1855L96.4458 29.0908C96.4458 28.5879 96.3677 28.1436 96.2114 27.7578C96.0552 27.3721 95.8208 27.0718 95.5083 26.8569C95.2007 26.6372 94.8174 26.5273 94.3584 26.5273C93.8994 26.5273 93.5063 26.6372 93.1792 26.8569C92.8569 27.0767 92.6104 27.3672 92.4395 27.7285C92.2686 28.0898 92.1831 28.4854 92.1831 28.915V29.728C92.1831 30.2896 92.2808 30.7656 92.4761 31.1562C92.6714 31.5469 92.9424 31.8447 93.2891 32.0498C93.6406 32.2549 94.0483 32.3574 94.5122 32.3574C94.8149 32.3574 95.0884 32.3135 95.3325 32.2256C95.5815 32.1377 95.7964 32.0059 95.9771 31.8301C96.1577 31.6543 96.2944 31.437 96.3872 31.1782L97.896 31.4639C97.7739 31.9033 97.5591 32.2891 97.2515 32.6211C96.9438 32.9531 96.5557 33.2119 96.0869 33.3975C95.623 33.5781 95.0933 33.6685 94.4976 33.6685ZM102.576 33.5V22.5869H106.583C107.354 22.5869 107.994 22.7139 108.501 22.9678C109.009 23.2217 109.388 23.5659 109.637 24.0005C109.891 24.4302 110.018 24.9136 110.018 25.4507C110.018 25.9048 109.932 26.2881 109.761 26.6006C109.595 26.9131 109.373 27.1621 109.095 27.3477C108.816 27.5332 108.509 27.6699 108.172 27.7578V27.8604C108.538 27.8799 108.895 27.9971 109.241 28.2119C109.588 28.4268 109.874 28.7319 110.098 29.1274C110.328 29.5181 110.442 29.9966 110.442 30.563C110.442 31.1196 110.311 31.6201 110.047 32.0645C109.788 32.5039 109.388 32.853 108.846 33.1118C108.304 33.3706 107.608 33.5 106.758 33.5H102.576ZM104.224 32.0938H106.597C107.388 32.0938 107.955 31.9399 108.296 31.6323C108.638 31.3247 108.809 30.9414 108.809 30.4824C108.809 30.1357 108.721 29.8208 108.545 29.5376C108.375 29.2495 108.128 29.02 107.806 28.8491C107.483 28.6782 107.103 28.5928 106.663 28.5928H104.224V32.0938ZM104.224 27.311H106.436C106.802 27.311 107.134 27.2402 107.432 27.0986C107.73 26.957 107.964 26.7568 108.135 26.498C108.311 26.2344 108.399 25.9292 108.399 25.5825C108.399 25.1333 108.24 24.7573 107.923 24.4546C107.61 24.147 107.129 23.9932 106.48 23.9932H104.224V27.311ZM114.017 33.6758C113.499 33.6758 113.03 33.5806 112.61 33.3901C112.19 33.1948 111.858 32.9116 111.614 32.5405C111.37 32.1694 111.248 31.7178 111.248 31.1855C111.248 30.7217 111.336 30.3433 111.512 30.0503C111.692 29.7524 111.934 29.5156 112.237 29.3398C112.54 29.1641 112.876 29.0322 113.248 28.9443C113.619 28.8564 114 28.7881 114.39 28.7393C114.883 28.6855 115.281 28.6392 115.584 28.6001C115.887 28.561 116.106 28.5 116.243 28.417C116.385 28.3291 116.456 28.1899 116.456 27.9995V27.9629C116.456 27.499 116.324 27.1401 116.06 26.8862C115.801 26.6323 115.416 26.5054 114.903 26.5054C114.371 26.5054 113.948 26.6226 113.636 26.8569C113.328 27.0864 113.116 27.3477 112.999 27.6406L111.497 27.2964C111.678 26.7983 111.939 26.3979 112.281 26.0952C112.627 25.7876 113.023 25.563 113.467 25.4214C113.917 25.2798 114.385 25.209 114.874 25.209C115.201 25.209 115.547 25.248 115.914 25.3262C116.28 25.3994 116.624 25.5386 116.946 25.7437C117.273 25.9438 117.54 26.2319 117.745 26.6079C117.95 26.9839 118.052 27.4697 118.052 28.0654V33.5H116.492V32.3794H116.434C116.336 32.5796 116.182 32.7798 115.972 32.98C115.767 33.1802 115.503 33.3462 115.181 33.478C114.859 33.6099 114.471 33.6758 114.017 33.6758ZM114.361 32.4014C114.805 32.4014 115.184 32.3159 115.496 32.145C115.809 31.9692 116.048 31.7397 116.214 31.4565C116.38 31.1733 116.463 30.873 116.463 30.5557V29.4937C116.404 29.5474 116.294 29.5986 116.133 29.6475C115.972 29.6963 115.789 29.7378 115.584 29.772C115.379 29.8062 115.179 29.8379 114.983 29.8672C114.788 29.8916 114.625 29.9111 114.493 29.9258C114.185 29.9697 113.904 30.0381 113.65 30.1309C113.396 30.2188 113.191 30.3506 113.035 30.5264C112.884 30.6973 112.808 30.9243 112.808 31.2075C112.808 31.603 112.955 31.9009 113.248 32.1011C113.541 32.3013 113.912 32.4014 114.361 32.4014ZM122.63 33.6611C121.966 33.6611 121.375 33.4927 120.857 33.1558C120.34 32.814 119.935 32.3281 119.642 31.6982C119.349 31.0635 119.202 30.3066 119.202 29.4277C119.202 28.5391 119.351 27.7798 119.649 27.1499C119.947 26.52 120.354 26.0391 120.872 25.707C121.39 25.375 121.976 25.209 122.63 25.209C123.143 25.209 123.553 25.2944 123.86 25.4653C124.173 25.6313 124.415 25.8267 124.585 26.0513C124.761 26.2759 124.896 26.4736 124.988 26.6445H125.083V22.5869H126.666V33.5H125.12V32.2256H124.988C124.896 32.3965 124.759 32.5942 124.578 32.8188C124.397 33.0435 124.151 33.2412 123.838 33.4121C123.531 33.5781 123.128 33.6611 122.63 33.6611ZM122.974 32.3062C123.433 32.3062 123.821 32.1841 124.139 31.9399C124.456 31.6958 124.695 31.3564 124.856 30.9219C125.022 30.4873 125.105 29.9844 125.105 29.4131C125.105 28.8418 125.025 28.3438 124.864 27.9189C124.703 27.4893 124.463 27.1572 124.146 26.9229C123.829 26.6836 123.438 26.564 122.974 26.564C122.496 26.564 122.098 26.6885 121.78 26.9375C121.463 27.1865 121.224 27.5259 121.062 27.9556C120.901 28.3853 120.821 28.8711 120.821 29.4131C120.821 29.96 120.901 30.4531 121.062 30.8926C121.224 31.3271 121.463 31.6714 121.78 31.9253C122.103 32.1792 122.5 32.3062 122.974 32.3062ZM131.609 36.7373C130.633 36.7373 129.864 36.5542 129.302 36.188C128.741 35.8218 128.353 35.3872 128.138 34.8843L129.5 34.3203C129.598 34.4766 129.727 34.6426 129.888 34.8184C130.054 34.9941 130.276 35.1431 130.555 35.2651C130.833 35.3872 131.192 35.4482 131.631 35.4482C132.232 35.4482 132.73 35.3018 133.125 35.0088C133.521 34.7207 133.719 34.2568 133.719 33.6172V32.0132H133.609C133.521 32.1841 133.387 32.377 133.206 32.5918C133.025 32.8018 132.779 32.9849 132.466 33.1411C132.154 33.2974 131.746 33.3755 131.243 33.3755C130.599 33.3755 130.018 33.2241 129.5 32.9214C128.987 32.6138 128.577 32.1646 128.27 31.5737C127.967 30.978 127.815 30.2456 127.815 29.3765C127.815 28.5073 127.964 27.7627 128.262 27.1426C128.565 26.5176 128.975 26.0391 129.493 25.707C130.01 25.375 130.599 25.209 131.258 25.209C131.766 25.209 132.176 25.2944 132.488 25.4653C132.806 25.6313 133.052 25.8267 133.228 26.0513C133.404 26.2759 133.541 26.4736 133.638 26.6445H133.755V25.3115H135.301V33.6831C135.301 34.3862 135.137 34.9624 134.81 35.4116C134.488 35.8608 134.048 36.1929 133.492 36.4077C132.935 36.6274 132.308 36.7373 131.609 36.7373ZM131.595 32.0498C132.283 32.0498 132.811 31.813 133.177 31.3394C133.548 30.8608 133.733 30.1992 133.733 29.3545C133.733 28.8027 133.653 28.3193 133.492 27.9043C133.331 27.4844 133.091 27.1572 132.774 26.9229C132.457 26.6836 132.063 26.564 131.595 26.564C131.116 26.564 130.716 26.6885 130.394 26.9375C130.076 27.1816 129.837 27.5161 129.676 27.9409C129.515 28.3608 129.434 28.832 129.434 29.3545C129.434 29.8867 129.515 30.3579 129.676 30.7681C129.837 31.1733 130.079 31.4883 130.401 31.7129C130.728 31.9375 131.126 32.0498 131.595 32.0498ZM140.347 33.6685C139.546 33.6685 138.853 33.4951 138.267 33.1484C137.681 32.8018 137.229 32.3135 136.912 31.6836C136.6 31.0488 136.443 30.3091 136.443 29.4644C136.443 28.6245 136.597 27.8848 136.905 27.2451C137.217 26.6055 137.654 26.1074 138.216 25.751C138.782 25.3896 139.446 25.209 140.208 25.209C140.672 25.209 141.121 25.2847 141.556 25.436C141.99 25.5874 142.381 25.8267 142.728 26.1538C143.074 26.481 143.348 26.9058 143.548 27.4282C143.753 27.9507 143.855 28.5806 143.855 29.3179V29.8892H137.344V28.6953H143.035L142.295 29.0908C142.295 28.5879 142.217 28.1436 142.061 27.7578C141.905 27.3721 141.67 27.0718 141.358 26.8569C141.05 26.6372 140.667 26.5273 140.208 26.5273C139.749 26.5273 139.356 26.6372 139.029 26.8569C138.707 27.0767 138.46 27.3672 138.289 27.7285C138.118 28.0898 138.033 28.4854 138.033 28.915V29.728C138.033 30.2896 138.13 30.7656 138.326 31.1562C138.521 31.5469 138.792 31.8447 139.139 32.0498C139.49 32.2549 139.898 32.3574 140.362 32.3574C140.665 32.3574 140.938 32.3135 141.182 32.2256C141.431 32.1377 141.646 32.0059 141.827 31.8301C142.007 31.6543 142.144 31.437 142.237 31.1782L143.746 31.4639C143.624 31.9033 143.409 32.2891 143.101 32.6211C142.793 32.9531 142.405 33.2119 141.937 33.3975C141.473 33.5781 140.943 33.6685 140.347 33.6685ZM151.092 27.3184L149.649 27.5674C149.556 27.2939 149.383 27.0425 149.129 26.813C148.88 26.5835 148.506 26.4688 148.008 26.4688C147.559 26.4688 147.183 26.5713 146.88 26.7764C146.583 26.9766 146.434 27.2329 146.434 27.5454C146.434 27.8188 146.534 28.041 146.734 28.2119C146.939 28.3828 147.264 28.5195 147.708 28.6221L149.019 28.915C149.766 29.0859 150.325 29.3545 150.696 29.7207C151.067 30.0869 151.253 30.5557 151.253 31.127C151.253 31.6201 151.111 32.0596 150.828 32.4453C150.545 32.8262 150.152 33.1265 149.649 33.3462C149.146 33.561 148.565 33.6685 147.906 33.6685C146.988 33.6685 146.241 33.4707 145.665 33.0752C145.088 32.6797 144.734 32.123 144.603 31.4053L146.133 31.1709C146.231 31.5713 146.429 31.874 146.727 32.0791C147.029 32.2842 147.42 32.3867 147.898 32.3867C148.416 32.3867 148.831 32.2769 149.144 32.0571C149.461 31.8374 149.62 31.5713 149.62 31.2588C149.62 30.7412 149.234 30.3921 148.462 30.2114L147.078 29.9038C146.312 29.728 145.745 29.4521 145.379 29.0762C145.018 28.6953 144.837 28.2168 144.837 27.6406C144.837 27.1572 144.971 26.7324 145.24 26.3662C145.513 26 145.887 25.7168 146.36 25.5166C146.839 25.3115 147.383 25.209 147.994 25.209C148.882 25.209 149.578 25.4019 150.081 25.7876C150.589 26.1733 150.926 26.6836 151.092 27.3184Z" fill="white" fill-opacity="0.95"/>
<g filter="url(#filter1_d_4955_19716)">
<rect width="103" height="52" rx="26" transform="matrix(0.984808 -0.173648 0.34202 0.939693 38 68.3867)" fill="white" fill-opacity="0.05" shape-rendering="crispEdges"/>
<rect x="0.995121" y="0.574533" width="101.5" height="50.5" rx="25.25" transform="matrix(0.984808 -0.173648 0.34202 0.939693 37.8186 68.5942)" stroke="url(#paint1_linear_4955_19716)" stroke-opacity="0.17" stroke-width="1.5" shape-rendering="crispEdges"/>
<g filter="url(#filter2_d_4955_19716)">
<rect width="87" height="36" rx="18" transform="matrix(0.984808 -0.173648 0.34202 0.939693 48.6146 74.515)" fill="white" fill-opacity="0.1" shape-rendering="crispEdges"/>
<rect x="0.663414" y="0.383022" width="86" height="35" rx="17.5" transform="matrix(0.984808 -0.173648 0.34202 0.939693 48.4937 74.6533)" stroke="white" stroke-opacity="0.1" shape-rendering="crispEdges"/>
<g filter="url(#filter3_d_4955_19716)">
<path d="M78.7524 83.0166L74.3305 87.2267L67.5621 84.9898C67.4807 84.9629 67.4045 84.917 67.3412 84.8567C67.2779 84.7965 67.2297 84.7239 67.2015 84.6464C67.1733 84.5689 67.166 84.4891 67.1805 84.4151C67.1949 84.3412 67.2305 84.2756 67.2837 84.225L71.1601 80.5338C71.3259 80.3759 71.5407 80.2703 71.783 80.2276C72.0253 80.1849 72.2865 80.2066 72.5403 80.2904L78.474 82.2518C78.5554 82.2787 78.6316 82.3246 78.6949 82.3848C78.7582 82.4451 78.8064 82.5177 78.8346 82.5952C78.8628 82.6727 78.8701 82.7525 78.8556 82.8264C78.8412 82.9004 78.8056 82.966 78.7524 83.0166ZM66.7883 87.2002L68.7786 92.6684C68.8692 92.9192 69.0242 93.1541 69.228 93.3497C69.4318 93.5454 69.6773 93.695 69.9401 93.7837L75.771 95.7115C75.8523 95.7384 75.9359 95.7453 76.0136 95.7317C76.0912 95.718 76.16 95.6842 76.2132 95.6336C76.2664 95.5831 76.3019 95.5176 76.3164 95.4437C76.3309 95.3698 76.3237 95.2901 76.2956 95.2126L74.0024 88.9123L67.3129 86.7014C67.2316 86.6745 67.1479 86.6675 67.0703 86.6812C66.9927 86.6949 66.9238 86.7287 66.8706 86.7792C66.8175 86.8298 66.7819 86.8953 66.7674 86.9692C66.753 87.0431 66.7602 87.1227 66.7883 87.2002ZM82.9352 90.1722L80.9449 84.704C80.9166 84.6266 80.8684 84.5541 80.8052 84.4939C80.7419 84.4337 80.6658 84.3879 80.5845 84.3611C80.5031 84.3343 80.4195 84.3273 80.3419 84.3411C80.2643 84.3548 80.1954 84.3886 80.1423 84.4392L75.772 88.6003L78.0651 94.9006C78.0934 94.9781 78.1416 95.0505 78.2049 95.1107C78.2681 95.1709 78.3442 95.2167 78.4256 95.2435C78.5069 95.2704 78.5905 95.2773 78.6682 95.2636C78.7458 95.2499 78.8146 95.216 78.8677 95.1655L82.6755 91.5381C82.8462 91.3731 82.96 91.1602 83.0056 90.9206C83.0511 90.6809 83.0269 90.4229 82.9352 90.1722Z" fill="#EEEDEE"/>
</g>
<path d="M89.3079 80.8402L88.8244 79.5119L97.1481 78.0442L97.6316 79.3725L94.2848 79.9626L97.5338 88.8893L95.9181 89.1742L92.6691 80.2475L89.3079 80.8402ZM101.963 88.1084L99.1619 80.4137L100.72 80.139L103.521 87.8336L101.963 88.1084ZM99.5173 79.0913C99.2432 79.1396 98.9783 79.0936 98.7224 78.9531C98.4666 78.8127 98.2945 78.6209 98.206 78.3777C98.1158 78.1299 98.1351 77.9019 98.264 77.6936C98.3929 77.4853 98.5944 77.357 98.8685 77.3087C99.1378 77.2612 99.4003 77.3077 99.6561 77.4481C99.9167 77.5877 100.092 77.7814 100.182 78.0292C100.271 78.2724 100.248 78.4985 100.115 78.7076C99.9857 78.9159 99.7866 79.0438 99.5173 79.0913ZM108.548 87.1156C107.759 87.2547 107.017 87.2122 106.322 86.9882C105.626 86.7642 105.014 86.3838 104.486 85.847C103.961 85.3047 103.554 84.6367 103.266 83.843C102.978 83.0538 102.877 82.3319 102.961 81.6774C103.05 81.0221 103.31 80.4782 103.741 80.0457C104.175 79.6079 104.767 79.3228 105.518 79.1905C105.974 79.1099 106.443 79.1031 106.922 79.1698C107.402 79.2366 107.869 79.3936 108.322 79.6408C108.775 79.888 109.19 80.2398 109.566 80.6959C109.946 81.1513 110.263 81.7254 110.515 82.4182L110.71 82.9551L104.298 84.0857L103.89 82.9639L109.494 81.9756L108.901 82.4758C108.729 82.0032 108.5 81.5992 108.214 81.2638C107.928 80.9285 107.595 80.687 107.214 80.5394C106.836 80.3863 106.42 80.3496 105.968 80.4294C105.516 80.5091 105.167 80.6805 104.92 80.9438C104.678 81.2063 104.534 81.5221 104.489 81.8913C104.445 82.2605 104.496 82.647 104.643 83.0508L104.921 83.8147C105.113 84.3424 105.372 84.7728 105.698 85.106C106.024 85.4391 106.393 85.6719 106.804 85.8045C107.221 85.9361 107.657 85.9617 108.114 85.8811C108.412 85.8286 108.666 85.7398 108.877 85.6148C109.092 85.489 109.258 85.3278 109.376 85.1312C109.494 84.9347 109.554 84.7067 109.557 84.4474L111.141 84.4539C111.171 84.888 111.091 85.2878 110.902 85.6532C110.712 86.0187 110.419 86.3292 110.02 86.585C109.625 86.8353 109.135 87.0122 108.548 87.1156ZM113.042 86.1548L110.241 78.4602L111.749 78.1943L112.197 79.4263L112.283 79.4111C112.282 78.9718 112.423 78.6003 112.707 78.2964C112.993 77.9871 113.372 77.7909 113.843 77.7078C113.94 77.6908 114.054 77.6755 114.188 77.6618C114.324 77.6426 114.435 77.6304 114.52 77.6252L115.041 79.0567C114.971 79.0494 114.852 79.051 114.682 79.0614C114.516 79.0711 114.352 79.0903 114.188 79.1191C113.818 79.1844 113.514 79.3186 113.276 79.5218C113.041 79.7195 112.886 79.9639 112.813 80.2551C112.743 80.5409 112.77 80.8536 112.894 81.1931L114.6 85.8801L113.042 86.1548ZM121.513 73.7479L125.246 84.0029L123.645 84.2852L120.478 75.5857L120.406 75.5984L118.436 77.6523L117.895 76.1657L119.955 74.0226L121.513 73.7479Z" fill="white" fill-opacity="0.95"/>
</g>
</g>
<defs>
<filter id="filter1_d_4955_19716" x="-2" y="10.501" width="199.22" height="146.75" filterUnits="userSpaceOnUse" color-interpolation-filters="sRGB">
<feFlood flood-opacity="0" result="BackgroundImageFix"/>
<feColorMatrix in="SourceAlpha" type="matrix" values="0 0 0 0 0 0 0 0 0 0 0 0 0 0 0 0 0 0 127 0" result="hardAlpha"/>
<feOffset dx="2" dy="5"/>
<feGaussianBlur stdDeviation="3.75"/>
<feComposite in2="hardAlpha" operator="out"/>
<feColorMatrix type="matrix" values="0 0 0 0 0 0 0 0 0 0 0 0 0 0 0 0 0 0 0.12 0"/>
<feBlend mode="normal" in2="BackgroundImageFix" result="effect1_dropShadow_4955_19716"/>
<feBlend mode="normal" in="SourceGraphic" in2="effect1_dropShadow_4955_19716" result="shape"/>
</filter>
<filter id="filter2_d_4955_19716" x="43.1146" y="56.9076" width="112.991" height="63.9364" filterUnits="userSpaceOnUse" color-interpolation-filters="sRGB">
<feFlood flood-opacity="0" result="BackgroundImageFix"/>
<feColorMatrix in="SourceAlpha" type="matrix" values="0 0 0 0 0 0 0 0 0 0 0 0 0 0 0 0 0 0 127 0" result="hardAlpha"/>
<feOffset dx="2" dy="5"/>
<feGaussianBlur stdDeviation="3.75"/>
<feComposite in2="hardAlpha" operator="out"/>
<feColorMatrix type="matrix" values="0 0 0 0 0 0 0 0 0 0 0 0 0 0 0 0 0 0 0.26 0"/>
<feBlend mode="normal" in2="BackgroundImageFix" result="effect1_dropShadow_4955_19716"/>
<feBlend mode="normal" in="SourceGraphic" in2="effect1_dropShadow_4955_19716" result="shape"/>
</filter>
<filter id="filter3_d_4955_19716" x="41.1989" y="56.823" width="66.5366" height="62.2668" filterUnits="userSpaceOnUse" color-interpolation-filters="sRGB">
<feFlood flood-opacity="0" result="BackgroundImageFix"/>
<feColorMatrix in="SourceAlpha" type="matrix" values="0 0 0 0 0 0 0 0 0 0 0 0 0 0 0 0 0 0 127 0" result="hardAlpha"/>
<feOffset/>
<feGaussianBlur stdDeviation="10"/>
<feComposite in2="hardAlpha" operator="out"/>
<feColorMatrix type="matrix" values="0 0 0 0 1 0 0 0 0 1 0 0 0 0 1 0 0 0 0.7 0"/>
<feBlend mode="normal" in2="BackgroundImageFix" result="effect1_dropShadow_4955_19716"/>
<feBlend mode="normal" in="SourceGraphic" in2="effect1_dropShadow_4955_19716" result="shape"/>
</filter>
<linearGradient id="paint0_linear_4955_19716" x1="0.822651" y1="0.499997" x2="199.114" y2="129.161" gradientUnits="userSpaceOnUse">
<stop stop-color="#1C1C1C"/>
<stop offset="1"/>
</linearGradient>
<linearGradient id="paint1_linear_4955_19716" x1="0.0195709" y1="52.136" x2="104.595" y2="44.2265" gradientUnits="userSpaceOnUse">
<stop stop-color="white" stop-opacity="0"/>
<stop offset="0.304081" stop-color="white"/>
<stop offset="0.608698" stop-color="white" stop-opacity="0"/>
<stop offset="1" stop-color="white"/>
</linearGradient>
</defs>
</svg>
