<svg width="203" height="170" viewBox="0 0 203 170" fill="none" xmlns="http://www.w3.org/2000/svg">
<rect width="203" height="170" rx="16" fill="url(#paint0_linear_5098_18979)" fill-opacity="0.7"/>
<rect x="0.5" y="0.5" width="202" height="169" rx="15.5" stroke="white" stroke-opacity="0.1"/>
<path d="M68.3945 61L68.3945 39.1738L83.1016 39.1738L83.1016 42.9824L72.9941 42.9824L72.9941 48.1094L82.3398 48.1094L82.3398 51.8447L72.9941 51.8447L72.9941 57.1914L83.1309 57.1914L83.1309 61L68.3945 61ZM90.3818 61.3076C89.3467 61.3076 88.4141 61.127 87.584 60.7656C86.7637 60.3945 86.1191 59.8477 85.6504 59.125C85.1816 58.4023 84.9473 57.5039 84.9473 56.4297C84.9473 55.5117 85.1133 54.75 85.4453 54.1445C85.7773 53.5293 86.2314 53.0312 86.8076 52.6504C87.3838 52.2695 88.0381 51.9814 88.7705 51.7861C89.5029 51.5908 90.2793 51.4541 91.0996 51.376C92.0469 51.2881 92.8086 51.2002 93.3848 51.1123C93.9609 51.0244 94.3809 50.8926 94.6445 50.7168C94.918 50.5312 95.0547 50.2676 95.0547 49.9258L95.0547 49.8525C95.0547 49.1787 94.8398 48.6562 94.4102 48.2852C93.9902 47.9141 93.3945 47.7285 92.623 47.7285C91.8125 47.7285 91.1631 47.9092 90.6748 48.2705C90.1963 48.6221 89.8789 49.0713 89.7227 49.6182L85.5186 49.2812C85.7334 48.2852 86.1533 47.4258 86.7783 46.7031C87.4033 45.9707 88.209 45.4092 89.1953 45.0186C90.1914 44.6182 91.3437 44.418 92.6523 44.418C93.5605 44.418 94.4297 44.5254 95.2598 44.7402C96.0898 44.9551 96.8271 45.2871 97.4717 45.7363C98.126 46.1758 98.6436 46.7471 99.0244 47.4502C99.4053 48.1533 99.5957 48.9883 99.5957 49.9551L99.5957 61L95.2744 61L95.2744 58.7148L95.1572 58.7148C94.8936 59.2324 94.542 59.6865 94.1025 60.0771C93.6631 60.458 93.1357 60.7607 92.5205 60.9854C91.9053 61.2002 91.1924 61.3076 90.3818 61.3076ZM91.6855 58.1729C92.3496 58.1729 92.9355 58.041 93.4434 57.7773C93.9609 57.5039 94.3613 57.1426 94.6445 56.6934C94.9375 56.2344 95.084 55.7217 95.084 55.1553L95.084 53.4121C94.9473 53.5 94.752 53.583 94.498 53.6611C94.2539 53.7393 93.9805 53.8076 93.6777 53.8662C93.375 53.9248 93.0723 53.9785 92.7695 54.0273C92.4668 54.0664 92.1934 54.1055 91.9492 54.1445C91.4121 54.2227 90.9434 54.3496 90.543 54.5254C90.1426 54.6914 89.8301 54.9209 89.6055 55.2139C89.3906 55.4971 89.2832 55.8535 89.2832 56.2832C89.2832 56.8984 89.5078 57.3672 89.957 57.6895C90.4062 58.0117 90.9824 58.1729 91.6855 58.1729ZM102.247 61L102.247 44.623L106.627 44.623L106.627 47.4941L106.803 47.4941C107.105 46.4785 107.608 45.7119 108.312 45.1943C109.015 44.667 109.82 44.4033 110.729 44.4033C110.963 44.4033 111.207 44.418 111.461 44.4473C111.725 44.4668 111.959 44.5059 112.164 44.5645L112.164 48.5781C111.949 48.5098 111.651 48.4561 111.271 48.417C110.899 48.3682 110.553 48.3437 110.23 48.3437C109.576 48.3437 108.985 48.4902 108.458 48.7832C107.931 49.0664 107.516 49.4668 107.213 49.9844C106.92 50.4922 106.773 51.0781 106.773 51.7422L106.773 61L102.247 61ZM118.053 39.1738L118.053 61L113.526 61L113.526 39.1738L118.053 39.1738ZM123.517 67.123C122.94 67.1328 122.398 67.0937 121.891 67.0059C121.393 66.918 120.982 66.8057 120.66 66.6689L121.686 63.2852L121.832 63.3145C122.594 63.5391 123.243 63.5879 123.78 63.4609C124.327 63.3437 124.742 62.9141 125.025 62.1719L125.289 61.4687L119.43 44.623L124.19 44.623L127.574 56.6494L127.75 56.6494L131.178 44.623L135.968 44.623L129.61 62.7725C129.308 63.6514 128.893 64.418 128.365 65.0723C127.848 65.7266 127.193 66.2295 126.402 66.5811C125.611 66.9424 124.649 67.123 123.517 67.123ZM55.3428 97L50.4062 97L57.9355 75.1738L63.8828 75.1738L71.3975 97L66.4756 97L60.9971 80.1543L60.8213 80.1543L55.3428 97ZM55.0498 88.416L66.7246 88.416L66.7246 92.0195L55.0498 92.0195L55.0498 88.416ZM79.5713 97.3223C77.9014 97.3223 76.4658 96.9658 75.2646 96.2529C74.0635 95.5303 73.1406 94.5391 72.4961 93.2793C71.8516 92.0098 71.5293 90.5449 71.5293 88.8848C71.5293 87.2051 71.8516 85.7305 72.4961 84.4609C73.1504 83.1914 74.0781 82.2002 75.2793 81.4873C76.4805 80.7744 77.9111 80.418 79.5713 80.418C80.9971 80.418 82.2422 80.6768 83.3066 81.1943C84.3809 81.7119 85.2305 82.4395 85.8555 83.377C86.4805 84.3145 86.8223 85.418 86.8809 86.6875L82.6035 86.6875C82.5254 86.1406 82.3594 85.6621 82.1055 85.252C81.8516 84.8418 81.5146 84.5244 81.0947 84.2998C80.6748 84.0752 80.1865 83.9629 79.6299 83.9629C78.9268 83.9629 78.3115 84.1533 77.7842 84.5342C77.2666 84.9053 76.8613 85.457 76.5684 86.1895C76.2852 86.9121 76.1436 87.791 76.1436 88.8262C76.1436 89.8613 76.2852 90.75 76.5684 91.4922C76.8613 92.2344 77.2666 92.8008 77.7842 93.1914C78.3115 93.582 78.9268 93.7773 79.6299 93.7773C80.4111 93.7773 81.0703 93.5332 81.6074 93.0449C82.1445 92.5469 82.4766 91.8633 82.6035 90.9941L86.8809 90.9941C86.8125 92.2441 86.4756 93.3477 85.8701 94.3047C85.2646 95.252 84.4297 95.9941 83.3652 96.5312C82.3008 97.0586 81.0361 97.3223 79.5713 97.3223ZM96.2119 97.3223C94.542 97.3223 93.1064 96.9658 91.9053 96.2529C90.7041 95.5303 89.7812 94.5391 89.1367 93.2793C88.4922 92.0098 88.1699 90.5449 88.1699 88.8848C88.1699 87.2051 88.4922 85.7305 89.1367 84.4609C89.791 83.1914 90.7187 82.2002 91.9199 81.4873C93.1211 80.7744 94.5518 80.418 96.2119 80.418C97.6377 80.418 98.8828 80.6768 99.9473 81.1943C101.021 81.7119 101.871 82.4395 102.496 83.377C103.121 84.3145 103.463 85.418 103.521 86.6875L99.2441 86.6875C99.166 86.1406 99 85.6621 98.7461 85.252C98.4922 84.8418 98.1553 84.5244 97.7354 84.2998C97.3154 84.0752 96.8271 83.9629 96.2705 83.9629C95.5674 83.9629 94.9521 84.1533 94.4248 84.5342C93.9072 84.9053 93.502 85.457 93.209 86.1895C92.9258 86.9121 92.7842 87.791 92.7842 88.8262C92.7842 89.8613 92.9258 90.75 93.209 91.4922C93.502 92.2344 93.9072 92.8008 94.4248 93.1914C94.9521 93.582 95.5674 93.7773 96.2705 93.7773C97.0518 93.7773 97.7109 93.5332 98.248 93.0449C98.7852 92.5469 99.1172 91.8633 99.2441 90.9941L103.521 90.9941C103.453 92.2441 103.116 93.3477 102.511 94.3047C101.905 95.252 101.07 95.9941 100.006 96.5312C98.9414 97.0586 97.6768 97.3223 96.2119 97.3223ZM112.94 97.3223C111.261 97.3223 109.811 96.9805 108.59 96.2969C107.369 95.6133 106.432 94.6416 105.777 93.3818C105.133 92.1123 104.811 90.6133 104.811 88.8848C104.811 87.2051 105.133 85.7305 105.777 84.4609C106.432 83.1914 107.35 82.2002 108.531 81.4873C109.723 80.7744 111.119 80.418 112.721 80.418C113.805 80.418 114.815 80.5937 115.753 80.9453C116.69 81.2871 117.511 81.8047 118.214 82.498C118.917 83.1816 119.464 84.0459 119.854 85.0908C120.245 86.126 120.44 87.3418 120.44 88.7383L120.44 89.9687L106.612 89.9687L106.612 87.1709L118.243 87.1709L116.134 87.9033C116.134 87.0732 116.007 86.3506 115.753 85.7354C115.499 85.1201 115.118 84.6465 114.61 84.3145C114.112 83.9727 113.492 83.8018 112.75 83.8018C112.008 83.8018 111.378 83.9727 110.86 84.3145C110.353 84.6562 109.962 85.1201 109.688 85.7061C109.415 86.292 109.278 86.9658 109.278 87.7275L109.278 89.7051C109.278 90.5937 109.435 91.3555 109.747 91.9902C110.06 92.6152 110.494 93.0986 111.051 93.4404C111.617 93.7725 112.267 93.9385 112.999 93.9385C113.507 93.9385 113.966 93.8652 114.376 93.7187C114.786 93.5723 115.138 93.3574 115.431 93.0742C115.733 92.791 115.958 92.4492 116.104 92.0488L120.294 92.3271C120.089 93.333 119.659 94.2119 119.005 94.9639C118.36 95.7061 117.525 96.2871 116.5 96.707C115.475 97.1172 114.288 97.3223 112.94 97.3223ZM135.982 85.2959L131.837 85.5449C131.729 85.0273 131.441 84.583 130.973 84.2119C130.504 83.8311 129.874 83.6406 129.083 83.6406C128.38 83.6406 127.789 83.7871 127.311 84.0801C126.842 84.373 126.607 84.7637 126.607 85.252C126.607 85.6426 126.759 85.9795 127.062 86.2627C127.374 86.5361 127.906 86.751 128.658 86.9072L131.632 87.4932C133.224 87.8154 134.41 88.3379 135.191 89.0605C135.973 89.7832 136.363 90.7354 136.363 91.917C136.363 93.001 136.051 93.9482 135.426 94.7588C134.801 95.5596 133.941 96.1895 132.848 96.6484C131.754 97.0977 130.499 97.3223 129.083 97.3223C126.915 97.3223 125.187 96.8682 123.897 95.96C122.618 95.0518 121.871 93.8213 121.656 92.2686L126.095 92.0342C126.241 92.6982 126.573 93.2012 127.091 93.543C127.608 93.8848 128.272 94.0557 129.083 94.0557C129.874 94.0557 130.514 93.8994 131.002 93.5869C131.5 93.2744 131.749 92.8789 131.749 92.4004C131.749 91.5898 131.046 91.043 129.64 90.7598L126.812 90.1738C125.221 89.8516 124.034 89.2998 123.253 88.5186C122.472 87.7373 122.081 86.7363 122.081 85.5156C122.081 84.4609 122.369 83.5527 122.945 82.791C123.521 82.0293 124.327 81.4434 125.362 81.0332C126.407 80.623 127.628 80.418 129.024 80.418C131.095 80.418 132.721 80.8574 133.902 81.7363C135.094 82.6055 135.787 83.792 135.982 85.2959ZM151.861 85.2959L147.716 85.5449C147.608 85.0273 147.32 84.583 146.852 84.2119C146.383 83.8311 145.753 83.6406 144.962 83.6406C144.259 83.6406 143.668 83.7871 143.189 84.0801C142.721 84.373 142.486 84.7637 142.486 85.252C142.486 85.6426 142.638 85.9795 142.94 86.2627C143.253 86.5361 143.785 86.751 144.537 86.9072L147.511 87.4932C149.103 87.8154 150.289 88.3379 151.07 89.0605C151.852 89.7832 152.242 90.7354 152.242 91.917C152.242 93.001 151.93 93.9482 151.305 94.7588C150.68 95.5596 149.82 96.1895 148.727 96.6484C147.633 97.0977 146.378 97.3223 144.962 97.3223C142.794 97.3223 141.065 96.8682 139.776 95.96C138.497 95.0518 137.75 93.8213 137.535 92.2686L141.974 92.0342C142.12 92.6982 142.452 93.2012 142.97 93.543C143.487 93.8848 144.151 94.0557 144.962 94.0557C145.753 94.0557 146.393 93.8994 146.881 93.5869C147.379 93.2744 147.628 92.8789 147.628 92.4004C147.628 91.5898 146.925 91.043 145.519 90.7598L142.691 90.1738C141.1 89.8516 139.913 89.2998 139.132 88.5186C138.351 87.7373 137.96 86.7363 137.96 85.5156C137.96 84.4609 138.248 83.5527 138.824 82.791C139.4 82.0293 140.206 81.4434 141.241 81.0332C142.286 80.623 143.507 80.418 144.903 80.418C146.974 80.418 148.6 80.8574 149.781 81.7363C150.973 82.6055 151.666 83.792 151.861 85.2959Z" fill="url(#paint1_linear_5098_18979)"/>
<path d="M31.1436 140.087L31.1436 151L29.6055 151L24.0757 143.002L23.9658 143.002L23.9658 151L22.3179 151L22.3179 140.087L23.8413 140.087L29.3931 148.1L29.4956 148.1L29.4956 140.087L31.1436 140.087ZM36.3145 151.168C35.5137 151.168 34.8203 150.995 34.2344 150.648C33.6484 150.302 33.1968 149.813 32.8794 149.184C32.5669 148.549 32.4106 147.809 32.4106 146.964C32.4106 146.125 32.5645 145.385 32.8721 144.745C33.1846 144.105 33.6216 143.607 34.1831 143.251C34.7495 142.89 35.4136 142.709 36.1753 142.709C36.6392 142.709 37.0884 142.785 37.5229 142.936C37.9575 143.087 38.3481 143.327 38.6948 143.654C39.0415 143.981 39.3149 144.406 39.5151 144.928C39.7202 145.451 39.8228 146.081 39.8228 146.818L39.8228 147.389L33.3115 147.389L33.3115 146.195L39.0024 146.195L38.2627 146.591C38.2627 146.088 38.1846 145.644 38.0283 145.258C37.8721 144.872 37.6377 144.572 37.3252 144.357C37.0176 144.137 36.6343 144.027 36.1753 144.027C35.7163 144.027 35.3232 144.137 34.9961 144.357C34.6738 144.577 34.4272 144.867 34.2563 145.229C34.0854 145.59 34 145.985 34 146.415L34 147.228C34 147.79 34.0977 148.266 34.293 148.656C34.4883 149.047 34.7593 149.345 35.106 149.55C35.4575 149.755 35.8652 149.857 36.3291 149.857C36.6318 149.857 36.9053 149.813 37.1494 149.726C37.3984 149.638 37.6133 149.506 37.7939 149.33C37.9746 149.154 38.1113 148.937 38.2041 148.678L39.7129 148.964C39.5908 149.403 39.376 149.789 39.0684 150.121C38.7607 150.453 38.3726 150.712 37.9038 150.897C37.4399 151.078 36.9102 151.168 36.3145 151.168ZM42.4521 151L40.0498 142.812L41.6904 142.812L43.2944 148.825L43.3823 148.825L44.9863 142.812L46.6343 142.812L48.2236 148.803L48.3042 148.803L49.9009 142.812L51.5415 142.812L49.1392 151L47.5205 151L45.8506 145.097L45.7407 145.097L44.0708 151L42.4521 151ZM60.4478 151.146C59.5103 151.146 58.6704 150.922 57.9282 150.473C57.186 150.023 56.6025 149.381 56.1777 148.546C55.7529 147.707 55.5405 146.708 55.5405 145.551C55.5405 144.384 55.7529 143.383 56.1777 142.548C56.6074 141.708 57.1909 141.063 57.9282 140.614C58.6704 140.165 59.5103 139.94 60.4478 139.94C61.0239 139.94 61.5635 140.023 62.0664 140.189C62.5742 140.355 63.0283 140.597 63.4287 140.915C63.8291 141.232 64.1587 141.62 64.4175 142.079C64.6812 142.538 64.8569 143.058 64.9448 143.639L63.2896 143.639C63.2261 143.283 63.1064 142.97 62.9307 142.702C62.7598 142.428 62.5474 142.199 62.2935 142.013C62.0444 141.823 61.7637 141.681 61.4512 141.588C61.1436 141.491 60.8164 141.442 60.4697 141.442C59.8447 141.442 59.2808 141.601 58.7778 141.918C58.2798 142.23 57.8867 142.694 57.5986 143.31C57.3154 143.92 57.1738 144.667 57.1738 145.551C57.1738 146.439 57.3179 147.189 57.606 147.799C57.894 148.405 58.2871 148.864 58.7852 149.176C59.2832 149.489 59.8423 149.645 60.4624 149.645C60.8091 149.645 61.1362 149.599 61.4438 149.506C61.7515 149.413 62.0322 149.274 62.2861 149.088C62.54 148.903 62.7524 148.678 62.9233 148.415C63.0991 148.146 63.2212 147.836 63.2896 147.484L64.9448 147.484C64.8618 148.026 64.6934 148.522 64.4395 148.971C64.1855 149.416 63.8608 149.801 63.4653 150.128C63.0698 150.451 62.6182 150.702 62.1104 150.883C61.6025 151.059 61.0483 151.146 60.4478 151.146ZM69.6104 151.168C68.8437 151.168 68.1724 150.993 67.5962 150.641C67.0249 150.29 66.5806 149.796 66.2632 149.162C65.9507 148.527 65.7944 147.79 65.7944 146.95C65.7944 146.1 65.9507 145.358 66.2632 144.723C66.5806 144.083 67.0249 143.588 67.5962 143.236C68.1724 142.885 68.8437 142.709 69.6104 142.709C70.3818 142.709 71.0532 142.885 71.6245 143.236C72.1958 143.588 72.6401 144.083 72.9575 144.723C73.2749 145.358 73.4336 146.1 73.4336 146.95C73.4336 147.79 73.2749 148.527 72.9575 149.162C72.6401 149.796 72.1958 150.29 71.6245 150.641C71.0532 150.993 70.3818 151.168 69.6104 151.168ZM69.6104 149.828C70.1133 149.828 70.5283 149.696 70.8555 149.433C71.1826 149.169 71.4243 148.82 71.5806 148.385C71.7417 147.946 71.8223 147.467 71.8223 146.95C71.8223 146.422 71.7417 145.939 71.5806 145.5C71.4243 145.06 71.1826 144.708 70.8555 144.445C70.5283 144.181 70.1133 144.049 69.6104 144.049C69.1123 144.049 68.6997 144.181 68.3726 144.445C68.0503 144.708 67.8086 145.06 67.6475 145.5C67.4863 145.939 67.4058 146.422 67.4058 146.95C67.4058 147.467 67.4863 147.946 67.6475 148.385C67.8086 148.82 68.0503 149.169 68.3726 149.433C68.6997 149.696 69.1123 149.828 69.6104 149.828ZM76.1655 146.144L76.1655 151L74.5835 151L74.5835 142.812L76.1216 142.812L76.1216 144.159L76.2314 144.159C76.417 143.715 76.7075 143.363 77.103 143.104C77.4985 142.841 78.0063 142.709 78.6265 142.709C79.1831 142.709 79.6689 142.826 80.084 143.061C80.5039 143.29 80.8286 143.634 81.0581 144.093C81.2925 144.552 81.4097 145.121 81.4097 145.8L81.4097 151L79.8276 151L79.8276 145.99C79.8276 145.399 79.6714 144.936 79.3589 144.599C79.0464 144.257 78.6216 144.086 78.0845 144.086C77.7183 144.086 77.3887 144.169 77.0957 144.335C76.8076 144.496 76.5806 144.728 76.4146 145.031C76.2485 145.333 76.1655 145.705 76.1655 146.144ZM86.7417 142.812L86.7417 144.093L82.2739 144.093L82.2739 142.812L86.7417 142.812ZM83.4678 140.863L85.0571 140.863L85.0571 148.598C85.0571 148.974 85.1353 149.25 85.2915 149.425C85.4478 149.596 85.6992 149.682 86.0459 149.682C86.1289 149.682 86.2168 149.677 86.3096 149.667C86.4072 149.657 86.5049 149.643 86.6025 149.623L86.9028 150.941C86.7417 150.995 86.5659 151.037 86.3755 151.066C86.1851 151.095 85.9946 151.11 85.8042 151.11C85.0962 151.11 84.5298 150.912 84.105 150.517C83.6802 150.116 83.4678 149.584 83.4678 148.92L83.4678 140.863ZM91.3193 151.168C90.5186 151.168 89.8252 150.995 89.2393 150.648C88.6533 150.302 88.2017 149.813 87.8843 149.184C87.5718 148.549 87.4155 147.809 87.4155 146.964C87.4155 146.125 87.5693 145.385 87.877 144.745C88.1895 144.105 88.6265 143.607 89.188 143.251C89.7544 142.89 90.4185 142.709 91.1802 142.709C91.644 142.709 92.0933 142.785 92.5278 142.936C92.9624 143.087 93.353 143.327 93.6997 143.654C94.0464 143.981 94.3198 144.406 94.52 144.928C94.7251 145.451 94.8276 146.081 94.8276 146.818L94.8276 147.389L88.3164 147.389L88.3164 146.195L94.0073 146.195L93.2676 146.591C93.2676 146.088 93.1895 145.644 93.0332 145.258C92.877 144.872 92.6426 144.572 92.3301 144.357C92.0225 144.137 91.6392 144.027 91.1802 144.027C90.7212 144.027 90.3281 144.137 90.001 144.357C89.6787 144.577 89.4321 144.867 89.2612 145.229C89.0903 145.59 89.0049 145.985 89.0049 146.415L89.0049 147.228C89.0049 147.79 89.1025 148.266 89.2979 148.656C89.4932 149.047 89.7642 149.345 90.1108 149.55C90.4624 149.755 90.8701 149.857 91.334 149.857C91.6367 149.857 91.9102 149.813 92.1543 149.726C92.4033 149.638 92.6182 149.506 92.7988 149.33C92.9795 149.154 93.1162 148.937 93.209 148.678L94.7178 148.964C94.5957 149.403 94.3809 149.789 94.0732 150.121C93.7656 150.453 93.3774 150.712 92.9087 150.897C92.4448 151.078 91.915 151.168 91.3193 151.168ZM97.5229 146.144L97.5229 151L95.9409 151L95.9409 142.812L97.479 142.812L97.479 144.159L97.5889 144.159C97.7744 143.715 98.0649 143.363 98.4604 143.104C98.856 142.841 99.3638 142.709 99.9839 142.709C100.541 142.709 101.026 142.826 101.441 143.061C101.861 143.29 102.186 143.634 102.416 144.093C102.65 144.552 102.767 145.121 102.767 145.8L102.767 151L101.185 151L101.185 145.99C101.185 145.399 101.029 144.936 100.716 144.599C100.404 144.257 99.979 144.086 99.4419 144.086C99.0757 144.086 98.7461 144.169 98.4531 144.335C98.165 144.496 97.938 144.728 97.772 145.031C97.606 145.333 97.5229 145.705 97.5229 146.144ZM108.099 142.812L108.099 144.093L103.631 144.093L103.631 142.812L108.099 142.812ZM104.825 140.863L106.415 140.863L106.415 148.598C106.415 148.974 106.493 149.25 106.649 149.425C106.805 149.596 107.057 149.682 107.403 149.682C107.486 149.682 107.574 149.677 107.667 149.667C107.765 149.657 107.862 149.643 107.96 149.623L108.26 150.941C108.099 150.995 107.923 151.037 107.733 151.066C107.542 151.095 107.352 151.11 107.162 151.11C106.454 151.11 105.887 150.912 105.462 150.517C105.038 150.116 104.825 149.584 104.825 148.92L104.825 140.863ZM115.738 151.154C115.011 151.154 114.381 151.022 113.849 150.758C113.321 150.49 112.914 150.126 112.625 149.667C112.342 149.208 112.201 148.686 112.201 148.1C112.201 147.655 112.296 147.265 112.486 146.928C112.682 146.586 112.945 146.269 113.277 145.976C113.609 145.683 113.985 145.38 114.405 145.067L116.17 143.822C116.458 143.617 116.686 143.41 116.852 143.2C117.022 142.99 117.108 142.721 117.108 142.394C117.108 142.14 116.998 141.896 116.778 141.662C116.559 141.422 116.263 141.303 115.892 141.303C115.638 141.303 115.414 141.366 115.218 141.493C115.028 141.615 114.876 141.774 114.764 141.969C114.657 142.16 114.603 142.362 114.603 142.577C114.603 142.821 114.671 143.073 114.808 143.332C114.95 143.585 115.128 143.847 115.343 144.115C115.562 144.379 115.792 144.657 116.031 144.95L121.092 151L119.291 151L115.101 146.078C114.75 145.658 114.422 145.265 114.12 144.899C113.817 144.528 113.573 144.154 113.387 143.778C113.202 143.402 113.109 142.995 113.109 142.555C113.109 142.052 113.224 141.608 113.453 141.222C113.683 140.832 114.002 140.526 114.413 140.307C114.828 140.082 115.309 139.97 115.855 139.97C116.422 139.97 116.905 140.08 117.306 140.299C117.711 140.519 118.023 140.81 118.243 141.171C118.463 141.532 118.573 141.928 118.573 142.357C118.573 142.87 118.443 143.324 118.185 143.72C117.926 144.11 117.572 144.472 117.123 144.804L114.925 146.422C114.5 146.735 114.205 147.045 114.039 147.353C113.878 147.655 113.797 147.89 113.797 148.056C113.797 148.373 113.878 148.666 114.039 148.935C114.2 149.198 114.427 149.411 114.72 149.572C115.013 149.733 115.357 149.813 115.753 149.813C116.153 149.813 116.546 149.726 116.932 149.55C117.318 149.369 117.667 149.115 117.979 148.788C118.292 148.456 118.541 148.058 118.727 147.594C118.917 147.13 119.012 146.613 119.012 146.042L120.448 146.042C120.448 146.745 120.367 147.34 120.206 147.829C120.05 148.312 119.857 148.705 119.627 149.008C119.403 149.311 119.193 149.547 118.998 149.718C118.934 149.777 118.873 149.835 118.814 149.894C118.756 149.948 118.695 150.004 118.631 150.062C118.26 150.434 117.811 150.709 117.284 150.89C116.761 151.066 116.246 151.154 115.738 151.154ZM125.165 151L125.165 140.087L131.939 140.087L131.939 141.5L126.812 141.5L126.812 145.038L131.449 145.038L131.449 146.444L126.812 146.444L126.812 151L125.165 151ZM136.129 151.168C135.328 151.168 134.635 150.995 134.049 150.648C133.463 150.302 133.011 149.813 132.694 149.184C132.381 148.549 132.225 147.809 132.225 146.964C132.225 146.125 132.379 145.385 132.687 144.745C132.999 144.105 133.436 143.607 133.998 143.251C134.564 142.89 135.228 142.709 135.99 142.709C136.454 142.709 136.903 142.785 137.337 142.936C137.772 143.087 138.163 143.327 138.509 143.654C138.856 143.981 139.129 144.406 139.33 144.928C139.535 145.451 139.637 146.081 139.637 146.818L139.637 147.389L133.126 147.389L133.126 146.195L138.817 146.195L138.077 146.591C138.077 146.088 137.999 145.644 137.843 145.258C137.687 144.872 137.452 144.572 137.14 144.357C136.832 144.137 136.449 144.027 135.99 144.027C135.531 144.027 135.138 144.137 134.811 144.357C134.488 144.577 134.242 144.867 134.071 145.229C133.9 145.59 133.814 145.985 133.814 146.415L133.814 147.228C133.814 147.79 133.912 148.266 134.107 148.656C134.303 149.047 134.574 149.345 134.92 149.55C135.272 149.755 135.68 149.857 136.144 149.857C136.446 149.857 136.72 149.813 136.964 149.726C137.213 149.638 137.428 149.506 137.608 149.33C137.789 149.154 137.926 148.937 138.019 148.678L139.527 148.964C139.405 149.403 139.19 149.789 138.883 150.121C138.575 150.453 138.187 150.712 137.718 150.897C137.254 151.078 136.725 151.168 136.129 151.168ZM143.124 151.176C142.606 151.176 142.137 151.081 141.717 150.89C141.297 150.695 140.965 150.412 140.721 150.041C140.477 149.669 140.355 149.218 140.355 148.686C140.355 148.222 140.443 147.843 140.619 147.55C140.799 147.252 141.041 147.016 141.344 146.84C141.646 146.664 141.983 146.532 142.354 146.444C142.726 146.356 143.106 146.288 143.497 146.239C143.99 146.186 144.388 146.139 144.691 146.1C144.994 146.061 145.213 146 145.35 145.917C145.492 145.829 145.562 145.69 145.562 145.5L145.562 145.463C145.562 144.999 145.431 144.64 145.167 144.386C144.908 144.132 144.522 144.005 144.01 144.005C143.478 144.005 143.055 144.123 142.743 144.357C142.435 144.586 142.223 144.848 142.105 145.141L140.604 144.796C140.785 144.298 141.046 143.898 141.388 143.595C141.734 143.288 142.13 143.063 142.574 142.921C143.023 142.78 143.492 142.709 143.98 142.709C144.308 142.709 144.654 142.748 145.021 142.826C145.387 142.899 145.731 143.039 146.053 143.244C146.38 143.444 146.646 143.732 146.852 144.108C147.057 144.484 147.159 144.97 147.159 145.565L147.159 151L145.599 151L145.599 149.879L145.541 149.879C145.443 150.08 145.289 150.28 145.079 150.48C144.874 150.68 144.61 150.846 144.288 150.978C143.966 151.11 143.578 151.176 143.124 151.176ZM143.468 149.901C143.912 149.901 144.291 149.816 144.603 149.645C144.916 149.469 145.155 149.24 145.321 148.957C145.487 148.673 145.57 148.373 145.57 148.056L145.57 146.994C145.511 147.047 145.401 147.099 145.24 147.147C145.079 147.196 144.896 147.238 144.691 147.272C144.486 147.306 144.286 147.338 144.09 147.367C143.895 147.392 143.731 147.411 143.6 147.426C143.292 147.47 143.011 147.538 142.757 147.631C142.503 147.719 142.298 147.851 142.142 148.026C141.991 148.197 141.915 148.424 141.915 148.708C141.915 149.103 142.062 149.401 142.354 149.601C142.647 149.801 143.019 149.901 143.468 149.901ZM152.499 142.812L152.499 144.093L148.031 144.093L148.031 142.812L152.499 142.812ZM149.225 140.863L150.814 140.863L150.814 148.598C150.814 148.974 150.892 149.25 151.048 149.425C151.205 149.596 151.456 149.682 151.803 149.682C151.886 149.682 151.974 149.677 152.066 149.667C152.164 149.657 152.262 149.643 152.359 149.623L152.66 150.941C152.499 150.995 152.323 151.037 152.132 151.066C151.942 151.095 151.751 151.11 151.561 151.11C150.853 151.11 150.287 150.912 149.862 150.517C149.437 150.116 149.225 149.584 149.225 148.92L149.225 140.863ZM158.827 147.616L158.827 142.812L160.409 142.812L160.409 151L158.856 151L158.856 149.579L158.768 149.579C158.573 150.014 158.27 150.377 157.86 150.67C157.45 150.963 156.937 151.107 156.322 151.103C155.794 151.103 155.328 150.988 154.923 150.758C154.522 150.529 154.208 150.185 153.978 149.726C153.753 149.267 153.641 148.698 153.641 148.019L153.641 142.812L155.223 142.812L155.223 147.836C155.223 148.388 155.379 148.83 155.692 149.162C156.004 149.494 156.407 149.657 156.9 149.652C157.198 149.652 157.494 149.579 157.787 149.433C158.084 149.286 158.331 149.062 158.526 148.759C158.727 148.456 158.827 148.075 158.827 147.616ZM161.932 151L161.932 142.812L163.463 142.812L163.463 144.123L163.551 144.123C163.702 143.683 163.966 143.336 164.342 143.083C164.723 142.824 165.152 142.694 165.631 142.694C165.729 142.694 165.843 142.699 165.975 142.709C166.112 142.714 166.222 142.721 166.305 142.731L166.305 144.254C166.241 144.235 166.126 144.215 165.96 144.196C165.799 144.176 165.636 144.167 165.47 144.167C165.094 144.167 164.757 144.247 164.459 144.408C164.166 144.564 163.934 144.782 163.763 145.06C163.597 145.333 163.514 145.651 163.514 146.012L163.514 151L161.932 151ZM170.304 151.168C169.503 151.168 168.81 150.995 168.224 150.648C167.638 150.302 167.186 149.813 166.869 149.184C166.556 148.549 166.4 147.809 166.4 146.964C166.4 146.125 166.554 145.385 166.861 144.745C167.174 144.105 167.611 143.607 168.172 143.251C168.739 142.89 169.403 142.709 170.165 142.709C170.628 142.709 171.078 142.785 171.512 142.936C171.947 143.087 172.337 143.327 172.684 143.654C173.031 143.981 173.304 144.406 173.504 144.928C173.709 145.451 173.812 146.081 173.812 146.818L173.812 147.389L167.301 147.389L167.301 146.195L172.992 146.195L172.252 146.591C172.252 146.088 172.174 145.644 172.018 145.258C171.861 144.872 171.627 144.572 171.314 144.357C171.007 144.137 170.624 144.027 170.165 144.027C169.706 144.027 169.312 144.137 168.985 144.357C168.663 144.577 168.417 144.867 168.246 145.229C168.075 145.59 167.989 145.985 167.989 146.415L167.989 147.228C167.989 147.79 168.087 148.266 168.282 148.656C168.478 149.047 168.749 149.345 169.095 149.55C169.447 149.755 169.854 149.857 170.318 149.857C170.621 149.857 170.895 149.813 171.139 149.726C171.388 149.638 171.603 149.506 171.783 149.33C171.964 149.154 172.101 148.937 172.193 148.678L173.702 148.964C173.58 149.403 173.365 149.789 173.058 150.121C172.75 150.453 172.362 150.712 171.893 150.897C171.429 151.078 170.899 151.168 170.304 151.168ZM181.048 144.818L179.605 145.067C179.513 144.794 179.339 144.542 179.085 144.313C178.836 144.083 178.463 143.969 177.965 143.969C177.516 143.969 177.14 144.071 176.837 144.276C176.539 144.477 176.39 144.733 176.39 145.045C176.39 145.319 176.49 145.541 176.69 145.712C176.896 145.883 177.22 146.02 177.665 146.122L178.976 146.415C179.723 146.586 180.282 146.854 180.653 147.221C181.024 147.587 181.209 148.056 181.209 148.627C181.209 149.12 181.068 149.56 180.785 149.945C180.501 150.326 180.108 150.626 179.605 150.846C179.103 151.061 178.521 151.168 177.862 151.168C176.944 151.168 176.197 150.971 175.621 150.575C175.045 150.18 174.691 149.623 174.559 148.905L176.09 148.671C176.187 149.071 176.385 149.374 176.683 149.579C176.986 149.784 177.376 149.887 177.855 149.887C178.373 149.887 178.788 149.777 179.1 149.557C179.417 149.337 179.576 149.071 179.576 148.759C179.576 148.241 179.19 147.892 178.419 147.711L177.035 147.404C176.268 147.228 175.702 146.952 175.335 146.576C174.974 146.195 174.793 145.717 174.793 145.141C174.793 144.657 174.928 144.232 175.196 143.866C175.47 143.5 175.843 143.217 176.317 143.017C176.795 142.812 177.34 142.709 177.95 142.709C178.839 142.709 179.535 142.902 180.038 143.288C180.545 143.673 180.882 144.184 181.048 144.818Z" fill="white" fill-opacity="0.95"/>
<defs>
<linearGradient id="paint0_linear_5098_18979" x1="0.336751" y1="-4.02525e-06" x2="228.451" y2="122.675" gradientUnits="userSpaceOnUse">
<stop stop-color="#1C1C1C"/>
<stop offset="1"/>
</linearGradient>
<linearGradient id="paint1_linear_5098_18979" x1="182" y1="12.9655" x2="30.4594" y2="136.563" gradientUnits="userSpaceOnUse">
<stop stop-color="#DD0355"/>
<stop offset="1" stop-color="#FF5485"/>
</linearGradient>
</defs>
</svg>
