<svg width="183" height="34" viewBox="0 0 183 34" fill="none" xmlns="http://www.w3.org/2000/svg">
<path d="M8.84082 26.8418C7.30273 26.8418 5.88997 26.5684 4.60254 26.0215C3.3151 25.4746 2.28402 24.6486 1.50928 23.5435C0.734538 22.4383 0.347168 21.0312 0.347168 19.3223V19.0317H5.71338V19.3223C5.71338 19.9945 5.8444 20.5698 6.10645 21.0483C6.36849 21.5269 6.73307 21.8971 7.2002 22.1592C7.66732 22.4098 8.21419 22.5352 8.84082 22.5352C9.50163 22.5352 10.0599 22.3927 10.5156 22.1079C10.9827 21.8231 11.3359 21.4072 11.5752 20.8604C11.8145 20.3021 11.9341 19.6185 11.9341 18.8096V1.03613H17.249V18.8096C17.249 20.4388 16.9072 21.8573 16.2236 23.0649C15.54 24.2726 14.5659 25.2069 13.3013 25.8677C12.048 26.5171 10.5612 26.8418 8.84082 26.8418ZM29.5708 26.5H22.9399V21.8857H29.3315C30.938 21.8857 32.2824 21.6066 33.3647 21.0483C34.4585 20.4787 35.2788 19.5957 35.8257 18.3994C36.384 17.1917 36.6631 15.6423 36.6631 13.751C36.6631 11.8711 36.384 10.333 35.8257 9.13672C35.2788 7.94043 34.4585 7.06315 33.3647 6.50488C32.2824 5.93522 30.9437 5.65039 29.3486 5.65039H22.8374V1.03613H29.6562C32.2197 1.03613 34.4243 1.54883 36.27 2.57422C38.1157 3.58822 39.5342 5.04655 40.5254 6.94922C41.5166 8.84049 42.0122 11.1077 42.0122 13.751C42.0122 16.4056 41.5109 18.6842 40.5083 20.5869C39.5171 22.4896 38.0929 23.9536 36.2358 24.979C34.3787 25.993 32.1571 26.5 29.5708 26.5ZM25.9136 1.03613V26.5H20.5474V1.03613H25.9136ZM44.8491 1.03613H51.4971L58.5039 18.1431H58.7944L65.8184 1.03613H72.4834V26.5H67.2197V9.92285H67.0146L60.4009 26.3804H56.8462L50.2837 9.88867H50.0786V26.5H44.8491V1.03613ZM75.5767 33.2847L77.0806 22.6206H82.3442L79.1484 33.2847H75.5767ZM97.3833 1.03613L103.519 20.3818H103.758L109.927 1.03613H115.875L107.107 26.5H100.169L91.3848 1.03613H97.3833ZM116.814 5.47949V1.03613H137.732V5.47949H129.939V26.5H124.625V5.47949H116.814ZM140.04 26.5V1.03613H157.198V5.47949H145.406V11.4609H156.309V15.8188H145.406V22.0566H157.232V26.5H140.04ZM171.741 26.8418C169.485 26.8418 167.463 26.3291 165.674 25.3037C163.886 24.2783 162.473 22.7915 161.436 20.8433C160.399 18.895 159.881 16.5423 159.881 13.7852C159.881 11.0052 160.399 8.64111 161.436 6.69287C162.484 4.73324 163.903 3.24642 165.691 2.23242C167.492 1.20703 169.508 0.694336 171.741 0.694336C173.222 0.694336 174.595 0.905111 175.86 1.32666C177.125 1.73682 178.241 2.34066 179.209 3.13818C180.189 3.92432 180.987 4.89274 181.602 6.04346C182.217 7.18278 182.61 8.4873 182.781 9.95703H177.347C177.244 9.26204 177.039 8.63542 176.731 8.07715C176.435 7.51888 176.042 7.04606 175.552 6.65869C175.074 6.27132 174.521 5.9751 173.895 5.77002C173.279 5.55355 172.601 5.44531 171.861 5.44531C170.562 5.44531 169.417 5.77572 168.426 6.43652C167.446 7.08594 166.683 8.03158 166.136 9.27344C165.6 10.5039 165.333 12.0078 165.333 13.7852C165.333 15.5967 165.606 17.1234 166.153 18.3652C166.7 19.5957 167.463 20.5243 168.443 21.1509C169.423 21.7775 170.556 22.0908 171.844 22.0908C172.562 22.0908 173.228 21.994 173.843 21.8003C174.458 21.6066 175.005 21.3275 175.484 20.9629C175.962 20.5983 176.361 20.154 176.68 19.6299C177.011 19.0944 177.233 18.4849 177.347 17.8013H182.781C182.645 18.9748 182.297 20.1027 181.739 21.1851C181.192 22.2674 180.446 23.2358 179.5 24.0903C178.554 24.9334 177.432 25.6056 176.133 26.1069C174.834 26.5968 173.37 26.8418 171.741 26.8418Z" fill="url(#paint0_linear_4955_19660)"/>
<defs>
<linearGradient id="paint0_linear_4955_19660" x1="184.664" y1="-24.2941" x2="142.137" y2="100.11" gradientUnits="userSpaceOnUse">
<stop stop-color="#FF8126"/>
<stop offset="1" stop-color="#FA3E18"/>
</linearGradient>
</defs>
</svg>
