<svg width="20" height="20" viewBox="0 0 20 20" fill="none" xmlns="http://www.w3.org/2000/svg">
<path d="M19.0501 5.95201C18.9091 5.82908 18.7348 5.75082 18.5492 5.72718C18.3637 5.70353 18.1753 5.73556 18.0079 5.8192L14.0853 7.77233L10.8103 2.33248C10.7261 2.19289 10.6073 2.07743 10.4653 1.99727C10.3234 1.91712 10.1631 1.875 10.0001 1.875C9.83711 1.875 9.67686 1.91712 9.53492 1.99727C9.39298 2.07743 9.27415 2.19289 9.18996 2.33248L5.91496 7.77467L1.99387 5.82155C1.82695 5.73865 1.63926 5.7069 1.45436 5.73028C1.26946 5.75366 1.09558 5.83113 0.954551 5.95297C0.813519 6.0748 0.711613 6.23558 0.661622 6.41513C0.611632 6.59467 0.615784 6.78498 0.673556 6.96217L3.56418 15.8184C3.59324 15.9074 3.64192 15.9887 3.70661 16.0563C3.77131 16.124 3.85037 16.1762 3.93796 16.2092C4.02555 16.2422 4.11943 16.2551 4.21267 16.247C4.30592 16.2388 4.39614 16.2099 4.47668 16.1622C4.49621 16.1505 6.49387 14.9997 10.0001 14.9997C13.5064 14.9997 15.504 16.1505 15.522 16.1614C15.6026 16.2095 15.6929 16.2389 15.7864 16.2473C15.8799 16.2558 15.9741 16.243 16.062 16.2101C16.1498 16.1771 16.2292 16.1248 16.2941 16.057C16.359 15.9892 16.4078 15.9077 16.4368 15.8184L19.3275 6.96451C19.3869 6.78727 19.3923 6.59636 19.3429 6.41606C19.2935 6.23576 19.1916 6.07423 19.0501 5.95201ZM13.7376 12.2497C13.7121 12.3943 13.6365 12.5252 13.5241 12.6197C13.4117 12.7141 13.2696 12.7659 13.1228 12.7661C13.0861 12.766 13.0495 12.7629 13.0134 12.7567C11.0171 12.414 8.97692 12.414 6.98059 12.7567C6.89974 12.771 6.81688 12.7692 6.73673 12.7514C6.65658 12.7336 6.58072 12.7003 6.51347 12.6532C6.37765 12.5581 6.28517 12.4129 6.25637 12.2497C6.22757 12.0864 6.26481 11.9184 6.35989 11.7826C6.45498 11.6467 6.60013 11.5543 6.7634 11.5255C8.90345 11.1577 11.0905 11.1577 13.2306 11.5255C13.3117 11.5393 13.3893 11.5691 13.4589 11.6131C13.5285 11.657 13.5887 11.7143 13.6361 11.7816C13.6835 11.8489 13.7172 11.9249 13.7351 12.0052C13.7531 12.0855 13.755 12.1686 13.7407 12.2497H13.7376Z" fill="white" fill-opacity="0.3"/>
</svg>
