<svg width="20" height="20" viewBox="0 0 20 20" fill="none" xmlns="http://www.w3.org/2000/svg">
<path d="M15.8026 5.81866L10.1211 9.24909L4.4396 5.81866C4.37127 5.77744 4.31451 5.71813 4.27505 5.6467C4.23559 5.57526 4.21482 5.49422 4.21482 5.41173C4.21482 5.32923 4.23559 5.24819 4.27505 5.17675C4.31451 5.10532 4.37127 5.04601 4.4396 5.00479L9.42031 1.99714C9.63338 1.8685 9.87507 1.80078 10.1211 1.80078C10.3671 1.80078 10.6088 1.8685 10.8219 1.99714L15.8026 5.00479C15.8709 5.04601 15.9277 5.10532 15.9671 5.17675C16.0066 5.24819 16.0274 5.32923 16.0274 5.41173C16.0274 5.49422 16.0066 5.57526 15.9671 5.6467C15.9277 5.71813 15.8709 5.77744 15.8026 5.81866ZM2.9336 7.89266V13.7118C2.93304 13.9785 2.99932 14.2408 3.12581 14.4724C3.25231 14.704 3.43462 14.8969 3.65459 15.0319L8.54883 17.9878C8.61709 18.0291 8.69451 18.0508 8.77332 18.0508C8.85214 18.0508 8.92957 18.0291 8.99785 17.988C9.06612 17.9468 9.12284 17.8876 9.1623 17.8162C9.20176 17.7449 9.22258 17.6639 9.22266 17.5815V10.8768L3.60743 7.48631C3.53917 7.4451 3.46175 7.4234 3.38293 7.42338C3.30412 7.42336 3.22668 7.44502 3.15841 7.48619C3.09013 7.52737 3.03341 7.5866 2.99395 7.65794C2.95449 7.72929 2.93368 7.81024 2.9336 7.89266ZM17.3086 13.7118V7.89266C17.3085 7.81024 17.2877 7.72929 17.2482 7.65794C17.2088 7.5866 17.1521 7.52737 17.0838 7.48619C17.0155 7.44502 16.9381 7.42336 16.8593 7.42338C16.7804 7.4234 16.703 7.4451 16.6348 7.48631L11.0195 10.8768V17.5815C11.0196 17.6639 11.0404 17.7449 11.0799 17.8162C11.1193 17.8876 11.1761 17.9468 11.2443 17.988C11.3126 18.0291 11.39 18.0508 11.4689 18.0508C11.5477 18.0508 11.6251 18.0291 11.6934 17.9878L16.5865 15.0319C16.8067 14.897 16.9892 14.7042 17.1159 14.4726C17.2426 14.241 17.309 13.9787 17.3086 13.7118Z" fill="white" fill-opacity="0.3"/>
</svg>
