<svg width="20" height="20" viewBox="0 0 20 20" fill="none" xmlns="http://www.w3.org/2000/svg">
<path d="M4.375 2.49805C4.20924 2.49806 4.05028 2.56392 3.93308 2.68112C3.81587 2.79833 3.75002 2.95729 3.75 3.12305V16.8743C3.75005 16.9979 3.78673 17.1187 3.85541 17.2214C3.9241 17.3241 4.02169 17.4042 4.13587 17.4515C4.25005 17.4988 4.37569 17.5112 4.49691 17.4871C4.61812 17.463 4.72947 17.4035 4.81689 17.3162L10 12.1331L15.1819 17.3162C15.2692 17.4039 15.3807 17.4638 15.5021 17.4881C15.6235 17.5125 15.7495 17.5002 15.8639 17.4528C15.9783 17.4055 16.0761 17.3252 16.1449 17.2222C16.2136 17.1192 16.2502 16.9981 16.25 16.8743V3.12305C16.25 2.95729 16.1841 2.79833 16.0669 2.68112C15.9497 2.56392 15.7908 2.49806 15.625 2.49805H4.375Z" fill="white" fill-opacity="0.3"/>
</svg>
