<svg width="20" height="20" viewBox="0 0 20 20" fill="none" xmlns="http://www.w3.org/2000/svg">
<path d="M15 1.66699H5C4.33696 1.66699 3.70108 1.93038 3.23224 2.39923C2.7634 2.86807 2.5 3.50395 2.5 4.16699V16.5003C2.49939 16.782 2.57019 17.0593 2.70579 17.3062C2.84138 17.5531 3.03735 17.7616 3.27538 17.9123C3.51342 18.0629 3.78575 18.1508 4.06694 18.1676C4.34814 18.1845 4.62901 18.1298 4.88334 18.0087C5.08334 17.9087 5.25834 17.8003 5.44167 17.692C5.79427 17.4273 6.22589 17.2893 6.66667 17.3003C7.11001 17.2893 7.54424 17.4272 7.9 17.692C8.51536 18.1209 9.25002 18.3454 10 18.3337C10.7501 18.3459 11.4849 18.1214 12.1 17.692C12.4555 17.4266 12.8899 17.2887 13.3333 17.3003C13.7743 17.2879 14.2064 17.4261 14.5583 17.692C14.7388 17.8046 14.9252 17.9075 15.1167 18.0003C15.3704 18.1212 15.6505 18.1759 15.931 18.1594C16.2115 18.143 16.4833 18.0558 16.7211 17.9062C16.9589 17.7565 17.155 17.5491 17.2912 17.3033C17.4274 17.0575 17.4992 16.7813 17.5 16.5003V4.16699C17.5 3.50395 17.2366 2.86807 16.7678 2.39923C16.2989 1.93038 15.663 1.66699 15 1.66699ZM10 13.3337H6.66667C6.44566 13.3337 6.2337 13.2459 6.07742 13.0896C5.92113 12.9333 5.83334 12.7213 5.83334 12.5003C5.83334 12.2793 5.92113 12.0674 6.07742 11.9111C6.2337 11.7548 6.44566 11.667 6.66667 11.667H10C10.221 11.667 10.433 11.7548 10.5893 11.9111C10.7455 12.0674 10.8333 12.2793 10.8333 12.5003C10.8333 12.7213 10.7455 12.9333 10.5893 13.0896C10.433 13.2459 10.221 13.3337 10 13.3337ZM13.3333 10.0003H6.66667C6.44566 10.0003 6.2337 9.91253 6.07742 9.75625C5.92113 9.59997 5.83334 9.38801 5.83334 9.16699C5.83334 8.94598 5.92113 8.73402 6.07742 8.57774C6.2337 8.42146 6.44566 8.33366 6.66667 8.33366H13.3333C13.5544 8.33366 13.7663 8.42146 13.9226 8.57774C14.0789 8.73402 14.1667 8.94598 14.1667 9.16699C14.1667 9.38801 14.0789 9.59997 13.9226 9.75625C13.7663 9.91253 13.5544 10.0003 13.3333 10.0003ZM13.3333 6.66699H6.66667C6.44566 6.66699 6.2337 6.57919 6.07742 6.42291C5.92113 6.26663 5.83334 6.05467 5.83334 5.83366C5.83334 5.61264 5.92113 5.40068 6.07742 5.2444C6.2337 5.08812 6.44566 5.00033 6.66667 5.00033H13.3333C13.5544 5.00033 13.7663 5.08812 13.9226 5.2444C14.0789 5.40068 14.1667 5.61264 14.1667 5.83366C14.1667 6.05467 14.0789 6.26663 13.9226 6.42291C13.7663 6.57919 13.5544 6.66699 13.3333 6.66699Z" fill="#B130FF"/>
</svg>
