<svg width="145" height="47" viewBox="0 0 145 47" fill="none" xmlns="http://www.w3.org/2000/svg">
<rect x="0.5" y="0.5" width="144" height="46" rx="12" fill="black" fill-opacity="0.16"/>
<rect x="1" y="1" width="143" height="45" rx="11.5" stroke="white" stroke-opacity="0.1"/>
<g clip-path="url(#clip0_4156_17672)">
<rect x="8.5" y="8.5" width="30" height="30" rx="4" fill="url(#paint0_radial_4156_17672)"/>
<rect x="8.5" y="8.5" width="30" height="30" rx="4" fill="url(#paint1_radial_4156_17672)"/>
<rect x="8.5" y="8.5" width="30" height="30" rx="4" fill="url(#paint2_radial_4156_17672)"/>
<rect x="8.33398" y="8.5" width="31" height="30" rx="1" fill="url(#paint3_radial_4156_17672)"/>
<path d="M26.4571 21.6445V24.4394L25.986 24.6434L18.6445 16.8824V25.068L22.3452 28.9464H19.0525L16.334 26.0907V11.7045L16.8043 11.5L26.4571 21.6445ZM29.8637 34.5L30.334 34.2955V19.9093L27.6154 17.0536H24.3424L28.0235 20.932V29.1176L20.682 21.3566L20.2109 21.5606V24.3555L29.8637 34.5Z" fill="#EEEDEE"/>
</g>
<path d="M46.957 31.5L49.0664 19.5117H52.6172L52.3711 21.293H52.3945C52.9648 20.6758 53.6914 20.1758 54.5742 19.793C55.4648 19.4023 56.4453 19.207 57.5156 19.207C59.0469 19.207 60.2031 19.6211 60.9844 20.4492C61.7656 21.2695 61.9883 22.6328 61.6523 24.5391L60.4219 31.5H56.7305L57.9375 24.6328C58.1016 23.7109 57.9922 23.0469 57.6094 22.6406C57.2344 22.2266 56.6094 22.0195 55.7344 22.0195C54.9922 22.0195 54.2852 22.1992 53.6133 22.5586C52.9492 22.918 52.3984 23.3906 51.9609 23.9766L50.6367 31.5H46.957ZM63.2031 25.6406L63.2617 25.3242C63.5898 23.4336 64.5508 21.9297 66.1445 20.8125C67.7461 19.6875 69.6875 19.125 71.9688 19.125C74.2422 19.125 75.9766 19.6875 77.1719 20.8125C78.3672 21.9297 78.8008 23.4336 78.4727 25.3242L78.4141 25.6406C78.0781 27.5469 77.1133 29.0586 75.5195 30.1758C73.9336 31.293 72 31.8516 69.7188 31.8516C67.4453 31.8516 65.707 31.293 64.5039 30.1758C63.3008 29.0586 62.8672 27.5469 63.2031 25.6406ZM67.0469 25.1836L66.9297 25.8047C66.75 26.8516 66.9414 27.668 67.5039 28.2539C68.0664 28.8398 68.9648 29.1328 70.1992 29.1328C71.4336 29.1328 72.4336 28.8398 73.1992 28.2539C73.9648 27.668 74.4414 26.8516 74.6289 25.8047L74.7344 25.1836C74.9219 24.1367 74.7305 23.3242 74.1602 22.7461C73.5977 22.1602 72.7031 21.8672 71.4766 21.8672C70.25 21.8672 69.25 22.1602 68.4766 22.7461C67.7031 23.3242 67.2266 24.1367 67.0469 25.1836ZM79.2617 31.5L82.3906 13.7578H86.0703L84.6992 21.5156C85.3008 20.8516 86.0273 20.3047 86.8789 19.875C87.7383 19.4375 88.7461 19.2188 89.9023 19.2188C91.418 19.2188 92.5469 19.6367 93.2891 20.4727C94.0391 21.3086 94.2539 22.6211 93.9336 24.4102L92.6797 31.5H88.9883L90.1836 24.7383C90.3477 23.793 90.2305 23.1055 89.832 22.6758C89.4336 22.2383 88.8047 22.0195 87.9453 22.0195C87.1562 22.0195 86.4492 22.207 85.8242 22.582C85.1992 22.9492 84.6758 23.4453 84.2539 24.0703L82.9414 31.5H79.2617ZM95.5078 25.6406L95.5664 25.3242C95.8945 23.457 96.8438 21.957 98.4141 20.8242C99.9922 19.6914 101.879 19.125 104.074 19.125C106.27 19.125 107.887 19.6602 108.926 20.7305C109.965 21.8008 110.32 23.2617 109.992 25.1133L109.793 26.3086H97.7227L98.0508 24.2695H106.5L106.523 24.1172C106.656 23.3984 106.504 22.8281 106.066 22.4062C105.629 21.9766 104.797 21.7617 103.57 21.7617C102.32 21.7617 101.328 22.0586 100.594 22.6523C99.8672 23.2383 99.4062 24.0469 99.2109 25.0781L99.1055 25.8047C98.9102 26.8828 99.0859 27.7148 99.6328 28.3008C100.188 28.8867 101.141 29.1797 102.492 29.1797C103.422 29.1797 104.223 29.0352 104.895 28.7461C105.574 28.457 106.156 28.0781 106.641 27.6094L109.043 29.1445C108.449 29.9414 107.551 30.5938 106.348 31.1016C105.152 31.6016 103.73 31.8516 102.082 31.8516C99.6914 31.8516 97.9141 31.2891 96.75 30.1641C95.5859 29.0391 95.1719 27.5312 95.5078 25.6406ZM110.559 27.6211L114.062 27.6328L114.027 27.8555C113.926 28.4336 114.148 28.8477 114.695 29.0977C115.242 29.3477 116.016 29.4727 117.016 29.4727C118.078 29.4727 118.883 29.3672 119.43 29.1562C119.977 28.9453 120.293 28.6133 120.379 28.1602C120.457 27.7539 120.277 27.4531 119.84 27.2578C119.402 27.0625 118.363 26.8438 116.723 26.6016C114.699 26.3438 113.312 25.9258 112.562 25.3477C111.812 24.7695 111.531 23.957 111.719 22.9102C111.922 21.7148 112.656 20.7852 113.922 20.1211C115.195 19.457 116.82 19.125 118.797 19.125C120.789 19.125 122.297 19.4727 123.32 20.168C124.344 20.8633 124.754 21.8125 124.551 23.0156L124.492 23.2852H121L121.059 22.9922C121.145 22.4922 120.965 22.1094 120.52 21.8438C120.082 21.5781 119.344 21.4492 118.305 21.457C117.32 21.457 116.594 21.5547 116.125 21.75C115.656 21.9375 115.383 22.2383 115.305 22.6523C115.242 22.9961 115.441 23.2695 115.902 23.4727C116.371 23.668 117.434 23.8789 119.09 24.1055C121.207 24.3789 122.617 24.8047 123.32 25.3828C124.023 25.9531 124.281 26.7539 124.094 27.7852C123.883 29.0508 123.141 30.0469 121.867 30.7734C120.594 31.4922 118.855 31.8516 116.652 31.8516C114.457 31.8516 112.832 31.5039 111.777 30.8086C110.723 30.1055 110.305 29.1172 110.523 27.8438L110.559 27.6211ZM125.305 31.5L127.414 19.5117H131.129L129.02 31.5H125.305ZM127.742 15.9961C127.844 15.4414 128.113 14.9766 128.551 14.6016C128.988 14.2188 129.551 14.0273 130.238 14.0273C130.934 14.0273 131.43 14.2148 131.727 14.5898C132.031 14.9648 132.137 15.4375 132.043 16.0078C131.941 16.5625 131.672 17.0312 131.234 17.4141C130.797 17.7969 130.234 17.9883 129.547 17.9883C128.859 17.9883 128.359 17.7969 128.047 17.4141C127.742 17.0312 127.641 16.5586 127.742 15.9961Z" fill="white"/>
<defs>
<radialGradient id="paint0_radial_4156_17672" cx="0" cy="0" r="1" gradientUnits="userSpaceOnUse" gradientTransform="translate(23.5 34.3) rotate(-17.4254) scale(12.9231)">
<stop stop-color="#3EB3D8"/>
<stop offset="1" stop-color="#371BA6"/>
</radialGradient>
<radialGradient id="paint1_radial_4156_17672" cx="0" cy="0" r="1" gradientUnits="userSpaceOnUse" gradientTransform="translate(28.3 21.61) rotate(105.865) scale(17.5588)">
<stop stop-color="#9A0DBD"/>
<stop offset="1" stop-opacity="0"/>
</radialGradient>
<radialGradient id="paint2_radial_4156_17672" cx="0" cy="0" r="1" gradientUnits="userSpaceOnUse" gradientTransform="translate(9.13 19.3) rotate(58.4096) scale(19.7578)">
<stop stop-color="#B85959"/>
<stop offset="1" stop-color="#FFFEFE" stop-opacity="0"/>
</radialGradient>
<radialGradient id="paint3_radial_4156_17672" cx="0" cy="0" r="1" gradientUnits="userSpaceOnUse" gradientTransform="translate(33.834 13) rotate(124.046) scale(22.3271 32.1087)">
<stop stop-color="#FEFEFE"/>
<stop offset="0.366385" stop-color="#AA9AE8" stop-opacity="0"/>
</radialGradient>
<clipPath id="clip0_4156_17672">
<rect x="8.5" y="8.5" width="30" height="30" rx="4" fill="white"/>
</clipPath>
</defs>
</svg>
