<svg width="73" height="36" viewBox="0 0 73 36" fill="none" xmlns="http://www.w3.org/2000/svg">
<path d="M0.617188 35.5V0.578125H23.7266V6.67188H7.97656V16.2578H22.2031V22.2344H7.97656V35.5H0.617188ZM42.1719 24.3672V9.29688H49.4141V35.5H42.4531V30.7422H42.1719C41.5781 32.2578 40.6016 33.4922 39.2422 34.4453C37.8828 35.3828 36.2188 35.8438 34.25 35.8281C32.5 35.8281 30.9531 35.4375 29.6094 34.6562C28.2812 33.8594 27.2422 32.7266 26.4922 31.2578C25.7578 29.7891 25.3906 28.0312 25.3906 25.9844V9.29688H32.6328V24.7188C32.6328 26.25 33.0469 27.4688 33.875 28.375C34.7031 29.2656 35.8047 29.7031 37.1797 29.6875C38.0547 29.6875 38.8672 29.4922 39.6172 29.1016C40.3672 28.6953 40.9766 28.0938 41.4453 27.2969C41.9297 26.5 42.1719 25.5234 42.1719 24.3672ZM60.9453 0.578125V35.5H53.7031V0.578125H60.9453ZM72.4766 0.578125V35.5H65.2344V0.578125H72.4766Z" fill="white"/>
<path d="M0.617188 35.5V0.578125H23.7266V6.67188H7.97656V16.2578H22.2031V22.2344H7.97656V35.5H0.617188ZM42.1719 24.3672V9.29688H49.4141V35.5H42.4531V30.7422H42.1719C41.5781 32.2578 40.6016 33.4922 39.2422 34.4453C37.8828 35.3828 36.2188 35.8438 34.25 35.8281C32.5 35.8281 30.9531 35.4375 29.6094 34.6562C28.2812 33.8594 27.2422 32.7266 26.4922 31.2578C25.7578 29.7891 25.3906 28.0312 25.3906 25.9844V9.29688H32.6328V24.7188C32.6328 26.25 33.0469 27.4688 33.875 28.375C34.7031 29.2656 35.8047 29.7031 37.1797 29.6875C38.0547 29.6875 38.8672 29.4922 39.6172 29.1016C40.3672 28.6953 40.9766 28.0938 41.4453 27.2969C41.9297 26.5 42.1719 25.5234 42.1719 24.3672ZM60.9453 0.578125V35.5H53.7031V0.578125H60.9453ZM72.4766 0.578125V35.5H65.2344V0.578125H72.4766Z" fill="url(#paint0_linear_4156_17668)" fill-opacity="0.24"/>
<defs>
<linearGradient id="paint0_linear_4156_17668" x1="50.334" y1="-3.5" x2="2.83399" y2="38.5" gradientUnits="userSpaceOnUse">
<stop stop-color="#009605"/>
<stop offset="0.538462" stop-color="#1DD223"/>
<stop offset="1" stop-color="#A5FFA8"/>
</linearGradient>
</defs>
</svg>
