<svg width="20" height="20" viewBox="0 0 20 20" fill="none" xmlns="http://www.w3.org/2000/svg">
<path d="M17.5 9.02602V16.2487C17.5 16.5802 17.3683 16.8981 17.1339 17.1326C16.8995 17.367 16.5815 17.4987 16.25 17.4987H13.125C12.7935 17.4987 12.4755 17.367 12.2411 17.1326C12.0067 16.8981 11.875 16.5802 11.875 16.2487V13.1237C11.875 12.9579 11.8092 12.7989 11.6919 12.6817C11.5747 12.5645 11.4158 12.4987 11.25 12.4987H8.75C8.58424 12.4987 8.42527 12.5645 8.30806 12.6817C8.19085 12.7989 8.125 12.9579 8.125 13.1237V16.2487C8.125 16.5802 7.9933 16.8981 7.75888 17.1326C7.52446 17.367 7.20652 17.4987 6.875 17.4987H3.75C3.41848 17.4987 3.10054 17.367 2.86612 17.1326C2.6317 16.8981 2.5 16.5802 2.5 16.2487V9.02602C2.49997 8.85301 2.53586 8.68189 2.60538 8.52348C2.67491 8.36506 2.77656 8.2228 2.90391 8.1057L9.15391 2.20883L9.1625 2.20023C9.39261 1.99096 9.69248 1.875 10.0035 1.875C10.3146 1.875 10.6144 1.99096 10.8445 2.20023C10.8472 2.20329 10.8501 2.20616 10.8531 2.20883L17.1031 8.1057C17.2292 8.22342 17.3295 8.36596 17.3978 8.52434C17.4661 8.68273 17.5009 8.85353 17.5 9.02602Z" fill="white" fill-opacity="0.3"/>
</svg>
