<svg width="109" height="58" viewBox="0 0 109 58" fill="none" xmlns="http://www.w3.org/2000/svg">
<g filter="url(#filter0_d_4156_17688)">
<rect x="12.5" y="13.5" width="84" height="30" rx="15" fill="white" fill-opacity="0.05" shape-rendering="crispEdges"/>
<rect x="12.5" y="13.5" width="84" height="30" rx="15" fill="#9B003A" fill-opacity="0.2" shape-rendering="crispEdges"/>
<rect x="13" y="14" width="83" height="29" rx="14.5" stroke="#DD0355" stroke-opacity="0.1" shape-rendering="crispEdges"/>
<g filter="url(#filter1_d_4156_17688)">
<path d="M34.3026 24.3187L28.6211 27.7491L22.9396 24.3187C22.8713 24.2774 22.8145 24.2181 22.7751 24.1467C22.7356 24.0753 22.7148 23.9942 22.7148 23.9117C22.7148 23.8292 22.7356 23.7482 22.7751 23.6768C22.8145 23.6053 22.8713 23.546 22.9396 23.5048L27.9203 20.4971C28.1334 20.3685 28.3751 20.3008 28.6211 20.3008C28.8671 20.3008 29.1088 20.3685 29.3219 20.4971L34.3026 23.5048C34.3709 23.546 34.4277 23.6053 34.4671 23.6768C34.5066 23.7482 34.5274 23.8292 34.5274 23.9117C34.5274 23.9942 34.5066 24.0753 34.4671 24.1467C34.4277 24.2181 34.3709 24.2774 34.3026 24.3187ZM21.4336 26.3927V32.2118C21.433 32.4785 21.4993 32.7408 21.6258 32.9724C21.7523 33.204 21.9346 33.3969 22.1546 33.5319L27.0488 36.4878C27.1171 36.5291 27.1945 36.5508 27.2733 36.5508C27.3521 36.5508 27.4296 36.5291 27.4978 36.488C27.5661 36.4468 27.6228 36.3876 27.6623 36.3162C27.7018 36.2449 27.7226 36.1639 27.7227 36.0815V29.3768L22.1074 25.9863C22.0392 25.9451 21.9617 25.9234 21.8829 25.9234C21.8041 25.9234 21.7267 25.945 21.6584 25.9862C21.5901 26.0274 21.5334 26.0866 21.494 26.1579C21.4545 26.2293 21.4337 26.3102 21.4336 26.3927ZM35.8086 32.2118V26.3927C35.8085 26.3102 35.7877 26.2293 35.7482 26.1579C35.7088 26.0866 35.6521 26.0274 35.5838 25.9862C35.5155 25.945 35.4381 25.9234 35.3593 25.9234C35.2804 25.9234 35.203 25.9451 35.1348 25.9863L29.5195 29.3768V36.0815C29.5196 36.1639 29.5404 36.2449 29.5799 36.3162C29.6193 36.3876 29.6761 36.4468 29.7443 36.488C29.8126 36.5291 29.89 36.5508 29.9689 36.5508C30.0477 36.5508 30.1251 36.5291 30.1934 36.4878L35.0865 33.5319C35.3067 33.397 35.4892 33.2042 35.6159 32.9726C35.7426 32.741 35.809 32.4787 35.8086 32.2118Z" fill="#DD0355"/>
</g>
<path d="M42.8359 24.625V22.8594H52.1172V24.625H48.5234V34.5H46.4375V24.625H42.8359ZM53.2109 34.5V25.7656H55.2656V34.5H53.2109ZM54.2422 24.5391C53.9141 24.5391 53.6328 24.4297 53.3984 24.2109C53.1641 23.9922 53.0469 23.7292 53.0469 23.4219C53.0469 23.1094 53.1641 22.8438 53.3984 22.625C53.6328 22.4062 53.9141 22.2969 54.2422 22.2969C54.5651 22.2969 54.8438 22.4062 55.0781 22.625C55.3125 22.8438 55.4297 23.1068 55.4297 23.4141C55.4297 23.7266 55.3125 23.9922 55.0781 24.2109C54.8438 24.4297 54.5651 24.5391 54.2422 24.5391ZM60.6562 34.6719C59.7812 34.6719 59.026 34.4896 58.3906 34.125C57.7552 33.7552 57.2656 33.2344 56.9219 32.5625C56.5833 31.8906 56.4141 31.099 56.4141 30.1875C56.4141 29.2865 56.5833 28.4974 56.9219 27.8203C57.2604 27.138 57.737 26.6068 58.3516 26.2266C58.9661 25.8464 59.6901 25.6562 60.5234 25.6562C61.0599 25.6562 61.5677 25.7422 62.0469 25.9141C62.5312 26.0859 62.9583 26.3516 63.3281 26.7109C63.7031 27.0703 63.9974 27.5286 64.2109 28.0859C64.4245 28.638 64.5312 29.2969 64.5312 30.0625V30.7031H57.375V29.3203H63.5078L62.5469 29.7266C62.5469 29.2318 62.4714 28.8021 62.3203 28.4375C62.1693 28.0677 61.9453 27.7786 61.6484 27.5703C61.3516 27.362 60.9818 27.2578 60.5391 27.2578C60.0964 27.2578 59.7188 27.362 59.4062 27.5703C59.0938 27.7786 58.8568 28.0599 58.6953 28.4141C58.5339 28.763 58.4531 29.1536 58.4531 29.5859V30.5469C58.4531 31.0781 58.5443 31.5339 58.7266 31.9141C58.9141 32.2891 59.1745 32.5755 59.5078 32.7734C59.8464 32.9714 60.2396 33.0703 60.6875 33.0703C60.9792 33.0703 61.2448 33.0286 61.4844 32.9453C61.7292 32.862 61.9375 32.737 62.1094 32.5703C62.2865 32.3984 62.4219 32.1875 62.5156 31.9375L64.4375 32.1641C64.3125 32.6693 64.0807 33.112 63.7422 33.4922C63.4089 33.8672 62.9792 34.1589 62.4531 34.3672C61.9323 34.5703 61.3333 34.6719 60.6562 34.6719ZM65.6484 34.5V25.7656H67.6406V27.2344H67.7344C67.8906 26.724 68.1641 26.3333 68.5547 26.0625C68.9453 25.7865 69.3906 25.6484 69.8906 25.6484C70 25.6484 70.125 25.6536 70.2656 25.6641C70.4115 25.6745 70.5312 25.6875 70.625 25.7031V27.5938C70.5365 27.5625 70.3984 27.5365 70.2109 27.5156C70.0234 27.4948 69.8438 27.4844 69.6719 27.4844C69.2917 27.4844 68.9531 27.5651 68.6562 27.7266C68.3594 27.888 68.125 28.1094 67.9531 28.3906C67.7865 28.6719 67.7031 29 67.7031 29.375V34.5H65.6484ZM78.9219 34.6562C78.1042 34.6562 77.3776 34.5182 76.7422 34.2422C76.1068 33.9609 75.6042 33.5703 75.2344 33.0703C74.8698 32.5703 74.6797 31.9922 74.6641 31.3359H76.7891C76.8047 31.6536 76.9062 31.9297 77.0938 32.1641C77.2865 32.3932 77.5417 32.5729 77.8594 32.7031C78.1771 32.8281 78.5312 32.8906 78.9219 32.8906C79.3385 32.8906 79.7057 32.8177 80.0234 32.6719C80.3464 32.5208 80.599 32.3177 80.7812 32.0625C80.9635 31.8021 81.0547 31.5026 81.0547 31.1641C81.0547 30.8099 80.9609 30.4974 80.7734 30.2266C80.5911 29.9557 80.3255 29.7448 79.9766 29.5938C79.6276 29.4427 79.2083 29.3672 78.7188 29.3672H77.6797V27.7422H78.7188C79.1146 27.7422 79.4661 27.6719 79.7734 27.5312C80.0807 27.3906 80.3203 27.1953 80.4922 26.9453C80.6641 26.6901 80.75 26.3932 80.75 26.0547C80.75 25.7266 80.6745 25.4401 80.5234 25.1953C80.3776 24.9505 80.1693 24.7604 79.8984 24.625C79.6276 24.4896 79.3099 24.4219 78.9453 24.4219C78.5911 24.4219 78.2604 24.487 77.9531 24.6172C77.651 24.7422 77.4062 24.9219 77.2188 25.1562C77.0365 25.3906 76.9401 25.6719 76.9297 26H74.9062C74.9167 25.349 75.1016 24.776 75.4609 24.2812C75.8255 23.7865 76.3125 23.401 76.9219 23.125C77.5312 22.8438 78.2135 22.7031 78.9688 22.7031C79.7396 22.7031 80.4115 22.849 80.9844 23.1406C81.5625 23.4271 82.0078 23.8151 82.3203 24.3047C82.638 24.7943 82.7969 25.3333 82.7969 25.9219C82.7969 26.5781 82.6042 27.1276 82.2188 27.5703C81.8333 28.013 81.3255 28.3047 80.6953 28.4453V28.5312C81.5078 28.6458 82.1302 28.9479 82.5625 29.4375C83 29.9271 83.2188 30.5365 83.2188 31.2656C83.2188 31.9167 83.0339 32.5 82.6641 33.0156C82.2943 33.526 81.7865 33.9271 81.1406 34.2188C80.4948 34.5104 79.7552 34.6562 78.9219 34.6562Z" fill="#EEEDEE" fill-opacity="0.87"/>
</g>
<defs>
<filter id="filter0_d_4156_17688" x="0.1" y="3.1" width="108.8" height="54.8" filterUnits="userSpaceOnUse" color-interpolation-filters="sRGB">
<feFlood flood-opacity="0" result="BackgroundImageFix"/>
<feColorMatrix in="SourceAlpha" type="matrix" values="0 0 0 0 0 0 0 0 0 0 0 0 0 0 0 0 0 0 127 0" result="hardAlpha"/>
<feOffset dy="2"/>
<feGaussianBlur stdDeviation="6.2"/>
<feComposite in2="hardAlpha" operator="out"/>
<feColorMatrix type="matrix" values="0 0 0 0 0 0 0 0 0 0 0 0 0 0 0 0 0 0 0.48 0"/>
<feBlend mode="normal" in2="BackgroundImageFix" result="effect1_dropShadow_4156_17688"/>
<feBlend mode="normal" in="SourceGraphic" in2="effect1_dropShadow_4156_17688" result="shape"/>
</filter>
<filter id="filter1_d_4156_17688" x="-1.5" y="-1.5" width="60" height="60" filterUnits="userSpaceOnUse" color-interpolation-filters="sRGB">
<feFlood flood-opacity="0" result="BackgroundImageFix"/>
<feColorMatrix in="SourceAlpha" type="matrix" values="0 0 0 0 0 0 0 0 0 0 0 0 0 0 0 0 0 0 127 0" result="hardAlpha"/>
<feOffset/>
<feGaussianBlur stdDeviation="10"/>
<feComposite in2="hardAlpha" operator="out"/>
<feColorMatrix type="matrix" values="0 0 0 0 0.866667 0 0 0 0 0.0117647 0 0 0 0 0.333333 0 0 0 0.7 0"/>
<feBlend mode="normal" in2="BackgroundImageFix" result="effect1_dropShadow_4156_17688"/>
<feBlend mode="normal" in="SourceGraphic" in2="effect1_dropShadow_4156_17688" result="shape"/>
</filter>
</defs>
</svg>
