<svg width="20" height="20" viewBox="0 0 20 20" fill="none" xmlns="http://www.w3.org/2000/svg">
<path d="M12.8488 15.2835C12.9102 15.3778 12.9451 15.487 12.9497 15.5995C12.9543 15.712 12.9284 15.8236 12.8748 15.9226C12.8212 16.0216 12.7418 16.1043 12.6451 16.1619C12.5484 16.2195 12.4379 16.2499 12.3253 16.2499H0.798752C0.68617 16.2499 0.575683 16.2195 0.478963 16.1619C0.382243 16.1043 0.302881 16.0216 0.249263 15.9226C0.195645 15.8236 0.169761 15.712 0.174347 15.5995C0.178932 15.487 0.213817 15.3778 0.275314 15.2835C1.15508 13.9293 2.44914 12.8959 3.96438 12.3374C3.12672 11.7798 2.49076 10.9674 2.15055 10.0203C1.81033 9.07325 1.78393 8.04185 2.07523 7.07862C2.36653 6.1154 2.96008 5.27149 3.7681 4.67169C4.57613 4.07189 5.55572 3.74805 6.56203 3.74805C7.56834 3.74805 8.54794 4.07189 9.35596 4.67169C10.164 5.27149 10.7575 6.1154 11.0488 7.07862C11.3401 8.04185 11.3137 9.07325 10.9735 10.0203C10.6333 10.9674 9.99735 11.7798 9.15969 12.3374C10.6749 12.8959 11.969 13.9293 12.8488 15.2835ZM19.7167 15.2718C18.8367 13.9233 17.5456 12.8943 16.0347 12.3374C17.0236 11.6713 17.7215 10.6534 17.9863 9.49084C18.2511 8.3283 18.063 7.10853 17.4602 6.07981C16.8574 5.0511 15.8852 4.29076 14.7415 3.95357C13.5979 3.61637 12.3687 3.72766 11.3042 4.26479C11.2635 4.28581 11.2279 4.31552 11.2 4.35182C11.172 4.38811 11.1524 4.43011 11.1425 4.47483C11.1326 4.51956 11.1326 4.56592 11.1426 4.61062C11.1526 4.65533 11.1723 4.69729 11.2003 4.73354C11.9919 5.72089 12.4464 6.93576 12.4975 8.20019C12.5485 9.46463 12.1933 10.7122 11.4839 11.7601C11.4381 11.8286 11.4211 11.9124 11.4368 11.9933C11.4524 12.0742 11.4994 12.1457 11.5675 12.1921C12.4924 12.8377 13.2842 13.6554 13.8995 14.6007C14.1477 14.9808 14.2491 15.4381 14.1847 15.8874C14.1774 15.9321 14.18 15.9779 14.1922 16.0215C14.2044 16.0651 14.2259 16.1055 14.2552 16.14C14.2846 16.1745 14.3211 16.2022 14.3622 16.2212C14.4033 16.2401 14.448 16.25 14.4933 16.2499H19.2042C19.3418 16.25 19.4756 16.2046 19.5848 16.1208C19.694 16.0371 19.7725 15.9196 19.8081 15.7867C19.8299 15.6992 19.8329 15.6082 19.8172 15.5195C19.8014 15.4308 19.7672 15.3464 19.7167 15.2718Z" fill="white" fill-opacity="0.3"/>
</svg>
