<svg width="12" height="14" viewBox="0 0 12 14" fill="none" xmlns="http://www.w3.org/2000/svg">
<path d="M6 0.5C2.63562 0.5 0 2.0375 0 4V10C0 11.9625 2.63562 13.5 6 13.5C9.36438 13.5 12 11.9625 12 10V4C12 2.0375 9.36438 0.5 6 0.5ZM11 7C11 7.60125 10.5075 8.21438 9.64937 8.6825C8.68312 9.20938 7.38688 9.5 6 9.5C4.61312 9.5 3.31687 9.20938 2.35063 8.6825C1.4925 8.21438 1 7.60125 1 7V5.96C2.06625 6.8975 3.88937 7.5 6 7.5C8.11063 7.5 9.93375 6.895 11 5.96V7ZM9.64937 11.6825C8.68312 12.2094 7.38688 12.5 6 12.5C4.61312 12.5 3.31687 12.2094 2.35063 11.6825C1.4925 11.2144 1 10.6012 1 10V8.96C2.06625 9.8975 3.88937 10.5 6 10.5C8.11063 10.5 9.93375 9.895 11 8.96V10C11 10.6012 10.5075 11.2144 9.64937 11.6825Z" fill="white" fill-opacity="0.3"/>
</svg>
