<svg width="12" height="14" viewBox="0 0 12 14" fill="none" xmlns="http://www.w3.org/2000/svg">
<path d="M11.8618 9.99625C11.5149 9.39875 10.9993 7.70813 10.9993 5.5C10.9993 4.17392 10.4725 2.90215 9.53481 1.96447C8.59713 1.02678 7.32536 0.5 5.99928 0.5C4.67319 0.5 3.40142 1.02678 2.46374 1.96447C1.52606 2.90215 0.999276 4.17392 0.999276 5.5C0.999276 7.70875 0.483026 9.39875 0.136151 9.99625C0.0475697 10.1482 0.000609559 10.3207 5.89435e-06 10.4966C-0.000597771 10.6724 0.0451765 10.8453 0.132712 10.9978C0.220248 11.1503 0.34645 11.277 0.498591 11.3652C0.650732 11.4534 0.823433 11.4999 0.999276 11.5H3.5499C3.66526 12.0645 3.97204 12.5718 4.41836 12.9361C4.86468 13.3004 5.42314 13.4994 5.99928 13.4994C6.57542 13.4994 7.13387 13.3004 7.58019 12.9361C8.02651 12.5718 8.33329 12.0645 8.44865 11.5H10.9993C11.1751 11.4998 11.3477 11.4532 11.4997 11.365C11.6518 11.2768 11.7779 11.15 11.8654 10.9975C11.9528 10.845 11.9986 10.6722 11.9979 10.4964C11.9973 10.3206 11.9503 10.1481 11.8618 9.99625ZM5.99928 12.5C5.68916 12.4999 5.3867 12.4037 5.13352 12.2246C4.88035 12.0455 4.6889 11.7924 4.58553 11.5H7.41303C7.30965 11.7924 7.11821 12.0455 6.86503 12.2246C6.61185 12.4037 6.30939 12.4999 5.99928 12.5Z" fill="white" fill-opacity="0.3"/>
</svg>
