<svg width="20" height="20" viewBox="0 0 20 20" fill="none" xmlns="http://www.w3.org/2000/svg">
<path d="M6.83754 4.41341C6.66142 4.23729 6.56248 3.99842 6.56248 3.74935C6.56248 3.50028 6.66142 3.26141 6.83754 3.08529C7.01366 2.90917 7.25253 2.81022 7.5016 2.81022C7.75068 2.81022 7.98955 2.90917 8.16567 3.08529L14.4157 9.33529C14.5031 9.42238 14.5724 9.52588 14.6197 9.63983C14.667 9.75379 14.6914 9.87596 14.6914 9.99935C14.6914 10.1227 14.667 10.2449 14.6197 10.3589C14.5724 10.4728 14.5031 10.5763 14.4157 10.6634L8.16567 16.9134C7.98955 17.0895 7.75068 17.1885 7.50161 17.1885C7.25253 17.1885 7.01366 17.0895 6.83754 16.9134C6.66142 16.7373 6.56248 16.4984 6.56248 16.2494C6.56248 16.0003 6.66142 15.7614 6.83754 15.5853L12.4227 10.0001L6.83754 4.41341Z" fill="#EEEDEE"/>
</svg>
