<svg width="24" height="24" viewBox="0 0 24 24" fill="none" xmlns="http://www.w3.org/2000/svg">
<path d="M10.1243 12.7496C10.1243 13.0463 10.0363 13.3363 9.87152 13.5829C9.7067 13.8296 9.47243 14.0219 9.19834 14.1354C8.92425 14.2489 8.62265 14.2786 8.33168 14.2208C8.04071 14.1629 7.77344 14.02 7.56366 13.8102C7.35388 13.6005 7.21102 13.3332 7.15314 13.0422C7.09526 12.7513 7.12497 12.4497 7.2385 12.1756C7.35203 11.9015 7.54429 11.6672 7.79096 11.5024C8.03764 11.3376 8.32764 11.2496 8.62432 11.2496C9.02214 11.2496 9.40367 11.4076 9.68498 11.6889C9.96628 11.9702 10.1243 12.3518 10.1243 12.7496ZM15.3743 11.2496C15.0776 11.2496 14.7876 11.3376 14.541 11.5024C14.2943 11.6672 14.102 11.9015 13.9885 12.1756C13.875 12.4497 13.8453 12.7513 13.9031 13.0422C13.961 13.3332 14.1039 13.6005 14.3137 13.8102C14.5234 14.02 14.7907 14.1629 15.0817 14.2208C15.3727 14.2786 15.6743 14.2489 15.9483 14.1354C16.2224 14.0219 16.4567 13.8296 16.6215 13.5829C16.7863 13.3363 16.8743 13.0463 16.8743 12.7496C16.8743 12.3518 16.7163 11.9702 16.435 11.6889C16.1537 11.4076 15.7721 11.2496 15.3743 11.2496ZM22.5059 18.4271L16.2246 21.2124C15.989 21.3172 15.7344 21.3727 15.4766 21.3754C15.2187 21.3781 14.963 21.3279 14.7253 21.2281C14.4875 21.1282 14.2727 20.9807 14.0941 20.7947C13.9155 20.6087 13.7769 20.3881 13.6868 20.1465L12.8862 17.978C12.5928 17.9912 12.2984 18.0005 12.0003 18.0005C11.7021 18.0005 11.4078 17.9912 11.1143 17.978L10.3118 20.1465C10.2213 20.3879 10.0824 20.6082 9.90362 20.794C9.72487 20.9798 9.51005 21.1271 9.27233 21.227C9.03461 21.3268 8.77901 21.377 8.52119 21.3745C8.26338 21.372 8.0088 21.3168 7.77307 21.2124L1.49182 18.4271C1.08697 18.2492 0.758332 17.9335 0.564356 17.5361C0.37038 17.1387 0.323638 16.6854 0.432441 16.2568L3.20088 5.34334C3.29123 4.98878 3.48334 4.66841 3.75354 4.4217C4.02374 4.17499 4.36021 4.01272 4.7215 3.9549L8.10213 3.39896C8.56739 3.32455 9.04369 3.42573 9.43853 3.68283C9.83337 3.93994 10.1186 4.33462 10.2387 4.79021L10.6521 6.4224C11.0965 6.39146 11.5446 6.37459 11.9993 6.37459C12.454 6.37459 12.9021 6.39146 13.3465 6.4224L13.7599 4.79021C13.8799 4.33451 14.165 3.93969 14.5599 3.68256C14.9548 3.42542 15.4312 3.32434 15.8965 3.39896L19.2771 3.9549C19.6384 4.01272 19.9749 4.17499 20.2451 4.4217C20.5153 4.66841 20.7074 4.98878 20.7978 5.34334L23.5662 16.254C23.6757 16.6831 23.6292 17.1371 23.435 17.5352C23.2408 17.9332 22.9115 18.2493 22.5059 18.4271ZM21.3068 16.4996L18.6771 6.13646L15.8581 5.67334L15.5918 6.72053C15.8637 6.7749 16.1337 6.83303 16.399 6.90053C16.5444 6.93452 16.6816 6.99714 16.8026 7.08472C16.9236 7.1723 17.0259 7.28309 17.1036 7.41063C17.1813 7.53817 17.2329 7.67991 17.2552 7.82758C17.2776 7.97525 17.2703 8.12589 17.2339 8.27072C17.1974 8.41555 17.1324 8.55167 17.0428 8.67113C16.9532 8.7906 16.8407 8.89103 16.7118 8.96655C16.583 9.04208 16.4404 9.09119 16.2923 9.11103C16.1443 9.13086 15.9938 9.12103 15.8496 9.08209C14.5899 8.77199 13.2967 8.61833 11.9993 8.62459C10.702 8.61833 9.40877 8.77199 8.149 9.08209C7.8617 9.14925 7.55952 9.10086 7.30756 8.94734C7.0556 8.79382 6.87403 8.54746 6.80198 8.26135C6.72993 7.97524 6.77316 7.67227 6.92236 7.41773C7.07156 7.16319 7.31479 6.97745 7.59963 6.90053C7.86494 6.83303 8.13494 6.7749 8.40682 6.72053L8.1415 5.67334L5.3215 6.13646L2.69182 16.4996L8.33744 19.0027L8.80619 17.7305C8.3965 17.6593 7.99338 17.5758 7.59869 17.4765C7.45539 17.4404 7.32059 17.3764 7.202 17.2883C7.08341 17.2001 6.98334 17.0895 6.90752 16.9626C6.75438 16.7064 6.70928 16.3999 6.78213 16.1105C6.85498 15.8211 7.03982 15.5725 7.29598 15.4193C7.55215 15.2662 7.85865 15.2211 8.14807 15.294C9.40822 15.6035 10.7017 15.7565 11.9993 15.7496C13.2967 15.7558 14.5899 15.6022 15.8496 15.2921C16.139 15.2192 16.4456 15.2643 16.7017 15.4175C16.9579 15.5706 17.1427 15.8192 17.2156 16.1087C17.2884 16.3981 17.2433 16.7046 17.0902 16.9607C16.937 17.2169 16.6884 17.4017 16.399 17.4746C16.0043 17.574 15.6012 17.6574 15.1915 17.7287L15.6603 19.0008L21.3068 16.4996Z" fill="white" fill-opacity="0.3"/>
</svg>
