<svg width="12" height="7" viewBox="0 0 12 7" fill="none" xmlns="http://www.w3.org/2000/svg">
<path d="M11.5326 1.52927L6.53255 6.52927C6.46287 6.59919 6.38008 6.65467 6.28892 6.69252C6.19775 6.73038 6.10001 6.74986 6.0013 6.74986C5.90259 6.74986 5.80485 6.73038 5.71369 6.69252C5.62252 6.65467 5.53973 6.59919 5.47005 6.52927L0.470051 1.52927C0.329155 1.38837 0.25 1.19728 0.25 0.99802C0.25 0.798762 0.329155 0.607666 0.470051 0.46677C0.610947 0.325873 0.802044 0.246719 1.0013 0.246719C1.20056 0.246719 1.39165 0.325873 1.53255 0.46677L6.00193 4.93614L10.4713 0.466145C10.6122 0.325249 10.8033 0.246094 11.0026 0.246094C11.2018 0.246094 11.3929 0.325249 11.5338 0.466145C11.6747 0.607041 11.7539 0.798138 11.7539 0.997395C11.7539 1.19665 11.6747 1.38775 11.5338 1.52865L11.5326 1.52927Z" fill="#EEEDEE" fill-opacity="0.52"/>
</svg>
