<svg width="21" height="20" viewBox="0 0 21 20" fill="none" xmlns="http://www.w3.org/2000/svg">
<path d="M16.2089 5.49844H15.1868V7.5736H16.2089C16.4562 7.5736 16.6574 7.77474 16.6574 8.02197V12.8315C16.6574 13.0787 16.4562 13.2798 16.2089 13.2798H13.6951C12.3033 13.2798 11.171 14.4119 11.171 15.8034C11.171 16.0506 10.9698 16.2517 10.7225 16.2517H4.59056C4.34329 16.2517 4.14209 16.0506 4.14209 15.8034V11.1452C4.14209 10.8979 4.34326 10.6968 4.59056 10.6968H8.56455C9.95638 10.6968 11.0887 9.56478 11.0887 8.17331V8.022C11.0887 7.77477 11.2899 7.57363 11.5372 7.57363H14.2102V4.70384L16.529 3.72015C16.915 3.55628 16.9187 2.98649 16.529 2.82113L13.9146 1.71204C13.5973 1.57565 13.2321 1.81725 13.2337 2.16266V4.37884V4.38369V5.49844H11.5372C10.1454 5.49844 9.01302 6.6305 9.01302 8.02197V8.17327C9.01302 8.42051 8.81185 8.62165 8.56455 8.62165H4.59056C3.19873 8.62165 2.06641 9.75371 2.06641 11.1452V15.8034C2.06641 17.1949 3.19873 18.3269 4.59056 18.3269H10.7224C12.1143 18.3269 13.2466 17.1949 13.2466 15.8034C13.2466 15.5562 13.4478 15.355 13.6951 15.355H16.2089C17.6007 15.355 18.733 14.223 18.733 12.8315V8.02197C18.7331 6.6305 17.6007 5.49844 16.2089 5.49844Z" fill="#EEEDEE" fill-opacity="0.3"/>
</svg>
