<svg width="21" height="20" viewBox="0 0 21 20" fill="none" xmlns="http://www.w3.org/2000/svg">
<path d="M19.0904 8.37544C19.073 8.28743 19.0369 8.2042 18.9844 8.1314C18.932 8.0586 18.8645 7.99795 18.7865 7.95357L16.4561 6.62544L16.4467 3.99888C16.4464 3.90842 16.4265 3.8191 16.3883 3.73709C16.3501 3.65508 16.2946 3.58234 16.2256 3.52388C15.3802 2.8088 14.4067 2.2608 13.3568 1.90903C13.2742 1.88105 13.1865 1.87069 13.0996 1.87863C13.0127 1.88657 12.9284 1.91263 12.8522 1.95513L10.5014 3.26919L8.14824 1.95278C8.07196 1.91005 7.98755 1.88379 7.90048 1.87572C7.81341 1.86764 7.72562 1.87793 7.64278 1.90591C6.59353 2.25994 5.62109 2.81005 4.77715 3.527C4.70822 3.58538 4.65276 3.658 4.61459 3.73986C4.57642 3.82173 4.55645 3.9109 4.55606 4.00122L4.54434 6.63013L2.21387 7.95825C2.1359 8.00264 2.0684 8.06329 2.01596 8.13609C1.96352 8.20888 1.92737 8.29212 1.90996 8.38013C1.69668 9.45191 1.69668 10.5552 1.90996 11.627C1.92737 11.715 1.96352 11.7982 2.01596 11.871C2.0684 11.9438 2.1359 12.0045 2.21387 12.0489L4.54434 13.377L4.55371 16.0043C4.554 16.0948 4.57391 16.1841 4.61208 16.2661C4.65026 16.3481 4.70578 16.4209 4.77481 16.4793C5.62017 17.1944 6.59368 17.7424 7.64356 18.0942C7.72623 18.1222 7.81386 18.1325 7.90078 18.1246C7.98771 18.1167 8.072 18.0906 8.14824 18.0481L10.5014 16.7301L12.8545 18.0465C12.9476 18.0984 13.0526 18.1253 13.1592 18.1247C13.2274 18.1246 13.2952 18.1136 13.36 18.0918C14.4089 17.738 15.3813 17.1884 16.2256 16.4723C16.2945 16.4139 16.35 16.3413 16.3881 16.2595C16.4263 16.1776 16.4463 16.0884 16.4467 15.9981L16.4584 13.3692L18.7889 12.0411C18.8668 11.9967 18.9343 11.936 18.9868 11.8632C19.0392 11.7904 19.0754 11.7072 19.0928 11.6192C19.3049 10.5483 19.3041 9.44606 19.0904 8.37544ZM10.5014 13.1247C9.8833 13.1247 9.27912 12.9414 8.76521 12.598C8.25131 12.2546 7.85077 11.7666 7.61425 11.1955C7.37772 10.6245 7.31584 9.99619 7.43641 9.39C7.55699 8.78381 7.85462 8.22699 8.29166 7.78995C8.7287 7.35291 9.28552 7.05528 9.89171 6.9347C10.4979 6.81413 11.1262 6.87601 11.6973 7.11254C12.2683 7.34906 12.7563 7.7496 13.0997 8.2635C13.4431 8.77741 13.6264 9.38159 13.6264 9.99966C13.6264 10.8285 13.2971 11.6233 12.7111 12.2094C12.125 12.7954 11.3302 13.1247 10.5014 13.1247Z" fill="white" fill-opacity="0.3"/>
</svg>
