<svg width="66" height="10" viewBox="0 0 66 10" fill="none" xmlns="http://www.w3.org/2000/svg">
<path d="M62.9146 9.58429V0.891602H65.5594V9.58429H62.9146Z" fill="#EEEDEE"/>
<path d="M51.2305 7.28614L51.2007 6.80255H53.541L53.5828 7.04136C53.6505 7.42743 53.9072 7.69809 54.353 7.85331C54.7988 8.00854 55.5331 8.08615 56.556 8.08615C57.5431 8.08615 58.2376 8.00655 58.6396 7.84734C59.0456 7.68415 59.2486 7.46127 59.2486 7.17867C59.2486 6.93986 59.0376 6.76076 58.6157 6.64135C58.1938 6.52195 57.2485 6.37866 55.7799 6.21149C54.1321 6.00452 52.9898 5.68014 52.3529 5.23834C51.7161 4.79654 51.3977 4.20151 51.3977 3.45324C51.3977 2.58556 51.8017 1.91291 52.6097 1.43529C53.4176 0.953691 54.6216 0.712891 56.2217 0.712891C57.8695 0.712891 59.1133 0.92384 59.9531 1.34574C60.7929 1.76365 61.2486 2.39849 61.3203 3.25025L61.3441 3.5607H59.0337L58.9978 3.41144C58.9501 3.14079 58.7411 2.91591 58.371 2.73681C58.0008 2.55372 57.2983 2.46217 56.2635 2.46217C55.3878 2.46217 54.7729 2.53382 54.4186 2.6771C54.0684 2.82039 53.8933 3.00945 53.8933 3.24428C53.8933 3.43931 54.0883 3.60249 54.4784 3.73384C54.8724 3.86518 55.8296 4.01444 57.35 4.18161C58.958 4.3846 60.0904 4.66122 60.7471 5.01147C61.4038 5.36173 61.7322 5.96671 61.7322 6.82643C61.7322 7.76575 61.3004 8.49014 60.4367 8.9996C59.5769 9.50906 58.3013 9.76379 56.6097 9.76379C54.9142 9.76379 53.6067 9.5608 52.6873 9.15483C51.7718 8.74885 51.2863 8.12595 51.2305 7.28614Z" fill="#EEEDEE"/>
<path d="M41.5049 9.58429V0.891602H50.2871V2.8797H43.9407V4.36629H49.7199V6.06184H43.9407V7.67978H50.3946V9.58429H41.5049Z" fill="#EEEDEE"/>
<path d="M29.314 9.58429V0.891602H31.923V4.0021H36.8663V0.891602H39.4753V9.58429H36.8663V6.18124H31.923V9.58429H29.314Z" fill="#EEEDEE"/>
<path d="M11.1465 5.13088V5.2264C11.1465 3.73782 11.7535 2.61342 12.9674 1.85321C14.1814 1.093 15.6839 0.712891 17.475 0.712891C19.262 0.712891 20.7665 1.093 21.9885 1.85321C23.2104 2.61342 23.8213 3.73782 23.8213 5.2264V5.13088C23.8213 6.67916 23.2104 7.83938 21.9885 8.61153C20.7665 9.37971 19.262 9.76379 17.475 9.76379C15.6879 9.76379 14.1853 9.37971 12.9674 8.61153C11.7535 7.83938 11.1465 6.67916 11.1465 5.13088ZM13.8749 5.1667C13.8749 6.11 14.2052 6.82046 14.866 7.29808C15.5306 7.77172 16.4043 8.01451 17.4869 8.02645C18.5615 8.04237 19.4312 7.80555 20.0959 7.31599C20.7606 6.82643 21.0929 6.11398 21.0929 5.17864V5.2264C21.0929 4.33484 20.7606 3.66419 20.0959 3.21443C19.4352 2.76069 18.5655 2.52586 17.4869 2.50994C16.3963 2.498 15.5207 2.72487 14.86 3.19055C14.2033 3.65622 13.8749 4.33285 13.8749 5.22043V5.1667Z" fill="#EEEDEE"/>
<path d="M0.0834961 9.58429V0.891602H2.60891L7.409 6.16333C7.4687 6.22304 7.51646 6.26881 7.55228 6.30065C7.59208 6.33249 7.62591 6.36433 7.65378 6.39617H7.68363C7.67567 6.30861 7.6697 6.23896 7.66572 6.18721C7.66572 6.13547 7.66572 6.06582 7.66572 5.97826V0.891602H9.86277V9.58429H7.41497L2.56712 4.24091C2.50344 4.17325 2.44971 4.12151 2.40592 4.08569C2.36612 4.04588 2.32831 4.0021 2.29249 3.95434H2.26861C2.27259 3.99812 2.27458 4.0419 2.27458 4.08569C2.27856 4.12549 2.28055 4.16131 2.28055 4.19315L2.29249 9.58429H0.0834961Z" fill="#EEEDEE"/>
</svg>
