<svg width="11" height="14" viewBox="0 0 11 14" fill="none" xmlns="http://www.w3.org/2000/svg">
<path d="M9.85487 3.86302L5.59375 6.43584L1.33263 3.86302C1.28138 3.8321 1.23881 3.78762 1.20922 3.73405C1.17962 3.68047 1.16404 3.61969 1.16404 3.55782C1.16404 3.49595 1.17962 3.43516 1.20922 3.38159C1.23881 3.32801 1.28138 3.28353 1.33263 3.25262L5.06817 0.99688C5.22796 0.900401 5.40923 0.849609 5.59375 0.849609C5.77827 0.849609 5.95954 0.900401 6.11934 0.99688L9.85487 3.25262C9.90612 3.28353 9.94869 3.32801 9.97828 3.38159C10.0079 3.43516 10.0235 3.49595 10.0235 3.55782C10.0235 3.61969 10.0079 3.68047 9.97828 3.73405C9.94869 3.78762 9.90612 3.8321 9.85487 3.86302ZM0.203128 5.41852V9.7829C0.202712 9.98294 0.252416 10.1796 0.347291 10.3533C0.442165 10.527 0.578898 10.6717 0.743874 10.7729L4.41455 12.9899C4.46574 13.0208 4.52381 13.0371 4.58292 13.0371C4.64203 13.0371 4.70011 13.0209 4.75132 12.99C4.80252 12.9591 4.84506 12.9147 4.87466 12.8612C4.90425 12.8077 4.91986 12.747 4.91992 12.6851V7.65664L0.708498 5.11376C0.657306 5.08285 0.599239 5.06657 0.540128 5.06656C0.481016 5.06654 0.422941 5.08279 0.371734 5.11367C0.320527 5.14455 0.27799 5.18897 0.248395 5.24248C0.2188 5.29599 0.203188 5.3567 0.203128 5.41852ZM10.9844 9.7829V5.41852C10.9843 5.3567 10.9687 5.29599 10.9391 5.24248C10.9095 5.18897 10.867 5.14455 10.8158 5.11367C10.7646 5.08279 10.7065 5.06654 10.6474 5.06656C10.5883 5.06657 10.5302 5.08285 10.479 5.11376L6.26758 7.65664V12.6851C6.26764 12.747 6.28325 12.8077 6.31285 12.8612C6.34244 12.9147 6.38498 12.9591 6.43618 12.99C6.48739 13.0209 6.54547 13.0371 6.60458 13.0371C6.66369 13.0371 6.72176 13.0208 6.77295 12.9899L10.4428 10.7729C10.6079 10.6718 10.7448 10.5272 10.8398 10.3534C10.9349 10.1797 10.9847 9.98302 10.9844 9.7829Z" fill="#FF8126"/>
</svg>
