<svg width="21" height="20" viewBox="0 0 21 20" fill="none" xmlns="http://www.w3.org/2000/svg">
<path d="M4.875 2.49805C4.70924 2.49806 4.55028 2.56392 4.43308 2.68112C4.31587 2.79833 4.25002 2.95729 4.25 3.12305V16.8743C4.25005 16.9979 4.28673 17.1187 4.35541 17.2214C4.4241 17.3241 4.52169 17.4042 4.63587 17.4515C4.75005 17.4988 4.87569 17.5112 4.99691 17.4871C5.11812 17.463 5.22947 17.4035 5.31689 17.3162L10.5 12.1331L15.6819 17.3162C15.7692 17.4039 15.8807 17.4638 16.0021 17.4881C16.1235 17.5125 16.2495 17.5002 16.3639 17.4528C16.4783 17.4055 16.5761 17.3252 16.6449 17.2222C16.7136 17.1192 16.7502 16.9981 16.75 16.8743V3.12305C16.75 2.95729 16.6841 2.79833 16.5669 2.68112C16.4497 2.56392 16.2908 2.49806 16.125 2.49805H4.875Z" fill="#B130FF"/>
</svg>
