<svg width="371" height="28" viewBox="0 0 371 28" fill="none" xmlns="http://www.w3.org/2000/svg">
<path d="M0.294434 14.8955V0.695312H9.86963V15.311C9.86963 17.3826 10.5802 18.8641 12.0015 19.7554C13.4227 20.6346 15.2594 21.0742 17.5117 21.0742C19.752 21.0742 21.5225 20.6346 22.8232 19.7554C24.124 18.8761 24.7744 17.3947 24.7744 15.311V0.695312H34.3857V14.8955C34.3978 19.0267 32.9344 22.1642 29.9956 24.3081C27.0568 26.4399 22.9798 27.5059 17.7646 27.5059C12.4893 27.5059 8.2557 26.464 5.06396 24.3804C1.88428 22.2847 0.294434 19.123 0.294434 14.8955ZM39.0107 27V0.695312H48.333L61.9551 14.1548C62.1237 14.3354 62.2863 14.5101 62.4429 14.6787C62.5994 14.8473 62.7259 15.016 62.8223 15.1846H62.9487C62.9006 14.8835 62.8644 14.6305 62.8403 14.4258C62.8283 14.221 62.8223 13.9681 62.8223 13.667V0.695312H70.8257V27H61.7744L47.9717 13.2334C47.8031 13.0527 47.6284 12.8781 47.4478 12.7095C47.2671 12.5409 47.1226 12.3421 47.0142 12.1133H46.9058C46.9419 12.318 46.966 12.4867 46.978 12.6191C46.9901 12.7396 46.9961 12.8721 46.9961 13.0166L47.0322 27H39.0107ZM75.541 27V0.695312H93.1377C97.7747 0.695312 101.569 1.79736 104.52 4.00146C107.482 6.20557 108.964 9.52376 108.964 13.9561V13.4863C108.964 17.8584 107.47 21.2067 104.483 23.5312C101.496 25.8438 97.7145 27 93.1377 27H75.541ZM84.8452 20.4961H92.0176C93.9928 20.4961 95.6971 19.9722 97.1304 18.9243C98.5757 17.8765 99.2983 16.1963 99.2983 13.8838V13.7212C99.2983 11.4689 98.6118 9.86702 97.2388 8.91553C95.8657 7.96403 94.1253 7.48828 92.0176 7.48828H84.8452V20.4961ZM111.891 27V0.695312H140.634V8.06641H120.888V10.7041H138.737V17.0093H120.888V19.936H140.996V27H111.891ZM144.808 27V0.695312H165.855C169.516 0.695312 172.365 1.48421 174.4 3.06201C176.436 4.63981 177.454 6.83187 177.454 9.63818C177.454 12.6131 176.406 14.9437 174.31 16.6299C172.214 18.304 169.348 19.1411 165.71 19.1411H154.419V27H144.808ZM154.419 13.1431H163.271C164.825 13.1431 165.951 12.8901 166.65 12.3843C167.361 11.8664 167.716 11.1618 167.716 10.2705C167.716 9.36719 167.361 8.65055 166.65 8.12061C165.951 7.59066 164.825 7.32568 163.271 7.32568H154.419V13.1431ZM168.854 27L161.447 16.1602L170.408 14.8052L179.622 27H168.854ZM180.001 13.396V14.0103C180.001 9.34912 181.916 5.88037 185.746 3.604C189.576 1.32764 194.316 0.189453 199.964 0.189453C205.384 0.189453 209.552 0.948242 212.466 2.46582C215.381 3.9834 217.043 6.26579 217.453 9.31299L217.507 10.0356H208.546L208.492 9.76465C208.118 8.86133 207.221 8.18685 205.8 7.74121C204.379 7.29557 202.307 7.07275 199.585 7.07275C196.839 7.07275 194.556 7.59066 192.738 8.62646C190.931 9.65023 190.028 11.2461 190.028 13.4141V14.1187C190.028 16.4191 190.925 18.1414 192.72 19.2856C194.526 20.4299 196.923 21.002 199.91 21.002C202.271 21.002 204.18 20.8755 205.637 20.6226C207.107 20.3576 208.233 20.0926 209.016 19.8276V18.0752H199.621V12.2939L218.067 12.2759V22.9531C216.658 24.0612 214.466 25.097 211.491 26.0605C208.528 27.0241 204.613 27.5059 199.748 27.5059C194.111 27.5059 189.408 26.3617 185.638 24.0732C181.88 21.7848 180.001 18.2257 180.001 13.396ZM220.831 27V0.695312H241.878C245.54 0.695312 248.388 1.48421 250.424 3.06201C252.459 4.63981 253.477 6.83187 253.477 9.63818C253.477 12.6131 252.429 14.9437 250.333 16.6299C248.238 18.304 245.371 19.1411 241.734 19.1411H230.442V27H220.831ZM230.442 13.1431H239.295C240.849 13.1431 241.975 12.8901 242.673 12.3843C243.384 11.8664 243.739 11.1618 243.739 10.2705C243.739 9.36719 243.384 8.65055 242.673 8.12061C241.975 7.59066 240.849 7.32568 239.295 7.32568H230.442V13.1431ZM244.877 27L237.47 16.1602L246.431 14.8052L255.645 27H244.877ZM256.024 13.396V14.0103C256.024 9.36117 257.921 5.89844 261.715 3.62207C265.521 1.33366 270.255 0.189453 275.916 0.189453C281.54 0.189453 286.268 1.33366 290.098 3.62207C293.928 5.89844 295.843 9.36117 295.843 14.0103V13.396C295.843 18.1896 293.928 21.7427 290.098 24.0552C286.268 26.3556 281.54 27.5059 275.916 27.5059C270.255 27.5059 265.521 26.3556 261.715 24.0552C257.921 21.7427 256.024 18.1896 256.024 13.396ZM266.105 14.1548C266.105 16.5155 266.991 18.2619 268.761 19.394C270.532 20.5142 272.923 21.0983 275.934 21.1465C278.909 21.1826 281.293 20.6165 283.088 19.4482C284.882 18.2799 285.78 16.5275 285.78 14.1909V13.3418C285.78 11.1257 284.882 9.48763 283.088 8.42773C281.293 7.35579 278.909 6.80176 275.934 6.76562C272.91 6.72949 270.514 7.26546 268.743 8.37354C266.985 9.46956 266.105 11.1196 266.105 13.3237V14.1548ZM298.679 14.8955V0.695312H308.254V15.311C308.254 17.3826 308.965 18.8641 310.386 19.7554C311.807 20.6346 313.644 21.0742 315.896 21.0742C318.137 21.0742 319.907 20.6346 321.208 19.7554C322.509 18.8761 323.159 17.3947 323.159 15.311V0.695312H332.771V14.8955C332.783 19.0267 331.319 22.1642 328.38 24.3081C325.442 26.4399 321.365 27.5059 316.149 27.5059C310.874 27.5059 306.64 26.464 303.449 24.3804C300.269 22.2847 298.679 19.123 298.679 14.8955ZM337.396 27V0.695312H354.992C359.629 0.695312 363.423 1.79736 366.374 4.00146C369.337 6.20557 370.818 9.52376 370.818 13.9561V13.4863C370.818 17.8584 369.325 21.2067 366.338 23.5312C363.351 25.8438 359.569 27 354.992 27H337.396ZM346.7 20.4961H353.872C355.847 20.4961 357.552 19.9722 358.985 18.9243C360.43 17.8765 361.153 16.1963 361.153 13.8838V13.7212C361.153 11.4689 360.466 9.86702 359.093 8.91553C357.72 7.96403 355.98 7.48828 353.872 7.48828H346.7V20.4961Z" fill="#EEEDEE"/>
</svg>
