<svg width="204" height="80" viewBox="0 0 204 80" fill="none" xmlns="http://www.w3.org/2000/svg">
<g filter="url(#filter0_dd_5372_11733)">
<path d="M38.5663 37.6426V42.5033L37.7023 42.8582L24.2376 29.3608V43.5965L31.0249 50.3416H24.986L20 45.3751V20.3556L20.8626 20L38.5663 37.6426ZM44.8143 60L45.6769 59.6444V34.6249L40.6909 29.6584H34.6879L41.4393 36.4035V50.6392L27.9745 37.1418L27.1105 37.4967V42.3574L44.8143 60Z" fill="#B130FF"/>
<path d="M147.021 46.5502V34.1321H150.799V46.5502H147.021Z" fill="#B130FF"/>
<path d="M130.329 43.2666L130.286 42.5757H133.629L133.689 42.9169C133.786 43.4684 134.153 43.8551 134.789 44.0768C135.426 44.2986 136.475 44.4095 137.937 44.4095C139.347 44.4095 140.339 44.2957 140.913 44.0683C141.493 43.8352 141.783 43.5168 141.783 43.1131C141.783 42.7719 141.482 42.516 140.879 42.3454C140.276 42.1749 138.926 41.9702 136.828 41.7314C134.474 41.4357 132.842 40.9723 131.932 40.3412C131.022 39.71 130.568 38.86 130.568 37.791C130.568 36.5515 131.145 35.5905 132.299 34.9082C133.453 34.2202 135.173 33.8762 137.459 33.8762C139.813 33.8762 141.59 34.1776 142.79 34.7803C143.989 35.3773 144.64 36.2842 144.743 37.501L144.777 37.9445H141.476L141.425 37.7313C141.357 37.3447 141.058 37.0234 140.529 36.7675C140.001 36.506 138.997 36.3752 137.519 36.3752C136.268 36.3752 135.389 36.4775 134.883 36.6822C134.383 36.8869 134.133 37.157 134.133 37.4925C134.133 37.7711 134.411 38.0042 134.969 38.1919C135.531 38.3795 136.899 38.5927 139.071 38.8315C141.368 39.1215 142.986 39.5167 143.924 40.0171C144.862 40.5174 145.331 41.3817 145.331 42.6098C145.331 43.9517 144.714 44.9866 143.48 45.7144C142.252 46.4422 140.43 46.8061 138.013 46.8061C135.591 46.8061 133.723 46.5161 132.41 45.9361C131.102 45.3562 130.408 44.4663 130.329 43.2666Z" fill="#B130FF"/>
<path d="M116.436 46.5502V34.1321H128.982V36.9722H119.915V39.0959H128.171V41.5181H119.915V43.8295H129.135V46.5502H116.436Z" fill="#B130FF"/>
<path d="M99.0195 46.5502V34.1321H102.747V38.5757H109.809V34.1321H113.536V46.5502H109.809V41.6887H102.747V46.5502H99.0195Z" fill="#B130FF"/>
<path d="M73.0654 40.1876V40.3241C73.0654 38.1975 73.9325 36.5913 75.6668 35.5052C77.401 34.4192 79.5474 33.8762 82.1061 33.8762C84.6591 33.8762 86.8084 34.4192 88.554 35.5052C90.2996 36.5913 91.1723 38.1975 91.1723 40.3241V40.1876C91.1723 42.3995 90.2996 44.0569 88.554 45.16C86.8084 46.2574 84.6591 46.8061 82.1061 46.8061C79.5531 46.8061 77.4067 46.2574 75.6668 45.16C73.9325 44.0569 73.0654 42.3995 73.0654 40.1876ZM76.9632 40.2388C76.9632 41.5864 77.4351 42.6013 78.379 43.2836C79.3285 43.9603 80.5766 44.3071 82.1232 44.3242C83.6584 44.3469 84.9007 44.0086 85.8503 43.3092C86.7998 42.6098 87.2746 41.5921 87.2746 40.2559V40.3241C87.2746 39.0504 86.7998 38.0924 85.8503 37.4498C84.9064 36.8016 83.664 36.4662 82.1232 36.4434C80.5652 36.4264 79.3143 36.7505 78.3704 37.4157C77.4322 38.081 76.9632 39.0476 76.9632 40.3156V40.2388Z" fill="#B130FF"/>
<path d="M57.2617 46.5502V34.1321H60.8695L67.7267 41.6631C67.812 41.7484 67.8802 41.8138 67.9314 41.8593C67.9883 41.9048 68.0366 41.9503 68.0764 41.9958H68.119C68.1077 41.8707 68.0991 41.7712 68.0935 41.6972C68.0935 41.6233 68.0935 41.5238 68.0935 41.3987V34.1321H71.2321V46.5502H67.7352L60.8098 38.9168C60.7188 38.8201 60.642 38.7462 60.5795 38.6951C60.5226 38.6382 60.4686 38.5757 60.4174 38.5074H60.3833C60.389 38.57 60.3918 38.6325 60.3918 38.6951C60.3975 38.7519 60.4004 38.8031 60.4004 38.8486L60.4174 46.5502H57.2617Z" fill="#B130FF"/>
</g>
<defs>
<filter id="filter0_dd_5372_11733" x="0" y="0" width="170.799" height="80" filterUnits="userSpaceOnUse" color-interpolation-filters="sRGB">
<feFlood flood-opacity="0" result="BackgroundImageFix"/>
<feColorMatrix in="SourceAlpha" type="matrix" values="0 0 0 0 0 0 0 0 0 0 0 0 0 0 0 0 0 0 127 0" result="hardAlpha"/>
<feOffset/>
<feGaussianBlur stdDeviation="10"/>
<feComposite in2="hardAlpha" operator="out"/>
<feColorMatrix type="matrix" values="0 0 0 0 0.694118 0 0 0 0 0.188235 0 0 0 0 1 0 0 0 0.54 0"/>
<feBlend mode="normal" in2="BackgroundImageFix" result="effect1_dropShadow_5372_11733"/>
<feColorMatrix in="SourceAlpha" type="matrix" values="0 0 0 0 0 0 0 0 0 0 0 0 0 0 0 0 0 0 127 0" result="hardAlpha"/>
<feOffset/>
<feGaussianBlur stdDeviation="4"/>
<feComposite in2="hardAlpha" operator="out"/>
<feColorMatrix type="matrix" values="0 0 0 0 0.897947 0 0 0 0 0.729167 0 0 0 0 1 0 0 0 0.19 0"/>
<feBlend mode="normal" in2="effect1_dropShadow_5372_11733" result="effect2_dropShadow_5372_11733"/>
<feBlend mode="normal" in="SourceGraphic" in2="effect2_dropShadow_5372_11733" result="shape"/>
</filter>
</defs>
</svg>
